<?xml version="1.0" encoding="utf-8"?>
<!-- Generator: Adobe Illustrator 22.0.0, SVG Export Plug-In . SVG Version: 6.00 Build 0)  -->
<svg version="1.1" id="Calque_1" xmlns="http://www.w3.org/2000/svg" xmlns:xlink="http://www.w3.org/1999/xlink" x="0px" y="0px"
	 viewBox="0 0 482.2 356.7" style="enable-background:new 0 0 482.2 356.7;" xml:space="preserve">
<style type="text/css">
	.st0{fill:#BDD9D7;stroke:#FFFFFF;stroke-width:3;stroke-miterlimit:10;}
	.st1{fill:#9BB5B3;stroke:#FFFFFF;stroke-width:3;stroke-miterlimit:10;}
	.st2{fill:#2E756F;}
	.st3{fill:#666666;}
	.st4{fill:#10101F;}
	.st5{fill:none;stroke:#10101F;stroke-miterlimit:10;}
	.st6{fill:#62B0AC;}
	.st7{fill:#FFFFFF;}
	.st8{fill:#2D2211;}
</style>
<g id="titre">
</g>
<g id="donnut_x5F_back">
	<g>
		<g>
			<g>
				<path class="st0" d="M234.3,170.5l-132.8,4.6C99,101.8,156.4,40.3,229.7,37.7c0.9,0,3.8-0.1,4.6-0.1V170.5z"/>
			</g>
		</g>
		<g>
			<g>
				<path class="st1" d="M234.3,170.5L112,222.4c-6.9-16.2-9.9-29.7-10.5-47.3L234.3,170.5z"/>
			</g>
		</g>
		<g>
			<g>
				<path class="st1" d="M234.3,170.5l-70.4,112.7c-24-15-40.9-34.8-51.9-60.8L234.3,170.5z"/>
			</g>
		</g>
		<g>
			<g>
				<path class="st1" d="M234.3,170.5V37.6c73.4,0,132.9,59.5,132.9,132.9s-59.5,132.9-132.9,132.9c-26.5,0-47.9-6.2-70.4-20.2
					L234.3,170.5z"/>
			</g>
		</g>
	</g>
</g>
<g id="donnut_x5F_leg_x5F_1">
	<g>
		<g>
			<g>
				<path class="st2" d="M421.1,221.5h-6v-4.6l4.2-18.1h6.6v18.3h1.6v4.3h-1.6v5.4h-4.8L421.1,221.5L421.1,221.5z M421.1,217.2v-4.5
					c0-2.8,0.1-4.7,0.2-8.1l-2.2,12.6H421.1z"/>
				<path class="st2" d="M433,223l-1.4,6.5h-2.2V223H433z"/>
				<path class="st2" d="M442.1,221.9v-7.2c-0.5,0.2-1.2,0.4-2,0.4c-3.2,0-4.6-1.8-4.6-4.8v-6.4c0-3.2,1.6-5.4,5.7-5.4
					s5.7,2.2,5.7,5.4v18c0,3.2-1.6,5.4-5.7,5.4s-5.7-2.2-5.7-5.4v-3.4h4.9v3.5c0,0.7,0.4,0.9,0.8,0.9
					C441.6,222.8,442.1,222.6,442.1,221.9z M442.1,203.8c0-0.5-0.3-0.9-0.8-0.9s-0.8,0.4-0.8,0.9v6.2c0,0.5,0.3,0.9,0.8,0.9
					s0.8-0.4,0.8-0.9V203.8z"/>
				<path class="st3" d="M387.2,239.2c0,0.8-0.1,1.4-0.4,2c-0.2,0.5-0.6,1-1,1.3l1.4,1.1l-0.7,0.6l-1.6-1.3
					c-0.3,0.1-0.5,0.1-0.8,0.1c-0.6,0-1.2-0.2-1.6-0.5s-0.8-0.7-1.1-1.3s-0.4-1.2-0.4-1.9v-0.6c0-0.8,0.1-1.4,0.4-2s0.6-1,1.1-1.3
					s1-0.5,1.6-0.5s1.2,0.2,1.7,0.5s0.8,0.7,1.1,1.3s0.4,1.2,0.4,2v0.5H387.2z M386.2,238.7c0-0.9-0.2-1.6-0.5-2.1
					c-0.4-0.5-0.9-0.7-1.6-0.7c-0.6,0-1.2,0.2-1.5,0.7c-0.4,0.5-0.6,1.2-0.6,2.1v0.6c0,0.9,0.2,1.6,0.6,2.1s0.9,0.8,1.6,0.8
					s1.2-0.2,1.5-0.7s0.6-1.2,0.6-2.1v-0.7H386.2z"/>
				<path class="st3" d="M392.3,242.3c-0.4,0.5-1,0.7-1.7,0.7c-0.6,0-1.1-0.2-1.4-0.5c-0.3-0.4-0.5-0.9-0.5-1.6V237h1v3.8
					c0,0.9,0.4,1.3,1.1,1.3c0.8,0,1.3-0.3,1.5-0.8V237h1v5.8h-0.9L392.3,242.3z"/>
				<path class="st3" d="M398.5,242.8c-0.1-0.1-0.1-0.3-0.1-0.6c-0.5,0.5-1,0.7-1.7,0.7c-0.6,0-1-0.2-1.4-0.5s-0.6-0.7-0.6-1.2
					c0-0.6,0.2-1.1,0.7-1.4c0.5-0.3,1.1-0.5,1.9-0.5h1v-0.5c0-0.3-0.1-0.6-0.3-0.8s-0.5-0.3-0.9-0.3s-0.7,0.1-0.9,0.3
					c-0.2,0.2-0.4,0.4-0.4,0.6h-1c0-0.3,0.1-0.6,0.3-0.8c0.2-0.3,0.5-0.5,0.8-0.6c0.4-0.2,0.7-0.2,1.2-0.2c0.7,0,1.2,0.2,1.6,0.5
					s0.6,0.8,0.6,1.4v2.7c0,0.5,0.1,1,0.2,1.3v0.1h-1V242.8z M396.9,242.1c0.3,0,0.6-0.1,0.9-0.2s0.5-0.4,0.6-0.6V240h-0.8
					c-1.2,0-1.8,0.4-1.8,1.1c0,0.3,0.1,0.6,0.3,0.7C396.3,242,396.5,242.1,396.9,242.1z"/>
				<path class="st3" d="M402,237v0.7c0.4-0.6,1-0.8,1.7-0.8c1.2,0,1.8,0.7,1.9,2.1v3.8h-1V239c0-0.4-0.1-0.7-0.3-0.9
					c-0.2-0.2-0.5-0.3-0.9-0.3c-0.3,0-0.6,0.1-0.8,0.3c-0.2,0.2-0.4,0.4-0.6,0.7v4.1h-1V237H402z"/>
				<path class="st3" d="M408.5,235.6v1.4h1.1v0.8h-1.1v3.6c0,0.2,0,0.4,0.1,0.5s0.3,0.2,0.5,0.2c0.1,0,0.3,0,0.5-0.1v0.8
					c-0.3,0.1-0.5,0.1-0.8,0.1c-0.4,0-0.8-0.1-1-0.4c-0.2-0.3-0.3-0.7-0.3-1.1v-3.6h-1.1V237h1.1v-1.4H408.5z"/>
				<path class="st3" d="M410.9,235.5c0-0.2,0-0.3,0.1-0.4c0.1-0.1,0.2-0.2,0.4-0.2s0.3,0.1,0.4,0.2c0.1,0.1,0.2,0.2,0.2,0.4
					s-0.1,0.3-0.2,0.4c-0.1,0.1-0.2,0.2-0.4,0.2s-0.3-0.1-0.4-0.2C411,235.8,410.9,235.6,410.9,235.5z M412,242.8h-1V237h1V242.8z"
					/>
				<path class="st3" d="M415,235.6v1.4h1.1v0.8H415v3.6c0,0.2,0,0.4,0.1,0.5s0.3,0.2,0.5,0.2c0.1,0,0.3,0,0.5-0.1v0.8
					c-0.3,0.1-0.5,0.1-0.8,0.1c-0.4,0-0.8-0.1-1-0.4c-0.2-0.3-0.3-0.7-0.3-1.1v-3.6h-1V237h1.1v-1.4H415z"/>
				<path class="st3" d="M419.8,242.9c-0.8,0-1.4-0.3-1.9-0.8s-0.7-1.2-0.7-2.1v-0.2c0-0.6,0.1-1.1,0.3-1.5c0.2-0.5,0.5-0.8,0.9-1.1
					s0.8-0.4,1.3-0.4c0.8,0,1.3,0.2,1.8,0.7c0.4,0.5,0.6,1.2,0.6,2.1v0.4h-3.9c0,0.6,0.2,1,0.5,1.4s0.7,0.5,1.2,0.5
					c0.4,0,0.6-0.1,0.9-0.2c0.2-0.1,0.5-0.3,0.6-0.6l0.6,0.5C421.5,242.6,420.8,242.9,419.8,242.9z M419.7,237.7
					c-0.4,0-0.7,0.1-1,0.4s-0.4,0.7-0.5,1.2h2.9v-0.1c0-0.5-0.2-0.9-0.4-1.2S420.1,237.7,419.7,237.7z M420.2,234.6h1.2l-1.4,1.6
					h-0.8L420.2,234.6z"/>
				<path class="st3" d="M429.7,242.8c-0.1-0.1-0.1-0.3-0.1-0.6c-0.5,0.5-1,0.7-1.7,0.7c-0.6,0-1-0.2-1.4-0.5s-0.5-0.7-0.5-1.2
					c0-0.6,0.2-1.1,0.7-1.4c0.5-0.3,1.1-0.5,1.9-0.5h1v-0.5c0-0.3-0.1-0.6-0.3-0.8s-0.5-0.3-0.9-0.3s-0.7,0.1-0.9,0.3
					c-0.2,0.2-0.4,0.4-0.4,0.6h-1c0-0.3,0.1-0.6,0.3-0.8c0.2-0.3,0.5-0.5,0.8-0.6c0.4-0.2,0.7-0.2,1.2-0.2c0.7,0,1.2,0.2,1.6,0.5
					s0.6,0.8,0.6,1.4v2.7c0,0.5,0.1,1,0.2,1.3v0.1h-1.1V242.8z M428.1,242.1c0.3,0,0.6-0.1,0.9-0.2s0.5-0.4,0.6-0.6V240h-0.8
					c-1.2,0-1.8,0.4-1.8,1.1c0,0.3,0.1,0.6,0.3,0.7C427.5,242,427.8,242.1,428.1,242.1z"/>
				<path class="st3" d="M434.6,242.1c0.4,0,0.7-0.1,0.9-0.3c0.3-0.2,0.4-0.5,0.4-0.8h0.9c0,0.3-0.1,0.7-0.3,1s-0.5,0.5-0.8,0.7
					s-0.7,0.3-1.1,0.3c-0.8,0-1.4-0.3-1.9-0.8s-0.7-1.3-0.7-2.2v-0.2c0-0.6,0.1-1.1,0.3-1.5c0.2-0.4,0.5-0.8,0.9-1s0.8-0.4,1.4-0.4
					c0.7,0,1.2,0.2,1.6,0.6c0.4,0.4,0.7,0.9,0.7,1.5H436c0-0.4-0.2-0.7-0.4-0.9c-0.3-0.2-0.6-0.4-0.9-0.4c-0.5,0-0.9,0.2-1.2,0.5
					c-0.3,0.4-0.4,0.9-0.4,1.6v0.2c0,0.7,0.1,1.2,0.4,1.5S434.1,242.1,434.6,242.1z"/>
				<path class="st3" d="M440.4,242.1c0.4,0,0.7-0.1,0.9-0.3s0.4-0.5,0.4-0.8h0.9c0,0.3-0.1,0.7-0.3,1c-0.2,0.3-0.5,0.5-0.8,0.7
					c-0.4,0.2-0.7,0.3-1.1,0.3c-0.8,0-1.4-0.3-1.9-0.8s-0.7-1.3-0.7-2.2v-0.2c0-0.6,0.1-1.1,0.3-1.5c0.2-0.4,0.5-0.8,0.9-1
					s0.8-0.4,1.4-0.4c0.7,0,1.2,0.2,1.6,0.6c0.4,0.4,0.7,0.9,0.7,1.5h-0.9c0-0.4-0.2-0.7-0.4-0.9c-0.3-0.2-0.6-0.4-0.9-0.4
					c-0.5,0-0.9,0.2-1.2,0.5c-0.3,0.4-0.4,0.9-0.4,1.6v0.2c0,0.7,0.1,1.2,0.4,1.5C439.5,242,439.9,242.1,440.4,242.1z"/>
				<path class="st3" d="M447.6,242.3c-0.4,0.5-1,0.7-1.7,0.7c-0.6,0-1.1-0.2-1.4-0.5c-0.3-0.4-0.5-0.9-0.5-1.6V237h1v3.8
					c0,0.9,0.4,1.3,1.1,1.3c0.8,0,1.3-0.3,1.5-0.8V237h1v5.8h-0.9L447.6,242.3z"/>
				<path class="st3" d="M451.1,237v0.6c0.4-0.5,1-0.8,1.7-0.8c0.8,0,1.4,0.3,1.7,0.9c0.2-0.3,0.4-0.5,0.8-0.7
					c0.3-0.2,0.7-0.3,1.1-0.3c1.3,0,1.9,0.7,1.9,2v3.9h-1V239c0-0.4-0.1-0.7-0.3-0.9c-0.2-0.2-0.5-0.3-1-0.3c-0.4,0-0.7,0.1-0.9,0.3
					c-0.2,0.2-0.4,0.5-0.4,0.9v3.9h-1V239c0-0.8-0.4-1.3-1.2-1.3c-0.7,0-1.1,0.3-1.3,0.8v4.2h-1V237H451.1z"/>
				<path class="st3" d="M463.5,242.3c-0.4,0.5-1,0.7-1.7,0.7c-0.6,0-1.1-0.2-1.4-0.5c-0.3-0.4-0.5-0.9-0.5-1.6V237h1v3.8
					c0,0.9,0.4,1.3,1.1,1.3c0.8,0,1.3-0.3,1.5-0.8V237h1v5.8h-0.9L463.5,242.3z"/>
				<path class="st3" d="M467.2,242.8h-1v-8.2h1V242.8z"/>
				<path class="st3" d="M471.3,242.9c-0.8,0-1.4-0.3-1.9-0.8s-0.7-1.2-0.7-2.1v-0.2c0-0.6,0.1-1.1,0.3-1.5c0.2-0.5,0.5-0.8,0.9-1.1
					s0.8-0.4,1.3-0.4c0.8,0,1.3,0.2,1.8,0.7c0.4,0.5,0.6,1.2,0.6,2.1v0.4h-3.9c0,0.6,0.2,1,0.5,1.4s0.7,0.5,1.2,0.5
					c0.4,0,0.6-0.1,0.9-0.2c0.2-0.1,0.5-0.3,0.6-0.6l0.6,0.5C473,242.6,472.2,242.9,471.3,242.9z M471.2,237.7c-0.4,0-0.7,0.1-1,0.4
					c-0.3,0.3-0.4,0.7-0.5,1.2h2.9v-0.1c0-0.5-0.2-0.9-0.4-1.2C471.9,237.9,471.6,237.7,471.2,237.7z M471.6,234.6h1.2l-1.4,1.6
					h-0.8L471.6,234.6z"/>
				<path class="st3" d="M477.2,242.9c-0.8,0-1.4-0.3-1.9-0.8s-0.7-1.2-0.7-2.1v-0.2c0-0.6,0.1-1.1,0.3-1.5c0.2-0.5,0.5-0.8,0.9-1.1
					s0.8-0.4,1.3-0.4c0.8,0,1.3,0.2,1.8,0.7c0.4,0.5,0.6,1.2,0.6,2.1v0.4h-3.9c0,0.6,0.2,1,0.5,1.4s0.7,0.5,1.2,0.5
					c0.4,0,0.6-0.1,0.9-0.2c0.2-0.1,0.5-0.3,0.6-0.6l0.6,0.5C478.9,242.6,478.2,242.9,477.2,242.9z M477.1,237.7
					c-0.4,0-0.7,0.1-1,0.4s-0.4,0.7-0.5,1.2h2.9v-0.1c0-0.5-0.2-0.9-0.4-1.2S477.5,237.7,477.1,237.7z"/>
				<path class="st3" d="M382.3,254.9c0-0.9,0.2-1.6,0.6-2.2c0.4-0.5,1-0.8,1.7-0.8s1.2,0.2,1.6,0.7v-3h1v8.2h-0.9v-0.6
					c-0.4,0.5-1,0.7-1.7,0.7s-1.2-0.3-1.6-0.8C382.5,256.6,382.3,255.8,382.3,254.9L382.3,254.9z M383.3,255c0,0.7,0.1,1.2,0.4,1.5
					c0.3,0.4,0.6,0.6,1.1,0.6c0.6,0,1.1-0.3,1.4-0.8v-2.7c-0.3-0.5-0.8-0.8-1.4-0.8c-0.5,0-0.9,0.2-1.1,0.6S383.3,254.3,383.3,255z"
					/>
				<path class="st3" d="M392.4,257.8c-0.1-0.1-0.1-0.3-0.1-0.6c-0.5,0.5-1,0.7-1.7,0.7c-0.6,0-1-0.2-1.4-0.5s-0.6-0.7-0.6-1.2
					c0-0.6,0.2-1.1,0.7-1.4s1.1-0.5,1.9-0.5h1v-0.5c0-0.3-0.1-0.6-0.3-0.8c-0.2-0.2-0.5-0.3-0.9-0.3s-0.7,0.1-0.9,0.3
					c-0.2,0.2-0.4,0.4-0.4,0.6h-1c0-0.3,0.1-0.6,0.3-0.8c0.2-0.3,0.5-0.5,0.8-0.6c0.4-0.2,0.7-0.2,1.2-0.2c0.7,0,1.2,0.2,1.6,0.5
					s0.6,0.8,0.6,1.4v2.7c0,0.5,0.1,1,0.2,1.3v0.1h-1V257.8z M390.8,257.1c0.3,0,0.6-0.1,0.9-0.2s0.5-0.4,0.6-0.6V255h-0.8
					c-1.2,0-1.8,0.4-1.8,1.1c0,0.3,0.1,0.6,0.3,0.7S390.5,257.1,390.8,257.1z"/>
				<path class="st3" d="M395.9,252v0.7c0.4-0.6,1-0.8,1.7-0.8c1.2,0,1.8,0.7,1.9,2.1v3.8h-1V254c0-0.4-0.1-0.7-0.3-0.9
					c-0.2-0.2-0.5-0.3-0.9-0.3c-0.3,0-0.6,0.1-0.8,0.3c-0.2,0.2-0.4,0.4-0.6,0.7v4.1h-1V252H395.9z"/>
				<path class="st3" d="M404.5,256.3c0-0.3-0.1-0.5-0.3-0.6c-0.2-0.1-0.6-0.3-1.1-0.4c-0.5-0.1-0.9-0.2-1.2-0.4
					c-0.3-0.2-0.5-0.3-0.7-0.5c-0.1-0.2-0.2-0.5-0.2-0.7c0-0.5,0.2-0.9,0.6-1.2s0.9-0.5,1.5-0.5c0.7,0,1.2,0.2,1.6,0.5
					s0.6,0.8,0.6,1.3h-1c0-0.3-0.1-0.5-0.3-0.7c-0.2-0.2-0.5-0.3-0.9-0.3s-0.6,0.1-0.8,0.2c-0.2,0.2-0.3,0.4-0.3,0.6
					c0,0.2,0.1,0.4,0.3,0.5c0.2,0.1,0.5,0.2,1,0.3s0.9,0.2,1.2,0.4c0.3,0.2,0.5,0.3,0.7,0.6c0.1,0.2,0.2,0.5,0.2,0.8
					c0,0.5-0.2,0.9-0.6,1.2s-1,0.5-1.6,0.5c-0.5,0-0.9-0.1-1.2-0.2c-0.4-0.2-0.6-0.4-0.8-0.7c-0.2-0.3-0.3-0.6-0.3-1h1
					c0,0.3,0.2,0.6,0.4,0.8c0.2,0.2,0.6,0.3,1,0.3s0.7-0.1,0.9-0.2C404.4,256.8,404.5,256.5,404.5,256.3z"/>
				<path class="st3" d="M410.8,257.8h-1v-8.2h1V257.8z"/>
				<path class="st3" d="M414.9,257.9c-0.8,0-1.4-0.3-1.9-0.8s-0.7-1.2-0.7-2.1v-0.2c0-0.6,0.1-1.1,0.3-1.5s0.5-0.8,0.9-1.1
					s0.8-0.4,1.3-0.4c0.8,0,1.3,0.2,1.8,0.7c0.4,0.5,0.6,1.2,0.6,2.1v0.4h-3.9c0,0.6,0.2,1,0.5,1.4s0.7,0.5,1.2,0.5
					c0.4,0,0.6-0.1,0.9-0.2c0.2-0.1,0.5-0.3,0.6-0.6l0.6,0.5C416.6,257.6,415.9,257.9,414.9,257.9z M414.8,252.7
					c-0.4,0-0.7,0.1-1,0.4c-0.3,0.3-0.4,0.7-0.5,1.2h2.9v-0.1c0-0.5-0.2-0.9-0.4-1.2C415.6,252.9,415.2,252.7,414.8,252.7z"/>
				<path class="st3" d="M421.8,256.3c0-0.3-0.1-0.5-0.3-0.6c-0.2-0.1-0.6-0.3-1.1-0.4c-0.5-0.1-0.9-0.2-1.2-0.4
					c-0.3-0.2-0.5-0.3-0.7-0.5c-0.1-0.2-0.2-0.5-0.2-0.7c0-0.5,0.2-0.9,0.6-1.2s0.9-0.5,1.5-0.5c0.7,0,1.2,0.2,1.6,0.5
					s0.6,0.8,0.6,1.3h-1c0-0.3-0.1-0.5-0.3-0.7c-0.2-0.2-0.5-0.3-0.9-0.3s-0.6,0.1-0.8,0.2c-0.2,0.2-0.3,0.4-0.3,0.6
					c0,0.2,0.1,0.4,0.3,0.5c0.2,0.1,0.5,0.2,1,0.3s0.9,0.2,1.2,0.4c0.3,0.2,0.5,0.3,0.7,0.6c0.1,0.2,0.2,0.5,0.2,0.8
					c0,0.5-0.2,0.9-0.6,1.2s-1,0.5-1.6,0.5c-0.5,0-0.9-0.1-1.2-0.2c-0.4-0.2-0.6-0.4-0.8-0.7c-0.2-0.3-0.3-0.6-0.3-1h1
					c0,0.3,0.2,0.6,0.4,0.8c0.2,0.2,0.6,0.3,1,0.3s0.7-0.1,0.9-0.2C421.7,256.8,421.8,256.5,421.8,256.3z"/>
				<path class="st3" d="M426.8,254.9c0-0.9,0.2-1.6,0.6-2.2c0.4-0.5,1-0.8,1.7-0.8s1.2,0.2,1.6,0.7v-3h1v8.2h-0.9v-0.6
					c-0.4,0.5-1,0.7-1.7,0.7s-1.2-0.3-1.6-0.8C427,256.6,426.8,255.8,426.8,254.9L426.8,254.9z M427.8,255c0,0.7,0.1,1.2,0.4,1.5
					c0.3,0.4,0.6,0.6,1.1,0.6c0.6,0,1.1-0.3,1.4-0.8v-2.7c-0.3-0.5-0.8-0.8-1.4-0.8c-0.5,0-0.9,0.2-1.1,0.6
					C428,253.7,427.8,254.3,427.8,255z"/>
				<path class="st3" d="M435.8,257.9c-0.8,0-1.4-0.3-1.9-0.8s-0.7-1.2-0.7-2.1v-0.2c0-0.6,0.1-1.1,0.3-1.5c0.2-0.5,0.5-0.8,0.9-1.1
					s0.8-0.4,1.3-0.4c0.8,0,1.3,0.2,1.8,0.7c0.4,0.5,0.6,1.2,0.6,2.1v0.4h-3.9c0,0.6,0.2,1,0.5,1.4s0.7,0.5,1.2,0.5
					c0.4,0,0.6-0.1,0.9-0.2c0.2-0.1,0.5-0.3,0.6-0.6l0.6,0.5C437.5,257.6,436.8,257.9,435.8,257.9z M435.7,252.7
					c-0.4,0-0.7,0.1-1,0.4c-0.3,0.3-0.4,0.7-0.5,1.2h2.9v-0.1c0-0.5-0.2-0.9-0.4-1.2C436.4,252.9,436.1,252.7,435.7,252.7z
					 M436.2,249.6h1.2l-1.4,1.6h-0.8L436.2,249.6z"/>
				<path class="st3" d="M441.7,257.1c0.4,0,0.7-0.1,0.9-0.3s0.4-0.5,0.4-0.8h0.9c0,0.3-0.1,0.7-0.3,1c-0.2,0.3-0.5,0.5-0.8,0.7
					c-0.4,0.2-0.7,0.3-1.1,0.3c-0.8,0-1.4-0.3-1.9-0.8s-0.7-1.3-0.7-2.2v-0.2c0-0.6,0.1-1.1,0.3-1.5c0.2-0.4,0.5-0.8,0.9-1
					s0.8-0.4,1.4-0.4c0.7,0,1.2,0.2,1.6,0.6c0.4,0.4,0.7,0.9,0.7,1.5h-1c0-0.4-0.2-0.7-0.4-0.9c-0.3-0.2-0.6-0.4-0.9-0.4
					c-0.5,0-0.9,0.2-1.2,0.5c-0.3,0.4-0.4,0.9-0.4,1.6v0.2c0,0.7,0.1,1.2,0.4,1.5C440.7,257,441.1,257.1,441.7,257.1z"/>
				<path class="st3" d="M446.2,252.7c0.4-0.5,1-0.8,1.7-0.8c1.2,0,1.8,0.7,1.9,2.1v3.8h-1V254c0-0.4-0.1-0.7-0.3-0.9
					c-0.2-0.2-0.5-0.3-0.9-0.3c-0.3,0-0.6,0.1-0.8,0.3c-0.2,0.2-0.4,0.4-0.6,0.7v4.1h-1v-8.2h1L446.2,252.7L446.2,252.7z"/>
				<path class="st3" d="M454.9,257.8c-0.1-0.1-0.1-0.3-0.1-0.6c-0.5,0.5-1,0.7-1.7,0.7c-0.6,0-1-0.2-1.4-0.5s-0.6-0.7-0.6-1.2
					c0-0.6,0.2-1.1,0.7-1.4s1.1-0.5,1.9-0.5h1v-0.5c0-0.3-0.1-0.6-0.3-0.8c-0.2-0.2-0.5-0.3-0.9-0.3s-0.7,0.1-0.9,0.3
					c-0.2,0.2-0.4,0.4-0.4,0.6h-1c0-0.3,0.1-0.6,0.3-0.8c0.2-0.3,0.5-0.5,0.8-0.6c0.4-0.2,0.7-0.2,1.2-0.2c0.7,0,1.2,0.2,1.6,0.5
					s0.6,0.8,0.6,1.4v2.7c0,0.5,0.1,1,0.2,1.3v0.1h-1V257.8z M453.3,257.1c0.3,0,0.6-0.1,0.9-0.2s0.5-0.4,0.6-0.6V255H454
					c-1.2,0-1.8,0.4-1.8,1.1c0,0.3,0.1,0.6,0.3,0.7S453,257.1,453.3,257.1z"/>
				<path class="st3" d="M460.3,252.9c-0.2,0-0.3,0-0.5,0c-0.7,0-1.1,0.3-1.3,0.8v4.1h-1V252h1v0.7c0.3-0.5,0.8-0.8,1.4-0.8
					c0.2,0,0.3,0,0.4,0.1V252.9z"/>
				<path class="st3" d="M461,254.9c0-0.9,0.2-1.6,0.6-2.2s1-0.8,1.7-0.8s1.3,0.3,1.7,0.8v-0.6h0.9v5.7c0,0.8-0.2,1.3-0.7,1.8
					c-0.4,0.4-1,0.6-1.8,0.6c-0.4,0-0.8-0.1-1.2-0.3c-0.4-0.2-0.7-0.4-0.9-0.7l0.5-0.6c0.4,0.5,0.9,0.8,1.6,0.8
					c0.5,0,0.9-0.1,1.1-0.4c0.3-0.3,0.4-0.7,0.4-1.1v-0.5c-0.4,0.5-0.9,0.7-1.6,0.7s-1.2-0.3-1.7-0.8
					C461.3,256.6,461,255.8,461,254.9z M462,255c0,0.7,0.1,1.2,0.4,1.5s0.6,0.6,1.1,0.6c0.6,0,1.1-0.3,1.4-0.9v-2.7
					c-0.3-0.6-0.8-0.8-1.4-0.8c-0.5,0-0.9,0.2-1.1,0.6C462.2,253.7,462,254.3,462,255z"/>
				<path class="st3" d="M470,257.9c-0.8,0-1.4-0.3-1.9-0.8s-0.7-1.2-0.7-2.1v-0.2c0-0.6,0.1-1.1,0.3-1.5s0.5-0.8,0.9-1.1
					s0.8-0.4,1.3-0.4c0.8,0,1.3,0.2,1.8,0.7c0.4,0.5,0.6,1.2,0.6,2.1v0.4h-3.9c0,0.6,0.2,1,0.5,1.4s0.7,0.5,1.2,0.5
					c0.4,0,0.6-0.1,0.9-0.2c0.2-0.1,0.5-0.3,0.6-0.6l0.6,0.5C471.7,257.6,471,257.9,470,257.9z M469.9,252.7c-0.4,0-0.7,0.1-1,0.4
					c-0.3,0.3-0.4,0.7-0.5,1.2h2.9v-0.1c0-0.5-0.2-0.9-0.4-1.2C470.6,252.9,470.3,252.7,469.9,252.7z"/>
				<path class="st3" d="M476.9,256.3c0-0.3-0.1-0.5-0.3-0.6s-0.6-0.3-1.1-0.4c-0.5-0.1-0.9-0.2-1.2-0.4c-0.3-0.2-0.5-0.3-0.7-0.5
					c-0.1-0.2-0.2-0.5-0.2-0.7c0-0.5,0.2-0.9,0.6-1.2s0.9-0.5,1.5-0.5c0.7,0,1.2,0.2,1.6,0.5s0.6,0.8,0.6,1.3h-1
					c0-0.3-0.1-0.5-0.3-0.7c-0.2-0.2-0.5-0.3-0.9-0.3s-0.6,0.1-0.8,0.2s-0.3,0.4-0.3,0.6c0,0.2,0.1,0.4,0.3,0.5s0.5,0.2,1,0.3
					s0.9,0.2,1.2,0.4c0.3,0.2,0.5,0.3,0.7,0.6c0.1,0.2,0.2,0.5,0.2,0.8c0,0.5-0.2,0.9-0.6,1.2c-0.4,0.3-1,0.5-1.6,0.5
					c-0.5,0-0.9-0.1-1.2-0.2s-0.6-0.4-0.8-0.7c-0.2-0.3-0.3-0.6-0.3-1h1c0,0.3,0.2,0.6,0.4,0.8s0.6,0.3,1,0.3s0.7-0.1,0.9-0.2
					S476.9,256.5,476.9,256.3z"/>
				<path class="st3" d="M389,269.9c0-0.6,0.1-1.1,0.3-1.5c0.2-0.5,0.5-0.8,0.9-1.1c0.4-0.2,0.9-0.4,1.4-0.4c0.8,0,1.4,0.3,1.9,0.8
					s0.7,1.3,0.7,2.2v0.1c0,0.6-0.1,1.1-0.3,1.5c-0.2,0.4-0.5,0.8-0.9,1c-0.4,0.3-0.9,0.4-1.4,0.4c-0.8,0-1.4-0.3-1.9-0.8
					S389,270.8,389,269.9L389,269.9z M390,270c0,0.6,0.1,1.2,0.4,1.6s0.7,0.6,1.2,0.6s0.9-0.2,1.2-0.6s0.4-1,0.4-1.7
					c0-0.6-0.2-1.2-0.5-1.5s-0.7-0.6-1.2-0.6s-0.9,0.2-1.2,0.6C390.1,268.7,390,269.3,390,270z"/>
				<path class="st3" d="M399.2,272.3c-0.4,0.5-1,0.7-1.7,0.7c-0.6,0-1.1-0.2-1.4-0.5c-0.3-0.4-0.5-0.9-0.5-1.6V267h1v3.8
					c0,0.9,0.4,1.3,1.1,1.3c0.8,0,1.3-0.3,1.5-0.8V267h1v5.8h-0.9L399.2,272.3z"/>
				<path class="st3" d="M404.4,269.9c0-0.9,0.2-1.6,0.6-2.2c0.4-0.5,1-0.8,1.7-0.8s1.2,0.2,1.6,0.7v-3h1v8.2h-0.9v-0.6
					c-0.4,0.5-1,0.7-1.7,0.7s-1.2-0.3-1.6-0.8C404.6,271.6,404.4,270.8,404.4,269.9L404.4,269.9z M405.4,270c0,0.7,0.1,1.2,0.4,1.5
					c0.3,0.4,0.6,0.6,1.1,0.6c0.6,0,1.1-0.3,1.4-0.8v-2.7c-0.3-0.5-0.8-0.8-1.4-0.8c-0.5,0-0.9,0.2-1.1,0.6S405.4,269.3,405.4,270z"
					/>
				<path class="st3" d="M414.5,272.8c-0.1-0.1-0.1-0.3-0.1-0.6c-0.5,0.5-1,0.7-1.7,0.7c-0.6,0-1-0.2-1.4-0.5s-0.6-0.7-0.6-1.2
					c0-0.6,0.2-1.1,0.7-1.4s1.1-0.5,1.9-0.5h1v-0.5c0-0.3-0.1-0.6-0.3-0.8c-0.2-0.2-0.5-0.3-0.9-0.3s-0.7,0.1-0.9,0.3
					c-0.2,0.2-0.4,0.4-0.4,0.6h-1c0-0.3,0.1-0.6,0.3-0.8c0.2-0.3,0.5-0.5,0.8-0.6c0.4-0.2,0.7-0.2,1.2-0.2c0.7,0,1.2,0.2,1.6,0.5
					s0.6,0.8,0.6,1.4v2.7c0,0.5,0.1,1,0.2,1.3v0.1h-1V272.8z M412.9,272.1c0.3,0,0.6-0.1,0.9-0.2s0.5-0.4,0.6-0.6V270h-0.8
					c-1.2,0-1.8,0.4-1.8,1.1c0,0.3,0.1,0.6,0.3,0.7S412.5,272.1,412.9,272.1z"/>
				<path class="st3" d="M418,267v0.7c0.4-0.6,1-0.8,1.7-0.8c1.2,0,1.8,0.7,1.9,2.1v3.8h-1V269c0-0.4-0.1-0.7-0.3-0.9
					c-0.2-0.2-0.5-0.3-0.9-0.3c-0.3,0-0.6,0.1-0.8,0.3s-0.4,0.4-0.6,0.7v4.1h-1V267H418z"/>
				<path class="st3" d="M426.6,271.3c0-0.3-0.1-0.5-0.3-0.6c-0.2-0.1-0.6-0.3-1.1-0.4s-0.9-0.2-1.2-0.4c-0.3-0.2-0.5-0.3-0.7-0.5
					c-0.1-0.2-0.2-0.5-0.2-0.7c0-0.5,0.2-0.9,0.6-1.2c0.4-0.3,0.9-0.5,1.5-0.5c0.7,0,1.2,0.2,1.6,0.5s0.6,0.8,0.6,1.3h-1
					c0-0.3-0.1-0.5-0.3-0.7c-0.2-0.2-0.5-0.3-0.9-0.3s-0.6,0.1-0.8,0.2c-0.2,0.2-0.3,0.4-0.3,0.6s0.1,0.4,0.3,0.5
					c0.2,0.1,0.5,0.2,1,0.3c0.5,0.1,0.9,0.2,1.2,0.4c0.3,0.2,0.5,0.3,0.7,0.6c0.1,0.2,0.2,0.5,0.2,0.8c0,0.5-0.2,0.9-0.6,1.2
					s-1,0.5-1.6,0.5c-0.5,0-0.9-0.1-1.2-0.2c-0.4-0.2-0.6-0.4-0.8-0.7c-0.2-0.3-0.3-0.6-0.3-1h1c0,0.3,0.2,0.6,0.4,0.8
					c0.2,0.2,0.6,0.3,1,0.3s0.7-0.1,0.9-0.2C426.5,271.8,426.6,271.5,426.6,271.3z"/>
				<path class="st3" d="M432.9,272.8h-1v-8.2h1V272.8z"/>
				<path class="st3" d="M438.2,272.8c-0.1-0.1-0.1-0.3-0.1-0.6c-0.5,0.5-1,0.7-1.7,0.7c-0.6,0-1-0.2-1.4-0.5s-0.6-0.7-0.6-1.2
					c0-0.6,0.2-1.1,0.7-1.4s1.1-0.5,1.9-0.5h1v-0.5c0-0.3-0.1-0.6-0.3-0.8s-0.5-0.3-0.9-0.3s-0.7,0.1-0.9,0.3
					c-0.2,0.2-0.4,0.4-0.4,0.6h-1c0-0.3,0.1-0.6,0.3-0.8c0.2-0.3,0.5-0.5,0.8-0.6c0.4-0.2,0.7-0.2,1.2-0.2c0.7,0,1.2,0.2,1.6,0.5
					s0.6,0.8,0.6,1.4v2.7c0,0.5,0.1,1,0.2,1.3v0.1h-1V272.8z M436.5,272.1c0.3,0,0.6-0.1,0.9-0.2s0.5-0.4,0.6-0.6V270h-0.8
					c-1.2,0-1.8,0.4-1.8,1.1c0,0.3,0.1,0.6,0.3,0.7C435.9,272,436.2,272.1,436.5,272.1z"/>
				<path class="st3" d="M444.5,267v0.7c0.4-0.6,1-0.8,1.7-0.8c1.2,0,1.8,0.7,1.9,2.1v3.8h-1V269c0-0.4-0.1-0.7-0.3-0.9
					c-0.2-0.2-0.5-0.3-0.9-0.3c-0.3,0-0.6,0.1-0.8,0.3c-0.2,0.2-0.4,0.4-0.6,0.7v4.1h-1V267H444.5z"/>
				<path class="st3" d="M453.3,272.8c-0.1-0.1-0.1-0.3-0.1-0.6c-0.5,0.5-1,0.7-1.7,0.7c-0.6,0-1-0.2-1.4-0.5s-0.6-0.7-0.6-1.2
					c0-0.6,0.2-1.1,0.7-1.4s1.1-0.5,1.9-0.5h1v-0.5c0-0.3-0.1-0.6-0.3-0.8s-0.5-0.3-0.9-0.3s-0.7,0.1-0.9,0.3
					c-0.2,0.2-0.4,0.4-0.4,0.6h-1c0-0.3,0.1-0.6,0.3-0.8c0.2-0.3,0.5-0.5,0.8-0.6c0.4-0.2,0.7-0.2,1.2-0.2c0.7,0,1.2,0.2,1.6,0.5
					s0.6,0.8,0.6,1.4v2.7c0,0.5,0.1,1,0.2,1.3v0.1h-1V272.8z M451.6,272.1c0.3,0,0.6-0.1,0.9-0.2s0.5-0.4,0.6-0.6V270h-0.8
					c-1.2,0-1.8,0.4-1.8,1.1c0,0.3,0.1,0.6,0.3,0.7C451,272,451.3,272.1,451.6,272.1z"/>
				<path class="st3" d="M457.1,265.6v1.4h1.1v0.8h-1.1v3.6c0,0.2,0,0.4,0.1,0.5s0.3,0.2,0.5,0.2c0.1,0,0.3,0,0.5-0.1v0.8
					c-0.3,0.1-0.5,0.1-0.8,0.1c-0.4,0-0.8-0.1-1-0.4s-0.3-0.7-0.3-1.1v-3.6H455V267h1.1v-1.4H457.1z"/>
				<path class="st3" d="M463.1,272.3c-0.4,0.5-1,0.7-1.7,0.7c-0.6,0-1.1-0.2-1.4-0.5c-0.3-0.4-0.5-0.9-0.5-1.6V267h1v3.8
					c0,0.9,0.4,1.3,1.1,1.3c0.8,0,1.3-0.3,1.5-0.8V267h1v5.8h-0.9L463.1,272.3z"/>
				<path class="st3" d="M468.5,267.9c-0.2,0-0.3,0-0.5,0c-0.7,0-1.1,0.3-1.3,0.8v4.1h-1V267h1v0.7c0.3-0.5,0.8-0.8,1.4-0.8
					c0.2,0,0.3,0,0.4,0.1V267.9z"/>
				<path class="st3" d="M471.9,272.9c-0.8,0-1.4-0.3-1.9-0.8s-0.7-1.2-0.7-2.1v-0.2c0-0.6,0.1-1.1,0.3-1.5s0.5-0.8,0.9-1.1
					c0.4-0.3,0.8-0.4,1.3-0.4c0.8,0,1.3,0.2,1.8,0.7c0.4,0.5,0.6,1.2,0.6,2.1v0.4h-3.9c0,0.6,0.2,1,0.5,1.4s0.7,0.5,1.2,0.5
					c0.4,0,0.6-0.1,0.9-0.2c0.2-0.1,0.5-0.3,0.6-0.6l0.6,0.5C473.6,272.6,472.9,272.9,471.9,272.9z M471.8,267.7
					c-0.4,0-0.7,0.1-1,0.4s-0.4,0.7-0.5,1.2h2.9v-0.1c0-0.5-0.2-0.9-0.4-1.2C472.5,267.9,472.2,267.7,471.8,267.7z"/>
			</g>
		</g>
		<g>
			<path class="st4" d="M442.5,163.5c2.9,2.9,4.5,6.8,4.5,11c0,4.1-1.6,8-4.5,11c-2.9,2.9-6.8,4.5-11,4.5c-4.1,0-8-1.6-11-4.5
				c-2.9-2.9-4.5-6.8-4.5-11c0-4.1,1.6-8,4.5-11c2.9-2.9,6.8-4.5,11-4.5S439.6,160.6,442.5,163.5z M441.2,184.1
				c1.9-1.9,3.2-4.3,3.7-6.9c-0.4,0.6-0.8,0.8-1-0.5c-0.2-2.2-2.3-0.8-3.5-1.6c-1.3,0.9-4.3-1.7-3.8,1.2c0.8,1.3,4.2-1.8,2.5,1
				c-1.1,2-4,6.4-3.6,8.7c0,3.3-3.4,0.7-4.6-0.4c-0.8-2.2-0.3-6.1-2.4-7.1c-2.3-0.1-4.2-0.3-5.1-2.8c-0.5-1.8,0.6-4.5,2.5-4.9
				c2.8-1.8,3.9,2.1,6.5,2.2c0.8-0.9,3.1-1.1,3.3-2.1c-1.7-0.3,2.2-1.5-0.2-2.1c-1.3,0.2-2.2,1.4-1.5,2.4c-2.6,0.6-2.6-3.7-5.1-2.3
				c-0.1,2.1-4,0.7-1.4,0.3c0.9-0.4-1.5-1.5-0.2-1.3c0.6,0,2.8-0.8,2.2-1.3c1.2-0.7,2.2,1.8,3.3-0.1c0.8-1.4-0.3-1.7-1.4-0.9
				c-0.6-0.7,1-2.1,2.5-2.7c0.5-0.2,0.9-0.3,1.3-0.3c0.7,0.8,2.1,1,2.1-0.1c-1.8-0.9-3.8-1.3-5.9-1.3c-3,0-5.8,0.9-8.1,2.7
				c0.6,0.3,1,0.6,0.4,1.1c-0.5,1.4-2.4,3.3-4,3c-0.9,1.5-1.4,3.1-1.7,4.9c1.4,0.5,1.7,1.4,1.4,1.7c-0.7,0.6-1.1,1.5-1.4,2.5
				c0.5,2.8,1.8,5.3,3.8,7.4c2.6,2.6,6,4,9.6,4C435.2,188.1,438.6,186.7,441.2,184.1z"/>
		</g>
	</g>
	<g>
		<g>
			<polyline class="st5" points="410.6,215 386.9,215 359.6,207.1 			"/>
			<g>
				<path class="st4" d="M360.8,203.6c-2-0.6-4.1,0.6-4.7,2.6s0.6,4.1,2.6,4.7c2,0.6,4.1-0.6,4.7-2.6
					C363.9,206.2,362.8,204.1,360.8,203.6z"/>
			</g>
		</g>
	</g>
</g>
<g id="bubble_x5F_leg_x5F_2">
	<g>
		<g>
			<g>
				<path class="st2" d="M54.3,314.3v-18c0-3.1,1.3-5.4,5.7-5.4s5.7,2.4,5.7,5.4v18c0,3.1-1.3,5.4-5.7,5.4
					C55.5,319.7,54.3,317.3,54.3,314.3z M60.8,314.2v-18c0-0.6-0.3-1-0.8-1s-0.8,0.4-0.8,1v18c0,0.6,0.3,1,0.8,1
					S60.8,314.9,60.8,314.2z"/>
				<path class="st2" d="M72.2,315.4l-1.4,6.5h-2.2v-6.5H72.2z"/>
				<path class="st2" d="M74.7,314.3v-6.1c0-1.4,0.6-2.5,1.7-3.2c-1.1-0.7-1.6-1.7-1.6-3.2v-5.6c0-3.1,1.2-5.3,5.6-5.3
					c4.5,0,5.6,2.2,5.6,5.3v5.6c0,1.5-0.5,2.5-1.6,3.2c1,0.7,1.7,1.8,1.7,3.2v6.1c0,3.1-1.3,5.3-5.7,5.3
					C75.9,319.7,74.7,317.4,74.7,314.3z M79.5,302.3c0,0.5,0.3,0.9,0.8,0.9s0.8-0.4,0.8-0.9v-6.1c0-0.5-0.3-0.9-0.8-0.9
					s-0.8,0.4-0.8,0.9V302.3z M79.5,314.3c0,0.5,0.3,0.9,0.8,0.9s0.8-0.4,0.8-0.9v-6.4c0-0.5-0.3-0.9-0.8-0.9s-0.8,0.4-0.8,0.9
					V314.3z"/>
				<path class="st3" d="M54.6,331.6c0,0.8-0.1,1.4-0.4,2s-0.6,1-1,1.3l1.4,1.1l-0.7,0.6l-1.6-1.3c-0.3,0.1-0.5,0.1-0.8,0.1
					c-0.6,0-1.2-0.2-1.6-0.5s-0.8-0.7-1.1-1.3c-0.3-0.6-0.4-1.2-0.4-1.9v-0.6c0-0.8,0.1-1.4,0.4-2s0.6-1,1.1-1.3s1-0.5,1.6-0.5
					s1.2,0.2,1.7,0.5s0.8,0.7,1.1,1.3s0.4,1.2,0.4,2v0.5H54.6z M53.6,331.1c0-0.9-0.2-1.6-0.6-2.1c-0.4-0.5-0.9-0.7-1.6-0.7
					c-0.6,0-1.2,0.2-1.5,0.7c-0.4,0.5-0.6,1.2-0.6,2.1v0.6c0,0.9,0.2,1.6,0.6,2.1c0.4,0.5,0.9,0.8,1.6,0.8s1.2-0.2,1.5-0.7
					s0.6-1.2,0.6-2.1V331.1z"/>
				<path class="st3" d="M59.7,334.7c-0.4,0.5-1,0.7-1.7,0.7c-0.6,0-1.1-0.2-1.4-0.5c-0.3-0.4-0.5-0.9-0.5-1.6v-3.8h1v3.8
					c0,0.9,0.4,1.3,1.1,1.3c0.8,0,1.3-0.3,1.5-0.8v-4.2h1v5.8h-0.9L59.7,334.7z"/>
				<path class="st3" d="M65.9,335.3c-0.1-0.1-0.1-0.3-0.1-0.6c-0.5,0.5-1,0.7-1.7,0.7c-0.6,0-1-0.2-1.4-0.5s-0.6-0.7-0.6-1.2
					c0-0.6,0.2-1.1,0.7-1.4s1.1-0.5,1.9-0.5h1v-0.5c0-0.3-0.1-0.6-0.3-0.8s-0.5-0.3-0.9-0.3s-0.7,0.1-0.9,0.3
					c-0.2,0.2-0.4,0.4-0.4,0.6h-1c0-0.3,0.1-0.6,0.3-0.8c0.2-0.3,0.5-0.5,0.8-0.6c0.4-0.2,0.7-0.2,1.2-0.2c0.7,0,1.2,0.2,1.6,0.5
					s0.6,0.8,0.6,1.4v2.7c0,0.5,0.1,1,0.2,1.3v0.1h-1V335.3z M64.2,334.5c0.3,0,0.6-0.1,0.9-0.2s0.5-0.4,0.6-0.6v-1.2H65
					c-1.2,0-1.8,0.4-1.8,1.1c0,0.3,0.1,0.6,0.3,0.7S63.9,334.5,64.2,334.5z"/>
				<path class="st3" d="M69.3,329.4v0.7c0.4-0.6,1-0.8,1.7-0.8c1.2,0,1.8,0.7,1.9,2.1v3.8h-1v-3.8c0-0.4-0.1-0.7-0.3-0.9
					c-0.2-0.2-0.5-0.3-0.9-0.3c-0.3,0-0.6,0.1-0.8,0.3s-0.4,0.4-0.6,0.7v4.1h-1v-5.8h1V329.4z"/>
				<path class="st3" d="M75.9,328v1.4H77v0.8h-1.1v3.6c0,0.2,0,0.4,0.1,0.5s0.3,0.2,0.5,0.2c0.1,0,0.3,0,0.5-0.1v0.8
					c-0.3,0.1-0.5,0.1-0.8,0.1c-0.4,0-0.8-0.1-1-0.4s-0.3-0.7-0.3-1.1v-3.6h-1.1v-0.8h1.1V328H75.9z"/>
				<path class="st3" d="M78.3,327.9c0-0.2,0-0.3,0.1-0.4s0.2-0.2,0.4-0.2s0.3,0.1,0.4,0.2s0.2,0.2,0.2,0.4c0,0.2-0.1,0.3-0.2,0.4
					s-0.2,0.2-0.4,0.2s-0.3-0.1-0.4-0.2C78.3,328.2,78.3,328.1,78.3,327.9z M79.4,335.3h-1v-5.8h1V335.3z"/>
				<path class="st3" d="M82.4,328v1.4h1.1v0.8h-1.1v3.6c0,0.2,0,0.4,0.1,0.5s0.3,0.2,0.5,0.2c0.1,0,0.3,0,0.5-0.1v0.8
					c-0.3,0.1-0.5,0.1-0.8,0.1c-0.4,0-0.8-0.1-1-0.4s-0.3-0.7-0.3-1.1v-3.6h-1.1v-0.8h1.1V328H82.4z"/>
				<path class="st3" d="M87.2,335.4c-0.8,0-1.4-0.3-1.9-0.8s-0.7-1.2-0.7-2.1v-0.2c0-0.6,0.1-1.1,0.3-1.5c0.2-0.5,0.5-0.8,0.9-1.1
					c0.4-0.3,0.8-0.4,1.3-0.4c0.8,0,1.3,0.2,1.8,0.7c0.4,0.5,0.6,1.2,0.6,2.1v0.4h-3.9c0,0.6,0.2,1,0.5,1.4s0.7,0.5,1.2,0.5
					c0.4,0,0.6-0.1,0.9-0.2c0.2-0.1,0.5-0.3,0.6-0.6l0.6,0.5C88.9,335,88.1,335.4,87.2,335.4z M87.1,330.1c-0.4,0-0.7,0.1-1,0.4
					s-0.4,0.7-0.5,1.2h2.9v-0.1c0-0.5-0.2-0.9-0.4-1.2S87.5,330.1,87.1,330.1z M87.5,327h1.2l-1.4,1.6h-0.8L87.5,327z"/>
				<path class="st3" d="M48.3,343.9c0-0.2,0-0.3,0.1-0.4s0.2-0.2,0.4-0.2s0.3,0.1,0.4,0.2c0.1,0.1,0.2,0.2,0.2,0.4
					c0,0.2-0.1,0.3-0.2,0.4s-0.2,0.2-0.4,0.2s-0.3-0.1-0.4-0.2C48.3,344.2,48.3,344.1,48.3,343.9z M49.4,351.3h-1v-5.8h1V351.3z"/>
				<path class="st3" d="M52,345.4v0.7c0.4-0.6,1-0.8,1.7-0.8c1.2,0,1.8,0.7,1.9,2.1v3.8h-1v-3.8c0-0.4-0.1-0.7-0.3-0.9
					c-0.2-0.2-0.5-0.3-0.9-0.3c-0.3,0-0.6,0.1-0.8,0.3s-0.4,0.4-0.6,0.7v4.1h-1v-5.8h1V345.4z"/>
				<path class="st3" d="M59.6,350.5c0.4,0,0.7-0.1,0.9-0.3s0.4-0.5,0.4-0.8h0.9c0,0.3-0.1,0.7-0.3,1s-0.5,0.5-0.8,0.7
					c-0.4,0.2-0.7,0.3-1.1,0.3c-0.8,0-1.4-0.3-1.9-0.8s-0.7-1.3-0.7-2.2v-0.2c0-0.6,0.1-1.1,0.3-1.5s0.5-0.8,0.9-1s0.8-0.4,1.4-0.4
					c0.7,0,1.2,0.2,1.6,0.6c0.4,0.4,0.7,0.9,0.7,1.5H61c0-0.4-0.2-0.7-0.4-0.9c-0.3-0.2-0.6-0.4-0.9-0.4c-0.5,0-0.9,0.2-1.2,0.5
					c-0.3,0.4-0.4,0.9-0.4,1.6v0.2c0,0.7,0.1,1.2,0.4,1.5S59.1,350.5,59.6,350.5z"/>
				<path class="st3" d="M63.1,343.9c0-0.2,0-0.3,0.1-0.4s0.2-0.2,0.4-0.2s0.3,0.1,0.4,0.2c0.1,0.1,0.2,0.2,0.2,0.4
					c0,0.2-0.1,0.3-0.2,0.4s-0.2,0.2-0.4,0.2s-0.3-0.1-0.4-0.2C63.2,344.2,63.1,344.1,63.1,343.9z M64.2,351.3h-1v-5.8h1V351.3z"/>
				<path class="st3" d="M66.8,345.4v0.7c0.4-0.6,1-0.8,1.7-0.8c1.2,0,1.8,0.7,1.9,2.1v3.8h-1v-3.8c0-0.4-0.1-0.7-0.3-0.9
					c-0.2-0.2-0.5-0.3-0.9-0.3c-0.3,0-0.6,0.1-0.8,0.3s-0.4,0.4-0.6,0.7v4.1h-1v-5.8h1V345.4z"/>
				<path class="st3" d="M74.5,351.4c-0.8,0-1.4-0.3-1.9-0.8s-0.7-1.2-0.7-2.1v-0.2c0-0.6,0.1-1.1,0.3-1.5c0.2-0.5,0.5-0.8,0.9-1.1
					c0.4-0.3,0.8-0.4,1.3-0.4c0.8,0,1.3,0.2,1.8,0.7c0.4,0.5,0.6,1.2,0.6,2.1v0.4h-3.9c0,0.6,0.2,1,0.5,1.4s0.7,0.5,1.2,0.5
					c0.4,0,0.6-0.1,0.9-0.2c0.2-0.1,0.5-0.3,0.6-0.6l0.6,0.5C76.2,351,75.5,351.4,74.5,351.4z M74.4,346.1c-0.4,0-0.7,0.1-1,0.4
					s-0.4,0.7-0.5,1.2h2.9v-0.1c0-0.5-0.2-0.9-0.4-1.2S74.8,346.1,74.4,346.1z M74.8,343H76l-1.4,1.6h-0.8L74.8,343z"/>
				<path class="st3" d="M80.8,346.3c-0.2,0-0.3,0-0.5,0c-0.7,0-1.1,0.3-1.3,0.8v4.1h-1v-5.8h1v0.7c0.3-0.5,0.8-0.8,1.4-0.8
					c0.2,0,0.3,0,0.4,0.1V346.3z"/>
				<path class="st3" d="M84.2,351.4c-0.8,0-1.4-0.3-1.9-0.8s-0.7-1.2-0.7-2.1v-0.2c0-0.6,0.1-1.1,0.3-1.5c0.2-0.5,0.5-0.8,0.9-1.1
					c0.4-0.3,0.8-0.4,1.3-0.4c0.8,0,1.3,0.2,1.8,0.7c0.4,0.5,0.6,1.2,0.6,2.1v0.4h-3.9c0,0.6,0.2,1,0.5,1.4s0.7,0.5,1.2,0.5
					c0.4,0,0.6-0.1,0.9-0.2c0.2-0.1,0.5-0.3,0.6-0.6l0.6,0.5C86,351,85.2,351.4,84.2,351.4z M84.1,346.1c-0.4,0-0.7,0.1-1,0.4
					s-0.4,0.7-0.5,1.2h2.9v-0.1c0-0.5-0.2-0.9-0.4-1.2S84.5,346.1,84.1,346.1z M84.6,343h1.2l-1.4,1.6h-0.8L84.6,343z"/>
				<path class="st3" d="M90.2,351.4c-0.8,0-1.4-0.3-1.9-0.8s-0.7-1.2-0.7-2.1v-0.2c0-0.6,0.1-1.1,0.3-1.5c0.2-0.5,0.5-0.8,0.9-1.1
					c0.4-0.3,0.8-0.4,1.3-0.4c0.8,0,1.3,0.2,1.8,0.7c0.4,0.5,0.6,1.2,0.6,2.1v0.4h-3.9c0,0.6,0.2,1,0.5,1.4s0.7,0.5,1.2,0.5
					c0.4,0,0.6-0.1,0.9-0.2c0.2-0.1,0.5-0.3,0.6-0.6l0.6,0.5C91.9,351,91.2,351.4,90.2,351.4z M90.1,346.1c-0.4,0-0.7,0.1-1,0.4
					s-0.4,0.7-0.5,1.2h2.9v-0.1c0-0.5-0.2-0.9-0.4-1.2S90.5,346.1,90.1,346.1z"/>
			</g>
		</g>
		<path class="st4" d="M84.5,262.9c-0.4-2.3-1.2-4-2.7-5.8c0.4,1.5,0.2,3.1-0.3,4.7c-0.5,1.5-1.3,2.9-2,4.3
			c-0.1-2.7-1.4-5.1-2.7-7.4c-1.4-2.3-2.9-4.6-3.6-7.2c-0.7-2.6-0.5-5.6,1.4-7.6c-3.7,1.4-7.2,3.4-9.8,6.4
			c-2.6,3.1-3.9,7.2-3.1,11.1c-1.4-1.5-2.1-3.6-1.9-5.6c-1.8,2.3-3.1,5.1-3.7,8c-0.6,2.9-0.2,5.9,0.9,8.6c1.1,2.5,2.9,4.6,4.7,6.6
			c2,1.8,4.4,2.8,6.9,3.2c-0.3-0.1-0.5-0.2-0.8-0.3c-2.8-1.1-5.3-3.9-5.3-7.1c-0.1-2,0.7-4,2-5.5c0.1,1.5,1,3,2.2,3.9
			c-1-2.2-1.4-4.7-0.8-7.1c0.6-2.3,1.9-4.5,3.9-5.9c-0.5,2.1,0.3,4.2,1.4,6c1,1.8,2.4,3.5,3.4,5.3c1,1.9,1.5,4.2,0.7,6.1
			c1.5-1.4,2.3-3.8,2-7.1c0,0.1,0.1,0.1,0.1,0.2c3,5.1-1.1,11.4-6.4,11.7c1.5,0.1,3-0.1,4.5-0.3c2.8-1,5.4-2.7,7-5.2
			c1.4-2.1,2-4.7,2.3-7.2C84.8,267.4,84.9,265.1,84.5,262.9z"/>
	</g>
	<g>
		<g>
			<polyline class="st5" points="89.5,272.7 113.1,272.7 135.4,255.1 			"/>
			<g>
				<path class="st4" d="M137.6,258.2c1.6-1.3,1.9-3.7,0.6-5.3c-1.3-1.6-3.7-1.9-5.3-0.6c-1.6,1.3-1.9,3.7-0.6,5.3
					C133.6,259.2,135.9,259.5,137.6,258.2z"/>
			</g>
		</g>
	</g>
</g>
<g id="bubble_x5F_leg_x5F_3">
	<g>
		<g>
			<g>
				<path class="st2" d="M9.3,208.7v-18c0-3.1,1.3-5.4,5.7-5.4s5.7,2.4,5.7,5.4v18c0,3.1-1.3,5.4-5.7,5.4
					C10.6,214.1,9.3,211.7,9.3,208.7z M15.9,208.6v-18c0-0.6-0.3-1-0.8-1s-0.8,0.4-0.8,1v18c0,0.6,0.3,1,0.8,1
					S15.9,209.3,15.9,208.6z"/>
				<path class="st2" d="M27.2,209.8l-1.4,6.5h-2.2v-6.5H27.2z"/>
				<path class="st2" d="M36,201.1c0-0.4-0.2-0.7-0.7-0.7s-1.1,0.3-1.6,0.8h-3.9l0.8-15.5h9.9v4.6h-5.8l-0.3,6.6
					c0.5-0.2,1.4-0.4,2-0.4c3.2,0,4.4,1.3,4.4,4.6v7.7c0,3.1-1.3,5.3-5.7,5.3c-4.5,0-5.6-2.2-5.6-5.3v-3.5h4.8v3.4
					c0,0.6,0.3,1,0.8,1c0.6,0,0.8-0.3,0.8-0.9L36,201.1L36,201.1z"/>
				<path class="st3" d="M9.4,226c0,0.8-0.1,1.4-0.4,2s-0.6,1-1,1.3l1.4,1.1L8.7,231l-1.6-1.3c-0.3,0.1-0.5,0.1-0.8,0.1
					c-0.6,0-1.2-0.2-1.6-0.5s-0.8-0.7-1.1-1.3s-0.4-1.2-0.4-1.9v-0.6c0-0.8,0.1-1.4,0.4-2s0.6-1,1.1-1.3s1-0.5,1.6-0.5
					s1.2,0.2,1.7,0.5s0.8,0.7,1.1,1.3s0.4,1.2,0.4,2v0.5H9.4z M8.4,225.5c0-0.9-0.2-1.6-0.6-2.1s-0.9-0.7-1.6-0.7
					c-0.6,0-1.2,0.2-1.5,0.7c-0.4,0.5-0.6,1.2-0.6,2.1v0.6c0,0.9,0.2,1.6,0.6,2.1s0.9,0.8,1.6,0.8s1.2-0.2,1.5-0.7s0.6-1.2,0.6-2.1
					V225.5z"/>
				<path class="st3" d="M14.6,229.1c-0.4,0.5-1,0.7-1.7,0.7c-0.6,0-1.1-0.2-1.4-0.5c-0.3-0.4-0.5-0.9-0.5-1.6v-3.8h1v3.8
					c0,0.9,0.4,1.3,1.1,1.3c0.8,0,1.3-0.3,1.5-0.8V224h1v5.8h-0.9L14.6,229.1z"/>
				<path class="st3" d="M20.7,229.7c-0.1-0.1-0.1-0.3-0.1-0.6c-0.5,0.5-1,0.7-1.7,0.7c-0.6,0-1-0.2-1.4-0.5s-0.6-0.7-0.6-1.2
					c0-0.6,0.2-1.1,0.7-1.4c0.5-0.3,1.1-0.5,1.9-0.5h1v-0.5c0-0.3-0.1-0.6-0.3-0.8s-0.5-0.3-0.9-0.3s-0.7,0.1-0.9,0.3
					c-0.2,0.2-0.4,0.4-0.4,0.6h-1c0-0.3,0.1-0.6,0.3-0.8c0.2-0.3,0.5-0.5,0.8-0.6c0.4-0.2,0.7-0.2,1.2-0.2c0.7,0,1.2,0.2,1.6,0.5
					s0.6,0.8,0.6,1.4v2.7c0,0.5,0.1,1,0.2,1.3v0.1h-1V229.7z M19.1,228.9c0.3,0,0.6-0.1,0.9-0.2s0.5-0.4,0.6-0.6v-1.2h-0.8
					c-1.2,0-1.8,0.4-1.8,1.1c0,0.3,0.1,0.6,0.3,0.7S18.8,228.9,19.1,228.9z"/>
				<path class="st3" d="M24.2,223.9v0.7c0.4-0.6,1-0.8,1.7-0.8c1.2,0,1.8,0.7,1.9,2.1v3.8h-1v-3.8c0-0.4-0.1-0.7-0.3-0.9
					c-0.2-0.2-0.5-0.3-0.9-0.3c-0.3,0-0.6,0.1-0.8,0.3s-0.4,0.4-0.6,0.7v4.1h-1V224h1V223.9z"/>
				<path class="st3" d="M30.8,222.4v1.4h1.1v0.8h-1.1v3.6c0,0.2,0,0.4,0.1,0.5s0.3,0.2,0.5,0.2c0.1,0,0.3,0,0.5-0.1v0.8
					c-0.3,0.1-0.5,0.1-0.8,0.1c-0.4,0-0.8-0.1-1-0.4c-0.2-0.3-0.3-0.7-0.3-1.1v-3.6h-1.1v-0.8h1.1v-1.4H30.8z"/>
				<path class="st3" d="M33.1,222.3c0-0.2,0-0.3,0.1-0.4c0.1-0.1,0.2-0.2,0.4-0.2s0.3,0.1,0.4,0.2c0.1,0.1,0.2,0.2,0.2,0.4
					s-0.1,0.3-0.2,0.4s-0.2,0.2-0.4,0.2s-0.3-0.1-0.4-0.2C33.2,222.6,33.1,222.5,33.1,222.3z M34.2,229.7h-1v-5.8h1V229.7z"/>
				<path class="st3" d="M37.2,222.4v1.4h1.1v0.8h-1.1v3.6c0,0.2,0,0.4,0.1,0.5s0.3,0.2,0.5,0.2c0.1,0,0.3,0,0.5-0.1v0.8
					c-0.3,0.1-0.5,0.1-0.8,0.1c-0.4,0-0.8-0.1-1-0.4c-0.2-0.3-0.3-0.7-0.3-1.1v-3.6h-1.1v-0.8h1.1v-1.4H37.2z"/>
				<path class="st3" d="M42,229.8c-0.8,0-1.4-0.3-1.9-0.8s-0.7-1.2-0.7-2.1v-0.2c0-0.6,0.1-1.1,0.3-1.5c0.2-0.5,0.5-0.8,0.9-1.1
					s0.8-0.4,1.3-0.4c0.8,0,1.3,0.2,1.8,0.7c0.4,0.5,0.6,1.2,0.6,2.1v0.4h-3.9c0,0.6,0.2,1,0.5,1.4s0.7,0.5,1.2,0.5
					c0.4,0,0.6-0.1,0.9-0.2c0.2-0.1,0.5-0.3,0.6-0.6l0.6,0.5C43.7,229.4,43,229.8,42,229.8z M41.9,224.6c-0.4,0-0.7,0.1-1,0.4
					s-0.4,0.7-0.5,1.2h2.9v-0.1c0-0.5-0.2-0.9-0.4-1.2S42.3,224.6,41.9,224.6z M42.4,221.4h1.2l-1.4,1.6h-0.8L42.4,221.4z"/>
				<path class="st3" d="M7.9,239.7c-0.2,0-0.3,0-0.5,0c-0.7,0-1.1,0.3-1.3,0.8v4.1h-1v-5.8h1v0.7c0.3-0.5,0.8-0.8,1.4-0.8
					c0.2,0,0.3,0,0.4,0.1C7.9,238.8,7.9,239.7,7.9,239.7z"/>
				<path class="st3" d="M11.3,244.8c-0.8,0-1.4-0.3-1.9-0.8s-0.7-1.2-0.7-2.1v-0.2c0-0.6,0.1-1.1,0.3-1.5c0.2-0.5,0.5-0.8,0.9-1.1
					s0.8-0.4,1.3-0.4c0.8,0,1.3,0.2,1.8,0.7c0.4,0.5,0.6,1.2,0.6,2.1v0.4H9.7c0,0.6,0.2,1,0.5,1.4s0.7,0.5,1.2,0.5
					c0.4,0,0.6-0.1,0.9-0.2c0.2-0.1,0.5-0.3,0.6-0.6l0.6,0.5C13,244.4,12.3,244.8,11.3,244.8z M11.2,239.6c-0.4,0-0.7,0.1-1,0.4
					s-0.4,0.7-0.5,1.2h2.9v-0.1c0-0.5-0.2-0.9-0.4-1.2S11.6,239.6,11.2,239.6z"/>
				<path class="st3" d="M17.2,244c0.4,0,0.7-0.1,0.9-0.3s0.4-0.5,0.4-0.8h0.9c0,0.3-0.1,0.7-0.3,1s-0.5,0.5-0.8,0.7
					c-0.4,0.2-0.7,0.3-1.1,0.3c-0.8,0-1.4-0.3-1.9-0.8s-0.7-1.3-0.7-2.2v-0.2c0-0.6,0.1-1.1,0.3-1.5s0.5-0.8,0.9-1s0.8-0.4,1.4-0.4
					c0.7,0,1.2,0.2,1.6,0.6c0.4,0.4,0.7,0.9,0.7,1.5h-0.9c0-0.4-0.2-0.7-0.4-0.9c-0.3-0.2-0.6-0.4-0.9-0.4c-0.5,0-0.9,0.2-1.2,0.5
					c-0.3,0.4-0.4,0.9-0.4,1.6v0.2c0,0.7,0.1,1.2,0.4,1.5S16.7,244,17.2,244z"/>
				<path class="st3" d="M22.6,243.2l1.4-4.4h1l-2.3,6.7c-0.4,1-0.9,1.5-1.7,1.5h-0.2l-0.4-0.1v-0.8h0.3c0.3,0,0.6-0.1,0.8-0.2
					c0.2-0.1,0.3-0.4,0.5-0.7l0.2-0.6l-2.1-5.7h1.1L22.6,243.2z"/>
				<path class="st3" d="M28.4,244c0.4,0,0.7-0.1,0.9-0.3s0.4-0.5,0.4-0.8h0.9c0,0.3-0.1,0.7-0.3,1s-0.5,0.5-0.8,0.7
					c-0.4,0.2-0.7,0.3-1.1,0.3c-0.8,0-1.4-0.3-1.9-0.8s-0.7-1.3-0.7-2.2v-0.2c0-0.6,0.1-1.1,0.3-1.5c0.2-0.4,0.5-0.8,0.9-1
					s0.8-0.4,1.4-0.4c0.7,0,1.2,0.2,1.6,0.6c0.4,0.4,0.7,0.9,0.7,1.5h-0.9c0-0.4-0.2-0.7-0.4-0.9c-0.3-0.2-0.6-0.4-0.9-0.4
					c-0.5,0-0.9,0.2-1.2,0.5c-0.3,0.4-0.4,0.9-0.4,1.6v0.2c0,0.7,0.1,1.2,0.4,1.5S27.9,244,28.4,244z"/>
				<path class="st3" d="M33,244.7h-1v-8.2h1V244.7z"/>
				<path class="st3" d="M37.1,244.8c-0.8,0-1.4-0.3-1.9-0.8s-0.7-1.2-0.7-2.1v-0.2c0-0.6,0.1-1.1,0.3-1.5c0.2-0.5,0.5-0.8,0.9-1.1
					s0.8-0.4,1.3-0.4c0.8,0,1.3,0.2,1.8,0.7c0.4,0.5,0.6,1.2,0.6,2.1v0.4h-3.9c0,0.6,0.2,1,0.5,1.4s0.7,0.5,1.2,0.5
					c0.4,0,0.6-0.1,0.9-0.2c0.2-0.1,0.5-0.3,0.6-0.6l0.6,0.5C38.8,244.4,38.1,244.8,37.1,244.8z M37,239.6c-0.4,0-0.7,0.1-1,0.4
					s-0.4,0.7-0.5,1.2h2.9v-0.1c0-0.5-0.2-0.9-0.4-1.2S37.4,239.6,37,239.6z M37.5,236.4h1.2l-1.4,1.6h-0.8L37.5,236.4z"/>
				<path class="st3" d="M43,244.8c-0.8,0-1.4-0.3-1.9-0.8s-0.7-1.2-0.7-2.1v-0.2c0-0.6,0.1-1.1,0.3-1.5c0.2-0.5,0.5-0.8,0.9-1.1
					s0.8-0.4,1.3-0.4c0.8,0,1.3,0.2,1.8,0.7c0.4,0.5,0.6,1.2,0.6,2.1v0.4h-3.9c0,0.6,0.2,1,0.5,1.4s0.7,0.5,1.2,0.5
					c0.4,0,0.6-0.1,0.9-0.2c0.2-0.1,0.5-0.3,0.6-0.6l0.6,0.5C44.7,244.4,44,244.8,43,244.8z M42.9,239.6c-0.4,0-0.7,0.1-1,0.4
					s-0.4,0.7-0.5,1.2h2.9v-0.1c0-0.5-0.2-0.9-0.4-1.2S43.3,239.6,42.9,239.6z"/>
			</g>
		</g>
		<g>
			<path class="st4" d="M8.3,154.8l2.1,1.7l-2,3.8c-1,1.8,0.7,3.5,1.8,4.1s2.7,0.7,4.3,0.6l2.8-4.6l2.1,1.1l-3.7-6.8L8.3,154.8z
				 M8.6,164.1l4.6,8.4c0.9,1.2,2.6,1.4,4.4,1.4h4.8v-8l-9.1-0.1C11.9,166,10,165.7,8.6,164.1z M37.3,148.7l-2.5,1.1l-2.4-3.6
				c-1.1-1.7-3.4-1.1-4.4-0.4c-1,0.7-1.9,2.1-2.6,3.5l2.7,4.7l-2,1.3l7.7,0.1L37.3,148.7z M28.9,144.4l-9.6-0.1
				c-1.5,0.2-2.5,1.6-3.4,3.2l-2.3,4.2l7,3.9l4.5-7.9C25.7,146.3,26.9,144.9,28.9,144.4z M29.4,176.8l0.3-2.7l4.3-0.3
				c2-0.1,2.6-2.5,2.5-3.7s-0.9-2.7-1.7-4l-5.4,0.1l-0.2-2.4l-3.8,6.7L29.4,176.8z M37.1,171.6l4.7-8.3c0.5-1.4-0.2-3-1.2-4.5
				l-2.5-4.1l-6.8,4.2l4.8,7.8C37,167.9,37.7,169.6,37.1,171.6z"/>
		</g>
	</g>
	<g>
		<g>
			<polyline class="st5" points="45.9,201.7 79.6,201.7 106.9,198.3 			"/>
			<g>
				<path class="st4" d="M107.2,202c2.1-0.3,3.5-2.1,3.3-4.2s-2.1-3.5-4.2-3.3c-2.1,0.3-3.5,2.1-3.3,4.2S105.1,202.3,107.2,202z"/>
			</g>
		</g>
	</g>
</g>
<g id="bubble_x5F_leg_x5F_4">
	<g>
		<g>
			<g>
				<path class="st2" d="M70.5,54.2c0,8.6-6.3,7.9-6.3,15.3v0.2h6.4v4.6H59.3v-4.4c0-10.1,6.3-9,6.3-15.6v-3c0-0.5-0.3-0.9-0.8-0.9
					S64,50.8,64,51.3v3.1h-4.8v-3.1c0-3.1,1.2-5.3,5.6-5.3s5.7,2.2,5.7,5.3C70.5,51.3,70.5,54.2,70.5,54.2z"/>
				<path class="st2" d="M76.5,70.4l-1.4,6.5h-2.2v-6.5H76.5z"/>
				<path class="st2" d="M85.7,69.6h2.4v4.6h-9.8v-4.6h2.4V52.4h-2.4v-3.6c2.1,0,3.2-1.2,3.2-2.6h4.2C85.7,46.2,85.7,69.6,85.7,69.6
					z"/>
				<path class="st3" d="M57.9,86.6c0,0.8-0.1,1.4-0.4,2s-0.6,1-1,1.3l1.4,1.1l-0.7,0.6l-1.6-1.3c-0.3,0.1-0.5,0.1-0.8,0.1
					c-0.6,0-1.2-0.2-1.6-0.5s-0.8-0.7-1.1-1.3c-0.3-0.6-0.4-1.2-0.4-1.9v-0.6c0-0.8,0.1-1.4,0.4-2s0.6-1,1.1-1.3s1-0.5,1.6-0.5
					s1.2,0.2,1.7,0.5s0.8,0.7,1.1,1.3s0.4,1.2,0.4,2v0.5H57.9z M56.9,86.1c0-0.9-0.2-1.6-0.6-2.1c-0.4-0.5-0.9-0.7-1.6-0.7
					c-0.6,0-1.2,0.2-1.5,0.7c-0.4,0.5-0.6,1.2-0.6,2.1v0.6c0,0.9,0.2,1.6,0.6,2.1c0.4,0.5,0.9,0.8,1.6,0.8s1.2-0.2,1.5-0.7
					s0.6-1.2,0.6-2.1V86.1z"/>
				<path class="st3" d="M63.1,89.7c-0.4,0.5-1,0.7-1.7,0.7c-0.6,0-1.1-0.2-1.4-0.5c-0.3-0.4-0.5-0.9-0.5-1.6v-3.8h1v3.8
					c0,0.9,0.4,1.3,1.1,1.3c0.8,0,1.3-0.3,1.5-0.8v-4.2h1v5.8h-0.9L63.1,89.7z"/>
				<path class="st3" d="M69.2,90.3c-0.1-0.1-0.1-0.3-0.1-0.6c-0.5,0.5-1,0.7-1.7,0.7c-0.6,0-1-0.2-1.4-0.5s-0.6-0.7-0.6-1.2
					c0-0.6,0.2-1.1,0.7-1.4s1.1-0.5,1.9-0.5h1v-0.5c0-0.3-0.1-0.6-0.3-0.8s-0.5-0.3-0.9-0.3s-0.7,0.1-0.9,0.3
					c-0.2,0.2-0.4,0.4-0.4,0.6h-1c0-0.3,0.1-0.6,0.3-0.8c0.2-0.3,0.5-0.5,0.8-0.6c0.4-0.2,0.7-0.2,1.2-0.2c0.7,0,1.2,0.2,1.6,0.5
					s0.6,0.8,0.6,1.4v2.7c0,0.5,0.1,1,0.2,1.3v0.1h-1V90.3z M67.6,89.5c0.3,0,0.6-0.1,0.9-0.2s0.5-0.4,0.6-0.6v-1.2h-0.8
					c-1.2,0-1.8,0.4-1.8,1.1c0,0.3,0.1,0.6,0.3,0.7S67.3,89.5,67.6,89.5z"/>
				<path class="st3" d="M72.7,84.5v0.7c0.4-0.6,1-0.8,1.7-0.8c1.2,0,1.8,0.7,1.9,2.1v3.8h-1v-3.8c0-0.4-0.1-0.7-0.3-0.9
					c-0.2-0.2-0.5-0.3-0.9-0.3c-0.3,0-0.6,0.1-0.8,0.3s-0.4,0.4-0.6,0.7v4.1h-1v-5.8L72.7,84.5L72.7,84.5z"/>
				<path class="st3" d="M79.3,83.1v1.4h1.1v0.8h-1.1v3.6c0,0.2,0,0.4,0.1,0.5s0.3,0.2,0.5,0.2c0.1,0,0.3,0,0.5-0.1v0.8
					c-0.3,0.1-0.5,0.1-0.8,0.1c-0.4,0-0.8-0.1-1-0.4s-0.3-0.7-0.3-1.1v-3.6h-1.1v-0.8h1.1v-1.4H79.3z"/>
				<path class="st3" d="M81.6,82.9c0-0.2,0-0.3,0.1-0.4s0.2-0.2,0.4-0.2s0.3,0.1,0.4,0.2s0.2,0.2,0.2,0.4c0,0.2-0.1,0.3-0.2,0.4
					s-0.2,0.2-0.4,0.2s-0.3-0.1-0.4-0.2C81.7,83.2,81.6,83.1,81.6,82.9z M82.7,90.3h-1v-5.8h1V90.3z"/>
				<path class="st3" d="M85.7,83.1v1.4h1.1v0.8h-1.1v3.6c0,0.2,0,0.4,0.1,0.5s0.3,0.2,0.5,0.2c0.1,0,0.3,0,0.5-0.1v0.8
					c-0.3,0.1-0.5,0.1-0.8,0.1c-0.4,0-0.8-0.1-1-0.4s-0.3-0.7-0.3-1.1v-3.6h-1.1v-0.8h1.1v-1.4H85.7z"/>
				<path class="st3" d="M90.5,90.4c-0.8,0-1.4-0.3-1.9-0.8s-0.7-1.2-0.7-2.1v-0.2c0-0.6,0.1-1.1,0.3-1.5c0.2-0.5,0.5-0.8,0.9-1.1
					c0.4-0.3,0.8-0.4,1.3-0.4c0.8,0,1.3,0.2,1.8,0.7c0.4,0.5,0.6,1.2,0.6,2.1v0.4h-3.9c0,0.6,0.2,1,0.5,1.4s0.7,0.5,1.2,0.5
					c0.4,0,0.6-0.1,0.9-0.2c0.2-0.1,0.5-0.3,0.6-0.6l0.6,0.5C92.2,90,91.5,90.4,90.5,90.4z M90.4,85.2c-0.4,0-0.7,0.1-1,0.4
					s-0.4,0.7-0.5,1.2h2.9v-0.1c0-0.5-0.2-0.9-0.4-1.2S90.8,85.2,90.4,85.2z M90.9,82h1.2l-1.4,1.6h-0.8L90.9,82z"/>
				<path class="st3" d="M56.6,103.7c0-0.3-0.1-0.5-0.3-0.6s-0.6-0.3-1.1-0.4s-0.9-0.2-1.2-0.4c-0.3-0.2-0.5-0.3-0.7-0.5
					c-0.1-0.2-0.2-0.5-0.2-0.7c0-0.5,0.2-0.9,0.6-1.2c0.4-0.3,0.9-0.5,1.5-0.5c0.7,0,1.2,0.2,1.6,0.5c0.4,0.3,0.6,0.8,0.6,1.3h-1
					c0-0.3-0.1-0.5-0.3-0.7s-0.5-0.3-0.9-0.3s-0.6,0.1-0.8,0.2s-0.3,0.4-0.3,0.6s0.1,0.4,0.3,0.5s0.5,0.2,1,0.3
					c0.5,0.1,0.9,0.2,1.2,0.4c0.3,0.2,0.5,0.3,0.7,0.6c0.1,0.2,0.2,0.5,0.2,0.8c0,0.5-0.2,0.9-0.6,1.2s-1,0.5-1.6,0.5
					c-0.5,0-0.9-0.1-1.2-0.2s-0.6-0.4-0.8-0.7c-0.2-0.3-0.3-0.6-0.3-1h1c0,0.3,0.2,0.6,0.4,0.8c0.2,0.2,0.6,0.3,1,0.3
					s0.7-0.1,0.9-0.2C56.5,104.2,56.6,104,56.6,103.7z"/>
				<path class="st3" d="M60.4,98.1v1.4h1.1v0.8h-1.1v3.6c0,0.2,0,0.4,0.1,0.5s0.3,0.2,0.5,0.2c0.1,0,0.3,0,0.5-0.1v0.8
					c-0.3,0.1-0.5,0.1-0.8,0.1c-0.4,0-0.8-0.1-1-0.4s-0.3-0.7-0.3-1.1v-3.6h-1.1v-0.8h1.1v-1.4H60.4z"/>
				<path class="st3" d="M62.5,102.3c0-0.6,0.1-1.1,0.3-1.5c0.2-0.5,0.5-0.8,0.9-1.1c0.4-0.2,0.9-0.4,1.4-0.4c0.8,0,1.4,0.3,1.9,0.8
					s0.7,1.3,0.7,2.2v0.1c0,0.6-0.1,1.1-0.3,1.5c-0.2,0.4-0.5,0.8-0.9,1c-0.4,0.3-0.9,0.4-1.4,0.4c-0.8,0-1.4-0.3-1.9-0.8
					C62.7,104,62.5,103.3,62.5,102.3L62.5,102.3z M63.5,102.4c0,0.6,0.1,1.2,0.4,1.6s0.7,0.6,1.2,0.6s0.9-0.2,1.2-0.6s0.4-1,0.4-1.7
					c0-0.6-0.2-1.2-0.5-1.5c-0.3-0.4-0.7-0.6-1.2-0.6s-0.9,0.2-1.2,0.6C63.6,101.1,63.5,101.7,63.5,102.4z"/>
				<path class="st3" d="M71.5,104.6c0.4,0,0.7-0.1,0.9-0.3s0.4-0.5,0.4-0.8h0.9c0,0.3-0.1,0.7-0.3,1s-0.5,0.5-0.8,0.7
					c-0.4,0.2-0.7,0.3-1.1,0.3c-0.8,0-1.4-0.3-1.9-0.8s-0.7-1.3-0.7-2.2v-0.2c0-0.6,0.1-1.1,0.3-1.5c0.2-0.4,0.5-0.8,0.9-1
					s0.8-0.4,1.4-0.4c0.7,0,1.2,0.2,1.6,0.6s0.7,0.9,0.7,1.5h-0.9c0-0.4-0.2-0.7-0.4-0.9c-0.3-0.2-0.6-0.4-0.9-0.4
					c-0.5,0-0.9,0.2-1.2,0.5c-0.3,0.4-0.4,0.9-0.4,1.6v0.2c0,0.7,0.1,1.2,0.4,1.5S71,104.6,71.5,104.6z"/>
				<path class="st3" d="M76.6,102.6l-0.6,0.7v2h-1V97h1v5l0.5-0.6l1.8-1.9h1.2l-2.3,2.4l2.5,3.4h-1.2L76.6,102.6z"/>
				<path class="st3" d="M83.1,105.4c-0.8,0-1.4-0.3-1.9-0.8s-0.7-1.2-0.7-2.1v-0.2c0-0.6,0.1-1.1,0.3-1.5c0.2-0.5,0.5-0.8,0.9-1.1
					c0.4-0.3,0.8-0.4,1.3-0.4c0.8,0,1.3,0.2,1.8,0.7c0.4,0.5,0.6,1.2,0.6,2.1v0.4h-3.9c0,0.6,0.2,1,0.5,1.4s0.7,0.5,1.2,0.5
					c0.4,0,0.6-0.1,0.9-0.2c0.2-0.1,0.5-0.3,0.6-0.6l0.6,0.5C84.8,105,84.1,105.4,83.1,105.4z M83,100.2c-0.4,0-0.7,0.1-1,0.4
					s-0.4,0.7-0.5,1.2h2.9v-0.1c0-0.5-0.2-0.9-0.4-1.2S83.4,100.2,83,100.2z M83.5,97h1.2l-1.4,1.6h-0.8L83.5,97z"/>
				<path class="st3" d="M89,105.4c-0.8,0-1.4-0.3-1.9-0.8s-0.7-1.2-0.7-2.1v-0.2c0-0.6,0.1-1.1,0.3-1.5c0.2-0.5,0.5-0.8,0.9-1.1
					c0.4-0.3,0.8-0.4,1.3-0.4c0.8,0,1.3,0.2,1.8,0.7c0.4,0.5,0.6,1.2,0.6,2.1v0.4h-3.9c0,0.6,0.2,1,0.5,1.4s0.7,0.5,1.2,0.5
					c0.4,0,0.6-0.1,0.9-0.2c0.2-0.1,0.5-0.3,0.6-0.6l0.6,0.5C90.7,105,90,105.4,89,105.4z M88.9,100.2c-0.4,0-0.7,0.1-1,0.4
					s-0.4,0.7-0.5,1.2h2.9v-0.1c0-0.5-0.2-0.9-0.4-1.2S89.3,100.2,88.9,100.2z"/>
				<path class="st3" d="M48.4,117.3c0-0.6,0.1-1.1,0.3-1.5c0.2-0.5,0.5-0.8,0.9-1.1c0.4-0.2,0.9-0.4,1.4-0.4c0.8,0,1.4,0.3,1.9,0.8
					s0.7,1.3,0.7,2.2v0.1c0,0.6-0.1,1.1-0.3,1.5s-0.5,0.8-0.9,1c-0.4,0.3-0.9,0.4-1.4,0.4c-0.8,0-1.4-0.3-1.9-0.8
					C48.7,119,48.4,118.3,48.4,117.3L48.4,117.3z M49.4,117.4c0,0.6,0.1,1.2,0.4,1.6c0.3,0.4,0.7,0.6,1.2,0.6s0.9-0.2,1.2-0.6
					s0.4-1,0.4-1.7c0-0.6-0.2-1.2-0.5-1.5c-0.3-0.4-0.7-0.6-1.2-0.6s-0.9,0.2-1.2,0.6C49.6,116.1,49.4,116.7,49.4,117.4z"/>
				<path class="st3" d="M58.7,119.7c-0.4,0.5-1,0.7-1.7,0.7c-0.6,0-1.1-0.2-1.4-0.5c-0.3-0.4-0.5-0.9-0.5-1.6v-3.8h1v3.8
					c0,0.9,0.4,1.3,1.1,1.3c0.8,0,1.3-0.3,1.5-0.8v-4.2h1v5.8h-0.9L58.7,119.7z"/>
				<path class="st3" d="M67.7,119.7c-0.4,0.5-1,0.7-1.7,0.7c-0.6,0-1.1-0.2-1.4-0.5c-0.3-0.4-0.5-0.9-0.5-1.6v-3.8h1v3.8
					c0,0.9,0.4,1.3,1.1,1.3c0.8,0,1.3-0.3,1.5-0.8v-4.2h1v5.8h-0.9L67.7,119.7z"/>
				<path class="st3" d="M71.6,113.1v1.4h1.1v0.8h-1.1v3.6c0,0.2,0,0.4,0.1,0.5s0.3,0.2,0.5,0.2c0.1,0,0.3,0,0.5-0.1v0.8
					c-0.3,0.1-0.5,0.1-0.8,0.1c-0.4,0-0.8-0.1-1-0.4s-0.3-0.7-0.3-1.1v-3.6h-1.1v-0.8h1.1v-1.4H71.6z"/>
				<path class="st3" d="M74,112.9c0-0.2,0-0.3,0.1-0.4s0.2-0.2,0.4-0.2s0.3,0.1,0.4,0.2s0.2,0.2,0.2,0.4c0,0.2-0.1,0.3-0.2,0.4
					s-0.2,0.2-0.4,0.2s-0.3-0.1-0.4-0.2C74,113.2,74,113.1,74,112.9z M75,120.3h-1v-5.8h1V120.3z"/>
				<path class="st3" d="M77.8,120.3h-1V112h1V120.3z"/>
				<path class="st3" d="M79.5,112.9c0-0.2,0-0.3,0.1-0.4s0.2-0.2,0.4-0.2s0.3,0.1,0.4,0.2s0.2,0.2,0.2,0.4c0,0.2-0.1,0.3-0.2,0.4
					s-0.2,0.2-0.4,0.2s-0.3-0.1-0.4-0.2C79.6,113.2,79.5,113.1,79.5,112.9z M80.6,120.3h-1v-5.8h1V120.3z"/>
				<path class="st3" d="M85.7,118.7c0-0.3-0.1-0.5-0.3-0.6c-0.2-0.1-0.6-0.3-1.1-0.4s-0.9-0.2-1.2-0.4c-0.3-0.2-0.5-0.3-0.7-0.5
					c-0.1-0.2-0.2-0.5-0.2-0.7c0-0.5,0.2-0.9,0.6-1.2c0.4-0.3,0.9-0.5,1.5-0.5c0.7,0,1.2,0.2,1.6,0.5s0.6,0.8,0.6,1.3h-1
					c0-0.3-0.1-0.5-0.3-0.7c-0.2-0.2-0.5-0.3-0.9-0.3s-0.6,0.1-0.8,0.2s-0.3,0.4-0.3,0.6s0.1,0.4,0.3,0.5s0.5,0.2,1,0.3
					c0.5,0.1,0.9,0.2,1.2,0.4c0.3,0.2,0.5,0.3,0.7,0.6c0.1,0.2,0.2,0.5,0.2,0.8c0,0.5-0.2,0.9-0.6,1.2s-1,0.5-1.6,0.5
					c-0.5,0-0.9-0.1-1.2-0.2s-0.6-0.4-0.8-0.7c-0.2-0.3-0.3-0.6-0.3-1h1c0,0.3,0.2,0.6,0.4,0.8c0.2,0.2,0.6,0.3,1,0.3
					s0.7-0.1,0.9-0.2C85.6,119.2,85.7,119,85.7,118.7z"/>
				<path class="st3" d="M90.5,120.4c-0.8,0-1.4-0.3-1.9-0.8s-0.7-1.2-0.7-2.1v-0.2c0-0.6,0.1-1.1,0.3-1.5c0.2-0.5,0.5-0.8,0.9-1.1
					c0.4-0.3,0.8-0.4,1.3-0.4c0.8,0,1.3,0.2,1.8,0.7c0.4,0.5,0.6,1.2,0.6,2.1v0.4h-3.9c0,0.6,0.2,1,0.5,1.4s0.7,0.5,1.2,0.5
					c0.4,0,0.6-0.1,0.9-0.2c0.2-0.1,0.5-0.3,0.6-0.6l0.6,0.5C92.2,120,91.5,120.4,90.5,120.4z M90.4,115.2c-0.4,0-0.7,0.1-1,0.4
					s-0.4,0.7-0.5,1.2h2.9v-0.1c0-0.5-0.2-0.9-0.4-1.2S90.8,115.2,90.4,115.2z M90.9,112h1.2l-1.4,1.6h-0.8L90.9,112z"/>
				<path class="st3" d="M96.4,120.4c-0.8,0-1.4-0.3-1.9-0.8s-0.7-1.2-0.7-2.1v-0.2c0-0.6,0.1-1.1,0.3-1.5c0.2-0.5,0.5-0.8,0.9-1.1
					c0.4-0.3,0.8-0.4,1.3-0.4c0.8,0,1.3,0.2,1.8,0.7c0.4,0.5,0.6,1.2,0.6,2.1v0.4h-3.9c0,0.6,0.2,1,0.5,1.4s0.7,0.5,1.2,0.5
					c0.4,0,0.6-0.1,0.9-0.2c0.2-0.1,0.5-0.3,0.6-0.6l0.6,0.5C98.1,120,97.4,120.4,96.4,120.4z M96.3,115.2c-0.4,0-0.7,0.1-1,0.4
					s-0.4,0.7-0.5,1.2h2.9v-0.1c0-0.5-0.2-0.9-0.4-1.2S96.7,115.2,96.3,115.2z"/>
			</g>
		</g>
		<g>
			<g>
				<polygon class="st4" points="62.4,15.7 84.7,15.7 84.7,37.4 90.9,37.4 90.9,10.6 73,2.5 56.1,10.6 56.1,37.4 62.4,37.4 				"/>
				<rect x="69.1" y="33.2" class="st4" width="4" height="3.4"/>
				<rect x="73.9" y="33.2" class="st4" width="4" height="3.4"/>
				<rect x="64.2" y="33.2" class="st4" width="4" height="3.4"/>
				<rect x="69.1" y="28.5" class="st4" width="4" height="3.4"/>
				<rect x="64.2" y="28.5" class="st4" width="4" height="3.4"/>
				<rect x="73.9" y="28.5" class="st4" width="4" height="3.4"/>
				<rect x="69.1" y="23.8" class="st4" width="4" height="3.4"/>
				<rect x="64.2" y="23.8" class="st4" width="4" height="3.4"/>
				<rect x="78.8" y="33.2" class="st4" width="4" height="3.4"/>
			</g>
		</g>
	</g>
	<g>
		<g>
			<polyline class="st5" points="92.9,62.9 116.4,62.9 138.8,81 			"/>
			<g>
				<path class="st4" d="M136.3,83.8c1.6,1.3,4,1.1,5.3-0.5s1.1-4-0.5-5.3s-4-1.1-5.3,0.5C134.4,80.2,134.7,82.5,136.3,83.8z"/>
			</g>
		</g>
	</g>
</g>
<g id="donnut_x5F_front">
	<g>
		<path class="st6" d="M234.3,170.2l-103.4,3.6c-2-57.1,42.7-105,99.8-107c0.7,0,2.9-0.1,3.6-0.1V170.2z"/>
		<path class="st2" d="M234.3,170.2V66.7c57.1,0,103.5,46.3,103.5,103.5c0,57.1-46.3,103.5-103.5,103.5
			c-56.4,0-101.4-43.5-103.4-99.9L234.3,170.2z"/>
	</g>
	<path class="st7" d="M305.2,170.5c0,39.1-31.7,70.9-70.9,70.9c-39.1,0-70.9-31.7-70.9-70.9c0-39.1,31.7-70.9,70.9-70.9
		S305.2,131.4,305.2,170.5z"/>
	<g>
		<path class="st7" d="M138.7,165.8l0.3-4.1c0.2-2.3,1.4-2.7,3.2-2.5l4.2,0.3c2,0.2,2.9,0.8,2.8,3.1l-0.1,1.1l6.6,0.5l-0.2,2.9
			L138.7,165.8z M146.4,163.4v-0.5c0-0.4-0.1-0.5-0.5-0.5l-3.6-0.3c-0.4,0-0.6,0.1-0.6,0.5v0.5L146.4,163.4z"/>
		<path class="st7" d="M140,153l16.8,2.9l-0.5,2.7l-16.8-2.9L140,153z"/>
		<path class="st7" d="M148.9,148.5c-0.3-0.1-0.5,0-0.5,0.3s0,0.4,0.3,0.5l1,0.3l-0.7,2.6l-1.1-0.3c-1.7-0.4-2.6-1.5-2-3.7
			c0.6-2.3,2-2.7,3.6-2.3l9,2.3l-0.4,1.6l-0.6,0.2c0.3,0.5,0.5,1,0.3,1.9c-0.4,1.7-1.6,2.2-3.5,1.7l-1.4-0.3
			c-1.8-0.4-2.3-1.7-2.6-4.3L148.9,148.5z M155.1,150.9c0.4,0.1,0.6,0,0.6-0.2c0.1-0.3,0-0.4-0.4-0.5l-2.8-0.7
			c0.2,0.5,0.5,0.9,1.1,1.1L155.1,150.9z"/>
		<path class="st7" d="M157.5,143.1c0.4,0.1,0.5,0,0.6-0.2s0-0.4-0.3-0.5l-0.6-0.2c-2.2-0.8-3.1,2.6-6.5,1.4l-0.3-0.1
			c-1.7-0.6-2.5-1.8-1.7-3.9c0.8-2.2,2.1-2.5,3.9-1.9l0.9,0.3l-0.9,2.6l-0.9-0.3c-0.3-0.1-0.5-0.1-0.6,0.2c-0.1,0.2,0,0.4,0.3,0.5
			l0.5,0.2c2.1,0.8,2.8-2.7,6.2-1.5l0.7,0.3c1.7,0.6,2.5,1.8,1.7,4s-2.1,2.5-3.8,1.9l-1.2-0.4l0.9-2.6L157.5,143.1z"/>
		<path class="st7" d="M149.1,129.4l3.4,1.6l0.7-1.5l2.2,1l-0.7,1.5l6.2,2.9c0.3,0.2,0.6,0,0.7-0.2c0.1-0.2,0.2-0.6,0.3-1.1l2.1,1
			c0,0.4-0.1,1-0.3,1.3c-1.1,2.3-2.3,2.3-4,1.5l-6.2-2.9l-0.5,1.1l-2.2-1l0.5-1.1l-2.7-1.3L149.1,129.4z"/>
		<path class="st7" d="M151.9,123l2.7,1.5l-1.4,2.4l-2.7-1.5L151.9,123z M155.6,125.1l10.5,5.9l-1.4,2.4l-10.5-5.8L155.6,125.1z"/>
		<path class="st7" d="M159.3,124.1c-1.7-1.1-2.1-2.2-1.1-3.7c0.5-0.7,1.1-1.1,1.6-1.1l-0.2-0.6l0.9-1.4l13.1,8.8l-1.6,2.3l-3.3-2.2
			c0,0.4-0.2,0.9-0.4,1.2c-1,1.5-2.1,1.5-3.7,0.4L159.3,124.1z M166.3,125.4c0.3,0.2,0.5,0.2,0.6,0s0.1-0.4-0.2-0.6l-5.5-3.7
			c-0.3-0.2-0.5-0.2-0.6,0.1c-0.2,0.3,0,0.4,0.2,0.6L166.3,125.4z"/>
		<path class="st7" d="M164.4,112.5l7.1,6c0.2,0.2,0.4,0.3,0.6,0c0.2-0.2,0.1-0.4-0.1-0.6l-7.1-6l1.8-2.1l9.2,7.7l-1,1.2h-0.6
			c0.1,0.6-0.1,1.2-0.7,1.9c-1.2,1.4-2.3,1.3-3.8,0l-7.1-6L164.4,112.5z"/>
		<path class="st7" d="M177.4,112.1c0.3,0.3,0.5,0.2,0.6,0.1s0.2-0.3-0.1-0.6l-1.2-1.3l2-1.9l1.1,1.2c1.2,1.3,1.7,2.6-0.1,4.3
			c-1.8,1.8-3.2,1.3-4.4,0l-4.5-4.6c-1.2-1.3-1.6-2.7,0.2-4.4c1.7-1.7,3.1-1.3,4.3,0l2.6,2.7l-2.5,2.4L177.4,112.1z M174,108.6
			l0.6-0.5l-1.2-1.3c-0.3-0.3-0.5-0.2-0.6-0.1s-0.2,0.3,0.1,0.6L174,108.6z"/>
		<path class="st7" d="M181.7,96.4l5.4,7.6c0.2,0.2,0.3,0.4,0.6,0.2c0.2-0.2,0.2-0.4,0-0.6l-5.4-7.6l2.3-1.6l6.9,9.8l-1.3,0.9
			l-0.6-0.2c-0.1,0.6-0.4,1.1-1.1,1.6c-1.5,1-2.5,0.7-3.7-1l-5.4-7.6L181.7,96.4z"/>
		<path class="st7" d="M188.4,87.8l1.9,3.3l1.4-0.8l1.2,2.1l-1.4,0.8l3.4,5.9c0.2,0.3,0.4,0.4,0.7,0.2c0.2-0.1,0.5-0.4,0.9-0.7
			l1.2,2c-0.2,0.3-0.7,0.8-1,0.9c-2.2,1.2-3.2,0.6-4.2-1l-3.4-5.9l-1.1,0.6l-1.2-2.1l1.1-0.6l-1.5-2.6L188.4,87.8z"/>
		<path class="st7" d="M194.5,84.2l1.3,2.8l-2.5,1.2l-1.3-2.8L194.5,84.2z M196.3,88l5.2,10.8L199,100l-5.2-10.8L196.3,88z"/>
		<path class="st7" d="M199.4,81.2l6.4,15.8l-2.6,1.1l-6.4-15.8L199.4,81.2z"/>
		<path class="st7" d="M205.1,80l1,2.9l-2.6,0.9l-1-2.9L205.1,80z M206.4,84l3.9,11.4l-2.6,0.9l-3.9-11.4L206.4,84z"/>
		<path class="st7" d="M213.8,91.6c0.1,0.4,0.3,0.4,0.5,0.4c0.2-0.1,0.3-0.2,0.3-0.6l-0.2-0.6c-0.6-2.2-3.9-1.1-4.8-4.6l-0.1-0.3
			c-0.5-1.8,0.1-3.1,2.3-3.7c2.3-0.6,3.3,0.3,3.8,2.1l0.2,0.9l-2.7,0.7l-0.2-1c-0.1-0.3-0.2-0.5-0.5-0.4c-0.2,0.1-0.3,0.3-0.3,0.6
			l0.1,0.5c0.6,2.2,3.8,0.8,4.7,4.3l0.2,0.7c0.5,1.8,0,3.1-2.3,3.6c-2.3,0.6-3.3-0.3-3.7-2.1l-0.3-1.2l2.7-0.7L213.8,91.6z"/>
		<path class="st7" d="M221.8,89.9c0.1,0.4,0.3,0.4,0.5,0.4s0.4-0.2,0.3-0.5l-0.3-1.7l2.7-0.4l0.2,1.6c0.3,1.8-0.1,3.1-2.6,3.5
			s-3.3-0.8-3.6-2.5l-0.9-6.3c-0.3-1.8,0.3-3.1,2.7-3.5s3.2,0.8,3.5,2.5l0.6,3.7l-3.4,0.5L221.8,89.9z M221.3,79.4l-1.6,0.2v-3.3
			l2.5-0.4L221.3,79.4z M221.1,85.1l0.8-0.1l-0.3-1.7c-0.1-0.4-0.3-0.4-0.5-0.4s-0.4,0.2-0.3,0.5L221.1,85.1z"/>
	</g>
	<g>
		<path class="st7" d="M247.1,245.6l4-0.9c2.3-0.5,3,0.5,3.4,2.3l0.9,4.1c0.4,1.9,0,3.1-2.2,3.5l-1.1,0.2l1.4,6.4l-2.9,0.6
			L247.1,245.6z M251.6,252.3l0.5-0.1c0.4-0.1,0.5-0.3,0.4-0.6l-0.8-3.5c-0.1-0.4-0.3-0.5-0.7-0.4l-0.4,0.1L251.6,252.3z"/>
		<path class="st7" d="M258.1,242.5l5,16.3l-2.7,0.8l-5-16.3L258.1,242.5z"/>
		<path class="st7" d="M265.9,247.9c-0.1-0.3-0.3-0.4-0.5-0.3c-0.2,0.1-0.3,0.3-0.2,0.6l0.4,1l-2.4,1l-0.4-1c-0.6-1.6-0.3-3,1.8-3.8
			c2.2-0.9,3.4,0,4,1.6l3.5,8.6l-1.5,0.6l-0.5-0.3c-0.2,0.6-0.6,1-1.4,1.3c-1.7,0.7-2.7,0.1-3.5-1.8l-0.5-1.3c-0.7-1.7,0-2.9,2-4.6
			L265.9,247.9z M267.6,254.2c0.1,0.4,0.3,0.5,0.6,0.4c0.2-0.1,0.3-0.3,0.1-0.7l-1.1-2.7c-0.3,0.5-0.5,0.9-0.2,1.6L267.6,254.2z"/>
		<path class="st7" d="M276.4,250.3c0.2,0.3,0.4,0.4,0.6,0.2c0.2-0.1,0.3-0.3,0.1-0.6l-0.3-0.6c-1.1-2-4-0.1-5.7-3.3l-0.1-0.3
			c-0.9-1.6-0.7-3,1.3-4.1c2.1-1.1,3.3-0.5,4.2,1.2l0.5,0.8l-2.4,1.3l-0.5-0.9c-0.2-0.3-0.3-0.4-0.6-0.3c-0.2,0.1-0.3,0.3-0.1,0.6
			l0.2,0.4c1.1,2,3.9-0.1,5.6,3.1l0.4,0.7c0.9,1.6,0.7,3-1.4,4.1s-3.2,0.5-4.1-1.1l-0.6-1.1l2.4-1.3L276.4,250.3z"/>
		<path class="st7" d="M277.8,234.2l2.1,3.1l1.3-0.9l1.4,2l-1.3,0.9l3.8,5.7c0.2,0.3,0.5,0.3,0.7,0.2s0.5-0.4,0.8-0.8l1.3,2
			c-0.2,0.3-0.6,0.8-0.9,1c-2.1,1.4-3.2,0.8-4.2-0.8l-3.8-5.7l-1,0.7l-1.4-2l1-0.7l-1.7-2.5L277.8,234.2z"/>
		<path class="st7" d="M282.2,230.3l1.9,2.4l-2.2,1.7L280,232L282.2,230.3z M284.8,233.7l7.3,9.5l-2.2,1.7l-7.3-9.5L284.8,233.7z"/>
		<path class="st7" d="M288.5,234.3c-1.4-1.5-1.5-2.6-0.2-3.8c0.6-0.6,1.3-0.8,1.9-0.7l-0.1-0.6l1.2-1.1l10.7,11.7l-2,1.9l-2.7-2.9
			c-0.1,0.4-0.4,0.8-0.6,1c-1.4,1.2-2.4,1-3.7-0.5L288.5,234.3z M295,237.2c0.2,0.2,0.4,0.3,0.6,0.1s0.2-0.4,0-0.6l-4.5-4.9
			c-0.2-0.2-0.4-0.3-0.6-0.1s-0.1,0.4,0,0.6L295,237.2z"/>
		<path class="st7" d="M295.3,223.7l7,6.1c0.2,0.2,0.4,0.3,0.6,0c0.2-0.2,0.1-0.4-0.1-0.6l-7-6.1l1.8-2.1l9.1,7.9l-1.1,1.2H305
			c0.1,0.6-0.1,1.2-0.7,1.9c-1.2,1.4-2.3,1.3-3.9-0.1l-7-6.1L295.3,223.7z"/>
		<path class="st7" d="M308.6,221.6c0.3,0.2,0.5,0.1,0.6,0s0.1-0.4-0.2-0.6l-1.4-1l1.5-2.2l1.3,0.9c1.5,1,2.2,2.2,0.8,4.3
			c-1.4,2.1-2.8,1.9-4.3,0.9l-5.3-3.6c-1.5-1-2.1-2.3-0.7-4.3s2.8-1.9,4.2-0.8l3.1,2.1l-2,2.9L308.6,221.6z M304.6,218.9l0.4-0.6
			l-1.4-1c-0.3-0.2-0.5-0.1-0.6,0c-0.1,0.2-0.1,0.4,0.2,0.6L304.6,218.9z"/>
		<path class="st7" d="M303.4,203.8l2.7,1.4l-1.3,2.5l-2.7-1.4L303.4,203.8z M318.7,211.6c1.8,0.9,2.4,2.1,1.3,4.3
			c-0.2,0.4-0.5,0.7-0.8,1l-2.3-1.1c0.3-0.3,0.6-0.6,0.8-0.9c0.2-0.4,0-0.6-0.3-0.8l-11.5-5.8l1.3-2.5L318.7,211.6z"/>
		<path class="st7" d="M317.9,204.5c0.4,0.1,0.5,0,0.6-0.2s0.1-0.4-0.3-0.5l-1.6-0.7l1-2.5l1.5,0.6c1.6,0.7,2.6,1.7,1.7,4
			s-2.4,2.5-4,1.8l-5.9-2.4c-1.6-0.7-2.5-1.8-1.6-4.1c0.9-2.2,2.3-2.4,4-1.7l3.5,1.4l-1.3,3.2L317.9,204.5z M313.4,202.7l0.3-0.7
			l-1.6-0.7c-0.4-0.1-0.5,0-0.6,0.2s-0.1,0.4,0.3,0.5L313.4,202.7z"/>
		<path class="st7" d="M308.7,191l3.6,1.1l0.5-1.5l2.4,0.7l-0.5,1.5l6.5,1.9c0.4,0.1,0.6-0.1,0.6-0.3c0.1-0.2,0.1-0.6,0.1-1.1
			l2.3,0.7c0.1,0.3,0,1-0.1,1.3c-0.7,2.4-1.9,2.7-3.7,2.1l-6.5-1.9l-0.3,1.2l-2.4-0.7l0.3-1.2l-2.9-0.8L308.7,191z"/>
		<path class="st7" d="M312.8,184.4l-0.3,1.6l-3.1-1.1l0.5-2.5L312.8,184.4z M322.9,187.4c0.4,0.1,0.5-0.1,0.5-0.3s0-0.4-0.4-0.5
			l-1.7-0.3l0.5-2.7l1.6,0.3c1.7,0.3,2.9,1.1,2.4,3.6s-1.8,2.9-3.6,2.6l-6.3-1.2c-1.7-0.3-2.8-1.3-2.4-3.7s1.8-2.8,3.5-2.5l3.7,0.7
			l-0.6,3.4L322.9,187.4z M318.1,186.5l0.1-0.8l-1.7-0.3c-0.4-0.1-0.5,0.1-0.5,0.3s0,0.4,0.4,0.5L318.1,186.5z"/>
	</g>
	<g>
		<path class="st8" d="M210.9,145.1v-8.4c0-2,0.9-3.5,2.3-4.4c-1.5-1-2.2-2.4-2.2-4.4v-7.8c0-4.2,1.6-7.3,7.8-7.3s7.8,3.1,7.8,7.3
			v7.8c0,2-0.7,3.4-2.2,4.4c1.4,0.9,2.3,2.4,2.3,4.4v8.4c0,4.2-1.8,7.3-7.9,7.3S210.9,149.4,210.9,145.1z M217.6,128.5
			c0,0.7,0.4,1.2,1.2,1.2s1.2-0.5,1.2-1.2v-8.4c0-0.7-0.4-1.2-1.2-1.2s-1.2,0.5-1.2,1.2V128.5z M217.6,145.1c0,0.7,0.4,1.2,1.2,1.2
			s1.2-0.5,1.2-1.2v-8.9c0-0.7-0.4-1.2-1.2-1.2s-1.2,0.5-1.2,1.2V145.1z"/>
		<path class="st8" d="M234.7,146.8l-1.9,8.6h-3v-8.6H234.7z"/>
		<path class="st8" d="M246.4,120.2c0-0.7-0.4-1.2-1.2-1.2s-1.2,0.5-1.2,1.2v4.2h-6.6v-4.2c0-4.2,1.6-7.3,7.8-7.3s7.8,3.1,7.8,7.3
			v7.8c0,2-0.7,3.4-2.2,4.4c1.4,0.9,2.3,2.4,2.3,4.4v8.4c0,4.2-1.8,7.3-7.9,7.3c-6.2,0-7.8-3.1-7.8-7.3v-4.8h6.6v4.7
			c0,0.9,0.4,1.3,1.2,1.3s1.2-0.4,1.2-1.3v-8.6c0-0.5-0.3-0.9-0.8-0.9h-2.7v-6.3h2.7c0.6,0,0.8-0.3,0.8-0.8L246.4,120.2L246.4,120.2
			z"/>
		<path class="st3" d="M191.4,162.6v0.6c0.4-0.5,0.9-0.7,1.6-0.7c0.7,0,1.2,0.3,1.5,0.8c0.2-0.3,0.4-0.5,0.7-0.6
			c0.3-0.2,0.6-0.2,1-0.2c1.2,0,1.7,0.6,1.8,1.8v3.5h-0.9v-3.5c0-0.4-0.1-0.7-0.3-0.8c-0.2-0.2-0.5-0.3-0.9-0.3
			c-0.3,0-0.6,0.1-0.8,0.3s-0.3,0.5-0.4,0.8v3.5h-0.9v-3.5c0-0.8-0.4-1.2-1.1-1.2c-0.6,0-1,0.3-1.2,0.8v3.9h-0.9v-5.3L191.4,162.6
			L191.4,162.6z"/>
		<path class="st3" d="M199.4,161.2c0-0.1,0-0.3,0.1-0.4c0.1-0.1,0.2-0.2,0.4-0.2s0.3,0.1,0.4,0.2s0.1,0.2,0.1,0.4s0,0.3-0.1,0.4
			s-0.2,0.1-0.4,0.1s-0.3,0-0.4-0.1C199.5,161.5,199.4,161.4,199.4,161.2z M200.4,167.9h-0.9v-5.3h0.9V167.9z"/>
		<path class="st3" d="M202.9,167.9H202v-7.5h0.9V167.9z"/>
		<path class="st3" d="M205.5,167.9h-0.9v-7.5h0.9V167.9z"/>
		<path class="st3" d="M207,161.2c0-0.1,0-0.3,0.1-0.4c0.1-0.1,0.2-0.2,0.4-0.2s0.3,0.1,0.4,0.2s0.1,0.2,0.1,0.4s0,0.3-0.1,0.4
			s-0.2,0.1-0.4,0.1s-0.3,0-0.4-0.1C207.1,161.5,207,161.4,207,161.2z M208,167.9h-0.9v-5.3h0.9V167.9z"/>
		<path class="st3" d="M212.8,167.9c-0.1-0.1-0.1-0.3-0.1-0.6c-0.4,0.4-0.9,0.7-1.5,0.7c-0.5,0-0.9-0.1-1.3-0.4
			c-0.3-0.3-0.5-0.7-0.5-1.1c0-0.5,0.2-1,0.6-1.3c0.4-0.3,1-0.5,1.8-0.5h0.9v-0.4c0-0.3-0.1-0.6-0.3-0.8s-0.5-0.3-0.8-0.3
			s-0.6,0.1-0.8,0.2s-0.3,0.4-0.3,0.6h-0.9c0-0.3,0.1-0.5,0.3-0.8c0.2-0.2,0.4-0.4,0.8-0.6c0.3-0.1,0.7-0.2,1.1-0.2
			c0.6,0,1.1,0.2,1.4,0.5c0.3,0.3,0.5,0.7,0.5,1.3v2.4c0,0.5,0.1,0.9,0.2,1.2v0.1L212.8,167.9L212.8,167.9z M211.3,167.2
			c0.3,0,0.6-0.1,0.8-0.2s0.4-0.3,0.6-0.6v-1.1H212c-1.1,0-1.7,0.3-1.7,1c0,0.3,0.1,0.5,0.3,0.7S211,167.2,211.3,167.2z"/>
		<path class="st3" d="M217.6,163.4c-0.1,0-0.3,0-0.4,0c-0.6,0-1,0.3-1.2,0.8v3.8h-0.9v-5.3h0.9v0.6c0.3-0.5,0.7-0.7,1.3-0.7
			c0.2,0,0.3,0,0.4,0.1v0.7H217.6z"/>
		<path class="st3" d="M218.3,165.2c0-0.8,0.2-1.5,0.6-2c0.4-0.5,0.9-0.7,1.5-0.7s1.1,0.2,1.5,0.6v-2.8h0.9v7.5H222v-0.6
			c-0.4,0.4-0.9,0.7-1.5,0.7s-1.1-0.3-1.5-0.8C218.5,166.7,218.3,166.1,218.3,165.2L218.3,165.2z M219.2,165.3
			c0,0.6,0.1,1.1,0.4,1.4s0.6,0.5,1,0.5c0.6,0,1-0.3,1.3-0.8V164c-0.3-0.5-0.7-0.7-1.2-0.7c-0.4,0-0.8,0.2-1,0.5
			S219.2,164.6,219.2,165.3z"/>
		<path class="st3" d="M227.4,166.5c0-0.2-0.1-0.4-0.3-0.6c-0.2-0.1-0.5-0.3-1-0.3c-0.5-0.1-0.8-0.2-1.1-0.4
			c-0.3-0.1-0.5-0.3-0.6-0.5s-0.2-0.4-0.2-0.7c0-0.4,0.2-0.8,0.5-1.1c0.4-0.3,0.8-0.4,1.4-0.4c0.6,0,1.1,0.2,1.5,0.5
			s0.6,0.7,0.6,1.2h-0.9c0-0.2-0.1-0.5-0.3-0.6c-0.2-0.2-0.5-0.3-0.8-0.3s-0.6,0.1-0.8,0.2s-0.3,0.3-0.3,0.6c0,0.2,0.1,0.4,0.3,0.5
			s0.5,0.2,0.9,0.3c0.5,0.1,0.8,0.2,1.1,0.4s0.5,0.3,0.6,0.5s0.2,0.4,0.2,0.7c0,0.5-0.2,0.9-0.6,1.1c-0.4,0.3-0.9,0.4-1.5,0.4
			c-0.4,0-0.8-0.1-1.1-0.2s-0.6-0.4-0.8-0.6c-0.2-0.3-0.3-0.6-0.3-0.9h0.9c0,0.3,0.1,0.5,0.4,0.7c0.2,0.2,0.5,0.3,0.9,0.3
			c0.3,0,0.6-0.1,0.8-0.2C227.3,166.9,227.4,166.7,227.4,166.5z"/>
		<path class="st3" d="M231.9,165.2c0-0.8,0.2-1.5,0.6-2c0.4-0.5,0.9-0.7,1.5-0.7s1.1,0.2,1.5,0.6v-2.8h0.9v7.5h-0.8v-0.6
			c-0.4,0.4-0.9,0.7-1.5,0.7s-1.1-0.3-1.5-0.8C232.1,166.7,231.9,166.1,231.9,165.2L231.9,165.2z M232.8,165.3
			c0,0.6,0.1,1.1,0.4,1.4s0.6,0.5,1,0.5c0.6,0,1-0.3,1.3-0.8V164c-0.3-0.5-0.7-0.7-1.2-0.7c-0.4,0-0.8,0.2-1,0.5
			S232.8,164.6,232.8,165.3z"/>
		<path class="st3" d="M240.1,168c-0.7,0-1.3-0.2-1.7-0.7s-0.7-1.1-0.7-1.9v-0.2c0-0.5,0.1-1,0.3-1.4s0.5-0.7,0.8-1
			c0.4-0.2,0.8-0.3,1.2-0.3c0.7,0,1.2,0.2,1.6,0.7s0.6,1.1,0.6,1.9v0.4h-3.6c0,0.5,0.2,0.9,0.5,1.3c0.3,0.3,0.7,0.5,1.1,0.5
			c0.3,0,0.6-0.1,0.8-0.2s0.4-0.3,0.6-0.5l0.6,0.4C241.6,167.7,240.9,168,240.1,168z M239.9,163.3c-0.4,0-0.7,0.1-0.9,0.4
			c-0.2,0.3-0.4,0.6-0.5,1.1h2.6v-0.1c0-0.5-0.1-0.8-0.4-1.1C240.6,163.4,240.3,163.3,239.9,163.3z"/>
		<path class="st3" d="M247.1,161.3v1.3h1v0.7h-1v3.3c0,0.2,0,0.4,0.1,0.5s0.2,0.2,0.4,0.2c0.1,0,0.2,0,0.4-0.1v0.7
			c-0.2,0.1-0.5,0.1-0.7,0.1c-0.4,0-0.7-0.1-0.9-0.4s-0.3-0.6-0.3-1v-3.3h-1v-0.7h1v-1.3H247.1z"/>
		<path class="st3" d="M249,165.2c0-0.5,0.1-1,0.3-1.4s0.5-0.7,0.8-1c0.4-0.2,0.8-0.3,1.2-0.3c0.7,0,1.3,0.2,1.7,0.7s0.7,1.2,0.7,2
			v0.1c0,0.5-0.1,1-0.3,1.4s-0.5,0.7-0.8,1c-0.4,0.2-0.8,0.3-1.3,0.3c-0.7,0-1.3-0.2-1.7-0.7C249.2,166.7,249,166.1,249,165.2
			L249,165.2z M249.9,165.3c0,0.6,0.1,1.1,0.4,1.4c0.3,0.4,0.6,0.5,1.1,0.5s0.8-0.2,1.1-0.5c0.3-0.4,0.4-0.9,0.4-1.5s-0.1-1-0.4-1.4
			c-0.3-0.4-0.6-0.5-1.1-0.5c-0.4,0-0.8,0.2-1.1,0.5S249.9,164.7,249.9,165.3z"/>
		<path class="st3" d="M255.9,162.6v0.7c0.4-0.5,0.9-0.8,1.6-0.8c1.1,0,1.7,0.6,1.7,1.9v3.5h-0.9v-3.5c0-0.4-0.1-0.7-0.3-0.8
			c-0.2-0.2-0.4-0.3-0.8-0.3c-0.3,0-0.5,0.1-0.8,0.2s-0.4,0.4-0.5,0.6v3.8H255v-5.3L255.9,162.6L255.9,162.6z"/>
		<path class="st3" d="M261.5,162.6v0.7c0.4-0.5,0.9-0.8,1.6-0.8c1.1,0,1.7,0.6,1.7,1.9v3.5h-0.9v-3.5c0-0.4-0.1-0.7-0.3-0.8
			c-0.2-0.2-0.4-0.3-0.8-0.3c-0.3,0-0.5,0.1-0.8,0.2s-0.4,0.4-0.5,0.6v3.8h-0.9v-5.3L261.5,162.6L261.5,162.6z"/>
		<path class="st3" d="M268.4,168c-0.7,0-1.3-0.2-1.7-0.7c-0.4-0.5-0.7-1.1-0.7-1.9v-0.2c0-0.5,0.1-1,0.3-1.4c0.2-0.4,0.5-0.7,0.8-1
			c0.4-0.2,0.8-0.3,1.2-0.3c0.7,0,1.2,0.2,1.6,0.7s0.6,1.1,0.6,1.9v0.4h-3.6c0,0.5,0.2,0.9,0.5,1.3c0.3,0.3,0.7,0.5,1.1,0.5
			c0.3,0,0.6-0.1,0.8-0.2s0.4-0.3,0.6-0.5l0.6,0.4C270,167.7,269.3,168,268.4,168z M268.3,163.3c-0.4,0-0.7,0.1-0.9,0.4
			c-0.2,0.3-0.4,0.6-0.5,1.1h2.6v-0.1c0-0.5-0.1-0.8-0.4-1.1C269,163.4,268.7,163.3,268.3,163.3z"/>
		<path class="st3" d="M274.7,166.5c0-0.2-0.1-0.4-0.3-0.6c-0.2-0.1-0.5-0.3-1-0.3c-0.5-0.1-0.8-0.2-1.1-0.4
			c-0.3-0.1-0.5-0.3-0.6-0.5s-0.2-0.4-0.2-0.7c0-0.4,0.2-0.8,0.5-1.1c0.4-0.3,0.8-0.4,1.4-0.4s1.1,0.2,1.5,0.5s0.6,0.7,0.6,1.2h-0.9
			c0-0.2-0.1-0.5-0.3-0.6c-0.2-0.2-0.5-0.3-0.8-0.3s-0.6,0.1-0.8,0.2s-0.3,0.3-0.3,0.6c0,0.2,0.1,0.4,0.3,0.5s0.5,0.2,0.9,0.3
			c0.5,0.1,0.8,0.2,1.1,0.4s0.5,0.3,0.6,0.5s0.2,0.4,0.2,0.7c0,0.5-0.2,0.9-0.6,1.1c-0.4,0.3-0.9,0.4-1.5,0.4
			c-0.4,0-0.8-0.1-1.1-0.2s-0.6-0.4-0.8-0.6c-0.2-0.3-0.3-0.6-0.3-0.9h0.9c0,0.3,0.1,0.5,0.4,0.7c0.2,0.2,0.5,0.3,0.9,0.3
			c0.3,0,0.6-0.1,0.8-0.2C274.6,166.9,274.7,166.7,274.7,166.5z"/>
		<path class="st3" d="M183.1,177.2c0-0.8,0.2-1.5,0.6-2c0.4-0.5,0.9-0.7,1.5-0.7s1.1,0.2,1.5,0.6v-2.8h0.9v7.5h-0.8v-0.6
			c-0.4,0.4-0.9,0.7-1.5,0.7s-1.1-0.3-1.5-0.8C183.2,178.7,183.1,178.1,183.1,177.2L183.1,177.2z M184,177.3c0,0.6,0.1,1.1,0.4,1.4
			s0.6,0.5,1,0.5c0.6,0,1-0.3,1.3-0.8V176c-0.3-0.5-0.7-0.7-1.2-0.7c-0.4,0-0.8,0.2-1,0.5S184,176.6,184,177.3z"/>
		<path class="st3" d="M191.2,180c-0.7,0-1.3-0.2-1.7-0.7s-0.7-1.1-0.7-1.9v-0.2c0-0.5,0.1-1,0.3-1.4s0.5-0.7,0.8-1
			c0.4-0.2,0.8-0.3,1.2-0.3c0.7,0,1.2,0.2,1.6,0.7s0.6,1.1,0.6,1.9v0.4h-3.6c0,0.5,0.2,0.9,0.5,1.3c0.3,0.3,0.7,0.5,1.1,0.5
			c0.3,0,0.6-0.1,0.8-0.2s0.4-0.3,0.6-0.5l0.6,0.4C192.8,179.7,192.1,180,191.2,180z M191.1,175.3c-0.4,0-0.7,0.1-0.9,0.4
			c-0.2,0.3-0.4,0.6-0.5,1.1h2.6v-0.1c0-0.5-0.1-0.8-0.4-1.1C191.8,175.4,191.5,175.3,191.1,175.3z"/>
		<path class="st3" d="M201.4,177.3c0,0.8-0.2,1.5-0.6,1.9s-0.9,0.7-1.5,0.7s-1.1-0.2-1.5-0.6v2.5H197v-7.3h0.8v0.6
			c0.4-0.5,0.9-0.7,1.5-0.7s1.1,0.2,1.5,0.7C201.3,175.7,201.4,176.4,201.4,177.3L201.4,177.3z M200.5,177.2c0-0.6-0.1-1.1-0.4-1.4
			s-0.6-0.5-1-0.5c-0.5,0-1,0.2-1.2,0.7v2.5c0.3,0.5,0.7,0.7,1.2,0.7c0.4,0,0.8-0.2,1-0.5C200.4,178.4,200.5,177.9,200.5,177.2z"/>
		<path class="st3" d="M203.7,179.9h-0.9v-7.5h0.9V179.9z"/>
		<path class="st3" d="M208.5,179.9c-0.1-0.1-0.1-0.3-0.1-0.6c-0.4,0.4-0.9,0.7-1.5,0.7c-0.5,0-0.9-0.1-1.3-0.4
			c-0.3-0.3-0.5-0.7-0.5-1.1c0-0.5,0.2-1,0.6-1.3c0.4-0.3,1-0.5,1.8-0.5h0.9v-0.4c0-0.3-0.1-0.6-0.3-0.8s-0.5-0.3-0.8-0.3
			s-0.6,0.1-0.8,0.2s-0.3,0.4-0.3,0.6h-0.9c0-0.3,0.1-0.5,0.3-0.8c0.2-0.2,0.4-0.4,0.8-0.6c0.3-0.1,0.7-0.2,1.1-0.2
			c0.6,0,1.1,0.2,1.4,0.5c0.3,0.3,0.5,0.7,0.5,1.3v2.4c0,0.5,0.1,0.9,0.2,1.2v0.1L208.5,179.9L208.5,179.9z M207,179.2
			c0.3,0,0.6-0.1,0.8-0.2s0.4-0.3,0.6-0.6v-1.1h-0.7c-1.1,0-1.7,0.3-1.7,1c0,0.3,0.1,0.5,0.3,0.7S206.7,179.2,207,179.2z"/>
		<path class="st3" d="M213.8,178.5c0-0.2-0.1-0.4-0.3-0.6c-0.2-0.1-0.5-0.3-1-0.3c-0.5-0.1-0.8-0.2-1.1-0.4
			c-0.3-0.1-0.5-0.3-0.6-0.5s-0.2-0.4-0.2-0.7c0-0.4,0.2-0.8,0.5-1.1c0.4-0.3,0.8-0.4,1.4-0.4c0.6,0,1.1,0.2,1.5,0.5
			s0.6,0.7,0.6,1.2h-0.9c0-0.2-0.1-0.5-0.3-0.6c-0.2-0.2-0.5-0.3-0.8-0.3s-0.6,0.1-0.8,0.2s-0.3,0.3-0.3,0.6c0,0.2,0.1,0.4,0.3,0.5
			s0.5,0.2,0.9,0.3c0.5,0.1,0.8,0.2,1.1,0.4s0.5,0.3,0.6,0.5s0.2,0.4,0.2,0.7c0,0.5-0.2,0.9-0.6,1.1c-0.4,0.3-0.9,0.4-1.5,0.4
			c-0.4,0-0.8-0.1-1.1-0.2s-0.6-0.4-0.8-0.6c-0.2-0.3-0.3-0.6-0.3-0.9h0.9c0,0.3,0.1,0.5,0.4,0.7c0.2,0.2,0.5,0.3,0.9,0.3
			c0.3,0,0.6-0.1,0.8-0.2C213.7,178.9,213.8,178.7,213.8,178.5z"/>
		<path class="st3" d="M217.2,173.3v1.3h1v0.7h-1v3.3c0,0.2,0,0.4,0.1,0.5s0.2,0.2,0.4,0.2c0.1,0,0.2,0,0.4-0.1v0.7
			c-0.2,0.1-0.5,0.1-0.7,0.1c-0.4,0-0.7-0.1-0.9-0.4s-0.3-0.6-0.3-1v-3.3h-1v-0.7h1v-1.3H217.2z"/>
		<path class="st3" d="M219.4,173.2c0-0.1,0-0.3,0.1-0.4c0.1-0.1,0.2-0.2,0.4-0.2s0.3,0.1,0.4,0.2s0.1,0.2,0.1,0.4s0,0.3-0.1,0.4
			s-0.2,0.1-0.4,0.1s-0.3,0-0.4-0.1C219.4,173.5,219.4,173.4,219.4,173.2z M220.4,179.9h-0.9v-5.3h0.9V179.9z"/>
		<path class="st3" d="M221.7,177.2c0-0.8,0.2-1.5,0.6-2c0.4-0.5,0.9-0.7,1.5-0.7s1.1,0.2,1.5,0.6v-0.5h0.8v7.3h-0.9v-2.5
			c-0.4,0.4-0.8,0.6-1.5,0.6c-0.6,0-1.1-0.2-1.5-0.7C221.9,178.8,221.7,178.1,221.7,177.2L221.7,177.2z M222.6,177.3
			c0,0.6,0.1,1.1,0.4,1.4c0.3,0.3,0.6,0.5,1,0.5c0.5,0,0.9-0.2,1.2-0.7V176c-0.3-0.5-0.7-0.7-1.2-0.7c-0.4,0-0.8,0.2-1,0.5
			C222.7,176.1,222.6,176.6,222.6,177.3z"/>
		<path class="st3" d="M231,179.4c-0.4,0.4-0.9,0.6-1.5,0.6s-1-0.2-1.3-0.5s-0.4-0.8-0.4-1.5v-3.4h0.9v3.4c0,0.8,0.3,1.2,1,1.2
			s1.1-0.3,1.4-0.8v-3.8h0.9v5.3h-1V179.4z"/>
		<path class="st3" d="M235.5,180c-0.7,0-1.3-0.2-1.7-0.7s-0.7-1.1-0.7-1.9v-0.2c0-0.5,0.1-1,0.3-1.4s0.5-0.7,0.8-1
			c0.4-0.2,0.8-0.3,1.2-0.3c0.7,0,1.2,0.2,1.6,0.7s0.6,1.1,0.6,1.9v0.4H234c0,0.5,0.2,0.9,0.5,1.3c0.3,0.3,0.7,0.5,1.1,0.5
			c0.3,0,0.6-0.1,0.8-0.2s0.4-0.3,0.6-0.5l0.6,0.4C237,179.7,236.4,180,235.5,180z M235.4,175.3c-0.4,0-0.7,0.1-0.9,0.4
			c-0.2,0.3-0.4,0.6-0.5,1.1h2.6v-0.1c0-0.5-0.1-0.8-0.4-1.1C236.1,175.4,235.8,175.3,235.4,175.3z"/>
		<path class="st3" d="M245.7,177.3c0,0.8-0.2,1.5-0.6,1.9s-0.9,0.7-1.5,0.7s-1.1-0.2-1.5-0.6v2.5h-0.9v-7.3h0.8v0.6
			c0.4-0.5,0.9-0.7,1.5-0.7s1.1,0.2,1.5,0.7C245.6,175.7,245.7,176.4,245.7,177.3L245.7,177.3z M244.8,177.2c0-0.6-0.1-1.1-0.4-1.4
			s-0.6-0.5-1-0.5c-0.5,0-1,0.2-1.2,0.7v2.5c0.3,0.5,0.7,0.7,1.2,0.7c0.4,0,0.8-0.2,1-0.5C244.7,178.4,244.8,177.9,244.8,177.2z"/>
		<path class="st3" d="M249.5,175.4c-0.1,0-0.3,0-0.4,0c-0.6,0-1,0.3-1.2,0.8v3.8H247v-5.3h0.9v0.6c0.3-0.5,0.7-0.7,1.3-0.7
			c0.2,0,0.3,0,0.4,0.1L249.5,175.4L249.5,175.4z"/>
		<path class="st3" d="M250.2,177.2c0-0.5,0.1-1,0.3-1.4s0.5-0.7,0.8-1c0.4-0.2,0.8-0.3,1.2-0.3c0.7,0,1.3,0.2,1.7,0.7
			s0.7,1.2,0.7,2v0.1c0,0.5-0.1,1-0.3,1.4s-0.5,0.7-0.8,1c-0.4,0.2-0.8,0.3-1.3,0.3c-0.7,0-1.3-0.2-1.7-0.7
			C250.5,178.7,250.2,178.1,250.2,177.2L250.2,177.2z M251.1,177.3c0,0.6,0.1,1.1,0.4,1.4c0.3,0.4,0.6,0.5,1.1,0.5s0.8-0.2,1.1-0.5
			c0.3-0.4,0.4-0.9,0.4-1.5s-0.1-1-0.4-1.4c-0.3-0.4-0.6-0.5-1.1-0.5c-0.4,0-0.8,0.2-1.1,0.5S251.1,176.7,251.1,177.3z"/>
		<path class="st3" d="M256.1,177.2c0-0.8,0.2-1.5,0.6-2s0.9-0.7,1.5-0.7s1.1,0.2,1.5,0.6v-2.8h0.9v7.5h-0.8v-0.6
			c-0.4,0.4-0.9,0.7-1.5,0.7s-1.1-0.3-1.5-0.8C256.3,178.7,256.1,178.1,256.1,177.2L256.1,177.2z M257,177.3c0,0.6,0.1,1.1,0.4,1.4
			s0.6,0.5,1,0.5c0.6,0,1-0.3,1.3-0.8V176c-0.3-0.5-0.7-0.7-1.2-0.7c-0.4,0-0.8,0.2-1,0.5S257,176.6,257,177.3z"/>
		<path class="st3" d="M265.3,179.4c-0.4,0.4-0.9,0.6-1.5,0.6s-1-0.2-1.3-0.5s-0.4-0.8-0.4-1.5v-3.4h0.9v3.4c0,0.8,0.3,1.2,1,1.2
			s1.1-0.3,1.4-0.8v-3.8h0.9v5.3h-0.9L265.3,179.4z"/>
		<path class="st3" d="M267.6,173.2c0-0.1,0-0.3,0.1-0.4c0.1-0.1,0.2-0.2,0.4-0.2s0.3,0.1,0.4,0.2s0.1,0.2,0.1,0.4s0,0.3-0.1,0.4
			s-0.2,0.1-0.4,0.1s-0.3,0-0.4-0.1C267.7,173.5,267.6,173.4,267.6,173.2z M268.6,179.9h-0.9v-5.3h0.9V179.9z"/>
		<path class="st3" d="M271.4,173.3v1.3h1v0.7h-1v3.3c0,0.2,0,0.4,0.1,0.5s0.2,0.2,0.4,0.2c0.1,0,0.2,0,0.4-0.1v0.7
			c-0.2,0.1-0.5,0.1-0.7,0.1c-0.4,0-0.7-0.1-0.9-0.4s-0.3-0.6-0.3-1v-3.3h-1v-0.7h1v-1.3H271.4z"/>
		<path class="st3" d="M275.7,180c-0.7,0-1.3-0.2-1.7-0.7c-0.4-0.5-0.7-1.1-0.7-1.9v-0.2c0-0.5,0.1-1,0.3-1.4c0.2-0.4,0.5-0.7,0.8-1
			c0.4-0.2,0.8-0.3,1.2-0.3c0.7,0,1.2,0.2,1.6,0.7s0.6,1.1,0.6,1.9v0.4h-3.6c0,0.5,0.2,0.9,0.5,1.3c0.3,0.3,0.7,0.5,1.1,0.5
			c0.3,0,0.6-0.1,0.8-0.2s0.4-0.3,0.6-0.5l0.6,0.4C277.3,179.7,276.6,180,275.7,180z M275.6,175.3c-0.4,0-0.7,0.1-0.9,0.4
			c-0.2,0.3-0.4,0.6-0.5,1.1h2.6v-0.1c0-0.5-0.1-0.8-0.4-1.1C276.3,175.4,276,175.3,275.6,175.3z"/>
		<path class="st3" d="M282,178.5c0-0.2-0.1-0.4-0.3-0.6c-0.2-0.1-0.5-0.3-1-0.3c-0.5-0.1-0.8-0.2-1.1-0.4c-0.3-0.1-0.5-0.3-0.6-0.5
			s-0.2-0.4-0.2-0.7c0-0.4,0.2-0.8,0.5-1.1c0.4-0.3,0.8-0.4,1.4-0.4s1.1,0.2,1.5,0.5s0.6,0.7,0.6,1.2h-0.9c0-0.2-0.1-0.5-0.3-0.6
			c-0.2-0.2-0.5-0.3-0.8-0.3s-0.6,0.1-0.8,0.2s-0.3,0.3-0.3,0.6c0,0.2,0.1,0.4,0.3,0.5s0.5,0.2,0.9,0.3c0.5,0.1,0.8,0.2,1.1,0.4
			s0.5,0.3,0.6,0.5s0.2,0.4,0.2,0.7c0,0.5-0.2,0.9-0.6,1.1c-0.4,0.3-0.9,0.4-1.5,0.4c-0.4,0-0.8-0.1-1.1-0.2s-0.6-0.4-0.8-0.6
			c-0.2-0.3-0.3-0.6-0.3-0.9h0.9c0,0.3,0.1,0.5,0.4,0.7c0.2,0.2,0.5,0.3,0.9,0.3c0.3,0,0.6-0.1,0.8-0.2
			C281.9,178.9,282,178.7,282,178.5z"/>
		<path class="st3" d="M200.2,189.2c0-0.8,0.2-1.5,0.6-2c0.4-0.5,0.9-0.7,1.5-0.7s1.1,0.2,1.5,0.6v-2.8h0.9v7.5h-0.8v-0.6
			c-0.4,0.4-0.9,0.7-1.5,0.7s-1.1-0.3-1.5-0.8C200.4,190.7,200.2,190.1,200.2,189.2L200.2,189.2z M201.1,189.3
			c0,0.6,0.1,1.1,0.4,1.4s0.6,0.5,1,0.5c0.6,0,1-0.3,1.3-0.8V188c-0.3-0.5-0.7-0.7-1.2-0.7c-0.4,0-0.8,0.2-1,0.5
			S201.1,188.6,201.1,189.3z"/>
		<path class="st3" d="M209.4,191.9c-0.1-0.1-0.1-0.3-0.1-0.6c-0.4,0.4-0.9,0.7-1.5,0.7c-0.5,0-0.9-0.1-1.3-0.4
			c-0.3-0.3-0.5-0.7-0.5-1.1c0-0.5,0.2-1,0.6-1.3c0.4-0.3,1-0.5,1.8-0.5h0.9v-0.4c0-0.3-0.1-0.6-0.3-0.8s-0.5-0.3-0.8-0.3
			s-0.6,0.1-0.8,0.2s-0.3,0.4-0.3,0.6h-0.9c0-0.3,0.1-0.5,0.3-0.8c0.2-0.2,0.4-0.4,0.8-0.6c0.3-0.1,0.7-0.2,1.1-0.2
			c0.6,0,1.1,0.2,1.4,0.5c0.3,0.3,0.5,0.7,0.5,1.3v2.4c0,0.5,0.1,0.9,0.2,1.2v0.1L209.4,191.9L209.4,191.9z M207.9,191.2
			c0.3,0,0.6-0.1,0.8-0.2s0.4-0.3,0.6-0.6v-1.1h-0.7c-1.1,0-1.7,0.3-1.7,1c0,0.3,0.1,0.5,0.3,0.7S207.6,191.2,207.9,191.2z"/>
		<path class="st3" d="M212.5,186.6v0.7c0.4-0.5,0.9-0.8,1.6-0.8c1.1,0,1.7,0.6,1.7,1.9v3.5h-0.9v-3.5c0-0.4-0.1-0.7-0.3-0.8
			c-0.2-0.2-0.4-0.3-0.8-0.3c-0.3,0-0.5,0.1-0.8,0.2s-0.4,0.4-0.5,0.6v3.8h-0.9v-5.3L212.5,186.6L212.5,186.6z"/>
		<path class="st3" d="M220.4,190.5c0-0.2-0.1-0.4-0.3-0.6c-0.2-0.1-0.5-0.3-1-0.3c-0.5-0.1-0.8-0.2-1.1-0.4
			c-0.3-0.1-0.5-0.3-0.6-0.5s-0.2-0.4-0.2-0.7c0-0.4,0.2-0.8,0.5-1.1c0.4-0.3,0.8-0.4,1.4-0.4c0.6,0,1.1,0.2,1.5,0.5
			s0.6,0.7,0.6,1.2h-0.9c0-0.2-0.1-0.5-0.3-0.6c-0.2-0.2-0.5-0.3-0.8-0.3s-0.6,0.1-0.8,0.2s-0.3,0.3-0.3,0.6c0,0.2,0.1,0.4,0.3,0.5
			s0.5,0.2,0.9,0.3c0.5,0.1,0.8,0.2,1.1,0.4s0.5,0.3,0.6,0.5s0.2,0.4,0.2,0.7c0,0.5-0.2,0.9-0.6,1.1c-0.4,0.3-0.9,0.4-1.5,0.4
			c-0.4,0-0.8-0.1-1.1-0.2s-0.6-0.4-0.8-0.6c-0.2-0.3-0.3-0.6-0.3-0.9h0.9c0,0.3,0.1,0.5,0.4,0.7c0.2,0.2,0.5,0.3,0.9,0.3
			c0.3,0,0.6-0.1,0.8-0.2C220.3,190.9,220.4,190.7,220.4,190.5z"/>
		<path class="st3" d="M226.1,191.9h-0.9v-7.5h0.9V191.9z"/>
		<path class="st3" d="M229.8,192c-0.7,0-1.3-0.2-1.7-0.7s-0.7-1.1-0.7-1.9v-0.2c0-0.5,0.1-1,0.3-1.4s0.5-0.7,0.8-1
			c0.4-0.2,0.8-0.3,1.2-0.3c0.7,0,1.2,0.2,1.6,0.7s0.6,1.1,0.6,1.9v0.4h-3.6c0,0.5,0.2,0.9,0.5,1.3c0.3,0.3,0.7,0.5,1.1,0.5
			c0.3,0,0.6-0.1,0.8-0.2s0.4-0.3,0.6-0.5l0.6,0.4C231.4,191.7,230.7,192,229.8,192z M229.7,187.3c-0.4,0-0.7,0.1-0.9,0.4
			c-0.2,0.3-0.4,0.6-0.5,1.1h2.6v-0.1c0-0.5-0.1-0.8-0.4-1.1C230.4,187.4,230.1,187.3,229.7,187.3z"/>
		<path class="st3" d="M236.5,186.6v0.6c0.4-0.5,0.9-0.7,1.6-0.7c0.7,0,1.2,0.3,1.5,0.8c0.2-0.3,0.4-0.5,0.7-0.6
			c0.3-0.2,0.6-0.2,1-0.2c1.2,0,1.7,0.6,1.8,1.8v3.5h-0.9v-3.5c0-0.4-0.1-0.7-0.3-0.8c-0.2-0.2-0.5-0.3-0.9-0.3
			c-0.3,0-0.6,0.1-0.8,0.3s-0.3,0.5-0.4,0.8v3.5h-0.9v-3.5c0-0.8-0.4-1.2-1.1-1.2c-0.6,0-1,0.3-1.2,0.8v3.9h-0.9v-5.3L236.5,186.6
			L236.5,186.6z"/>
		<path class="st3" d="M244.3,189.2c0-0.5,0.1-1,0.3-1.4s0.5-0.7,0.8-1c0.4-0.2,0.8-0.3,1.2-0.3c0.7,0,1.3,0.2,1.7,0.7
			s0.7,1.2,0.7,2v0.1c0,0.5-0.1,1-0.3,1.4s-0.5,0.7-0.8,1c-0.4,0.2-0.8,0.3-1.3,0.3c-0.7,0-1.3-0.2-1.7-0.7
			C244.5,190.7,244.3,190.1,244.3,189.2L244.3,189.2z M245.2,189.3c0,0.6,0.1,1.1,0.4,1.4c0.3,0.4,0.6,0.5,1.1,0.5s0.8-0.2,1.1-0.5
			c0.3-0.4,0.4-0.9,0.4-1.5s-0.1-1-0.4-1.4c-0.3-0.4-0.6-0.5-1.1-0.5c-0.4,0-0.8,0.2-1.1,0.5S245.2,188.7,245.2,189.3z"/>
		<path class="st3" d="M251.2,186.6v0.7c0.4-0.5,0.9-0.8,1.6-0.8c1.1,0,1.7,0.6,1.7,1.9v3.5h-0.9v-3.5c0-0.4-0.1-0.7-0.3-0.8
			c-0.2-0.2-0.4-0.3-0.8-0.3c-0.3,0-0.5,0.1-0.8,0.2s-0.4,0.4-0.5,0.6v3.8h-0.9v-5.3L251.2,186.6L251.2,186.6z"/>
		<path class="st3" d="M255.7,189.2c0-0.8,0.2-1.5,0.6-2s0.9-0.7,1.5-0.7s1.1,0.2,1.5,0.6v-2.8h0.9v7.5h-0.8v-0.6
			c-0.4,0.4-0.9,0.7-1.5,0.7s-1.1-0.3-1.5-0.8C255.9,190.7,255.7,190.1,255.7,189.2L255.7,189.2z M256.6,189.3
			c0,0.6,0.1,1.1,0.4,1.4s0.6,0.5,1,0.5c0.6,0,1-0.3,1.3-0.8V188c-0.3-0.5-0.7-0.7-1.2-0.7c-0.4,0-0.8,0.2-1,0.5
			S256.6,188.6,256.6,189.3z"/>
		<path class="st3" d="M263.8,192c-0.7,0-1.3-0.2-1.7-0.7c-0.4-0.5-0.7-1.1-0.7-1.9v-0.2c0-0.5,0.1-1,0.3-1.4c0.2-0.4,0.5-0.7,0.8-1
			c0.4-0.2,0.8-0.3,1.2-0.3c0.7,0,1.2,0.2,1.6,0.7s0.6,1.1,0.6,1.9v0.4h-3.6c0,0.5,0.2,0.9,0.5,1.3c0.3,0.3,0.7,0.5,1.1,0.5
			c0.3,0,0.6-0.1,0.8-0.2s0.4-0.3,0.6-0.5l0.6,0.4C265.4,191.7,264.7,192,263.8,192z M263.7,187.3c-0.4,0-0.7,0.1-0.9,0.4
			c-0.2,0.3-0.4,0.6-0.5,1.1h2.6v-0.1c0-0.5-0.1-0.8-0.4-1.1C264.4,187.4,264.1,187.3,263.7,187.3z"/>
		<path class="st3" d="M194.5,204c-0.7,0-1.3-0.2-1.7-0.7s-0.7-1.1-0.7-1.9v-0.2c0-0.5,0.1-1,0.3-1.4s0.5-0.7,0.8-1
			c0.4-0.2,0.8-0.3,1.2-0.3c0.7,0,1.2,0.2,1.6,0.7s0.6,1.1,0.6,1.9v0.4H193c0,0.5,0.2,0.9,0.5,1.3c0.3,0.3,0.7,0.5,1.1,0.5
			c0.3,0,0.6-0.1,0.8-0.2s0.4-0.3,0.6-0.5l0.6,0.4C196,203.7,195.4,204,194.5,204z M194.4,199.3c-0.4,0-0.7,0.1-0.9,0.4
			c-0.2,0.3-0.4,0.6-0.5,1.1h2.6v-0.1c0-0.5-0.1-0.8-0.4-1.1C195,199.4,194.7,199.3,194.4,199.3z"/>
		<path class="st3" d="M198.5,198.6v0.7c0.4-0.5,0.9-0.8,1.6-0.8c1.1,0,1.7,0.6,1.7,1.9v3.5h-0.9v-3.5c0-0.4-0.1-0.7-0.3-0.8
			c-0.2-0.2-0.4-0.3-0.8-0.3c-0.3,0-0.5,0.1-0.8,0.2s-0.4,0.4-0.5,0.6v3.8h-0.9v-5.3L198.5,198.6L198.5,198.6z"/>
		<path class="st3" d="M204.5,197.3v1.3h1v0.7h-1v3.3c0,0.2,0,0.4,0.1,0.5s0.2,0.2,0.4,0.2c0.1,0,0.2,0,0.4-0.1v0.7
			c-0.2,0.1-0.5,0.1-0.7,0.1c-0.4,0-0.7-0.1-0.9-0.4s-0.3-0.6-0.3-1v-3.3h-1v-0.7h1v-1.3H204.5z"/>
		<path class="st3" d="M209.2,199.4c-0.1,0-0.3,0-0.4,0c-0.6,0-1,0.3-1.2,0.8v3.8h-0.9v-5.3h0.9v0.6c0.3-0.5,0.7-0.7,1.3-0.7
			c0.2,0,0.3,0,0.4,0.1v0.7H209.2z"/>
		<path class="st3" d="M212.3,204c-0.7,0-1.3-0.2-1.7-0.7s-0.7-1.1-0.7-1.9v-0.2c0-0.5,0.1-1,0.3-1.4s0.5-0.7,0.8-1
			c0.4-0.2,0.8-0.3,1.2-0.3c0.7,0,1.2,0.2,1.6,0.7s0.6,1.1,0.6,1.9v0.4h-3.6c0,0.5,0.2,0.9,0.5,1.3c0.3,0.3,0.7,0.5,1.1,0.5
			c0.3,0,0.6-0.1,0.8-0.2s0.4-0.3,0.6-0.5l0.6,0.4C213.9,203.7,213.2,204,212.3,204z M212.2,199.3c-0.4,0-0.7,0.1-0.9,0.4
			c-0.2,0.3-0.4,0.6-0.5,1.1h2.6v-0.1c0-0.5-0.1-0.8-0.4-1.1C212.9,199.4,212.6,199.3,212.2,199.3z"/>
		<path class="st3" d="M221,203.9h-0.9v-6l-1.8,0.7v-0.8l2.6-1h0.1L221,203.9L221,203.9z"/>
		<path class="st3" d="M227.2,200.8c-0.2,0.2-0.4,0.4-0.7,0.5s-0.5,0.2-0.9,0.2s-0.8-0.1-1.1-0.3s-0.5-0.5-0.7-0.9s-0.2-0.8-0.2-1.2
			c0-0.5,0.1-0.9,0.3-1.3c0.2-0.4,0.4-0.7,0.8-0.9s0.7-0.3,1.2-0.3c0.7,0,1.3,0.3,1.7,0.8s0.6,1.2,0.6,2.2v0.3c0,1.4-0.3,2.4-0.8,3
			s-1.4,1-2.5,1h-0.2v-0.8h0.2c0.7,0,1.3-0.2,1.7-0.6S227.2,201.6,227.2,200.8z M225.8,200.8c0.3,0,0.6-0.1,0.8-0.3
			c0.3-0.2,0.4-0.4,0.6-0.7v-0.4c0-0.6-0.1-1.1-0.4-1.4s-0.6-0.6-1-0.6s-0.7,0.2-1,0.5c-0.2,0.3-0.4,0.7-0.4,1.2s0.1,0.9,0.3,1.2
			C225.1,200.6,225.4,200.8,225.8,200.8z"/>
		<path class="st3" d="M229.9,200.3l0.4-3.5h3.6v0.8H231l-0.2,1.9c0.3-0.2,0.7-0.3,1.2-0.3c0.6,0,1.2,0.2,1.5,0.6
			c0.4,0.4,0.6,1,0.6,1.7s-0.2,1.3-0.6,1.7c-0.4,0.4-0.9,0.6-1.7,0.6c-0.6,0-1.1-0.2-1.5-0.5s-0.6-0.8-0.7-1.4h0.9
			c0.1,0.4,0.2,0.7,0.4,0.9s0.5,0.3,0.9,0.3s0.8-0.1,1-0.4c0.2-0.3,0.4-0.7,0.4-1.2s-0.1-0.9-0.4-1.1c-0.3-0.3-0.6-0.4-1-0.4
			s-0.7,0.1-0.9,0.3l-0.2,0.2L229.9,200.3z"/>
		<path class="st3" d="M239.6,200.9c0,1.1-0.2,1.8-0.5,2.4s-0.9,0.8-1.7,0.8s-1.3-0.3-1.7-0.8s-0.6-1.3-0.6-2.3v-1.2
			c0-1,0.2-1.8,0.5-2.3s0.9-0.8,1.7-0.8s1.3,0.2,1.7,0.7s0.5,1.2,0.6,2.3V200.9z M238.7,199.6c0-0.8-0.1-1.3-0.3-1.7s-0.6-0.5-1-0.5
			c-0.5,0-0.8,0.2-1,0.5s-0.3,0.9-0.3,1.6v1.4c0,0.8,0.1,1.3,0.3,1.7s0.6,0.5,1,0.5s0.8-0.2,1-0.5s0.3-0.9,0.3-1.6V199.6z"/>
		<path class="st3" d="M245.7,204c-0.7,0-1.3-0.2-1.7-0.7s-0.7-1.1-0.7-1.9v-0.2c0-0.5,0.1-1,0.3-1.4s0.5-0.7,0.8-1
			c0.4-0.2,0.8-0.3,1.2-0.3c0.7,0,1.2,0.2,1.6,0.7s0.6,1.1,0.6,1.9v0.4h-3.6c0,0.5,0.2,0.9,0.5,1.3c0.3,0.3,0.7,0.5,1.1,0.5
			c0.3,0,0.6-0.1,0.8-0.2s0.4-0.3,0.6-0.5l0.6,0.4C247.3,203.7,246.6,204,245.7,204z M245.6,199.3c-0.4,0-0.7,0.1-0.9,0.4
			c-0.2,0.3-0.4,0.6-0.5,1.1h2.6v-0.1c0-0.5-0.1-0.8-0.4-1.1C246.3,199.4,246,199.3,245.6,199.3z"/>
		<path class="st3" d="M250.2,197.3v1.3h1v0.7h-1v3.3c0,0.2,0,0.4,0.1,0.5s0.2,0.2,0.4,0.2c0.1,0,0.2,0,0.4-0.1v0.7
			c-0.2,0.1-0.5,0.1-0.7,0.1c-0.4,0-0.7-0.1-0.9-0.4s-0.3-0.6-0.3-1v-3.3h-1v-0.7h1v-1.3H250.2z"/>
		<path class="st3" d="M259.5,203.9h-4.7v-0.6l2.5-2.7c0.4-0.4,0.6-0.7,0.8-1c0.1-0.3,0.2-0.5,0.2-0.8c0-0.4-0.1-0.7-0.3-0.9
			s-0.5-0.4-0.9-0.4s-0.8,0.1-1,0.4c-0.2,0.3-0.4,0.6-0.4,1.1h-0.9c0-0.7,0.2-1.2,0.6-1.6c0.4-0.4,1-0.6,1.7-0.6s1.2,0.2,1.6,0.5
			s0.6,0.8,0.6,1.4c0,0.7-0.4,1.5-1.3,2.5l-1.9,2.1h3.6v0.6H259.5z"/>
		<path class="st3" d="M265,200.9c0,1.1-0.2,1.8-0.5,2.4s-0.9,0.8-1.7,0.8c-0.8,0-1.3-0.3-1.7-0.8c-0.4-0.5-0.6-1.3-0.6-2.3v-1.2
			c0-1,0.2-1.8,0.5-2.3s0.9-0.8,1.7-0.8c0.8,0,1.3,0.2,1.7,0.7c0.4,0.5,0.5,1.2,0.6,2.3V200.9z M264.1,199.6c0-0.8-0.1-1.3-0.3-1.7
			c-0.2-0.4-0.6-0.5-1-0.5c-0.5,0-0.8,0.2-1,0.5s-0.3,0.9-0.3,1.6v1.4c0,0.8,0.1,1.3,0.3,1.7c0.2,0.4,0.6,0.5,1,0.5s0.8-0.2,1-0.5
			s0.3-0.9,0.3-1.6V199.6z"/>
		<path class="st3" d="M269.2,203.9h-0.9v-6l-1.8,0.7v-0.8l2.6-1h0.1L269.2,203.9L269.2,203.9z"/>
		<path class="st3" d="M272.4,200.3l0.4-3.5h3.6v0.8h-2.9l-0.2,1.9c0.3-0.2,0.7-0.3,1.2-0.3c0.6,0,1.2,0.2,1.5,0.6
			c0.4,0.4,0.6,1,0.6,1.7s-0.2,1.3-0.6,1.7s-0.9,0.6-1.7,0.6c-0.6,0-1.1-0.2-1.5-0.5s-0.6-0.8-0.7-1.4h0.9c0.1,0.4,0.2,0.7,0.4,0.9
			c0.2,0.2,0.5,0.3,0.9,0.3s0.8-0.1,1-0.4c0.2-0.3,0.4-0.7,0.4-1.2s-0.1-0.9-0.4-1.1c-0.3-0.3-0.6-0.4-1-0.4s-0.7,0.1-0.9,0.3
			l-0.2,0.2L272.4,200.3z"/>
		<path class="st3" d="M209.1,213.8c-0.4-0.1-0.8-0.3-1-0.5s-0.3-0.4-0.3-0.7s0.1-0.6,0.4-0.8c0.2-0.2,0.6-0.3,1-0.3
			c0.3,0,0.5,0.1,0.7,0.2c0.2,0.1,0.4,0.2,0.5,0.4s0.2,0.4,0.2,0.6H210c0-0.2-0.1-0.4-0.2-0.6s-0.4-0.2-0.6-0.2
			c-0.3,0-0.5,0.1-0.6,0.2c-0.1,0.1-0.2,0.3-0.2,0.5s0.1,0.3,0.2,0.4c0.1,0.1,0.4,0.2,0.7,0.3s0.6,0.2,0.8,0.3s0.3,0.2,0.4,0.4
			c0.1,0.1,0.1,0.3,0.1,0.5c0,0.3-0.1,0.6-0.4,0.8s-0.6,0.3-1,0.3c-0.3,0-0.5-0.1-0.8-0.2c-0.2-0.1-0.4-0.2-0.5-0.4
			s-0.2-0.4-0.2-0.6h0.5c0,0.2,0.1,0.4,0.3,0.6s0.4,0.2,0.7,0.2s0.5-0.1,0.6-0.2c0.1-0.1,0.2-0.3,0.2-0.5s-0.1-0.3-0.2-0.4
			C209.7,214,209.5,213.9,209.1,213.8z"/>
		<path class="st3" d="M211,214c0-0.3,0.1-0.5,0.2-0.8c0.1-0.2,0.3-0.4,0.5-0.5s0.4-0.2,0.7-0.2c0.4,0,0.7,0.1,1,0.4
			c0.2,0.3,0.4,0.6,0.4,1.1l0,0c0,0.3-0.1,0.5-0.2,0.8s-0.3,0.4-0.5,0.5s-0.4,0.2-0.7,0.2c-0.4,0-0.7-0.1-1-0.4
			C211.1,214.9,211,214.5,211,214L211,214z M211.5,214.1c0,0.3,0.1,0.6,0.2,0.8s0.3,0.3,0.6,0.3s0.5-0.1,0.6-0.3s0.2-0.5,0.2-0.8
			s-0.1-0.6-0.2-0.8c-0.2-0.2-0.4-0.3-0.6-0.3c-0.2,0-0.4,0.1-0.6,0.3S211.5,213.7,211.5,214.1z"/>
		<path class="st3" d="M216.1,215.2c-0.2,0.2-0.5,0.3-0.9,0.3c-0.3,0-0.5-0.1-0.7-0.3s-0.2-0.4-0.2-0.8v-1.9h0.5v1.9
			c0,0.4,0.2,0.7,0.5,0.7c0.4,0,0.6-0.1,0.8-0.4v-2.1h0.5v2.9h-0.5L216.1,215.2z"/>
		<path class="st3" d="M218.7,213c-0.1,0-0.2,0-0.2,0c-0.3,0-0.5,0.1-0.7,0.4v2.1h-0.5v-2.9h0.5v0.3c0.2-0.3,0.4-0.4,0.7-0.4
			c0.1,0,0.2,0,0.2,0V213z"/>
		<path class="st3" d="M220.4,215.1c0.2,0,0.3-0.1,0.5-0.2c0.1-0.1,0.2-0.2,0.2-0.4h0.5c0,0.2-0.1,0.3-0.2,0.5s-0.2,0.3-0.4,0.4
			c-0.2,0.1-0.4,0.1-0.6,0.1c-0.4,0-0.7-0.1-0.9-0.4c-0.2-0.3-0.4-0.6-0.4-1.1v0c0-0.3,0.1-0.5,0.2-0.8c0.1-0.2,0.3-0.4,0.4-0.5
			c0.2-0.1,0.4-0.2,0.7-0.2s0.6,0.1,0.8,0.3s0.3,0.4,0.3,0.8H221c0-0.2-0.1-0.3-0.2-0.5s-0.3-0.2-0.5-0.2c-0.3,0-0.4,0.1-0.6,0.3
			s-0.2,0.4-0.2,0.8v0.1c0,0.3,0.1,0.6,0.2,0.8C219.9,215.1,220.1,215.1,220.4,215.1z"/>
		<path class="st3" d="M223.3,215.5c-0.4,0-0.7-0.1-1-0.4s-0.4-0.6-0.4-1V214c0-0.3,0.1-0.5,0.2-0.8s0.3-0.4,0.5-0.5
			s0.4-0.2,0.6-0.2c0.4,0,0.7,0.1,0.9,0.4c0.2,0.2,0.3,0.6,0.3,1.1v0.2h-2c0,0.3,0.1,0.5,0.3,0.7s0.4,0.3,0.6,0.3
			c0.2,0,0.3,0,0.4-0.1c0.1-0.1,0.2-0.2,0.3-0.3l0.3,0.2C224.1,215.4,223.8,215.5,223.3,215.5z M223.2,212.9c-0.2,0-0.4,0.1-0.5,0.2
			c-0.1,0.1-0.2,0.3-0.3,0.6h1.5l0,0c0-0.3-0.1-0.4-0.2-0.6C223.6,213,223.4,212.9,223.2,212.9z"/>
		<path class="st3" d="M225,215.2c0-0.1,0-0.2,0.1-0.2c0.1-0.1,0.1-0.1,0.2-0.1s0.2,0,0.2,0.1c0.1,0.1,0.1,0.1,0.1,0.2
			c0,0.1,0,0.2-0.1,0.2s-0.1,0.1-0.2,0.1s-0.2,0-0.2-0.1S225,215.3,225,215.2z M225,212.9c0-0.1,0-0.2,0.1-0.2
			c0.1-0.1,0.1-0.1,0.2-0.1c0.1,0,0.2,0,0.2,0.1s0.1,0.1,0.1,0.2c0,0.1,0,0.2-0.1,0.2s-0.1,0.1-0.2,0.1c-0.1,0-0.2,0-0.2-0.1
			C225,213,225,212.9,225,212.9z"/>
		<path class="st3" d="M229.2,213.9h-0.9v1.6h-0.5v-3.9h1.3c0.4,0,0.8,0.1,1,0.3s0.4,0.5,0.4,0.9c0,0.2-0.1,0.5-0.2,0.6
			c-0.1,0.2-0.3,0.3-0.5,0.4l0.9,1.7l0,0H230L229.2,213.9z M228.3,213.5h0.8c0.3,0,0.5-0.1,0.6-0.2s0.2-0.3,0.2-0.5
			s-0.1-0.4-0.2-0.6c-0.1-0.1-0.4-0.2-0.6-0.2h-0.8V213.5z"/>
		<path class="st3" d="M230.9,214c0-0.3,0.1-0.5,0.2-0.8c0.1-0.2,0.3-0.4,0.5-0.5s0.4-0.2,0.7-0.2c0.4,0,0.7,0.1,1,0.4
			c0.2,0.3,0.4,0.6,0.4,1.1l0,0c0,0.3-0.1,0.5-0.2,0.8s-0.3,0.4-0.5,0.5s-0.4,0.2-0.7,0.2c-0.4,0-0.7-0.1-1-0.4
			C231,214.9,230.9,214.5,230.9,214L230.9,214z M231.4,214.1c0,0.3,0.1,0.6,0.2,0.8s0.3,0.3,0.6,0.3s0.5-0.1,0.6-0.3
			s0.2-0.5,0.2-0.8s-0.1-0.6-0.2-0.8c-0.2-0.2-0.4-0.3-0.6-0.3c-0.2,0-0.4,0.1-0.6,0.3S231.4,213.7,231.4,214.1z"/>
		<path class="st3" d="M234.7,215.5h-0.5v-4.1h0.5V215.5z"/>
		<path class="st3" d="M237.3,215.5c0-0.1-0.1-0.2-0.1-0.3c-0.2,0.2-0.5,0.4-0.8,0.4s-0.5-0.1-0.7-0.2s-0.3-0.4-0.3-0.6
			c0-0.3,0.1-0.5,0.3-0.7s0.6-0.3,1-0.3h0.5v-0.2c0-0.2-0.1-0.3-0.2-0.4c-0.1-0.1-0.3-0.2-0.5-0.2s-0.3,0-0.4,0.1
			c-0.1,0.1-0.2,0.2-0.2,0.3h-0.5c0-0.1,0.1-0.3,0.2-0.4c0.1-0.1,0.2-0.2,0.4-0.3s0.4-0.1,0.6-0.1c0.3,0,0.6,0.1,0.8,0.3
			s0.3,0.4,0.3,0.7v1.3c0,0.3,0,0.5,0.1,0.6l0,0L237.3,215.5L237.3,215.5z M236.5,215.1c0.2,0,0.3,0,0.4-0.1
			c0.1-0.1,0.2-0.2,0.3-0.3v-0.6h-0.4c-0.6,0-0.9,0.2-0.9,0.5c0,0.2,0.1,0.3,0.2,0.4C236.2,215.1,236.3,215.1,236.5,215.1z"/>
		<path class="st3" d="M239,212.6v0.4c0.2-0.3,0.5-0.4,0.9-0.4c0.6,0,0.9,0.3,0.9,1v1.9h-0.5v-1.9c0-0.2,0-0.4-0.1-0.5
			s-0.2-0.2-0.4-0.2s-0.3,0-0.4,0.1c-0.1,0.1-0.2,0.2-0.3,0.3v2.1h-0.5v-2.9L239,212.6L239,212.6z"/>
		<path class="st3" d="M241.4,214c0-0.4,0.1-0.8,0.3-1.1s0.5-0.4,0.8-0.4s0.6,0.1,0.8,0.3v-1.5h0.5v4.1h-0.5v-0.3
			c-0.2,0.2-0.5,0.4-0.8,0.4s-0.6-0.1-0.8-0.4C241.5,214.9,241.4,214.5,241.4,214L241.4,214z M241.9,214.1c0,0.3,0.1,0.6,0.2,0.8
			c0.1,0.2,0.3,0.3,0.6,0.3s0.5-0.1,0.7-0.4v-1.3c-0.1-0.3-0.4-0.4-0.7-0.4c-0.2,0-0.4,0.1-0.6,0.3S241.9,213.7,241.9,214.1z"/>
		<path class="st3" d="M249,215c-0.1,0.2-0.3,0.3-0.6,0.4c-0.2,0.1-0.5,0.1-0.8,0.1s-0.6-0.1-0.8-0.2s-0.4-0.4-0.6-0.6
			c-0.1-0.3-0.2-0.6-0.2-1v-0.3c0-0.6,0.1-1,0.4-1.4c0.3-0.3,0.7-0.5,1.2-0.5c0.4,0,0.7,0.1,1,0.3c0.2,0.2,0.4,0.5,0.5,0.9h-0.5
			c-0.1-0.5-0.4-0.8-0.9-0.8c-0.3,0-0.6,0.1-0.8,0.4c-0.2,0.2-0.3,0.6-0.3,1.1v0.3c0,0.4,0.1,0.8,0.3,1c0.2,0.3,0.5,0.4,0.8,0.4
			c0.2,0,0.4,0,0.5-0.1c0.1,0,0.3-0.1,0.4-0.2V214h-0.9v-0.4h1.4L249,215L249,215z"/>
		<path class="st3" d="M251,215.5c-0.4,0-0.7-0.1-1-0.4s-0.4-0.6-0.4-1V214c0-0.3,0.1-0.5,0.2-0.8s0.3-0.4,0.5-0.5s0.4-0.2,0.6-0.2
			c0.4,0,0.7,0.1,0.9,0.4c0.2,0.2,0.3,0.6,0.3,1.1v0.2h-2c0,0.3,0.1,0.5,0.3,0.7s0.4,0.3,0.6,0.3c0.2,0,0.3,0,0.4-0.1
			c0.1-0.1,0.2-0.2,0.3-0.3l0.3,0.2C251.8,215.4,251.5,215.5,251,215.5z M250.9,212.9c-0.2,0-0.4,0.1-0.5,0.2
			c-0.1,0.1-0.2,0.3-0.3,0.6h1.5l0,0c0-0.3-0.1-0.4-0.2-0.6C251.3,213,251.1,212.9,250.9,212.9z"/>
		<path class="st3" d="M253.6,214.8l0.7-2.2h0.5l-1.2,3.4c-0.2,0.5-0.5,0.7-0.9,0.7h-0.1h-0.2v-0.4h0.1c0.2,0,0.3,0,0.4-0.1
			c0.1-0.1,0.2-0.2,0.2-0.4l0.1-0.3l-1-2.9h0.5L253.6,214.8z"/>
		<path class="st3" d="M256.5,215.5c-0.4,0-0.7-0.1-1-0.4s-0.4-0.6-0.4-1V214c0-0.3,0.1-0.5,0.2-0.8s0.3-0.4,0.5-0.5
			s0.4-0.2,0.6-0.2c0.4,0,0.7,0.1,0.9,0.4c0.2,0.2,0.3,0.6,0.3,1.1v0.2h-2c0,0.3,0.1,0.5,0.3,0.7s0.4,0.3,0.6,0.3
			c0.2,0,0.3,0,0.4-0.1s0.2-0.2,0.3-0.3l0.3,0.2C257.3,215.4,257,215.5,256.5,215.5z M256.4,212.9c-0.2,0-0.4,0.1-0.5,0.2
			c-0.1,0.1-0.2,0.3-0.3,0.6h1.5l0,0c0-0.3-0.1-0.4-0.2-0.6C256.8,213,256.6,212.9,256.4,212.9z"/>
		<path class="st3" d="M259.6,213c-0.1,0-0.2,0-0.2,0c-0.3,0-0.5,0.1-0.7,0.4v2.1h-0.5v-2.9h0.5v0.3c0.2-0.3,0.4-0.4,0.7-0.4
			c0.1,0,0.2,0,0.2,0V213z"/>
		<path class="st3" d="M208.7,222.2c-0.4,0-0.7-0.1-1-0.4s-0.4-0.6-0.4-1v-0.1c0-0.3,0.1-0.5,0.2-0.8s0.3-0.4,0.5-0.5
			s0.4-0.2,0.6-0.2c0.4,0,0.7,0.1,0.9,0.4c0.2,0.2,0.3,0.6,0.3,1.1v0.2h-2c0,0.3,0.1,0.5,0.3,0.7s0.4,0.3,0.6,0.3
			c0.2,0,0.3,0,0.4-0.1c0.1-0.1,0.2-0.2,0.3-0.3l0.3,0.2C209.5,222,209.2,222.2,208.7,222.2z M208.6,219.5c-0.2,0-0.4,0.1-0.5,0.2
			c-0.1,0.1-0.2,0.3-0.3,0.6h1.5l0,0c0-0.3-0.1-0.4-0.2-0.6C209,219.6,208.8,219.5,208.6,219.5z"/>
		<path class="st3" d="M211.1,218.5v0.7h0.5v0.4h-0.5v1.8c0,0.1,0,0.2,0.1,0.3c0,0.1,0.1,0.1,0.2,0.1c0.1,0,0.1,0,0.2,0v0.4
			c-0.1,0-0.3,0.1-0.4,0.1c-0.2,0-0.4-0.1-0.5-0.2c-0.1-0.1-0.2-0.3-0.2-0.6v-1.8H210v-0.4h0.5v-0.7h0.6V218.5z"/>
		<path class="st3" d="M215.3,222.1c0-0.1-0.1-0.2-0.1-0.3c-0.2,0.2-0.5,0.4-0.8,0.4s-0.5-0.1-0.7-0.2s-0.3-0.4-0.3-0.6
			c0-0.3,0.1-0.5,0.3-0.7s0.6-0.3,1-0.3h0.5v-0.2c0-0.2-0.1-0.3-0.2-0.4c-0.1-0.1-0.3-0.2-0.5-0.2s-0.3,0-0.4,0.1
			c-0.1,0.1-0.2,0.2-0.2,0.3h-0.5c0-0.1,0.1-0.3,0.2-0.4c0.1-0.1,0.2-0.2,0.4-0.3s0.4-0.1,0.6-0.1c0.3,0,0.6,0.1,0.8,0.3
			s0.3,0.4,0.3,0.7v1.3c0,0.3,0,0.5,0.1,0.6l0,0L215.3,222.1L215.3,222.1z M214.5,221.7c0.2,0,0.3,0,0.4-0.1
			c0.1-0.1,0.2-0.2,0.3-0.3v-0.6h-0.4c-0.6,0-0.9,0.2-0.9,0.5c0,0.2,0.1,0.3,0.2,0.4C214.2,221.7,214.4,221.7,214.5,221.7z"/>
		<path class="st3" d="M217.1,222.1h-0.5V218h0.5V222.1z"/>
		<path class="st3" d="M217.9,221.8c0-0.1,0-0.2,0.1-0.2c0.1-0.1,0.1-0.1,0.2-0.1c0.1,0,0.2,0,0.2,0.1c0.1,0.1,0.1,0.1,0.1,0.2
			c0,0.1,0,0.2-0.1,0.2s-0.1,0.1-0.2,0.1c-0.1,0-0.2,0-0.2-0.1C217.9,222,217.9,221.9,217.9,221.8z"/>
		<path class="st3" d="M221.3,220.6v1.5h-0.5v-3.9h1.4c0.4,0,0.8,0.1,1,0.3s0.4,0.5,0.4,0.9s-0.1,0.7-0.4,0.9s-0.6,0.3-1,0.3H221.3z
			 M221.3,220.1h0.9c0.3,0,0.5-0.1,0.6-0.2c0.1-0.1,0.2-0.3,0.2-0.6c0-0.2-0.1-0.4-0.2-0.6c-0.1-0.1-0.3-0.2-0.6-0.2h-1v1.6H221.3z"
			/>
		<path class="st3" d="M225.9,221.8c-0.2,0.2-0.5,0.3-0.9,0.3c-0.3,0-0.5-0.1-0.7-0.3s-0.2-0.4-0.2-0.8v-1.9h0.5v1.9
			c0,0.4,0.2,0.7,0.5,0.7c0.4,0,0.6-0.1,0.8-0.4v-2.1h0.5v2.9H226L225.9,221.8z"/>
		<path class="st3" d="M229.6,220.7c0,0.4-0.1,0.8-0.3,1.1s-0.5,0.4-0.8,0.4c-0.4,0-0.7-0.1-0.9-0.4v0.3h-0.5V218h0.5v1.5
			c0.2-0.2,0.5-0.4,0.8-0.4c0.4,0,0.6,0.1,0.8,0.4C229.5,219.8,229.6,220.2,229.6,220.7L229.6,220.7z M229.2,220.6
			c0-0.3-0.1-0.6-0.2-0.8c-0.1-0.2-0.3-0.3-0.6-0.3s-0.6,0.2-0.7,0.5v1.3c0.2,0.3,0.4,0.5,0.7,0.5c0.2,0,0.4-0.1,0.6-0.3
			C229.1,221.3,229.2,221,229.2,220.6z"/>
		<path class="st3" d="M230.8,222.1h-0.5V218h0.5V222.1z"/>
		<path class="st3" d="M231.6,218.4c0-0.1,0-0.1,0.1-0.2c0-0.1,0.1-0.1,0.2-0.1c0.1,0,0.2,0,0.2,0.1s0.1,0.1,0.1,0.2
			c0,0.1,0,0.1-0.1,0.2c0,0.1-0.1,0.1-0.2,0.1c-0.1,0-0.2,0-0.2-0.1C231.6,218.6,231.6,218.5,231.6,218.4z M232.1,222.1h-0.5v-2.9
			h0.5V222.1z"/>
		<path class="st3" d="M234.1,221.7c0.2,0,0.3-0.1,0.5-0.2c0.1-0.1,0.2-0.2,0.2-0.4h0.5c0,0.2-0.1,0.3-0.2,0.5s-0.2,0.3-0.4,0.4
			c-0.2,0.1-0.4,0.1-0.6,0.1c-0.4,0-0.7-0.1-0.9-0.4c-0.2-0.3-0.4-0.6-0.4-1.1v-0.1c0-0.3,0.1-0.5,0.2-0.8c0.1-0.2,0.3-0.4,0.4-0.5
			c0.2-0.1,0.4-0.2,0.7-0.2s0.6,0.1,0.8,0.3s0.3,0.4,0.3,0.8h-0.5c0-0.2-0.1-0.3-0.2-0.5s-0.3-0.2-0.5-0.2c-0.3,0-0.4,0.1-0.6,0.3
			s-0.2,0.4-0.2,0.8v0.1c0,0.3,0.1,0.6,0.2,0.8C233.7,221.7,233.9,221.7,234.1,221.7z"/>
		<path class="st3" d="M237.6,222.1c0-0.1-0.1-0.2-0.1-0.3c-0.2,0.2-0.5,0.4-0.8,0.4s-0.5-0.1-0.7-0.2s-0.3-0.4-0.3-0.6
			c0-0.3,0.1-0.5,0.3-0.7s0.6-0.3,1-0.3h0.5v-0.2c0-0.2-0.1-0.3-0.2-0.4c-0.1-0.1-0.3-0.2-0.5-0.2s-0.3,0-0.4,0.1
			c-0.1,0.1-0.2,0.2-0.2,0.3h-0.5c0-0.1,0.1-0.3,0.2-0.4c0.1-0.1,0.2-0.2,0.4-0.3s0.4-0.1,0.6-0.1c0.3,0,0.6,0.1,0.8,0.3
			s0.3,0.4,0.3,0.7v1.3c0,0.3,0,0.5,0.1,0.6l0,0L237.6,222.1L237.6,222.1z M236.8,221.7c0.2,0,0.3,0,0.4-0.1
			c0.1-0.1,0.2-0.2,0.3-0.3v-0.6h-0.4c-0.6,0-0.9,0.2-0.9,0.5c0,0.2,0.1,0.3,0.2,0.4C236.5,221.7,236.6,221.7,236.8,221.7z"/>
		<path class="st3" d="M239.5,218.5v0.7h0.5v0.4h-0.5v1.8c0,0.1,0,0.2,0.1,0.3c0,0.1,0.1,0.1,0.2,0.1c0.1,0,0.1,0,0.2,0v0.4
			c-0.1,0-0.3,0.1-0.4,0.1c-0.2,0-0.4-0.1-0.5-0.2c-0.1-0.1-0.2-0.3-0.2-0.6v-1.8h-0.5v-0.4h0.5v-0.7h0.6V218.5z"/>
		<path class="st3" d="M240.6,218.4c0-0.1,0-0.1,0.1-0.2c0-0.1,0.1-0.1,0.2-0.1c0.1,0,0.2,0,0.2,0.1s0.1,0.1,0.1,0.2
			c0,0.1,0,0.1-0.1,0.2c0,0.1-0.1,0.1-0.2,0.1c-0.1,0-0.2,0-0.2-0.1C240.6,218.6,240.6,218.5,240.6,218.4z M241.2,222.1h-0.5v-2.9
			h0.5V222.1z"/>
		<path class="st3" d="M241.8,220.6c0-0.3,0.1-0.5,0.2-0.8c0.1-0.2,0.3-0.4,0.5-0.5s0.4-0.2,0.7-0.2c0.4,0,0.7,0.1,1,0.4
			c0.2,0.3,0.4,0.6,0.4,1.1l0,0c0,0.3-0.1,0.5-0.2,0.8s-0.3,0.4-0.5,0.5s-0.4,0.2-0.7,0.2c-0.4,0-0.7-0.1-1-0.4
			C241.9,221.5,241.8,221.1,241.8,220.6L241.8,220.6z M242.3,220.7c0,0.3,0.1,0.6,0.2,0.8s0.3,0.3,0.6,0.3s0.5-0.1,0.6-0.3
			s0.2-0.5,0.2-0.8s-0.1-0.6-0.2-0.8c-0.2-0.2-0.4-0.3-0.6-0.3c-0.2,0-0.4,0.1-0.6,0.3S242.3,220.3,242.3,220.7z"/>
		<path class="st3" d="M245.6,219.2v0.4c0.2-0.3,0.5-0.4,0.9-0.4c0.6,0,0.9,0.3,0.9,1v1.9h-0.5v-1.9c0-0.2,0-0.4-0.1-0.5
			s-0.2-0.2-0.4-0.2s-0.3,0-0.4,0.1c-0.1,0.1-0.2,0.2-0.3,0.3v2.1h-0.5v-2.9L245.6,219.2L245.6,219.2z"/>
		<path class="st3" d="M252,222.1h-2.6v-0.4l1.4-1.5c0.2-0.2,0.3-0.4,0.4-0.6c0.1-0.1,0.1-0.3,0.1-0.4c0-0.2-0.1-0.4-0.2-0.5
			c-0.1-0.1-0.3-0.2-0.5-0.2s-0.4,0.1-0.6,0.2s-0.2,0.3-0.2,0.6h-0.5c0-0.4,0.1-0.7,0.3-0.9s0.5-0.3,0.9-0.3s0.7,0.1,0.9,0.3
			s0.3,0.4,0.3,0.8c0,0.4-0.2,0.8-0.7,1.4l-1,1.1h2L252,222.1L252,222.1z"/>
		<path class="st3" d="M255,220.4c0,0.6-0.1,1-0.3,1.3s-0.5,0.4-0.9,0.4s-0.7-0.1-0.9-0.4c-0.2-0.3-0.3-0.7-0.3-1.2v-0.7
			c0-0.6,0.1-1,0.3-1.3s0.5-0.4,0.9-0.4s0.7,0.1,0.9,0.4s0.3,0.7,0.3,1.2V220.4z M254.5,219.7c0-0.4-0.1-0.7-0.2-0.9
			s-0.3-0.3-0.6-0.3s-0.4,0.1-0.6,0.3s-0.2,0.5-0.2,0.9v0.8c0,0.4,0.1,0.7,0.2,0.9c0.1,0.2,0.3,0.3,0.6,0.3c0.2,0,0.4-0.1,0.5-0.3
			s0.2-0.5,0.2-0.9v-0.8H254.5z"/>
		<path class="st3" d="M257.2,222.1h-0.5v-3.3l-1,0.4v-0.5l1.4-0.5h0.1V222.1z"/>
		<path class="st3" d="M261.2,218.5l-1.6,3.6h-0.5l1.6-3.5h-2.1v-0.4h2.6V218.5z"/>
	</g>
</g>
</svg>
