<?xml version="1.0" encoding="utf-8"?>
<!-- Generator: Adobe Illustrator 22.0.0, SVG Export Plug-In . SVG Version: 6.00 Build 0)  -->
<svg version="1.1" id="Calque_1" xmlns="http://www.w3.org/2000/svg" xmlns:xlink="http://www.w3.org/1999/xlink" x="0px" y="0px"
	 viewBox="0 0 365.5 340.2" style="enable-background:new 0 0 365.5 340.2;" xml:space="preserve">
<style type="text/css">
	.st0{fill:#2E756F;}
	.st1{fill:none;stroke:#62B0AC;stroke-width:10;stroke-linecap:round;stroke-miterlimit:10;}
	.st2{fill:#62B0AC;}
	.st3{fill:#FFFFFF;}
	.st4{fill:#10101F;}
</style>
<g id="titre">
</g>
<g id="bubble_x5F_back">
	
		<ellipse transform="matrix(0.7071 -0.7071 0.7071 0.7071 -13.2251 196.8802)" class="st0" cx="231" cy="114.4" rx="90.3" ry="90.3"/>
	<g>
		<path class="st0" d="M144.2,66.6l0.7-1.3l2.5,1.3l-2.8,5.2l-2.5-1.3l0.7-1.3l-9.1-4.9l-0.7,1.3l-1.9-1c0.6-1.1,0.3-2-0.5-2.4
			l1.2-2.2L144.2,66.6z"/>
		<path class="st0" d="M152.5,58.7l-7.5-5.5c-0.2-0.2-0.4-0.2-0.6,0c-0.2,0.2-0.1,0.4,0.1,0.6l7.5,5.5l-1.6,2.2l-9.7-7.1l1-1.3h0.6
			c-0.1-0.6,0.1-1.3,0.5-2c0.5-0.7,1-0.9,1.6-1c-0.1-0.6,0-1.2,0.5-1.9c1.1-1.5,2.2-1.5,3.8-0.3l7.5,5.5l-1.6,2.2l-7.5-5.5
			c-0.2-0.2-0.4-0.2-0.6,0c-0.1,0.2-0.1,0.4,0.2,0.6l7.5,5.5L152.5,58.7z"/>
		<path class="st0" d="M147.2,39.3l2.3,2l-1.8,2.1l-2.3-2L147.2,39.3z M150.4,42.1l9,7.9l-1.8,2.1l-9-7.9L150.4,42.1z"/>
		<path class="st0" d="M150.4,34.7l12.3,11.8l-1.9,2l-12.3-11.8L150.4,34.7z"/>
		<path class="st0" d="M154.5,30.8l11.7,12.4l-2,1.9l-11.7-12.4L154.5,30.8z"/>
		<path class="st0" d="M159.3,27.7l2,2.3l-2.1,1.8l-2-2.3L159.3,27.7z M162,30.9l7.8,9.1l-2.1,1.8l-7.8-9.1L162,30.9z"/>
		<path class="st0" d="M169.5,36.7l-3.9-5.2c-1.1-1.4-1.2-2.8,0.8-4.3c1.9-1.4,3.3-0.9,4.3,0.5l3.9,5.2c1.1,1.4,1.3,2.8-0.8,4.3
			C171.8,38.7,170.6,38.1,169.5,36.7z M172.4,34.6l-3.9-5.3c-0.2-0.3-0.4-0.3-0.6-0.2s-0.3,0.3,0,0.6l3.9,5.3
			c0.2,0.3,0.4,0.3,0.6,0.2C172.6,35.1,172.7,34.9,172.4,34.6z"/>
		<path class="st0" d="M180.8,32.2l-4.9-7.9c-0.1-0.2-0.3-0.4-0.6-0.2c-0.2,0.1-0.2,0.3-0.1,0.6l4.9,7.9l-2.4,1.5l-6.3-10.2l1.4-0.9
			l0.6,0.2c0.1-0.6,0.5-1.2,1.2-1.6c1.5-0.9,2.5-0.5,3.6,1.3l4.9,7.9L180.8,32.2z"/>
		<path class="st0" d="M184.6,19.4c-0.8-1.8-0.7-2.9,1-3.6c0.3-0.1,0.8-0.2,1.2-0.2l-2.1-4.7l2.5-1.1l7,15.5l-1.5,0.7l-0.6-0.3
			c-0.2,0.6-0.6,1.1-1.4,1.4c-1.6,0.7-2.6,0.2-3.5-1.7L184.6,19.4z M189.9,24.3c0.1,0.2,0.3,0.4,0.5,0.3s0.3-0.3,0.2-0.6l-2.7-6.1
			c-0.1-0.3-0.3-0.4-0.5-0.3s-0.3,0.3-0.1,0.6L189.9,24.3z"/>
		<path class="st0" d="M197.8,21.1c0.1,0.4,0.3,0.4,0.5,0.3s0.3-0.2,0.2-0.6l-0.6-1.7l2.6-0.9l0.5,1.5c0.6,1.7,0.4,3.1-1.9,3.9
			c-2.4,0.8-3.4-0.1-4-1.8l-2.1-6c-0.6-1.7-0.3-3.1,2-3.9c2.3-0.8,3.3,0.1,3.9,1.8l1.2,3.5l-3.3,1.2L197.8,21.1z M196.1,16.5
			l0.7-0.3l-0.6-1.7c-0.1-0.4-0.4-0.4-0.5-0.3c-0.2,0.1-0.3,0.2-0.2,0.6L196.1,16.5z"/>
		<path class="st0" d="M207.7,4.8l0.8,3.7l1.6-0.3l0.5,2.4l-1.6,0.3l1.5,6.7c0.1,0.4,0.3,0.5,0.6,0.4c0.2-0.1,0.6-0.2,1-0.5l0.5,2.3
			c-0.3,0.2-0.9,0.5-1.2,0.6c-2.4,0.5-3.3-0.4-3.7-2.2l-1.5-6.7l-1.2,0.3l-0.5-2.4l1.2-0.3l-0.7-3L207.7,4.8z"/>
		<path class="st0" d="M213.6,16.8l-0.9-6.4c-0.3-1.8,0.3-3.1,2.7-3.4s3.3,0.7,3.6,2.5l0.9,6.4c0.3,1.8-0.2,3.1-2.7,3.4
			C214.7,19.7,213.9,18.6,213.6,16.8z M217.1,16.4l-0.9-6.6c-0.1-0.4-0.3-0.4-0.4-0.4c-0.2,0-0.4,0.1-0.3,0.5l0.9,6.6
			c0.1,0.4,0.3,0.4,0.4,0.4C217,16.9,217.2,16.8,217.1,16.4z"/>
		<path class="st0" d="M225.7,18.2L225.1,9c0-0.3-0.1-0.5-0.4-0.5c-0.3,0-0.4,0.2-0.4,0.5l0.6,9.3l-2.8,0.2l-0.7-12l1.6-0.1l0.4,0.5
			c0.4-0.5,1.1-0.8,1.9-0.9c1.8-0.1,2.4,0.8,2.5,2.8l0.5,9.3L225.7,18.2z"/>
		<path class="st0" d="M234,18.1l0.2-9.3c0-0.3-0.1-0.5-0.4-0.5c-0.3,0-0.4,0.2-0.4,0.5l-0.2,9.3l-2.8-0.1l0.3-12h1.6l0.4,0.5
			c0.5-0.4,1.1-0.7,1.9-0.7c1.8,0,2.4,1,2.3,3l-0.2,9.3H234z"/>
		<path class="st0" d="M241.7,16c0,0.4,0.1,0.5,0.3,0.5s0.4-0.1,0.4-0.4l0.2-1.7l2.7,0.3l-0.2,1.6c-0.2,1.8-0.9,3-3.4,2.7
			s-3-1.6-2.8-3.4l0.7-6.4c0.2-1.8,1.1-2.9,3.5-2.7c2.4,0.3,2.9,1.6,2.7,3.3l-0.4,3.7l-3.5-0.4L241.7,16z M242.2,11.1l0.8,0.1
			l0.2-1.7c0-0.4-0.2-0.5-0.3-0.5c-0.2,0-0.4,0.1-0.4,0.4L242.2,11.1z"/>
		<path class="st0" d="M249.6,17.2c-0.1,0.4,0,0.5,0.3,0.5c0.2,0,0.4,0,0.5-0.4l0.1-0.6c0.4-2.3-3.1-2.6-2.4-6.2l0.1-0.3
			c0.4-1.8,1.4-2.8,3.6-2.3c2.3,0.4,2.8,1.7,2.5,3.5l-0.2,0.9l-2.7-0.5l0.2-1c0.1-0.3,0-0.5-0.3-0.6c-0.2,0-0.4,0.1-0.5,0.4
			l-0.1,0.5c-0.4,2.2,3.1,2.4,2.4,5.9l-0.1,0.7c-0.4,1.8-1.3,2.7-3.6,2.3c-2.3-0.4-2.8-1.7-2.5-3.5l0.2-1.2l2.7,0.5L249.6,17.2z"/>
		<path class="st0" d="M261,13c0.6-1.9,1.4-2.6,3.2-2c0.3,0.1,0.7,0.4,1,0.7l1.6-4.9l2.6,0.9l-5.3,16.2l-1.5-0.5l-0.2-0.6
			c-0.5,0.3-1.2,0.4-2,0.1c-1.7-0.6-2.1-1.6-1.4-3.6L261,13z M261.5,20.2c-0.1,0.3-0.1,0.5,0.2,0.6c0.3,0.1,0.4,0,0.5-0.3l2.1-6.3
			c0.1-0.3,0-0.5-0.2-0.6c-0.3-0.1-0.4,0-0.5,0.4L261.5,20.2z"/>
		<path class="st0" d="M269.5,23.2c-0.2,0.4,0,0.5,0.2,0.6s0.4,0.1,0.5-0.3l0.7-1.6l2.5,1.1l-0.6,1.5c-0.7,1.6-1.8,2.6-4,1.6
			c-2.3-1-2.4-2.4-1.7-4l2.5-5.9c0.7-1.6,1.9-2.5,4.1-1.5c2.2,0.9,2.4,2.4,1.7,4l-1.5,3.4l-3.2-1.4L269.5,23.2z M271.5,18.7l0.7,0.3
			l0.7-1.6c0.2-0.4,0-0.5-0.2-0.6s-0.4-0.1-0.5,0.3L271.5,18.7z"/>
		<path class="st0" d="M283.9,30.7c-1,1.7-1.9,2.2-3.5,1.3c-0.3-0.2-0.6-0.6-0.8-0.9l-2,3.4l-2.4-1.4l8-13.7l1.4,0.8l0.1,0.6
			c0.6-0.2,1.2-0.1,2,0.3c1.6,0.9,1.7,2,0.6,3.8L283.9,30.7z M284.9,23.5c0.1-0.2,0.2-0.5-0.1-0.6c-0.2-0.1-0.4,0-0.6,0.2l-3.4,5.7
			c-0.1,0.2-0.1,0.5,0.1,0.6s0.4,0,0.6-0.2L284.9,23.5z"/>
		<path class="st0" d="M296.1,21.6l-9.6,14.1l-2.3-1.6l9.6-14.1L296.1,21.6z"/>
		<path class="st0" d="M296.4,31.4c0.2-0.2,0.2-0.4,0-0.6c-0.2-0.1-0.4-0.1-0.6,0.1l-0.7,0.8l-2.1-1.6l0.7-0.9
			c1.1-1.3,2.4-1.7,4.2-0.3c1.8,1.5,1.7,2.9,0.6,4.2l-5.7,7.3l-1.3-1v-0.6c-0.6,0.1-1.1,0-1.8-0.5c-1.4-1.1-1.4-2.4-0.2-3.9l0.9-1.1
			c1.1-1.4,2.5-1.4,5-0.6L296.4,31.4z M291.7,36.1c-0.2,0.3-0.2,0.5,0,0.7s0.4,0.1,0.6-0.2l1.8-2.3c-0.6,0-1,0.1-1.4,0.6L291.7,36.1
			z"/>
		<path class="st0" d="M297.9,41.4c-0.3,0.3-0.2,0.5,0,0.6c0.2,0.2,0.3,0.2,0.6-0.1l0.4-0.5c1.6-1.7-1.2-3.8,1.3-6.5l0.2-0.2
			c1.3-1.4,2.6-1.6,4.3-0.1c1.7,1.6,1.5,3,0.3,4.3l-0.7,0.7l-2-1.9L303,37c0.2-0.2,0.3-0.5,0.1-0.6c-0.2-0.2-0.4-0.1-0.6,0.1
			l-0.3,0.4c-1.5,1.7,1.4,3.6-1.1,6.3l-0.5,0.5c-1.3,1.4-2.6,1.6-4.3,0c-1.7-1.6-1.5-2.9-0.3-4.3l0.8-0.9l2,1.9L297.9,41.4z"/>
		<path class="st0" d="M313.7,38.7l-2.8,2.6l1.1,1.2l-1.8,1.7l-1.1-1.2l-5,4.7c-0.3,0.3-0.2,0.5,0,0.7s0.5,0.4,0.9,0.7l-1.7,1.6
			c-0.3-0.1-0.9-0.5-1.1-0.7c-1.7-1.8-1.3-3,0.1-4.3l5-4.7l-0.8-0.9l1.8-1.7l0.8,0.9l2.2-2.1L313.7,38.7z"/>
		<path class="st0" d="M315.3,46.4L306,54l-1.8-2.1l9.2-7.7L315.3,46.4z M318.5,43.6l-2.4,2l-1.8-2.1l2.4-2L318.5,43.6z"/>
		<path class="st0" d="M314.8,50.1c1.7-1.2,2.8-1.2,3.8,0.3c0.5,0.7,0.6,1.4,0.5,1.9h0.6l1,1.3l-12.9,9.3l-1.6-2.3l3.2-2.3
			c-0.3-0.2-0.8-0.5-1-0.8c-1.1-1.5-0.7-2.4,1-3.6L314.8,50.1z M311.1,56.2c-0.3,0.2-0.3,0.4-0.2,0.6c0.1,0.2,0.4,0.2,0.6,0l5.4-3.9
			c0.3-0.2,0.3-0.4,0.2-0.6c-0.2-0.3-0.4-0.2-0.6,0L311.1,56.2z"/>
		<path class="st0" d="M323.9,58.6l-8,4.8c-0.2,0.1-0.4,0.3-0.2,0.6c0.1,0.2,0.3,0.2,0.6,0.1l8-4.8l1.4,2.4l-10.3,6.1l-0.8-1.4
			l0.2-0.5c-0.6-0.1-1.1-0.5-1.6-1.3c-0.9-1.5-0.5-2.6,1.3-3.6l8-4.8L323.9,58.6z"/>
		<path class="st0" d="M320,70.9c-0.3,0.2-0.3,0.4-0.3,0.6c0.1,0.2,0.3,0.3,0.6,0.1l1.6-0.8l1.2,2.4l-1.5,0.7
			c-1.6,0.8-3,0.8-4.1-1.5s-0.2-3.4,1.4-4.2l5.8-2.8c1.6-0.8,3-0.7,4.1,1.5c1,2.2,0.2,3.3-1.4,4.1l-3.4,1.6l-1.5-3.1L320,70.9z
			 M324.3,68.8l0.3,0.7l1.6-0.8c0.3-0.2,0.3-0.4,0.3-0.6c-0.1-0.2-0.3-0.3-0.6-0.1L324.3,68.8z"/>
	</g>
</g>
<g id="bubble_x5F_line_x5F_1">
	<line class="st1" x1="231" y1="125" x2="75.1" y2="214.4"/>
</g>
<g id="bubble_x5F_1">
	<path class="st2" d="M146.4,214.4c0,39.4-31.9,71.3-71.3,71.3S3.8,253.8,3.8,214.4s31.9-71.3,71.3-71.3S146.4,175,146.4,214.4z"/>
	<path class="st3" d="M110,213.7c-1-5.5-3-9.9-6.5-14.2c1,3.7,0.4,7.7-0.8,11.4c-1.2,3.7-3.2,7.1-4.9,10.5
		c-0.2-6.5-3.4-12.4-6.7-18.1c-3.4-5.7-7.1-11.2-8.9-17.6c-1.8-6.3-1.2-13.8,3.4-18.5c-9.1,3.4-17.7,8.3-24.1,15.8
		S52,200.6,54,210.1c-3.4-3.7-5.1-8.9-4.7-13.8c-4.5,5.7-7.7,12.4-9.1,19.5s-0.6,14.6,2.2,21.1c2.8,6.1,7.1,11.2,11.4,16.2
		c5,4.3,10.7,6.8,16.9,7.9c-0.6-0.2-1.3-0.4-1.9-0.6c-6.9-2.8-13-9.7-13-17.4c-0.2-4.9,1.8-9.9,4.9-13.6c0.2,3.7,2.4,7.3,5.3,9.5
		c-2.6-5.3-3.4-11.6-2-17.4c1.4-5.7,4.7-11,9.5-14.6c-1.2,5.1,0.8,10.3,3.4,14.8c2.6,4.3,5.9,8.5,8.3,13c2.4,4.7,3.7,10.3,1.8,15
		c3.7-3.4,5.7-9.3,4.9-17.4c0,0.2,0.2,0.2,0.2,0.4c7.5,12.5-2.7,28-15.8,28.8c3.6,0.1,7.3-0.2,11-0.8c6.9-2.4,13.2-6.7,17.2-12.8
		c3.4-5.1,4.9-11.4,5.7-17.6C110.8,224.9,111,219.2,110,213.7z"/>
</g>
<g id="bubble_x5F_leg_x5F_1">
	<g>
		<path class="st4" d="M62.1,308.8v-3.7c0-0.9,0.4-1.5,1-1.9c-0.7-0.4-1-1-1-1.9v-3.4c0-1.8,0.7-3.2,3.4-3.2c2.7,0,3.4,1.3,3.4,3.2
			v3.4c0,0.9-0.3,1.5-1,1.9c0.6,0.4,1,1.1,1,1.9v3.7c0,1.8-0.8,3.2-3.4,3.2S62.1,310.6,62.1,308.8z M65.1,301.5
			c0,0.3,0.2,0.5,0.5,0.5s0.5-0.2,0.5-0.5v-3.6c0-0.3-0.2-0.5-0.5-0.5s-0.5,0.2-0.5,0.5V301.5z M65.1,308.8c0,0.3,0.2,0.5,0.5,0.5
			s0.5-0.2,0.5-0.5v-3.9c0-0.3-0.2-0.5-0.5-0.5s-0.5,0.2-0.5,0.5V308.8z"/>
		<path class="st4" d="M70.9,308.7V298c0-1.8,0.8-3.3,3.4-3.3s3.4,1.4,3.4,3.3v10.8c0,1.8-0.8,3.2-3.4,3.2S70.9,310.6,70.9,308.7z
			 M74.8,308.7v-10.8c0-0.3-0.2-0.6-0.5-0.6s-0.5,0.2-0.5,0.6v10.8c0,0.4,0.2,0.6,0.5,0.6S74.8,309.1,74.8,308.7z"/>
		<path class="st4" d="M83.7,297.1v2c0,1.6-0.5,2.4-2.1,2.4s-2.1-0.9-2.1-2.4v-2c0-1.6,0.5-2.4,2.1-2.4S83.7,295.6,83.7,297.1z
			 M81.4,311.7h-1.7l6.6-16.8H88L81.4,311.7z M81.9,299.2v-2.1c0-0.5-0.1-0.7-0.4-0.7s-0.4,0.2-0.4,0.7v2.1c0,0.5,0.1,0.7,0.4,0.7
			S81.9,299.7,81.9,299.2z M84.1,309.5v-2c0-1.6,0.5-2.4,2.1-2.4s2.1,0.9,2.1,2.4v2c0,1.6-0.5,2.4-2.1,2.4S84.1,311.1,84.1,309.5z
			 M85.8,307.5v2.1c0,0.5,0.1,0.7,0.4,0.7s0.4-0.2,0.4-0.7v-2.1c0-0.5-0.1-0.7-0.4-0.7S85.8,307,85.8,307.5z"/>
		<path class="st4" d="M48.2,318.8v2.4h-2.1v-2.4H48.2z M48.2,322.7v12h-2.1v-12H48.2z"/>
		<path class="st4" d="M50.4,334.7v-12h1.2l0.4,0.6c0.4-0.6,1-0.9,1.8-0.9c1.7,0,2.3,0.9,2.3,2.8v9.5H54v-9.5c0-0.6-0.2-1-0.8-1
			s-0.8,0.4-0.8,1v9.5H50.4z"/>
		<path class="st4" d="M63.9,330.5v1.7c0,1.7-0.6,2.8-2.8,2.8c-2.3,0-2.9-1.1-2.9-2.8v-6.9c0-1.7,0.7-2.8,2.9-2.8s2.8,1.1,2.8,2.8
			v1.4h-2.1v-1.5c0-0.7-0.3-1-0.8-1s-0.8,0.3-0.8,1v6.9c0,0.7,0.3,0.9,0.8,0.9s0.8-0.3,0.8-0.9v-1.7h2.1V330.5z"/>
		<path class="st4" d="M68.1,318.8v2.4H66v-2.4H68.1z M68.1,322.7v12H66v-12H68.1z"/>
		<path class="st4" d="M70.3,334.7v-12h1.2l0.4,0.6c0.4-0.6,1-0.9,1.8-0.9c1.7,0,2.3,0.9,2.3,2.8v9.5h-2.1v-9.5c0-0.6-0.2-1-0.8-1
			c-0.6,0-0.8,0.4-0.8,1v9.5H70.3z"/>
		<path class="st4" d="M83.8,330.6v1.5c0,1.7-0.6,2.8-2.8,2.8c-2.3,0-2.9-1.2-2.9-2.8v-6.8c0-1.7,0.7-2.8,2.9-2.8
			c2.2,0,2.8,1.2,2.8,2.8v3.7h-3.6v3.2c0,0.7,0.3,0.9,0.8,0.9s0.8-0.3,0.8-0.9v-1.6L83.8,330.6L83.8,330.6z M81.8,325.3
			c0-0.7-0.3-1-0.8-1s-0.8,0.3-0.8,1v2.1h1.6C81.8,327.4,81.8,325.3,81.8,325.3z M82.9,318.4l-1.3,3.2h-1.3l0.6-3.2H82.9z"/>
		<path class="st4" d="M89.7,324.6c-0.1,0-0.3,0-0.4,0c-1,0-1.3,0.6-1.3,1.6v8.6h-2.1v-12h1.3l0.4,0.6c0.5-0.6,1-1,2.1-1V324.6z"/>
		<path class="st4" d="M96.9,330.6v1.5c0,1.7-0.6,2.8-2.8,2.8c-2.3,0-2.9-1.2-2.9-2.8v-6.8c0-1.7,0.7-2.8,2.9-2.8
			c2.2,0,2.8,1.2,2.8,2.8v3.7h-3.6v3.2c0,0.7,0.3,0.9,0.8,0.9s0.8-0.3,0.8-0.9v-1.6L96.9,330.6L96.9,330.6z M94.8,325.3
			c0-0.7-0.3-1-0.8-1s-0.8,0.3-0.8,1v2.1h1.6C94.8,327.4,94.8,325.3,94.8,325.3z M95.9,318.4l-1.3,3.2h-1.3l0.6-3.2H95.9z"/>
		<path class="st4" d="M98.7,325.3c0-1.7,0.7-2.8,2.8-2.8c2.2,0,2.8,1.1,2.8,2.8v1.2h-2.1v-1.3c0-0.6-0.3-1-0.8-1s-0.7,0.3-0.7,0.9
			v0.5c0,2.6,3.6,1.9,3.6,5.5v1c0,1.7-0.7,2.8-2.8,2.8s-2.8-1.1-2.8-2.8v-1.5h2.1v1.5c0,0.7,0.3,0.9,0.7,0.9c0.5,0,0.8-0.2,0.8-0.9
			v-0.9c0-2.7-3.6-1.9-3.6-5.6V325.3z"/>
	</g>
</g>
<g id="bubble_x5F_line_x5F_2">
	<line class="st1" x1="231" y1="125" x2="185.1" y2="251.1"/>
</g>
<g id="bubble_x5F_2">
	<path class="st2" d="M210.3,250.8c0,13.9-11.3,25.2-25.2,25.2s-25.2-11.3-25.2-25.2s11.3-25.2,25.2-25.2S210.3,236.9,210.3,250.8z"
		/>
	<g>
		<path class="st3" d="M168.4,245.1l2.1,1.7l-2,3.8c-1,1.8,0.7,3.5,1.8,4.1s2.7,0.7,4.3,0.6l2.8-4.6l2.1,1.1l-3.7-6.8L168.4,245.1z
			 M168.7,254.4l4.6,8.4c0.9,1.2,2.6,1.4,4.4,1.4h4.8v-8l-9.1-0.1C171.9,256.3,170.1,256,168.7,254.4z M197.3,238.9l-2.5,1.1
			l-2.4-3.6c-1.1-1.7-3.4-1.1-4.4-0.4c-1,0.7-1.9,2.1-2.6,3.5l2.7,4.7l-2,1.3l7.7,0.1L197.3,238.9z M189,234.7l-9.6-0.1
			c-1.5,0.2-2.5,1.6-3.4,3.2l-2.3,4.2l7,3.9l4.5-7.9C185.8,236.6,186.9,235.1,189,234.7z M189.4,267.1l0.3-2.7l4.3-0.3
			c2-0.1,2.6-2.5,2.5-3.7s-0.9-2.7-1.7-4l-5.4,0.1l-0.2-2.4l-3.8,6.7L189.4,267.1z M197.2,261.9l4.7-8.3c0.5-1.4-0.2-3-1.2-4.5
			l-2.5-4.1l-6.8,4.2l4.8,7.8C197,258.1,197.7,259.9,197.2,261.9z"/>
	</g>
</g>
<g id="bubble_x5F_leg_x5F_2">
	<g>
		<path class="st4" d="M177,299.4h1.5v2.8h-5.9v-2.8h1.5V289h-1.5v-2.1c1.3,0,1.9-0.7,1.9-1.6h2.5V299.4z"/>
		<path class="st4" d="M180.1,299.1v-10.8c0-1.8,0.8-3.3,3.4-3.3s3.4,1.4,3.4,3.3v10.8c0,1.8-0.8,3.2-3.4,3.2S180.1,301,180.1,299.1
			z M184,299.1v-10.8c0-0.3-0.2-0.6-0.5-0.6s-0.5,0.2-0.5,0.6v10.8c0,0.4,0.2,0.6,0.5,0.6S184,299.5,184,299.1z"/>
		<path class="st4" d="M192.8,287.6v2c0,1.6-0.5,2.4-2.1,2.4s-2.1-0.9-2.1-2.4v-2c0-1.6,0.5-2.4,2.1-2.4S192.8,286,192.8,287.6z
			 M190.6,302.1h-1.7l6.6-16.8h1.7L190.6,302.1z M191.1,289.6v-2.1c0-0.5-0.1-0.7-0.4-0.7s-0.4,0.2-0.4,0.7v2.1
			c0,0.5,0.1,0.7,0.4,0.7S191.1,290.1,191.1,289.6z M193.3,299.9v-2c0-1.6,0.5-2.4,2.1-2.4s2.1,0.9,2.1,2.4v2c0,1.6-0.5,2.4-2.1,2.4
			S193.3,301.5,193.3,299.9z M195,297.9v2.1c0,0.5,0.1,0.7,0.4,0.7s0.4-0.2,0.4-0.7v-2.1c0-0.5-0.1-0.7-0.4-0.7S195,297.4,195,297.9
			z"/>
		<path class="st4" d="M160.5,325.1h-2.4l-2-12h2.2l1,9.1l1.1-9.1h2.2L160.5,325.1z"/>
		<path class="st4" d="M163.7,320.8c0-1.8,1-2.6,3.7-3.5v-1.7c0-0.6-0.2-0.9-0.7-0.9s-0.7,0.3-0.7,1v0.6h-2.1v-0.7
			c0-1.6,0.7-2.7,2.8-2.7c2.2,0,2.9,1.2,2.9,2.8v9.5h-1.2l-0.4-0.6c-0.4,0.6-0.8,0.8-1.8,0.8c-1.7,0-2.4-0.9-2.4-2.8v-1.8H163.7z
			 M167.3,318.9c-1.1,0.5-1.6,0.9-1.6,1.9v1.4c0,0.6,0,1.3,0.8,1.3c0.6,0,0.8-0.4,0.8-1V318.9z"/>
		<path class="st4" d="M173.6,308.1v17h-2.1v-17H173.6z"/>
		<path class="st4" d="M175.6,322.6v-6.9c0-1.7,0.7-2.8,2.9-2.8s2.9,1.1,2.9,2.8v6.9c0,1.7-0.6,2.8-2.9,2.8
			C176.3,325.4,175.6,324.3,175.6,322.6z M179.3,322.6v-6.9c0-0.7-0.3-1-0.8-1s-0.8,0.3-0.8,1v6.9c0,0.7,0.3,0.9,0.8,0.9
			C179,323.6,179.3,323.3,179.3,322.6z"/>
		<path class="st4" d="M187.3,315c-0.1,0-0.3,0-0.4,0c-1,0-1.3,0.6-1.3,1.6v8.6h-2.1v-12h1.3l0.4,0.6c0.5-0.6,1-1,2.1-1V315z"/>
		<path class="st4" d="M191,309.2v2.4h-2.1v-2.4H191z M191,313.1v12h-2.1v-12H191z"/>
		<path class="st4" d="M192.9,315.7c0-1.7,0.7-2.8,2.8-2.8c2.2,0,2.8,1.1,2.8,2.8v1.2h-2.1v-1.3c0-0.6-0.3-1-0.8-1s-0.7,0.3-0.7,0.9
			v0.5c0,2.6,3.6,1.9,3.6,5.5v1c0,1.7-0.7,2.8-2.8,2.8s-2.8-1.1-2.8-2.8V321h2.1v1.5c0,0.7,0.3,0.9,0.7,0.9c0.5,0,0.8-0.2,0.8-0.9
			v-0.9c0-2.7-3.6-1.9-3.6-5.6V315.7z"/>
		<path class="st4" d="M206.1,321v1.5c0,1.7-0.6,2.8-2.8,2.8c-2.3,0-2.9-1.2-2.9-2.8v-6.8c0-1.7,0.7-2.8,2.9-2.8s2.8,1.2,2.8,2.8
			v3.7h-3.6v3.2c0,0.7,0.3,0.9,0.8,0.9s0.8-0.3,0.8-0.9V321H206.1z M204,315.7c0-0.7-0.3-1-0.8-1s-0.8,0.3-0.8,1v2.1h1.6V315.7z
			 M205.1,308.8l-1.3,3.2h-1.3l0.6-3.2H205.1z"/>
		<path class="st4" d="M207.9,315.7c0-1.7,0.7-2.8,2.8-2.8c2.2,0,2.8,1.1,2.8,2.8v1.2h-2.1v-1.3c0-0.6-0.3-1-0.8-1s-0.7,0.3-0.7,0.9
			v0.5c0,2.6,3.6,1.9,3.6,5.5v1c0,1.7-0.7,2.8-2.8,2.8s-2.8-1.1-2.8-2.8V321h2.1v1.5c0,0.7,0.3,0.9,0.7,0.9c0.5,0,0.8-0.2,0.8-0.9
			v-0.9c0-2.7-3.6-1.9-3.6-5.6V315.7z"/>
	</g>
</g>
<g id="bubble_x5F_line_x5F_3">
	<line class="st1" x1="231" y1="125" x2="275.2" y2="245.3"/>
</g>
<g id="bubble_x5F_3">
	<path class="st2" d="M295.1,245.1c0,10.8-8.8,19.6-19.6,19.6c-10.8,0-19.6-8.8-19.6-19.6s8.8-19.6,19.6-19.6
		C286.4,225.5,295.1,234.3,295.1,245.1z"/>
	<g>
		<g>
			<path class="st3" d="M268.9,247.7h-3.8v-5.3h3.8V247.7z M270.3,247.7h10.5v-5.3h-10.5V247.7L270.3,247.7z M274.9,235.8h-9.8v5.2
				h9.8V235.8z M265.1,254.4h9.8v-5.2h-9.8V254.4z M276.3,235.8v5.2h9.8v-5.2H276.3z M276.3,254.4h9.8v-5.2h-9.8V254.4z
				 M282.3,247.7h3.8v-5.3h-3.8V247.7z"/>
		</g>
	</g>
</g>
<g id="bubble_x5F_leg_x5F_3">
	<g>
		<path class="st4" d="M269.9,276.9v4.2c0.3-0.1,0.9-0.3,1.3-0.3c1.9,0,2.6,1.1,2.6,2.9v4.1c0,1.9-1,3.2-3.4,3.2
			c-2.5,0-3.4-1.3-3.4-3.2V277c0-1.9,1-3.2,3.4-3.2c2.5,0,3.4,1.3,3.4,3.2v1.8h-2.9V277c0-0.4-0.2-0.5-0.5-0.5
			C270.2,276.4,269.9,276.5,269.9,276.9z M269.9,287.8c0,0.3,0.2,0.5,0.5,0.5s0.5-0.2,0.5-0.5v-3.9c0-0.3-0.2-0.5-0.5-0.5
			s-0.5,0.2-0.5,0.5V287.8z"/>
		<path class="st4" d="M279.7,276.1v2c0,1.6-0.5,2.4-2.1,2.4s-2.1-0.9-2.1-2.4v-2c0-1.6,0.5-2.4,2.1-2.4S279.7,274.6,279.7,276.1z
			 M277.5,290.7h-1.7l6.6-16.8h1.7L277.5,290.7z M278,278.2v-2.1c0-0.5-0.1-0.7-0.4-0.7s-0.4,0.2-0.4,0.7v2.1c0,0.5,0.1,0.7,0.4,0.7
			S278,278.7,278,278.2z M280.2,288.5v-2c0-1.6,0.5-2.4,2.1-2.4s2.1,0.9,2.1,2.4v2c0,1.6-0.5,2.4-2.1,2.4S280.2,290.1,280.2,288.5z
			 M281.9,286.5v2.1c0,0.5,0.1,0.7,0.4,0.7s0.4-0.2,0.4-0.7v-2.1c0-0.5-0.1-0.7-0.4-0.7S281.9,286,281.9,286.5z"/>
		<path class="st4" d="M246,313.7l-0.4-0.6c-0.3,0.6-1,0.8-1.8,0.8c-1.7,0-2.3-0.9-2.3-2.8v-6.9c0-1.9,0.6-2.8,2.3-2.8
			c0.5,0,1.1,0.2,1.4,0.6v-5.4h2.1v17L246,313.7L246,313.7z M245.1,304.2c0-0.6-0.2-0.9-0.8-0.9s-0.8,0.4-0.8,1v6.9
			c0,0.6,0.2,0.9,0.8,0.9s0.8-0.4,0.8-0.9V304.2z"/>
		<path class="st4" d="M255,309.6v1.5c0,1.7-0.6,2.8-2.8,2.8c-2.3,0-2.9-1.2-2.9-2.8v-6.8c0-1.7,0.7-2.8,2.9-2.8s2.8,1.2,2.8,2.8
			v3.7h-3.6v3.2c0,0.7,0.3,0.9,0.8,0.9s0.8-0.3,0.8-0.9v-1.6L255,309.6L255,309.6z M253,304.3c0-0.7-0.3-1-0.8-1s-0.8,0.3-0.8,1v2.1
			h1.6V304.3z M254.1,297.4l-1.3,3.2h-1.3l0.6-3.2H254.1z"/>
		<path class="st4" d="M261.5,313.7l-0.4-0.6c-0.3,0.6-1,0.8-1.8,0.8c-1.7,0-2.3-0.9-2.3-2.8v-6.9c0-1.9,0.6-2.8,2.3-2.8
			c0.5,0,1.1,0.2,1.4,0.6v-5.4h2.1v17L261.5,313.7L261.5,313.7z M260.6,304.2c0-0.6-0.2-0.9-0.8-0.9c-0.6,0-0.8,0.4-0.8,1v6.9
			c0,0.6,0.2,0.9,0.8,0.9c0.6,0,0.8-0.4,0.8-0.9V304.2z"/>
		<path class="st4" d="M267,297.8v2.4h-2.1v-2.4H267z M267,301.7v12h-2.1v-12H267z"/>
		<path class="st4" d="M274.8,309.6v1.5c0,1.7-0.6,2.8-2.8,2.8c-2.3,0-2.9-1.2-2.9-2.8v-6.8c0-1.7,0.7-2.8,2.9-2.8
			c2.2,0,2.8,1.2,2.8,2.8v3.7h-3.6v3.2c0,0.7,0.3,0.9,0.8,0.9s0.8-0.3,0.8-0.9v-1.6L274.8,309.6L274.8,309.6z M272.7,304.3
			c0-0.7-0.3-1-0.8-1s-0.8,0.3-0.8,1v2.1h1.6L272.7,304.3L272.7,304.3z M273.8,297.4l-1.3,3.2h-1.3l0.6-3.2H273.8z"/>
		<path class="st4" d="M276.6,304.3c0-1.7,0.7-2.8,2.8-2.8c2.2,0,2.8,1.1,2.8,2.8v1.2h-2.1v-1.3c0-0.6-0.3-1-0.8-1s-0.7,0.3-0.7,0.9
			v0.5c0,2.6,3.6,1.9,3.6,5.5v1c0,1.7-0.7,2.8-2.8,2.8s-2.8-1.1-2.8-2.8v-1.5h2.1v1.5c0,0.7,0.3,0.9,0.7,0.9c0.5,0,0.8-0.2,0.8-0.9
			v-0.9c0-2.7-3.6-1.9-3.6-5.6V304.3z"/>
		<path class="st4" d="M288,309.4c0-1.8,1-2.6,3.7-3.5v-1.7c0-0.6-0.2-0.9-0.7-0.9s-0.7,0.3-0.7,1v0.6h-2.1v-0.7
			c0-1.6,0.7-2.7,2.8-2.7c2.2,0,2.9,1.2,2.9,2.8v9.5h-1.2l-0.4-0.6c-0.4,0.6-0.8,0.8-1.8,0.8c-1.7,0-2.4-0.9-2.4-2.8L288,309.4
			L288,309.4z M291,297.4l0.6,3.2h-1.3l-1.3-3.2H291z M291.6,307.5c-1.1,0.5-1.6,0.9-1.6,1.9v1.4c0,0.6,0,1.3,0.8,1.3
			c0.6,0,0.8-0.4,0.8-1L291.6,307.5L291.6,307.5z"/>
		<path class="st4" d="M302,296.7v17h-2.1v-17H302z"/>
		<path class="st4" d="M303.9,309.4c0-1.8,1-2.6,3.7-3.5v-1.7c0-0.6-0.2-0.9-0.7-0.9s-0.7,0.3-0.7,1v0.6H304v-0.7
			c0-1.6,0.7-2.7,2.8-2.7c2.2,0,2.9,1.2,2.9,2.8v9.5h-1.2l-0.4-0.6c-0.4,0.6-0.8,0.8-1.8,0.8c-1.7,0-2.4-0.9-2.4-2.8V309.4z
			 M307.6,307.5c-1.1,0.5-1.6,0.9-1.6,1.9v1.4c0,0.6,0,1.3,0.8,1.3c0.6,0,0.8-0.4,0.8-1L307.6,307.5L307.6,307.5z"/>
		<path class="st4" d="M247.2,330.5v1.7c0,1.7-0.6,2.8-2.8,2.8c-2.3,0-2.9-1.1-2.9-2.8v-6.9c0-1.7,0.7-2.8,2.9-2.8s2.8,1.1,2.8,2.8
			v1.4h-2.1v-1.5c0-0.7-0.3-1-0.8-1s-0.8,0.3-0.8,1v6.9c0,0.7,0.3,0.9,0.8,0.9s0.8-0.3,0.8-0.9v-1.7h2.1V330.5z"/>
		<path class="st4" d="M251.4,318.8v2.4h-2.1v-2.4H251.4z M251.4,322.7v12h-2.1v-12H251.4z"/>
		<path class="st4" d="M257.2,325.2c0-0.5-0.1-0.9-0.7-0.9s-0.8,0.4-0.8,0.9v9.5h-2.1v-12h1.2l0.4,0.6c0.4-0.6,1.1-0.9,1.9-0.9
			c0.9,0,1.4,0.3,1.8,0.8c0.4-0.5,1-0.8,1.8-0.8c1.7,0,2.3,0.9,2.3,2.7v9.5h-2.1v-9.5c0-0.5-0.1-0.9-0.7-0.9s-0.8,0.4-0.8,0.9v9.5
			h-2.1L257.2,325.2L257.2,325.2z"/>
		<path class="st4" d="M270.7,330.6v1.5c0,1.7-0.6,2.8-2.8,2.8c-2.3,0-2.9-1.2-2.9-2.8v-6.8c0-1.7,0.7-2.8,2.9-2.8
			c2.2,0,2.8,1.2,2.8,2.8v3.7h-3.6v3.2c0,0.7,0.3,0.9,0.8,0.9s0.8-0.3,0.8-0.9v-1.6L270.7,330.6L270.7,330.6z M268.7,325.3
			c0-0.7-0.3-1-0.8-1s-0.8,0.3-0.8,1v2.1h1.6L268.7,325.3L268.7,325.3z"/>
		<path class="st4" d="M272.8,334.7v-12h1.2l0.4,0.6c0.4-0.6,1-0.9,1.8-0.9c1.7,0,2.3,0.9,2.3,2.8v9.5h-2.1v-9.5c0-0.6-0.2-1-0.8-1
			c-0.6,0-0.8,0.4-0.8,1v9.5H272.8z"/>
		<path class="st4" d="M280,322.7h1.2v-3.1l2.1-0.6v3.6h1.7v1.9h-1.7v7.6c0,0.7,0.2,1,0.8,1c0.3,0,0.6,0,0.9-0.2v1.8
			c-0.2,0.1-0.8,0.2-1.1,0.2c-2.2,0-2.8-1-2.8-2.8v-7.6H280V322.7z"/>
		<path class="st4" d="M292.3,330.6v1.5c0,1.7-0.6,2.8-2.8,2.8c-2.3,0-2.9-1.2-2.9-2.8v-6.8c0-1.7,0.7-2.8,2.9-2.8
			c2.2,0,2.8,1.2,2.8,2.8v3.7h-3.6v3.2c0,0.7,0.3,0.9,0.8,0.9s0.8-0.3,0.8-0.9v-1.6L292.3,330.6L292.3,330.6z M290.3,325.3
			c0-0.7-0.3-1-0.8-1s-0.8,0.3-0.8,1v2.1h1.6L290.3,325.3L290.3,325.3z"/>
		<path class="st4" d="M298.2,324.6c-0.1,0-0.3,0-0.4,0c-1,0-1.3,0.6-1.3,1.6v8.6h-2.1v-12h1.3l0.4,0.6c0.5-0.6,1-1,2.1-1V324.6z"/>
		<path class="st4" d="M301.9,318.8v2.4h-2.1v-2.4H301.9z M301.9,322.7v12h-2.1v-12H301.9z"/>
		<path class="st4" d="M309.7,330.6v1.5c0,1.7-0.6,2.8-2.8,2.8c-2.3,0-2.9-1.2-2.9-2.8v-6.8c0-1.7,0.7-2.8,2.9-2.8
			c2.2,0,2.8,1.2,2.8,2.8v3.7H306v3.2c0,0.7,0.3,0.9,0.8,0.9s0.8-0.3,0.8-0.9v-1.6L309.7,330.6L309.7,330.6z M307.6,325.3
			c0-0.7-0.3-1-0.8-1s-0.8,0.3-0.8,1v2.1h1.6L307.6,325.3L307.6,325.3z"/>
	</g>
</g>
<g id="bubble_x5F_line_x5F_4">
	<line class="st1" x1="231" y1="125" x2="339.3" y2="186.9"/>
</g>
<g id="bubble_x5F_4">
	<path class="st2" d="M355.2,186.9c0,8.8-7.1,15.9-15.9,15.9s-15.9-7.1-15.9-15.9c0-8.8,7.1-15.9,15.9-15.9S355.2,178.1,355.2,186.9
		z"/>
	<g>
		<g>
			<path class="st3" d="M332,184.9c-0.6,0-1,0.2-1.4,0.6c-0.4,0.4-0.6,0.9-0.6,1.4c0,0.6,0.2,1,0.6,1.4s0.9,0.6,1.4,0.6
				c0.6,0,1-0.2,1.4-0.6c0.4-0.4,0.6-0.9,0.6-1.4c0-0.6-0.2-1-0.6-1.4S332.5,184.9,332,184.9z"/>
			<path class="st3" d="M332,179.5c-0.6,0-1,0.2-1.4,0.6c-0.4,0.4-0.6,0.9-0.6,1.4c0,0.6,0.2,1,0.6,1.4s0.9,0.6,1.4,0.6
				c0.6,0,1-0.2,1.4-0.6c0.4-0.4,0.6-0.9,0.6-1.4c0-0.6-0.2-1-0.6-1.4C333,179.7,332.5,179.5,332,179.5z"/>
			<path class="st3" d="M332,190.2c-0.6,0-1,0.2-1.4,0.6c-0.4,0.4-0.6,0.9-0.6,1.4c0,0.6,0.2,1,0.6,1.4s0.9,0.6,1.4,0.6
				c0.6,0,1-0.2,1.4-0.6c0.4-0.4,0.6-0.9,0.6-1.4c0-0.6-0.2-1-0.6-1.4C333,190.4,332.5,190.2,332,190.2z"/>
			<path class="st3" d="M348.6,180.3c-0.1-0.1-0.1-0.1-0.2-0.1h-12.7c-0.1,0-0.2,0-0.2,0.1c-0.1,0.1-0.1,0.1-0.1,0.2v2
				c0,0.1,0,0.2,0.1,0.2c0.1,0.1,0.1,0.1,0.2,0.1h12.7c0.1,0,0.2,0,0.2-0.1c0.1-0.1,0.1-0.1,0.1-0.2v-2
				C348.7,180.5,348.6,180.4,348.6,180.3z"/>
			<path class="st3" d="M348.3,185.6h-12.7c-0.1,0-0.2,0-0.2,0.1c-0.1,0.1-0.1,0.1-0.1,0.2v2c0,0.1,0,0.2,0.1,0.2
				c0.1,0.1,0.1,0.1,0.2,0.1h12.7c0.1,0,0.2,0,0.2-0.1c0.1-0.1,0.1-0.1,0.1-0.2v-2c0-0.1,0-0.2-0.1-0.2
				C348.5,185.6,348.4,185.6,348.3,185.6z"/>
			<path class="st3" d="M348.3,190.9h-12.7c-0.1,0-0.2,0-0.2,0.1c-0.1,0.1-0.1,0.1-0.1,0.2v2c0,0.1,0,0.2,0.1,0.2
				c0.1,0.1,0.1,0.1,0.2,0.1h12.7c0.1,0,0.2,0,0.2-0.1s0.1-0.1,0.1-0.2v-2c0-0.1,0-0.2-0.1-0.2C348.5,190.9,348.4,190.9,348.3,190.9
				z"/>
		</g>
	</g>
</g>
<g id="bubble_x5F_leg_x5F_4">
	<g>
		<path class="st4" d="M334,225.6h-3.6v-2.7l2.5-10.8h4v11h1v2.6h-1v3.2H334V225.6z M334,223v-2.7c0-1.7,0.1-2.8,0.1-4.9l-1.3,7.6
			L334,223L334,223z"/>
		<path class="st4" d="M343.2,214.2v2c0,1.6-0.5,2.4-2.1,2.4s-2.1-0.9-2.1-2.4v-2c0-1.6,0.5-2.4,2.1-2.4S343.2,212.7,343.2,214.2z
			 M340.9,228.8h-1.7l6.6-16.8h1.7L340.9,228.8z M341.5,216.3v-2.1c0-0.5-0.1-0.7-0.4-0.7s-0.4,0.2-0.4,0.7v2.1
			c0,0.5,0.1,0.7,0.4,0.7S341.5,216.8,341.5,216.3z M343.6,226.6v-2c0-1.6,0.5-2.4,2.1-2.4s2.1,0.9,2.1,2.4v2c0,1.6-0.5,2.4-2.1,2.4
			S343.6,228.2,343.6,226.6z M345.3,224.6v2.1c0,0.5,0.1,0.7,0.4,0.7s0.4-0.2,0.4-0.7v-2.1c0-0.5-0.1-0.7-0.4-0.7
			S345.3,224.1,345.3,224.6z"/>
		<path class="st4" d="M319.2,247.5c0-1.8,1-2.6,3.7-3.5v-1.7c0-0.6-0.2-0.9-0.7-0.9s-0.7,0.3-0.7,1v0.6h-2.1v-0.7
			c0-1.6,0.7-2.7,2.8-2.7c2.2,0,2.9,1.2,2.9,2.8v9.5h-1.2l-0.4-0.6c-0.4,0.6-0.8,0.8-1.8,0.8c-1.7,0-2.4-0.9-2.4-2.8L319.2,247.5
			L319.2,247.5z M322.9,245.6c-1.1,0.5-1.6,0.9-1.6,1.9v1.4c0,0.6,0,1.3,0.8,1.3c0.6,0,0.8-0.4,0.8-1L322.9,245.6L322.9,245.6z"/>
		<path class="st4" d="M332.8,239.8v12h-1.2l-0.4-0.6c-0.3,0.6-1,0.8-1.8,0.8c-1.7,0-2.3-0.9-2.3-2.8v-9.5h2.1v9.5
			c0,0.6,0.2,0.9,0.8,0.9c0.6,0,0.8-0.4,0.8-0.9v-9.5h2V239.8z"/>
		<path class="st4" d="M334.2,239.8h1.2v-3.1l2.1-0.6v3.6h1.7v1.9h-1.7v7.6c0,0.7,0.2,1,0.8,1c0.3,0,0.6,0,0.9-0.2v1.8
			c-0.2,0.1-0.8,0.2-1.1,0.2c-2.2,0-2.8-1-2.8-2.8v-7.6h-1.2v-1.8H334.2z"/>
		<path class="st4" d="M344.8,241.7c-0.1,0-0.3,0-0.4,0c-1,0-1.3,0.6-1.3,1.6v8.6H341v-12h1.3l0.4,0.6c0.5-0.6,1-1,2.1-1V241.7z"/>
		<path class="st4" d="M352,247.7v1.5c0,1.7-0.6,2.8-2.8,2.8c-2.3,0-2.9-1.2-2.9-2.8v-6.8c0-1.7,0.7-2.8,2.9-2.8
			c2.2,0,2.8,1.2,2.8,2.8v3.7h-3.6v3.2c0,0.7,0.3,0.9,0.8,0.9s0.8-0.3,0.8-0.9v-1.6L352,247.7L352,247.7z M349.9,242.4
			c0-0.7-0.3-1-0.8-1s-0.8,0.3-0.8,1v2.1h1.6L349.9,242.4L349.9,242.4z"/>
		<path class="st4" d="M353.8,242.4c0-1.7,0.7-2.8,2.8-2.8c2.2,0,2.8,1.1,2.8,2.8v1.2h-2.1v-1.3c0-0.6-0.3-1-0.8-1s-0.7,0.3-0.7,0.9
			v0.5c0,2.6,3.6,1.9,3.6,5.5v1c0,1.7-0.7,2.8-2.8,2.8s-2.8-1.1-2.8-2.8v-1.5h2.1v1.5c0,0.7,0.3,0.9,0.7,0.9c0.5,0,0.8-0.2,0.8-0.9
			v-0.9c0-2.7-3.6-1.9-3.6-5.6V242.4z"/>
	</g>
</g>
<g id="bubble_x5F_front">
	<path class="st2" d="M310.7,125c0,44-35.7,79.7-79.7,79.7S151.3,169,151.3,125S187,45.3,231,45.3C275,45.4,310.7,81,310.7,125z"/>
	<g>
		<path class="st3" d="M203.3,89.6c0-5.1,0.7-9.5,2.2-14h-3.6v-2.8h6.3v2.4c-1.4,5.3-1.7,7.2-1.7,14.4H203.3z"/>
		<path class="st3" d="M209.5,86.7V83c0-0.9,0.4-1.5,1-1.9c-0.7-0.4-1-1-1-1.9v-3.4c0-1.8,0.7-3.2,3.4-3.2s3.4,1.3,3.4,3.2v3.4
			c0,0.9-0.3,1.5-1,1.9c0.6,0.4,1,1.1,1,1.9v3.7c0,1.8-0.8,3.2-3.4,3.2S209.5,88.5,209.5,86.7z M212.4,79.4c0,0.3,0.2,0.5,0.5,0.5
			s0.5-0.2,0.5-0.5v-3.6c0-0.3-0.2-0.5-0.5-0.5s-0.5,0.2-0.5,0.5V79.4z M212.4,86.7c0,0.3,0.2,0.5,0.5,0.5s0.5-0.2,0.5-0.5v-3.9
			c0-0.3-0.2-0.5-0.5-0.5s-0.5,0.2-0.5,0.5V86.7z"/>
		<path class="st3" d="M218.3,86.6V75.8c0-1.8,0.8-3.3,3.4-3.3s3.4,1.4,3.4,3.3v10.8c0,1.8-0.8,3.2-3.4,3.2S218.3,88.5,218.3,86.6z
			 M222.2,86.6V75.8c0-0.3-0.2-0.6-0.5-0.6s-0.5,0.2-0.5,0.6v10.8c0,0.4,0.2,0.6,0.5,0.6S222.2,87,222.2,86.6z"/>
		<path class="st3" d="M231.1,86.6V75.8c0-1.8,0.8-3.3,3.4-3.3s3.4,1.4,3.4,3.3v10.8c0,1.8-0.8,3.2-3.4,3.2S231.1,88.5,231.1,86.6z
			 M235,86.6V75.8c0-0.3-0.2-0.6-0.5-0.6s-0.5,0.2-0.5,0.6v10.8c0,0.4,0.2,0.6,0.5,0.6S235,87,235,86.6z"/>
		<path class="st3" d="M239.9,86.6V75.8c0-1.8,0.8-3.3,3.4-3.3s3.4,1.4,3.4,3.3v10.8c0,1.8-0.8,3.2-3.4,3.2S239.9,88.5,239.9,86.6z
			 M243.8,86.6V75.8c0-0.3-0.2-0.6-0.5-0.6s-0.5,0.2-0.5,0.6v10.8c0,0.4,0.2,0.6,0.5,0.6S243.8,87,243.8,86.6z"/>
		<path class="st3" d="M248.7,86.6V75.8c0-1.8,0.8-3.3,3.4-3.3s3.4,1.4,3.4,3.3v10.8c0,1.8-0.8,3.2-3.4,3.2S248.7,88.5,248.7,86.6z
			 M252.6,86.6V75.8c0-0.3-0.2-0.6-0.5-0.6s-0.5,0.2-0.5,0.6v10.8c0,0.4,0.2,0.6,0.5,0.6S252.6,87,252.6,86.6z"/>
		<path class="st3" d="M196.9,105.3c0-2,0.5-2.9,2.4-2.9c0.3,0,0.8,0.2,1.2,0.3v-5.1h2.8v17h-1.6l-0.4-0.5c-0.4,0.5-1,0.7-1.8,0.7
			c-1.8,0-2.5-0.9-2.5-3L196.9,105.3L196.9,105.3z M199.7,111.9c0,0.3,0.1,0.5,0.4,0.5c0.3,0,0.4-0.2,0.4-0.5v-6.6
			c0-0.3-0.1-0.5-0.4-0.5c-0.3,0-0.4,0.2-0.4,0.5V111.9z"/>
		<path class="st3" d="M207.8,111.9c0,0.4,0.2,0.5,0.4,0.5s0.4-0.1,0.4-0.5v-1.8h2.7v1.6c0,1.8-0.6,3-3.1,3s-3.2-1.3-3.2-3v-6.4
			c0-1.8,0.7-3,3.2-3c2.4,0,3.1,1.2,3.1,3v3.7h-3.5L207.8,111.9L207.8,111.9z M207.8,107.1h0.8v-1.8c0-0.4-0.2-0.5-0.4-0.5
			s-0.4,0.1-0.4,0.5L207.8,107.1L207.8,107.1z"/>
		<path class="st3" d="M220.5,98.8v3.8h1.6v2.4h-1.6v6.8c0,0.4,0.2,0.5,0.5,0.5c0.2,0,0.6,0,1.1-0.2v2.4c-0.3,0.2-1,0.3-1.3,0.3
			c-2.5,0-3.1-1.1-3.1-3V105h-1.2v-2.4h1.2v-3L220.5,98.8z"/>
		<path class="st3" d="M223.3,111.9v-6.5c0-1.8,0.7-3,3.2-3c2.4,0,3.2,1.2,3.2,3v6.5c0,1.8-0.6,3-3.2,3
			C223.9,114.9,223.3,113.6,223.3,111.9z M226.8,111.9v-6.6c0-0.4-0.2-0.5-0.4-0.5s-0.4,0.1-0.4,0.5v6.6c0,0.4,0.2,0.5,0.4,0.5
			C226.7,112.4,226.8,112.3,226.8,111.9z"/>
		<path class="st3" d="M234.9,114.6v-9.3c0-0.3-0.1-0.5-0.4-0.5c-0.3,0-0.4,0.2-0.4,0.5v9.3h-2.8v-12h1.6l0.4,0.5
			c0.5-0.5,1.1-0.7,1.9-0.7c1.8,0,2.4,0.9,2.4,3v9.3h-2.7V114.6z"/>
		<path class="st3" d="M243,114.6v-9.3c0-0.3-0.1-0.5-0.4-0.5c-0.3,0-0.4,0.2-0.4,0.5v9.3h-2.8v-12h1.6l0.4,0.5
			c0.5-0.5,1.1-0.7,1.9-0.7c1.8,0,2.4,0.9,2.4,3v9.3H243V114.6z"/>
		<path class="st3" d="M250.2,111.9c0,0.4,0.2,0.5,0.4,0.5s0.4-0.1,0.4-0.5v-1.8h2.7v1.6c0,1.8-0.6,3-3.1,3s-3.2-1.3-3.2-3v-6.4
			c0-1.8,0.7-3,3.2-3c2.4,0,3.1,1.2,3.1,3v3.7h-3.5L250.2,111.9L250.2,111.9z M250.2,107.1h0.8v-1.8c0-0.4-0.2-0.5-0.4-0.5
			s-0.4,0.1-0.4,0.5L250.2,107.1L250.2,107.1z"/>
		<path class="st3" d="M257.9,111.9c0,0.4,0.1,0.5,0.4,0.5c0.2,0,0.4-0.1,0.4-0.5v-0.6c0-2.3-3.5-2-3.5-5.6v-0.3c0-1.8,0.8-3,3.1-3
			c2.4,0,3.1,1.2,3.1,3v1h-2.7v-1c0-0.3-0.1-0.5-0.4-0.5c-0.2,0-0.4,0.2-0.4,0.5v0.5c0,2.3,3.5,1.7,3.5,5.4v0.7c0,1.8-0.8,3-3.1,3
			s-3.1-1.1-3.1-3v-1.2h2.7V111.9z"/>
		<path class="st3" d="M213.6,140.6c0,2-0.7,3.1-3.2,3.1c-0.4,0-0.9-0.1-1.3-0.2V141c0.4,0.2,0.8,0.3,1.2,0.3s0.6-0.2,0.6-0.6v-12.9
			h2.8v12.8H213.6z M213.6,123.4v3.1h-2.8v-3.1H213.6z"/>
		<path class="st3" d="M218.2,136.9c0,0.4,0.2,0.5,0.4,0.5s0.4-0.1,0.4-0.5v-1.8h2.7v1.6c0,1.8-0.6,3-3.1,3s-3.2-1.3-3.2-3v-6.4
			c0-1.8,0.7-3,3.2-3c2.4,0,3.1,1.2,3.1,3v3.7h-3.5L218.2,136.9L218.2,136.9z M218.2,132.1h0.8v-1.8c0-0.4-0.2-0.5-0.4-0.5
			s-0.4,0.1-0.4,0.5L218.2,132.1L218.2,132.1z"/>
		<path class="st3" d="M226.8,123.8v3.8h1.6v2.4h-1.6v6.8c0,0.4,0.2,0.5,0.5,0.5c0.2,0,0.6,0,1.1-0.2v2.4c-0.3,0.2-1,0.3-1.3,0.3
			c-2.5,0-3.1-1.1-3.1-3V130h-1.2v-2.4h1.2v-3L226.8,123.8z"/>
		<path class="st3" d="M232.6,136.9c0,0.4,0.2,0.5,0.4,0.5s0.4-0.1,0.4-0.5v-1.8h2.7v1.6c0,1.8-0.6,3-3.1,3s-3.2-1.3-3.2-3v-6.4
			c0-1.8,0.7-3,3.2-3c2.4,0,3.1,1.2,3.1,3v3.7h-3.5L232.6,136.9L232.6,136.9z M233.6,126.4H232l0.5-3.2h2.6L233.6,126.4z
			 M232.6,132.1h0.8v-1.8c0-0.4-0.2-0.5-0.4-0.5s-0.4,0.1-0.4,0.5L232.6,132.1L232.6,132.1z"/>
		<path class="st3" d="M240.5,136.9c0,0.4,0.2,0.5,0.4,0.5s0.4-0.1,0.4-0.5v-1.8h2.7v1.6c0,1.8-0.6,3-3.1,3s-3.2-1.3-3.2-3v-6.4
			c0-1.8,0.7-3,3.2-3c2.4,0,3.1,1.2,3.1,3v3.7h-3.5L240.5,136.9L240.5,136.9z M240.5,132.1h0.8v-1.8c0-0.4-0.2-0.5-0.4-0.5
			s-0.4,0.1-0.4,0.5L240.5,132.1L240.5,132.1z"/>
		<path class="st3" d="M248.2,136.9c0,0.4,0.1,0.5,0.4,0.5c0.2,0,0.4-0.1,0.4-0.5v-0.6c0-2.3-3.5-2-3.5-5.6v-0.3c0-1.8,0.8-3,3.1-3
			c2.4,0,3.1,1.2,3.1,3v1H249v-1c0-0.3-0.1-0.5-0.4-0.5c-0.2,0-0.4,0.2-0.4,0.5v0.5c0,2.3,3.5,1.7,3.5,5.4v0.7c0,1.8-0.8,3-3.1,3
			s-3.1-1.1-3.1-3v-1.2h2.7V136.9z"/>
	</g>
	<g>
		<path class="st3" d="M240.4,154.6H236v-2c0-1.5-0.5-2-2-2h-6c-1.4,0-2,0.7-2,2v2h-4.4c-0.9,0-1.6,0.7-1.6,1.5s0.7,1.5,1.6,1.5
			h18.9c0.9,0,1.6-0.7,1.6-1.5C242.1,155.2,241.3,154.6,240.4,154.6z M234,154.6h-6v-2h6V154.6z"/>
		<path class="st3" d="M223.1,178.6c0,0,0.4,2,2.8,2h10.4c2.3,0,2.8-2,2.8-2l2.1-20H221L223.1,178.6z M235,161.6c0-0.6,0.4-1,1-1
			s1,0.4,1,1l-1,15c0,0.6-0.4,1-1,1s-1-0.5-1-1L235,161.6z M230,161.6c0-0.6,0.4-1,1-1s1,0.4,1,1v15c0,0.6-0.4,1-1,1s-1-0.5-1-1
			V161.6z M226,160.6c0.6,0,1,0.4,1,1l1,15c0,0.6-0.4,1-1,1s-1-0.5-1-1l-1-15C225,161,225.5,160.6,226,160.6z"/>
	</g>
</g>
</svg>
