<?xml version="1.0" encoding="utf-8"?>
<!-- Generator: Adobe Illustrator 22.1.0, SVG Export Plug-In . SVG Version: 6.00 Build 0)  -->
<svg version="1.1" xmlns="http://www.w3.org/2000/svg" xmlns:xlink="http://www.w3.org/1999/xlink" x="0px" y="0px"
	 viewBox="0 0 1304 896" style="enable-background:new 0 0 1304 896;" xml:space="preserve">
<style type="text/css">
	.st0{fill:#5FA99F;}
	.st1{fill:none;stroke:#5FA99F;stroke-width:5;stroke-linejoin:round;stroke-miterlimit:10;}
	.st2{fill:none;stroke:#808080;stroke-width:3;stroke-miterlimit:10;}
	.st3{fill:#666666;}
	.st4{fill:#B3B3B3;}
	.st5{fill:#182A28;}
	.st6{fill:#FFFFFF;}
	.st7{fill:none;stroke:#5FA99F;stroke-width:10;stroke-linecap:round;stroke-miterlimit:10;}
</style>
<g id="courbe-aplat">
	<polygon class="st0" points="162,790 195,785 218,785 235,780 307,780 370.5,767.5 383.5,761.5 400.5,761.5 451.5,742.5 
		467.5,729.5 479.5,726.5 508.5,701.5 526.5,701.5 540.5,715.5 563.5,701.5 573.5,698.5 597.5,680.5 641.5,674.5 702.5,642.5 
		714.5,639.5 744.5,612.5 779.5,597.5 791.5,585.5 807.5,582.5 823.5,564.5 841.5,557.5 857.5,530.5 872.5,530.5 886.5,502.5 
		921.5,479.5 937.5,450.5 952.5,431.5 972.5,423.5 986.5,408.5 1029.5,351.5 1048.5,340.5 1063.5,308.5 1093.5,354.5 1108.5,271.5 
		1183.5,178.5 1183.5,789.5 	"/>
</g>
<g id="courbe-ligne">
	<polyline class="st1" points="162.1,788 194.2,785.1 217.5,784.5 234.5,779.5 306.5,779.5 370.5,767.5 383.5,761.5 400.5,761.5 
		451.5,742.5 467.5,729.5 479.5,726.5 508.5,701.5 526.5,701.5 540.5,715.5 563.5,701.5 573.5,698.5 597.5,680.5 641.5,674.5 
		702.5,642.5 714.5,639.5 744.5,612.5 779.5,597.5 791.5,585.5 807.5,582.5 823.5,564.5 841.5,557.5 857.5,530.5 872.5,530.5 
		886.5,502.5 921.5,479.5 937.5,450.5 952.5,431.5 972.5,423.5 986.5,408.5 1029.5,351.5 1048.5,340.5 1063.5,308.5 1093.5,354.5 
		1108.5,271.5 1183.5,178.5 	"/>
</g>
<g id="courbe-fond">
	<polyline class="st2" points="1238.5,789.5 161.5,789.5 161.5,110.5 	"/>
	<g>
		<path class="st3" d="M135.3,830.3h-2.3v-15l-4.5,1.7v-2l6.4-2.4h0.4V830.3z"/>
		<path class="st3" d="M150.5,822.5c-0.5,0.6-1,1-1.7,1.3c-0.7,0.3-1.4,0.5-2.1,0.5c-1,0-1.9-0.3-2.7-0.8c-0.8-0.5-1.3-1.2-1.8-2.1
			s-0.6-1.9-0.6-3c0-1.2,0.2-2.2,0.7-3.2s1.1-1.7,1.9-2.2c0.8-0.5,1.8-0.8,2.9-0.8c1.8,0,3.1,0.7,4.1,2c1,1.3,1.5,3.1,1.5,5.4v0.7
			c0,3.4-0.7,6-2,7.5c-1.4,1.6-3.4,2.4-6.2,2.4h-0.4v-1.9h0.5c1.9,0,3.3-0.5,4.3-1.4S150.4,824.5,150.5,822.5z M147.1,822.5
			c0.8,0,1.4-0.2,2.1-0.7c0.6-0.5,1.1-1,1.4-1.7v-0.9c0-1.5-0.3-2.7-1-3.6c-0.6-0.9-1.5-1.4-2.4-1.4c-1,0-1.8,0.4-2.4,1.1
			s-0.9,1.8-0.9,3c0,1.2,0.3,2.2,0.9,3C145.3,822.1,146.1,822.5,147.1,822.5z"/>
		<path class="st3" d="M156.9,821.4l0.9-8.8h9.1v2.1h-7.2l-0.5,4.8c0.9-0.5,1.9-0.8,3-0.8c1.6,0,2.9,0.5,3.8,1.6
			c0.9,1.1,1.4,2.5,1.4,4.3c0,1.8-0.5,3.3-1.5,4.3c-1,1-2.4,1.6-4.1,1.6c-1.6,0-2.8-0.4-3.8-1.3c-1-0.9-1.6-2.1-1.7-3.6h2.1
			c0.1,1,0.5,1.8,1.1,2.3s1.4,0.8,2.3,0.8c1,0,1.9-0.4,2.5-1.1c0.6-0.7,0.9-1.7,0.9-3c0-1.2-0.3-2.1-1-2.8s-1.5-1.1-2.6-1.1
			c-1,0-1.7,0.2-2.3,0.6l-0.6,0.5L156.9,821.4z"/>
		<path class="st3" d="M181,822.7c0,2.6-0.4,4.6-1.3,5.9c-0.9,1.3-2.3,1.9-4.2,1.9c-1.9,0-3.3-0.6-4.2-1.9c-0.9-1.3-1.4-3.1-1.4-5.6
			v-3c0-2.6,0.4-4.5,1.3-5.8c0.9-1.3,2.3-1.9,4.2-1.9c1.9,0,3.3,0.6,4.2,1.8c0.9,1.2,1.4,3.1,1.4,5.6V822.7z M178.7,819.6
			c0-1.9-0.3-3.3-0.8-4.2s-1.4-1.3-2.5-1.3c-1.2,0-2,0.4-2.5,1.3c-0.5,0.9-0.8,2.2-0.8,4v3.6c0,1.9,0.3,3.3,0.8,4.2
			c0.6,0.9,1.4,1.4,2.5,1.4c1.1,0,1.9-0.4,2.5-1.3c0.5-0.9,0.8-2.2,0.8-4.1V819.6z"/>
	</g>
	<g>
		<path class="st3" d="M140.1,788.7c0,2.6-0.4,4.6-1.3,5.9c-0.9,1.3-2.3,1.9-4.2,1.9c-1.9,0-3.3-0.6-4.2-1.9
			c-0.9-1.3-1.4-3.1-1.4-5.6v-3c0-2.6,0.4-4.5,1.3-5.8c0.9-1.3,2.3-1.9,4.2-1.9c1.9,0,3.3,0.6,4.2,1.8c0.9,1.2,1.4,3.1,1.4,5.6
			V788.7z M137.8,785.6c0-1.9-0.3-3.3-0.8-4.2s-1.4-1.3-2.5-1.3c-1.2,0-2,0.4-2.5,1.3c-0.5,0.9-0.8,2.2-0.8,4v3.6
			c0,1.9,0.3,3.3,0.8,4.2c0.6,0.9,1.4,1.4,2.5,1.4c1.1,0,1.9-0.4,2.5-1.3c0.5-0.9,0.8-2.2,0.8-4.1V785.6z"/>
	</g>
	<g>
		<path class="st3" d="M116,689.4l0.9-8.8h9.1v2.1h-7.2l-0.5,4.8c0.9-0.5,1.9-0.8,3-0.8c1.6,0,2.9,0.5,3.8,1.6
			c0.9,1.1,1.4,2.5,1.4,4.3c0,1.8-0.5,3.3-1.5,4.3c-1,1-2.4,1.6-4.1,1.6c-1.6,0-2.8-0.4-3.8-1.3c-1-0.9-1.6-2.1-1.7-3.6h2.1
			c0.1,1,0.5,1.8,1.1,2.3s1.4,0.8,2.3,0.8c1,0,1.9-0.4,2.5-1.1c0.6-0.7,0.9-1.7,0.9-3c0-1.2-0.3-2.1-1-2.8s-1.5-1.1-2.6-1.1
			c-1,0-1.7,0.2-2.3,0.6l-0.6,0.5L116,689.4z"/>
		<path class="st3" d="M140.1,690.7c0,2.6-0.4,4.6-1.3,5.9c-0.9,1.3-2.3,1.9-4.2,1.9c-1.9,0-3.3-0.6-4.2-1.9
			c-0.9-1.3-1.4-3.1-1.4-5.6v-3c0-2.6,0.4-4.5,1.3-5.8c0.9-1.3,2.3-1.9,4.2-1.9c1.9,0,3.3,0.6,4.2,1.8c0.9,1.2,1.4,3.1,1.4,5.6
			V690.7z M137.8,687.6c0-1.9-0.3-3.3-0.8-4.2s-1.4-1.3-2.5-1.3c-1.2,0-2,0.4-2.5,1.3c-0.5,0.9-0.8,2.2-0.8,4v3.6
			c0,1.9,0.3,3.3,0.8,4.2c0.6,0.9,1.4,1.4,2.5,1.4c1.1,0,1.9-0.4,2.5-1.3c0.5-0.9,0.8-2.2,0.8-4.1V687.6z"/>
	</g>
	<g>
		<path class="st3" d="M108.4,604.3h-2.3v-15l-4.5,1.7v-2l6.4-2.4h0.4V604.3z"/>
		<path class="st3" d="M126.1,596.7c0,2.6-0.4,4.6-1.3,5.9c-0.9,1.3-2.3,1.9-4.2,1.9c-1.9,0-3.3-0.6-4.2-1.9
			c-0.9-1.3-1.4-3.1-1.4-5.6v-3c0-2.6,0.4-4.5,1.3-5.8c0.9-1.3,2.3-1.9,4.2-1.9c1.9,0,3.3,0.6,4.2,1.8c0.9,1.2,1.4,3.1,1.4,5.6
			V596.7z M123.8,593.6c0-1.9-0.3-3.3-0.8-4.2s-1.4-1.3-2.5-1.3c-1.2,0-2,0.4-2.5,1.3c-0.5,0.9-0.8,2.2-0.8,4v3.6
			c0,1.9,0.3,3.3,0.8,4.2c0.6,0.9,1.4,1.4,2.5,1.4c1.1,0,1.9-0.4,2.5-1.3c0.5-0.9,0.8-2.2,0.8-4.1V593.6z"/>
		<path class="st3" d="M140.1,596.7c0,2.6-0.4,4.6-1.3,5.9c-0.9,1.3-2.3,1.9-4.2,1.9c-1.9,0-3.3-0.6-4.2-1.9
			c-0.9-1.3-1.4-3.1-1.4-5.6v-3c0-2.6,0.4-4.5,1.3-5.8c0.9-1.3,2.3-1.9,4.2-1.9c1.9,0,3.3,0.6,4.2,1.8c0.9,1.2,1.4,3.1,1.4,5.6
			V596.7z M137.8,593.6c0-1.9-0.3-3.3-0.8-4.2s-1.4-1.3-2.5-1.3c-1.2,0-2,0.4-2.5,1.3c-0.5,0.9-0.8,2.2-0.8,4v3.6
			c0,1.9,0.3,3.3,0.8,4.2c0.6,0.9,1.4,1.4,2.5,1.4c1.1,0,1.9-0.4,2.5-1.3c0.5-0.9,0.8-2.2,0.8-4.1V593.6z"/>
	</g>
	<g>
		<path class="st3" d="M108.4,502.3h-2.3v-15l-4.5,1.7v-2l6.4-2.4h0.4V502.3z"/>
		<path class="st3" d="M116,493.4l0.9-8.8h9.1v2.1h-7.2l-0.5,4.8c0.9-0.5,1.9-0.8,3-0.8c1.6,0,2.9,0.5,3.8,1.6
			c0.9,1.1,1.4,2.5,1.4,4.3c0,1.8-0.5,3.3-1.5,4.3c-1,1-2.4,1.6-4.1,1.6c-1.6,0-2.8-0.4-3.8-1.3c-1-0.9-1.6-2.1-1.7-3.6h2.1
			c0.1,1,0.5,1.8,1.1,2.3s1.4,0.8,2.3,0.8c1,0,1.9-0.4,2.5-1.1c0.6-0.7,0.9-1.7,0.9-3c0-1.2-0.3-2.1-1-2.8s-1.5-1.1-2.6-1.1
			c-1,0-1.7,0.2-2.3,0.6l-0.6,0.5L116,493.4z"/>
		<path class="st3" d="M140.1,494.7c0,2.6-0.4,4.6-1.3,5.9c-0.9,1.3-2.3,1.9-4.2,1.9c-1.9,0-3.3-0.6-4.2-1.9
			c-0.9-1.3-1.4-3.1-1.4-5.6v-3c0-2.6,0.4-4.5,1.3-5.8c0.9-1.3,2.3-1.9,4.2-1.9c1.9,0,3.3,0.6,4.2,1.8c0.9,1.2,1.4,3.1,1.4,5.6
			V494.7z M137.8,491.6c0-1.9-0.3-3.3-0.8-4.2s-1.4-1.3-2.5-1.3c-1.2,0-2,0.4-2.5,1.3c-0.5,0.9-0.8,2.2-0.8,4v3.6
			c0,1.9,0.3,3.3,0.8,4.2c0.6,0.9,1.4,1.4,2.5,1.4c1.1,0,1.9-0.4,2.5-1.3c0.5-0.9,0.8-2.2,0.8-4.1V491.6z"/>
	</g>
	<g>
		<path class="st3" d="M112.6,405.3H101v-1.6l6.1-6.8c0.9-1,1.5-1.9,1.9-2.5c0.3-0.6,0.5-1.3,0.5-2c0-0.9-0.3-1.7-0.8-2.3
			c-0.6-0.6-1.3-0.9-2.2-0.9c-1.1,0-2,0.3-2.6,1c-0.6,0.6-0.9,1.5-0.9,2.7h-2.2c0-1.6,0.5-2.9,1.6-3.9c1-1,2.5-1.5,4.2-1.5
			c1.6,0,2.9,0.4,3.9,1.3c1,0.9,1.4,2,1.4,3.4c0,1.7-1.1,3.8-3.3,6.2l-4.7,5.1h8.9V405.3z"/>
		<path class="st3" d="M126.1,397.7c0,2.6-0.4,4.6-1.3,5.9c-0.9,1.3-2.3,1.9-4.2,1.9c-1.9,0-3.3-0.6-4.2-1.9
			c-0.9-1.3-1.4-3.1-1.4-5.6v-3c0-2.6,0.4-4.5,1.3-5.8c0.9-1.3,2.3-1.9,4.2-1.9c1.9,0,3.3,0.6,4.2,1.8c0.9,1.2,1.4,3.1,1.4,5.6
			V397.7z M123.8,394.6c0-1.9-0.3-3.3-0.8-4.2s-1.4-1.3-2.5-1.3c-1.2,0-2,0.4-2.5,1.3c-0.5,0.9-0.8,2.2-0.8,4v3.6
			c0,1.9,0.3,3.3,0.8,4.2c0.6,0.9,1.4,1.4,2.5,1.4c1.1,0,1.9-0.4,2.5-1.3c0.5-0.9,0.8-2.2,0.8-4.1V394.6z"/>
		<path class="st3" d="M140.1,397.7c0,2.6-0.4,4.6-1.3,5.9c-0.9,1.3-2.3,1.9-4.2,1.9c-1.9,0-3.3-0.6-4.2-1.9
			c-0.9-1.3-1.4-3.1-1.4-5.6v-3c0-2.6,0.4-4.5,1.3-5.8c0.9-1.3,2.3-1.9,4.2-1.9c1.9,0,3.3,0.6,4.2,1.8c0.9,1.2,1.4,3.1,1.4,5.6
			V397.7z M137.8,394.6c0-1.9-0.3-3.3-0.8-4.2s-1.4-1.3-2.5-1.3c-1.2,0-2,0.4-2.5,1.3c-0.5,0.9-0.8,2.2-0.8,4v3.6
			c0,1.9,0.3,3.3,0.8,4.2c0.6,0.9,1.4,1.4,2.5,1.4c1.1,0,1.9-0.4,2.5-1.3c0.5-0.9,0.8-2.2,0.8-4.1V394.6z"/>
	</g>
	<g>
		<path class="st3" d="M112.6,307.3H101v-1.6l6.1-6.8c0.9-1,1.5-1.9,1.9-2.5c0.3-0.6,0.5-1.3,0.5-2c0-0.9-0.3-1.7-0.8-2.3
			c-0.6-0.6-1.3-0.9-2.2-0.9c-1.1,0-2,0.3-2.6,1c-0.6,0.6-0.9,1.5-0.9,2.7h-2.2c0-1.6,0.5-2.9,1.6-3.9c1-1,2.5-1.5,4.2-1.5
			c1.6,0,2.9,0.4,3.9,1.3c1,0.9,1.4,2,1.4,3.4c0,1.7-1.1,3.8-3.3,6.2l-4.7,5.1h8.9V307.3z"/>
		<path class="st3" d="M116,298.4l0.9-8.8h9.1v2.1h-7.2l-0.5,4.8c0.9-0.5,1.9-0.8,3-0.8c1.6,0,2.9,0.5,3.8,1.6
			c0.9,1.1,1.4,2.5,1.4,4.3c0,1.8-0.5,3.3-1.5,4.3c-1,1-2.4,1.6-4.1,1.6c-1.6,0-2.8-0.4-3.8-1.3c-1-0.9-1.6-2.1-1.7-3.6h2.1
			c0.1,1,0.5,1.8,1.1,2.3s1.4,0.8,2.3,0.8c1,0,1.9-0.4,2.5-1.1c0.6-0.7,0.9-1.7,0.9-3c0-1.2-0.3-2.1-1-2.8s-1.5-1.1-2.6-1.1
			c-1,0-1.7,0.2-2.3,0.6l-0.6,0.5L116,298.4z"/>
		<path class="st3" d="M140.1,299.7c0,2.6-0.4,4.6-1.3,5.9c-0.9,1.3-2.3,1.9-4.2,1.9c-1.9,0-3.3-0.6-4.2-1.9
			c-0.9-1.3-1.4-3.1-1.4-5.6v-3c0-2.6,0.4-4.5,1.3-5.8c0.9-1.3,2.3-1.9,4.2-1.9c1.9,0,3.3,0.6,4.2,1.8c0.9,1.2,1.4,3.1,1.4,5.6
			V299.7z M137.8,296.6c0-1.9-0.3-3.3-0.8-4.2s-1.4-1.3-2.5-1.3c-1.2,0-2,0.4-2.5,1.3c-0.5,0.9-0.8,2.2-0.8,4v3.6
			c0,1.9,0.3,3.3,0.8,4.2c0.6,0.9,1.4,1.4,2.5,1.4c1.1,0,1.9-0.4,2.5-1.3c0.5-0.9,0.8-2.2,0.8-4.1V296.6z"/>
	</g>
	<g>
		<path class="st3" d="M104.3,200.3h1.7c1.1,0,1.9-0.3,2.5-0.8c0.6-0.5,0.9-1.3,0.9-2.2c0-2.1-1-3.1-3.1-3.1c-1,0-1.7,0.3-2.3,0.8
			c-0.6,0.6-0.9,1.3-0.9,2.2h-2.2c0-1.4,0.5-2.6,1.5-3.5s2.3-1.4,3.9-1.4c1.7,0,3,0.4,3.9,1.3c0.9,0.9,1.4,2.1,1.4,3.7
			c0,0.8-0.2,1.5-0.7,2.2c-0.5,0.7-1.2,1.3-2,1.6c1,0.3,1.7,0.8,2.3,1.5c0.5,0.7,0.8,1.6,0.8,2.6c0,1.6-0.5,2.8-1.6,3.8
			s-2.4,1.4-4,1.4c-1.7,0-3-0.5-4.1-1.3c-1-0.9-1.6-2.1-1.6-3.6h2.3c0,0.9,0.3,1.7,0.9,2.2c0.6,0.6,1.4,0.8,2.4,0.8
			c1.1,0,1.9-0.3,2.5-0.9s0.9-1.4,0.9-2.4c0-1-0.3-1.8-0.9-2.4s-1.5-0.8-2.7-0.9h-1.7V200.3z"/>
		<path class="st3" d="M126.1,202.7c0,2.6-0.4,4.6-1.3,5.9c-0.9,1.3-2.3,1.9-4.2,1.9c-1.9,0-3.3-0.6-4.2-1.9
			c-0.9-1.3-1.4-3.1-1.4-5.6v-3c0-2.6,0.4-4.5,1.3-5.8c0.9-1.3,2.3-1.9,4.2-1.9c1.9,0,3.3,0.6,4.2,1.8c0.9,1.2,1.4,3.1,1.4,5.6
			V202.7z M123.8,199.6c0-1.9-0.3-3.3-0.8-4.2s-1.4-1.3-2.5-1.3c-1.2,0-2,0.4-2.5,1.3c-0.5,0.9-0.8,2.2-0.8,4v3.6
			c0,1.9,0.3,3.3,0.8,4.2c0.6,0.9,1.4,1.4,2.5,1.4c1.1,0,1.9-0.4,2.5-1.3c0.5-0.9,0.8-2.2,0.8-4.1V199.6z"/>
		<path class="st3" d="M140.1,202.7c0,2.6-0.4,4.6-1.3,5.9c-0.9,1.3-2.3,1.9-4.2,1.9c-1.9,0-3.3-0.6-4.2-1.9
			c-0.9-1.3-1.4-3.1-1.4-5.6v-3c0-2.6,0.4-4.5,1.3-5.8c0.9-1.3,2.3-1.9,4.2-1.9c1.9,0,3.3,0.6,4.2,1.8c0.9,1.2,1.4,3.1,1.4,5.6
			V202.7z M137.8,199.6c0-1.9-0.3-3.3-0.8-4.2s-1.4-1.3-2.5-1.3c-1.2,0-2,0.4-2.5,1.3c-0.5,0.9-0.8,2.2-0.8,4v3.6
			c0,1.9,0.3,3.3,0.8,4.2c0.6,0.9,1.4,1.4,2.5,1.4c1.1,0,1.9-0.4,2.5-1.3c0.5-0.9,0.8-2.2,0.8-4.1V199.6z"/>
	</g>
	<g>
		<path class="st3" d="M104.3,111.3h1.7c1.1,0,1.9-0.3,2.5-0.8c0.6-0.5,0.9-1.3,0.9-2.2c0-2.1-1-3.1-3.1-3.1c-1,0-1.7,0.3-2.3,0.8
			c-0.6,0.6-0.9,1.3-0.9,2.2h-2.2c0-1.4,0.5-2.6,1.5-3.5s2.3-1.4,3.9-1.4c1.7,0,3,0.4,3.9,1.3c0.9,0.9,1.4,2.1,1.4,3.7
			c0,0.8-0.2,1.5-0.7,2.2c-0.5,0.7-1.2,1.3-2,1.6c1,0.3,1.7,0.8,2.3,1.5c0.5,0.7,0.8,1.6,0.8,2.6c0,1.6-0.5,2.8-1.6,3.8
			s-2.4,1.4-4,1.4c-1.7,0-3-0.5-4.1-1.3c-1-0.9-1.6-2.1-1.6-3.6h2.3c0,0.9,0.3,1.7,0.9,2.2c0.6,0.6,1.4,0.8,2.4,0.8
			c1.1,0,1.9-0.3,2.5-0.9s0.9-1.4,0.9-2.4c0-1-0.3-1.8-0.9-2.4s-1.5-0.8-2.7-0.9h-1.7V111.3z"/>
		<path class="st3" d="M116,112.4l0.9-8.8h9.1v2.1h-7.2l-0.5,4.8c0.9-0.5,1.9-0.8,3-0.8c1.6,0,2.9,0.5,3.8,1.6
			c0.9,1.1,1.4,2.5,1.4,4.3c0,1.8-0.5,3.3-1.5,4.3c-1,1-2.4,1.6-4.1,1.6c-1.6,0-2.8-0.4-3.8-1.3c-1-0.9-1.6-2.1-1.7-3.6h2.1
			c0.1,1,0.5,1.8,1.1,2.3s1.4,0.8,2.3,0.8c1,0,1.9-0.4,2.5-1.1c0.6-0.7,0.9-1.7,0.9-3c0-1.2-0.3-2.1-1-2.8s-1.5-1.1-2.6-1.1
			c-1,0-1.7,0.2-2.3,0.6l-0.6,0.5L116,112.4z"/>
		<path class="st3" d="M140.1,113.7c0,2.6-0.4,4.6-1.3,5.9c-0.9,1.3-2.3,1.9-4.2,1.9c-1.9,0-3.3-0.6-4.2-1.9
			c-0.9-1.3-1.4-3.1-1.4-5.6v-3c0-2.6,0.4-4.5,1.3-5.8c0.9-1.3,2.3-1.9,4.2-1.9c1.9,0,3.3,0.6,4.2,1.8c0.9,1.2,1.4,3.1,1.4,5.6
			V113.7z M137.8,110.6c0-1.9-0.3-3.3-0.8-4.2s-1.4-1.3-2.5-1.3c-1.2,0-2,0.4-2.5,1.3c-0.5,0.9-0.8,2.2-0.8,4v3.6
			c0,1.9,0.3,3.3,0.8,4.2c0.6,0.9,1.4,1.4,2.5,1.4c1.1,0,1.9-0.4,2.5-1.3c0.5-0.9,0.8-2.2,0.8-4.1V110.6z"/>
	</g>
	<g>
		<path class="st3" d="M294.3,830.3h-2.3v-15l-4.5,1.7v-2l6.4-2.4h0.4V830.3z"/>
		<path class="st3" d="M309.5,822.5c-0.5,0.6-1,1-1.7,1.3c-0.7,0.3-1.4,0.5-2.1,0.5c-1,0-1.9-0.3-2.7-0.8c-0.8-0.5-1.3-1.2-1.8-2.1
			s-0.6-1.9-0.6-3c0-1.2,0.2-2.2,0.7-3.2s1.1-1.7,1.9-2.2c0.8-0.5,1.8-0.8,2.9-0.8c1.8,0,3.1,0.7,4.1,2c1,1.3,1.5,3.1,1.5,5.4v0.7
			c0,3.4-0.7,6-2,7.5c-1.4,1.6-3.4,2.4-6.2,2.4h-0.4v-1.9h0.5c1.9,0,3.3-0.5,4.3-1.4S309.4,824.5,309.5,822.5z M306.1,822.5
			c0.8,0,1.4-0.2,2.1-0.7c0.6-0.5,1.1-1,1.4-1.7v-0.9c0-1.5-0.3-2.7-1-3.6c-0.6-0.9-1.5-1.4-2.4-1.4c-1,0-1.8,0.4-2.4,1.1
			s-0.9,1.8-0.9,3c0,1.2,0.3,2.2,0.9,3C304.3,822.1,305.1,822.5,306.1,822.5z"/>
		<path class="st3" d="M323.7,812.5v1.9h-0.4c-1.8,0-3.1,0.6-4.2,1.6s-1.6,2.4-1.8,4.2c0.9-1.1,2.2-1.6,3.8-1.6
			c1.5,0,2.8,0.5,3.7,1.6c0.9,1.1,1.4,2.5,1.4,4.2c0,1.8-0.5,3.3-1.5,4.4c-1,1.1-2.3,1.6-4,1.6c-1.7,0-3.1-0.7-4.1-2
			c-1.1-1.3-1.6-3-1.6-5v-0.9c0-3.3,0.7-5.7,2.1-7.5c1.4-1.7,3.5-2.6,6.2-2.6H323.7z M320.8,820.5c-0.8,0-1.5,0.2-2.1,0.7
			c-0.6,0.5-1.1,1-1.3,1.7v0.8c0,1.5,0.3,2.6,1,3.5c0.7,0.9,1.5,1.3,2.5,1.3c1,0,1.8-0.4,2.4-1.1c0.6-0.7,0.9-1.7,0.9-2.9
			c0-1.2-0.3-2.2-0.9-2.9C322.5,820.9,321.7,820.5,320.8,820.5z"/>
		<path class="st3" d="M340,822.7c0,2.6-0.4,4.6-1.3,5.9c-0.9,1.3-2.3,1.9-4.2,1.9c-1.9,0-3.3-0.6-4.2-1.9c-0.9-1.3-1.4-3.1-1.4-5.6
			v-3c0-2.6,0.4-4.5,1.3-5.8c0.9-1.3,2.3-1.9,4.2-1.9c1.9,0,3.3,0.6,4.2,1.8c0.9,1.2,1.4,3.1,1.4,5.6V822.7z M337.7,819.6
			c0-1.9-0.3-3.3-0.8-4.2s-1.4-1.3-2.5-1.3c-1.2,0-2,0.4-2.5,1.3c-0.5,0.9-0.8,2.2-0.8,4v3.6c0,1.9,0.3,3.3,0.8,4.2
			c0.6,0.9,1.4,1.4,2.5,1.4c1.1,0,1.9-0.4,2.5-1.3c0.5-0.9,0.8-2.2,0.8-4.1V819.6z"/>
	</g>
	<g>
		<path class="st3" d="M453.3,830.3h-2.3v-15l-4.5,1.7v-2l6.4-2.4h0.4V830.3z"/>
		<path class="st3" d="M468.5,822.5c-0.5,0.6-1,1-1.7,1.3c-0.7,0.3-1.4,0.5-2.1,0.5c-1,0-1.9-0.3-2.7-0.8c-0.8-0.5-1.3-1.2-1.8-2.1
			s-0.6-1.9-0.6-3c0-1.2,0.2-2.2,0.7-3.2s1.1-1.7,1.9-2.2c0.8-0.5,1.8-0.8,2.9-0.8c1.8,0,3.1,0.7,4.1,2c1,1.3,1.5,3.1,1.5,5.4v0.7
			c0,3.4-0.7,6-2,7.5c-1.4,1.6-3.4,2.4-6.2,2.4h-0.4v-1.9h0.5c1.9,0,3.3-0.5,4.3-1.4S468.4,824.5,468.5,822.5z M465.1,822.5
			c0.8,0,1.4-0.2,2.1-0.7c0.6-0.5,1.1-1,1.4-1.7v-0.9c0-1.5-0.3-2.7-1-3.6c-0.6-0.9-1.5-1.4-2.4-1.4c-1,0-1.8,0.4-2.4,1.1
			s-0.9,1.8-0.9,3c0,1.2,0.3,2.2,0.9,3C463.3,822.1,464.1,822.5,465.1,822.5z"/>
		<path class="st3" d="M485.3,813.8l-7.3,16.4h-2.4l7.3-15.8h-9.6v-1.8h12V813.8z"/>
		<path class="st3" d="M499,822.7c0,2.6-0.4,4.6-1.3,5.9c-0.9,1.3-2.3,1.9-4.2,1.9c-1.9,0-3.3-0.6-4.2-1.9c-0.9-1.3-1.4-3.1-1.4-5.6
			v-3c0-2.6,0.4-4.5,1.3-5.8c0.9-1.3,2.3-1.9,4.2-1.9c1.9,0,3.3,0.6,4.2,1.8c0.9,1.2,1.4,3.1,1.4,5.6V822.7z M496.7,819.6
			c0-1.9-0.3-3.3-0.8-4.2s-1.4-1.3-2.5-1.3c-1.2,0-2,0.4-2.5,1.3c-0.5,0.9-0.8,2.2-0.8,4v3.6c0,1.9,0.3,3.3,0.8,4.2
			c0.6,0.9,1.4,1.4,2.5,1.4c1.1,0,1.9-0.4,2.5-1.3c0.5-0.9,0.8-2.2,0.8-4.1V819.6z"/>
	</g>
	<g>
		<path class="st3" d="M613.3,830.3h-2.3v-15l-4.5,1.7v-2l6.4-2.4h0.4V830.3z"/>
		<path class="st3" d="M628.5,822.5c-0.5,0.6-1,1-1.7,1.3c-0.7,0.3-1.4,0.5-2.1,0.5c-1,0-1.9-0.3-2.7-0.8c-0.8-0.5-1.3-1.2-1.8-2.1
			s-0.6-1.9-0.6-3c0-1.2,0.2-2.2,0.7-3.2s1.1-1.7,1.9-2.2c0.8-0.5,1.8-0.8,2.9-0.8c1.8,0,3.1,0.7,4.1,2c1,1.3,1.5,3.1,1.5,5.4v0.7
			c0,3.4-0.7,6-2,7.5c-1.4,1.6-3.4,2.4-6.2,2.4h-0.4v-1.9h0.5c1.9,0,3.3-0.5,4.3-1.4S628.4,824.5,628.5,822.5z M625.1,822.5
			c0.8,0,1.4-0.2,2.1-0.7c0.6-0.5,1.1-1,1.4-1.7v-0.9c0-1.5-0.3-2.7-1-3.6c-0.6-0.9-1.5-1.4-2.4-1.4c-1,0-1.8,0.4-2.4,1.1
			s-0.9,1.8-0.9,3c0,1.2,0.3,2.2,0.9,3C623.3,822.1,624.1,822.5,625.1,822.5z"/>
		<path class="st3" d="M644.6,817.2c0,0.9-0.2,1.7-0.7,2.4s-1.1,1.2-1.9,1.6c0.9,0.4,1.7,1,2.2,1.7c0.5,0.8,0.8,1.6,0.8,2.6
			c0,1.5-0.5,2.8-1.5,3.7c-1,0.9-2.4,1.4-4.1,1.4c-1.7,0-3.1-0.5-4.1-1.4c-1-0.9-1.5-2.1-1.5-3.7c0-1,0.3-1.8,0.8-2.6
			c0.5-0.8,1.2-1.4,2.2-1.8c-0.8-0.4-1.4-0.9-1.9-1.6s-0.7-1.5-0.7-2.3c0-1.5,0.5-2.7,1.4-3.5s2.2-1.3,3.8-1.3
			c1.6,0,2.8,0.4,3.8,1.3S644.6,815.7,644.6,817.2z M642.8,825.4c0-1-0.3-1.8-0.9-2.4c-0.6-0.6-1.4-0.9-2.5-0.9
			c-1,0-1.8,0.3-2.4,0.9c-0.6,0.6-0.9,1.4-0.9,2.4s0.3,1.8,0.9,2.4c0.6,0.6,1.4,0.9,2.5,0.9c1.1,0,1.9-0.3,2.5-0.9
			S642.8,826.4,642.8,825.4z M639.4,814.2c-0.9,0-1.6,0.3-2.1,0.8s-0.8,1.3-0.8,2.2c0,0.9,0.3,1.6,0.8,2.2c0.5,0.6,1.3,0.8,2.2,0.8
			c0.9,0,1.6-0.3,2.2-0.8c0.5-0.6,0.8-1.3,0.8-2.2s-0.3-1.6-0.8-2.2C641,814.4,640.3,814.2,639.4,814.2z"/>
		<path class="st3" d="M659,822.7c0,2.6-0.4,4.6-1.3,5.9c-0.9,1.3-2.3,1.9-4.2,1.9c-1.9,0-3.3-0.6-4.2-1.9c-0.9-1.3-1.4-3.1-1.4-5.6
			v-3c0-2.6,0.4-4.5,1.3-5.8c0.9-1.3,2.3-1.9,4.2-1.9c1.9,0,3.3,0.6,4.2,1.8c0.9,1.2,1.4,3.1,1.4,5.6V822.7z M656.7,819.6
			c0-1.9-0.3-3.3-0.8-4.2s-1.4-1.3-2.5-1.3c-1.2,0-2,0.4-2.5,1.3c-0.5,0.9-0.8,2.2-0.8,4v3.6c0,1.9,0.3,3.3,0.8,4.2
			c0.6,0.9,1.4,1.4,2.5,1.4c1.1,0,1.9-0.4,2.5-1.3c0.5-0.9,0.8-2.2,0.8-4.1V819.6z"/>
	</g>
	<g>
		<path class="st3" d="M772.3,831.3h-2.3v-15l-4.5,1.7v-2l6.4-2.4h0.4V831.3z"/>
		<path class="st3" d="M787.5,823.5c-0.5,0.6-1,1-1.7,1.3c-0.7,0.3-1.4,0.5-2.1,0.5c-1,0-1.9-0.3-2.7-0.8c-0.8-0.5-1.3-1.2-1.8-2.1
			c-0.4-0.9-0.6-1.9-0.6-3c0-1.2,0.2-2.2,0.7-3.2c0.4-0.9,1.1-1.7,1.9-2.2c0.8-0.5,1.8-0.8,2.9-0.8c1.8,0,3.1,0.7,4.1,2
			c1,1.3,1.5,3.1,1.5,5.4v0.7c0,3.4-0.7,6-2,7.5c-1.4,1.6-3.4,2.4-6.2,2.4h-0.4v-1.9h0.5c1.9,0,3.3-0.5,4.3-1.4
			C786.9,827,787.4,825.5,787.5,823.5z M784.1,823.5c0.8,0,1.4-0.2,2.1-0.7c0.6-0.5,1.1-1,1.4-1.7v-0.9c0-1.5-0.3-2.7-1-3.6
			c-0.6-0.9-1.5-1.4-2.4-1.4c-1,0-1.8,0.4-2.4,1.1s-0.9,1.8-0.9,3c0,1.2,0.3,2.2,0.9,3C782.3,823.1,783.1,823.5,784.1,823.5z"/>
		<path class="st3" d="M801.5,823.5c-0.5,0.6-1,1-1.7,1.3c-0.7,0.3-1.4,0.5-2.1,0.5c-1,0-1.9-0.3-2.7-0.8c-0.8-0.5-1.3-1.2-1.8-2.1
			c-0.4-0.9-0.6-1.9-0.6-3c0-1.2,0.2-2.2,0.7-3.2c0.4-0.9,1.1-1.7,1.9-2.2c0.8-0.5,1.8-0.8,2.9-0.8c1.8,0,3.1,0.7,4.1,2
			c1,1.3,1.5,3.1,1.5,5.4v0.7c0,3.4-0.7,6-2,7.5c-1.4,1.6-3.4,2.4-6.2,2.4h-0.4v-1.9h0.5c1.9,0,3.3-0.5,4.3-1.4
			C800.9,827,801.4,825.5,801.5,823.5z M798,823.5c0.8,0,1.4-0.2,2.1-0.7c0.6-0.5,1.1-1,1.4-1.7v-0.9c0-1.5-0.3-2.7-1-3.6
			c-0.6-0.9-1.5-1.4-2.4-1.4c-1,0-1.8,0.4-2.4,1.1s-0.9,1.8-0.9,3c0,1.2,0.3,2.2,0.9,3C796.3,823.1,797.1,823.5,798,823.5z"/>
		<path class="st3" d="M818,823.7c0,2.6-0.4,4.6-1.3,5.9c-0.9,1.3-2.3,1.9-4.2,1.9c-1.9,0-3.3-0.6-4.2-1.9c-0.9-1.3-1.4-3.1-1.4-5.6
			v-3c0-2.6,0.4-4.5,1.3-5.8c0.9-1.3,2.3-1.9,4.2-1.9c1.9,0,3.3,0.6,4.2,1.8c0.9,1.2,1.4,3.1,1.4,5.6V823.7z M815.7,820.6
			c0-1.9-0.3-3.3-0.8-4.2c-0.5-0.9-1.4-1.3-2.5-1.3c-1.2,0-2,0.4-2.5,1.3c-0.5,0.9-0.8,2.2-0.8,4v3.6c0,1.9,0.3,3.3,0.8,4.2
			s1.4,1.4,2.5,1.4c1.1,0,1.9-0.4,2.5-1.3c0.5-0.9,0.8-2.2,0.8-4.1V820.6z"/>
	</g>
	<g>
		<path class="st3" d="M939.5,831.3h-11.6v-1.6l6.1-6.8c0.9-1,1.5-1.9,1.9-2.5c0.3-0.6,0.5-1.3,0.5-2c0-0.9-0.3-1.7-0.8-2.3
			c-0.6-0.6-1.3-0.9-2.2-0.9c-1.1,0-2,0.3-2.6,1c-0.6,0.6-0.9,1.5-0.9,2.7h-2.2c0-1.6,0.5-2.9,1.6-3.9c1-1,2.5-1.5,4.2-1.5
			c1.6,0,2.9,0.4,3.9,1.3c1,0.9,1.4,2,1.4,3.4c0,1.7-1.1,3.8-3.3,6.2l-4.7,5.1h8.9V831.3z"/>
		<path class="st3" d="M953,823.7c0,2.6-0.5,4.6-1.3,5.9c-0.9,1.3-2.3,1.9-4.2,1.9c-1.9,0-3.3-0.6-4.2-1.9c-0.9-1.3-1.4-3.1-1.4-5.6
			v-3c0-2.6,0.4-4.5,1.3-5.8s2.3-1.9,4.2-1.9c1.9,0,3.3,0.6,4.2,1.8c0.9,1.2,1.4,3.1,1.4,5.6V823.7z M950.8,820.6
			c0-1.9-0.3-3.3-0.8-4.2s-1.4-1.3-2.5-1.3c-1.2,0-2,0.4-2.5,1.3c-0.5,0.9-0.8,2.2-0.8,4v3.6c0,1.9,0.3,3.3,0.8,4.2s1.4,1.4,2.5,1.4
			c1.1,0,1.9-0.4,2.5-1.3s0.8-2.2,0.8-4.1V820.6z"/>
		<path class="st3" d="M967,823.7c0,2.6-0.5,4.6-1.3,5.9c-0.9,1.3-2.3,1.9-4.2,1.9c-1.9,0-3.3-0.6-4.2-1.9c-0.9-1.3-1.4-3.1-1.4-5.6
			v-3c0-2.6,0.4-4.5,1.3-5.8s2.3-1.9,4.2-1.9c1.9,0,3.3,0.6,4.2,1.8c0.9,1.2,1.4,3.1,1.4,5.6V823.7z M964.7,820.6
			c0-1.9-0.3-3.3-0.8-4.2s-1.4-1.3-2.5-1.3c-1.2,0-2,0.4-2.5,1.3c-0.5,0.9-0.8,2.2-0.8,4v3.6c0,1.9,0.3,3.3,0.8,4.2s1.4,1.4,2.5,1.4
			c1.1,0,1.9-0.4,2.5-1.3s0.8-2.2,0.8-4.1V820.6z"/>
		<path class="st3" d="M981,823.7c0,2.6-0.4,4.6-1.3,5.9c-0.9,1.3-2.3,1.9-4.2,1.9c-1.9,0-3.3-0.6-4.2-1.9c-0.9-1.3-1.4-3.1-1.4-5.6
			v-3c0-2.6,0.4-4.5,1.3-5.8c0.9-1.3,2.3-1.9,4.2-1.9c1.9,0,3.3,0.6,4.2,1.8c0.9,1.2,1.4,3.1,1.4,5.6V823.7z M978.7,820.6
			c0-1.9-0.3-3.3-0.8-4.2c-0.5-0.9-1.4-1.3-2.5-1.3c-1.2,0-2,0.4-2.5,1.3c-0.5,0.9-0.8,2.2-0.8,4v3.6c0,1.9,0.3,3.3,0.8,4.2
			s1.4,1.4,2.5,1.4c1.1,0,1.9-0.4,2.5-1.3c0.5-0.9,0.8-2.2,0.8-4.1V820.6z"/>
	</g>
	<g>
		<path class="st3" d="M1094.5,831.3h-11.6v-1.6l6.1-6.8c0.9-1,1.5-1.9,1.9-2.5c0.3-0.6,0.5-1.3,0.5-2c0-0.9-0.3-1.7-0.8-2.3
			c-0.6-0.6-1.3-0.9-2.2-0.9c-1.1,0-2,0.3-2.6,1c-0.6,0.6-0.9,1.5-0.9,2.7h-2.2c0-1.6,0.5-2.9,1.6-3.9c1-1,2.5-1.5,4.2-1.5
			c1.6,0,2.9,0.4,3.9,1.3c1,0.9,1.4,2,1.4,3.4c0,1.7-1.1,3.8-3.3,6.2l-4.7,5.1h8.9V831.3z"/>
		<path class="st3" d="M1108,823.7c0,2.6-0.5,4.6-1.3,5.9c-0.9,1.3-2.3,1.9-4.2,1.9c-1.9,0-3.3-0.6-4.2-1.9
			c-0.9-1.3-1.4-3.1-1.4-5.6v-3c0-2.6,0.4-4.5,1.3-5.8s2.3-1.9,4.2-1.9c1.9,0,3.3,0.6,4.2,1.8c0.9,1.2,1.4,3.1,1.4,5.6V823.7z
			 M1105.8,820.6c0-1.9-0.3-3.3-0.8-4.2s-1.4-1.3-2.5-1.3c-1.2,0-2,0.4-2.5,1.3c-0.5,0.9-0.8,2.2-0.8,4v3.6c0,1.9,0.3,3.3,0.8,4.2
			s1.4,1.4,2.5,1.4c1.1,0,1.9-0.4,2.5-1.3s0.8-2.2,0.8-4.1V820.6z"/>
		<path class="st3" d="M1118.3,831.3h-2.3v-15l-4.5,1.7v-2l6.4-2.4h0.4V831.3z"/>
		<path class="st3" d="M1136,823.7c0,2.6-0.4,4.6-1.3,5.9c-0.9,1.3-2.3,1.9-4.2,1.9c-1.9,0-3.3-0.6-4.2-1.9
			c-0.9-1.3-1.4-3.1-1.4-5.6v-3c0-2.6,0.4-4.5,1.3-5.8c0.9-1.3,2.3-1.9,4.2-1.9c1.9,0,3.3,0.6,4.2,1.8c0.9,1.2,1.4,3.1,1.4,5.6
			V823.7z M1133.7,820.6c0-1.9-0.3-3.3-0.8-4.2c-0.5-0.9-1.4-1.3-2.5-1.3c-1.2,0-2,0.4-2.5,1.3c-0.5,0.9-0.8,2.2-0.8,4v3.6
			c0,1.9,0.3,3.3,0.8,4.2s1.4,1.4,2.5,1.4c1.1,0,1.9-0.4,2.5-1.3c0.5-0.9,0.8-2.2,0.8-4.1V820.6z"/>
	</g>
	<g>
		<path class="st3" d="M1174.5,831.3h-11.6v-1.6l6.1-6.8c0.9-1,1.5-1.9,1.9-2.5c0.3-0.6,0.5-1.3,0.5-2c0-0.9-0.3-1.7-0.8-2.3
			c-0.6-0.6-1.3-0.9-2.2-0.9c-1.1,0-2,0.3-2.6,1c-0.6,0.6-0.9,1.5-0.9,2.7h-2.2c0-1.6,0.5-2.9,1.6-3.9c1-1,2.5-1.5,4.2-1.5
			c1.6,0,2.9,0.4,3.9,1.3c1,0.9,1.4,2,1.4,3.4c0,1.7-1.1,3.8-3.3,6.2l-4.7,5.1h8.9V831.3z"/>
		<path class="st3" d="M1188,823.7c0,2.6-0.5,4.6-1.3,5.9c-0.9,1.3-2.3,1.9-4.2,1.9c-1.9,0-3.3-0.6-4.2-1.9
			c-0.9-1.3-1.4-3.1-1.4-5.6v-3c0-2.6,0.4-4.5,1.3-5.8s2.3-1.9,4.2-1.9c1.9,0,3.3,0.6,4.2,1.8c0.9,1.2,1.4,3.1,1.4,5.6V823.7z
			 M1185.8,820.6c0-1.9-0.3-3.3-0.8-4.2s-1.4-1.3-2.5-1.3c-1.2,0-2,0.4-2.5,1.3c-0.5,0.9-0.8,2.2-0.8,4v3.6c0,1.9,0.3,3.3,0.8,4.2
			s1.4,1.4,2.5,1.4c1.1,0,1.9-0.4,2.5-1.3s0.8-2.2,0.8-4.1V820.6z"/>
		<path class="st3" d="M1198.3,831.3h-2.3v-15l-4.5,1.7v-2l6.4-2.4h0.4V831.3z"/>
		<path class="st3" d="M1214.4,825.3h2.5v1.8h-2.5v4.1h-2.3v-4.1h-8.1v-1.3l7.9-12.3h2.4V825.3z M1206.6,825.3h5.5v-8.7l-0.3,0.5
			L1206.6,825.3z"/>
	</g>
	<g>
		<path class="st4" d="M43.1,555.2l10.3-3.7l-10.3-3.6V544h14.2v2.9h-3.9l-6.7-0.3l10.6,3.8v2l-10.6,3.8l6.7-0.3h3.9v2.9H43.1V555.2
			z"/>
		<path class="st4" d="M57.3,538.4v2.9H43.1v-2.9H57.3z"/>
		<path class="st4" d="M54.9,532.7v-6.2h2.4v9.2H43.1v-2.9H54.9z"/>
		<path class="st4" d="M54.9,521.9v-6.2h2.4v9.2H43.1v-2.9H54.9z"/>
		<path class="st4" d="M57.3,510.9v2.9H43.1v-2.9H57.3z"/>
		<path class="st4" d="M50.5,496.5c1.4,0,2.6,0.2,3.7,0.7c1.1,0.5,1.9,1.2,2.4,2.1c0.6,0.9,0.9,2,0.9,3.2c0,1.2-0.3,2.2-0.8,3.2
			c-0.6,0.9-1.4,1.6-2.4,2.1s-2.3,0.8-3.6,0.8h-0.7c-1.4,0-2.6-0.3-3.7-0.8c-1.1-0.5-1.9-1.2-2.5-2.1c-0.6-0.9-0.9-2-0.9-3.2
			c0-1.2,0.3-2.2,0.9-3.2c0.6-0.9,1.4-1.6,2.5-2.1c1.1-0.5,2.3-0.8,3.7-0.8H50.5z M49.8,499.5c-1.5,0-2.6,0.3-3.4,0.8
			c-0.8,0.5-1.2,1.3-1.2,2.3c0,1,0.4,1.7,1.1,2.3c0.8,0.5,1.9,0.8,3.4,0.8h0.7c1.5,0,2.6-0.3,3.4-0.8c0.8-0.5,1.2-1.3,1.2-2.3
			c0-1-0.4-1.7-1.2-2.3s-1.9-0.8-3.4-0.8H49.8z"/>
		<path class="st4" d="M57.3,482.8v2.9l-9.4,5.7h9.4v2.9H43.1v-2.9l9.4-5.7h-9.4v-2.9H57.3z"/>
		<path class="st4" d="M53.5,472.9c-0.6,0-1,0.2-1.3,0.6s-0.6,1.1-0.9,2.1s-0.7,1.8-1,2.4c-0.9,1.6-2,2.4-3.5,2.4
			c-0.8,0-1.5-0.2-2.1-0.7c-0.6-0.4-1.1-1.1-1.4-1.9s-0.5-1.7-0.5-2.7c0-1,0.2-1.9,0.6-2.7c0.4-0.8,0.9-1.4,1.6-1.9s1.4-0.7,2.3-0.7
			v2.9c-0.7,0-1.2,0.2-1.5,0.6s-0.5,1-0.5,1.7c0,0.7,0.2,1.3,0.5,1.7c0.3,0.4,0.7,0.6,1.2,0.6c0.5,0,0.8-0.2,1.2-0.7
			c0.3-0.5,0.6-1.2,0.9-2.1c0.5-1.7,1.1-2.9,1.9-3.6s1.7-1.1,2.8-1.1c1.2,0,2.2,0.5,2.9,1.4c0.7,0.9,1,2.2,1,3.8
			c0,1.1-0.2,2.1-0.6,3s-0.9,1.6-1.6,2.1c-0.7,0.5-1.5,0.7-2.4,0.7v-2.9c1.6,0,2.4-0.9,2.4-2.8c0-0.7-0.1-1.2-0.4-1.6
			S54.1,472.9,53.5,472.9z"/>
		<path class="st4" d="M57.3,463H43.1v-4.4c0-1.2,0.3-2.4,0.8-3.4s1.4-1.8,2.4-2.3c1-0.6,2.2-0.8,3.5-0.8h0.7c1.3,0,2.5,0.3,3.5,0.8
			c1,0.5,1.8,1.3,2.4,2.3c0.6,1,0.9,2.1,0.9,3.3V463z M45.4,460h9.5v-1.4c0-1.1-0.4-2-1.1-2.6s-1.8-0.9-3.2-0.9h-0.8
			c-1.4,0-2.5,0.3-3.3,0.9c-0.7,0.6-1.1,1.5-1.1,2.6V460z"/>
		<path class="st4" d="M51.1,441.4v5.6h3.8v-6.6h2.4v9.5H43.1v-9.5h2.4v6.6h3.4v-5.6H51.1z"/>
		<path class="st4" d="M45.4,423.6v4.4h11.8v2.9H45.4v4.3h-2.4v-11.6H45.4z"/>
		<path class="st4" d="M50.5,410.5c1.4,0,2.6,0.2,3.7,0.7s1.9,1.2,2.4,2.1s0.9,2,0.9,3.2c0,1.2-0.3,2.2-0.8,3.2s-1.4,1.6-2.4,2.1
			s-2.3,0.8-3.6,0.8h-0.7c-1.4,0-2.6-0.3-3.7-0.8s-1.9-1.2-2.5-2.1s-0.9-2-0.9-3.2s0.3-2.2,0.9-3.2s1.4-1.6,2.5-2.1s2.3-0.8,3.7-0.8
			H50.5z M49.8,413.5c-1.5,0-2.6,0.3-3.4,0.8s-1.2,1.3-1.2,2.3c0,1,0.4,1.7,1.1,2.3s1.9,0.8,3.4,0.8h0.7c1.5,0,2.6-0.3,3.4-0.8
			s1.2-1.3,1.2-2.3c0-1-0.4-1.7-1.2-2.3s-1.9-0.8-3.4-0.8H49.8z"/>
		<path class="st4" d="M57.3,396.8v2.9l-9.4,5.7h9.4v2.9H43.1v-2.9l9.4-5.7h-9.4v-2.9H57.3z"/>
		<path class="st4" d="M57.3,382.7v2.9l-9.4,5.7h9.4v2.9H43.1v-2.9l9.4-5.7h-9.4v-2.9H57.3z"/>
		<path class="st4" d="M51.1,371.6v5.6h3.8v-6.6h2.4v9.5H43.1v-9.5h2.4v6.6h3.4v-5.6H51.1z"/>
		<path class="st4" d="M53.5,361.5c-0.6,0-1,0.2-1.3,0.6s-0.6,1.1-0.9,2.1s-0.7,1.8-1,2.4c-0.9,1.6-2,2.4-3.5,2.4
			c-0.8,0-1.5-0.2-2.1-0.6s-1.1-1.1-1.4-1.9s-0.5-1.7-0.5-2.7c0-1,0.2-1.9,0.6-2.7s0.9-1.4,1.6-1.9s1.4-0.7,2.3-0.7v2.9
			c-0.7,0-1.2,0.2-1.5,0.6s-0.5,1-0.5,1.7c0,0.7,0.2,1.3,0.5,1.7s0.7,0.6,1.2,0.6c0.5,0,0.8-0.2,1.2-0.7s0.6-1.2,0.9-2.1
			c0.5-1.7,1.1-2.9,1.9-3.6s1.7-1.1,2.8-1.1c1.2,0,2.2,0.5,2.9,1.4s1,2.2,1,3.8c0,1.1-0.2,2.1-0.6,3s-0.9,1.6-1.6,2.1
			s-1.5,0.7-2.4,0.7v-2.9c1.6,0,2.4-0.9,2.4-2.8c0-0.7-0.1-1.2-0.4-1.6S54.1,361.5,53.5,361.5z"/>
	</g>
</g>
<g id="courbe-bubble1">
	<circle class="st5" cx="382.5" cy="683.5" r="53"/>
	<g>
		<path class="st6" d="M362.2,678.7h-3.3v-10.5l-3.2,0.9v-2.5l6.2-2.2h0.3V678.7z"/>
		<path class="st6" d="M366.7,671.7l0.9-7.3h8.3v2.6h-5.6l-0.3,2.8c0.2-0.1,0.5-0.3,0.9-0.4s0.8-0.2,1.1-0.2c1.4,0,2.5,0.4,3.3,1.3
			s1.1,2,1.1,3.5c0,0.9-0.2,1.7-0.6,2.5s-1,1.3-1.7,1.7s-1.6,0.6-2.6,0.6c-0.9,0-1.7-0.2-2.5-0.6c-0.8-0.4-1.4-0.9-1.8-1.5
			s-0.7-1.4-0.7-2.2h3.3c0,0.5,0.2,0.9,0.5,1.2s0.7,0.5,1.2,0.5c1.1,0,1.7-0.8,1.7-2.5c0-1.5-0.7-2.3-2-2.3c-0.8,0-1.3,0.2-1.7,0.7
			L366.7,671.7z"/>
		<path class="st6" d="M387.8,664.5l3.2,9.9l3.2-9.9h4.5v14.2h-3.4v-3.3l0.3-6.8l-3.4,10.1h-2.3l-3.4-10.1l0.3,6.8v3.3h-3.4v-14.2
			H387.8z"/>
		<path class="st6" d="M411.7,667.1h-4.3v11.6H404v-11.6h-4.2v-2.6h11.9V667.1z"/>
		<path class="st6" d="M353.7,696.9c0-1.6,0.2-3.1,0.6-4.4s1-2.5,1.8-3.5s1.6-1.6,2.5-2l0.6,1.6c-0.9,0.7-1.6,1.7-2.1,3.1
			s-0.8,3.1-0.8,5v0.4c0,2,0.2,3.7,0.7,5.1s1.2,2.5,2.1,3.2l-0.6,1.6c-0.9-0.4-1.7-1-2.5-2s-1.3-2.1-1.8-3.5s-0.6-2.8-0.6-4.3V696.9
			z"/>
		<path class="st6" d="M367.8,702.7h-3.3v-10.5l-3.2,0.9v-2.5l6.2-2.2h0.3V702.7z"/>
		<path class="st6" d="M378.5,697.2c-0.7,0.6-1.5,1-2.4,1c-1.3,0-2.3-0.4-3.1-1.3s-1.1-2-1.1-3.5c0-0.9,0.2-1.8,0.6-2.5
			s1-1.4,1.8-1.9s1.6-0.7,2.5-0.7c0.9,0,1.8,0.2,2.5,0.7s1.3,1.1,1.8,2s0.6,1.9,0.7,3v1.3c0,1.6-0.3,2.9-0.9,4.1s-1.5,2-2.6,2.7
			s-2.5,0.9-4,0.9h-0.2v-2.6l0.6,0C377,700.1,378.3,699.1,378.5,697.2z M377,695.8c0.7,0,1.2-0.3,1.5-0.9v-1.4c0-0.9-0.2-1.6-0.5-2
			s-0.7-0.7-1.2-0.7c-0.5,0-0.8,0.2-1.2,0.7s-0.5,1.1-0.5,1.8c0,0.7,0.2,1.3,0.5,1.8S376.5,695.8,377,695.8z"/>
		<path class="st6" d="M391.6,688.3v2.6h-0.1c-1.2,0-2.2,0.3-3,0.9s-1.3,1.4-1.5,2.5c0.7-0.7,1.7-1.1,2.8-1.1c1.2,0,2.2,0.4,2.9,1.3
			s1.1,2.1,1.1,3.5c0,0.9-0.2,1.7-0.6,2.5s-1,1.3-1.8,1.8s-1.6,0.6-2.5,0.6c-1,0-1.9-0.2-2.7-0.7s-1.4-1.1-1.9-2s-0.7-1.8-0.7-2.9
			V696c0-1.5,0.3-2.8,0.9-4s1.5-2.1,2.7-2.7s2.5-1,3.9-1H391.6z M388.6,695.6c-0.4,0-0.8,0.1-1.1,0.3s-0.5,0.4-0.7,0.7v1
			c0,1.8,0.6,2.7,1.9,2.7c0.5,0,0.9-0.2,1.3-0.7s0.5-1,0.5-1.7c0-0.7-0.2-1.3-0.5-1.7S389.2,695.6,388.6,695.6z"/>
		<path class="st6" d="M403.9,697.1h1.4v2.5h-1.4v3h-3.3v-3h-5.5l-0.2-2l5.7-9.2v0h3.3V697.1z M398.1,697.1h2.6v-4.4l-0.2,0.3
			L398.1,697.1z"/>
		<path class="st6" d="M412,697.2c0,1.5-0.2,3-0.7,4.4s-1.1,2.6-1.9,3.5s-1.6,1.7-2.6,2l-0.6-1.6c0.9-0.7,1.6-1.7,2.1-3.1
			s0.8-3,0.8-4.9v-0.6c0-2-0.2-3.7-0.7-5.1s-1.2-2.5-2.1-3.2l0.6-1.6c0.9,0.4,1.8,1,2.5,2s1.4,2.1,1.9,3.5s0.7,2.8,0.7,4.3V697.2z"
			/>
	</g>
</g>
<g id="courbe-bubble2">
	<circle class="st5" cx="1184" cy="100" r="53"/>
	<g>
		<path class="st6" d="M1153.6,86.7h1.6c1.2,0,1.8-0.6,1.8-1.8c0-0.5-0.1-0.9-0.4-1.1s-0.7-0.4-1.2-0.4c-0.4,0-0.8,0.1-1.1,0.4
			s-0.5,0.6-0.5,0.9h-3.3c0-0.7,0.2-1.4,0.6-2s1-1,1.7-1.4s1.6-0.5,2.4-0.5c1.6,0,2.8,0.4,3.7,1.1s1.4,1.7,1.4,3
			c0,0.6-0.2,1.2-0.6,1.7s-0.9,1-1.6,1.3c0.8,0.3,1.3,0.7,1.8,1.2s0.6,1.2,0.6,2.1c0,1.3-0.5,2.3-1.5,3s-2.3,1.1-3.8,1.1
			c-0.9,0-1.8-0.2-2.6-0.5s-1.4-0.8-1.8-1.5s-0.6-1.3-0.6-2.1h3.3c0,0.4,0.2,0.8,0.5,1.1s0.8,0.5,1.3,0.5c0.6,0,1-0.2,1.4-0.5
			s0.5-0.7,0.5-1.2c0-0.7-0.2-1.2-0.5-1.5s-0.9-0.4-1.5-0.4h-1.6V86.7z"/>
		<path class="st6" d="M1169.5,95.2h-3.3V84.7l-3.2,0.9v-2.5l6.2-2.2h0.3V95.2z"/>
		<path class="st6" d="M1181.1,95.2h-3.3V84.7l-3.2,0.9v-2.5l6.2-2.2h0.3V95.2z"/>
		<path class="st6" d="M1195.1,81l3.2,9.9l3.2-9.9h4.5v14.2h-3.4v-3.3l0.3-6.8l-3.4,10.1h-2.3l-3.4-10.1l0.3,6.8v3.3h-3.4V81H1195.1
			z"/>
		<path class="st6" d="M1219,83.6h-4.3v11.6h-3.4V83.6h-4.2V81h11.9V83.6z"/>
		<path class="st6" d="M1155.2,113.4c0-1.6,0.2-3.1,0.6-4.4s1-2.5,1.8-3.5s1.6-1.6,2.5-2l0.6,1.6c-0.9,0.7-1.6,1.7-2.1,3.1
			s-0.8,3.1-0.8,5v0.4c0,2,0.2,3.7,0.7,5.1s1.2,2.5,2.1,3.2l-0.6,1.6c-0.9-0.4-1.7-1-2.5-2s-1.3-2.1-1.8-3.5s-0.6-2.8-0.6-4.3V113.4
			z"/>
		<path class="st6" d="M1171.9,119.2h-9.9V117l4.6-4.8c1.1-1.3,1.7-2.3,1.7-3.1c0-0.6-0.1-1.1-0.4-1.4s-0.7-0.5-1.2-0.5
			c-0.5,0-0.9,0.2-1.2,0.6s-0.5,1-0.5,1.6h-3.3c0-0.9,0.2-1.7,0.7-2.4s1-1.3,1.8-1.7s1.6-0.6,2.6-0.6c1.5,0,2.7,0.4,3.5,1.1
			s1.2,1.7,1.2,3.1c0,0.6-0.1,1.1-0.3,1.6s-0.5,1.1-1,1.7s-1.1,1.4-2.1,2.3l-1.8,2.1h5.6V119.2z"/>
		<path class="st6" d="M1183.4,113.4c0,1.9-0.4,3.4-1.3,4.4s-2.1,1.6-3.6,1.6c-1.6,0-2.8-0.5-3.7-1.6s-1.3-2.5-1.3-4.4v-2.6
			c0-1.9,0.4-3.4,1.3-4.4s2.1-1.6,3.7-1.6s2.8,0.5,3.7,1.6s1.3,2.5,1.3,4.4V113.4z M1180.1,110.4c0-1-0.1-1.8-0.4-2.3
			s-0.7-0.8-1.3-0.8c-0.6,0-1,0.2-1.2,0.7s-0.4,1.2-0.4,2.1v3.6c0,1.1,0.1,1.8,0.4,2.3s0.7,0.7,1.3,0.7c0.6,0,1-0.2,1.2-0.7
			s0.4-1.2,0.4-2.3V110.4z"/>
		<path class="st6" d="M1192.4,119.2h-3.3v-10.5l-3.2,0.9v-2.5l6.2-2.2h0.3V119.2z"/>
		<path class="st6" d="M1205.4,113.6h1.4v2.5h-1.4v3h-3.3v-3h-5.5l-0.2-2l5.7-9.2v0h3.3V113.6z M1199.6,113.6h2.6v-4.4l-0.2,0.3
			L1199.6,113.6z"/>
		<path class="st6" d="M1213.5,113.7c0,1.5-0.2,3-0.7,4.4s-1.1,2.6-1.9,3.5s-1.6,1.7-2.6,2l-0.6-1.6c0.9-0.7,1.6-1.7,2.1-3.1
			s0.8-3,0.8-4.9v-0.6c0-2-0.2-3.7-0.7-5.1s-1.2-2.5-2.1-3.2l0.6-1.6c0.9,0.4,1.8,1,2.5,2s1.4,2.1,1.9,3.5s0.7,2.8,0.7,4.3V113.7z"
			/>
	</g>
</g>
<g id="courbe-fleche">
	<g>
		<g>
			<line class="st7" x1="447" y1="637" x2="1070.3" y2="174.7"/>
			<g>
				<polygon class="st0" points="1071.1,195.8 1113,143 1050.4,167.7 				"/>
			</g>
		</g>
	</g>
	<g>
		<path class="st0" d="M717.2,407.1l-20.9,15.5l-3.4-4.5l2.1-17.3c0.4-4.5,0-7.5-1.2-9.1c-1-1.3-2-2.1-3-2.3c-1.1-0.3-2.1,0-3.2,0.8
			c-1.1,0.8-1.6,1.9-1.6,3.3c0,1.4,0.5,2.8,1.5,4.1l-7,5.2c-1.4-1.8-2.2-3.9-2.4-6.1c-0.2-2.2,0.1-4.4,1.1-6.5
			c1-2.1,2.5-3.9,4.5-5.4c3.2-2.4,6.3-3.5,9.1-3.3c2.9,0.2,5.3,1.7,7.4,4.5c0.9,1.2,1.5,2.5,1.9,3.9c0.4,1.4,0.6,3.1,0.6,5
			c0,1.9-0.3,4.7-0.8,8.2l-0.6,7.3l11.8-8.7L717.2,407.1z"/>
		<path class="st0" d="M732.4,376.8c3,4.1,4.4,7.8,4.2,11.4c-0.2,3.5-1.9,6.5-5.3,9c-3.3,2.5-6.7,3.3-10.2,2.4
			c-3.5-0.9-6.7-3.3-9.7-7.3l-4.1-5.5c-3-4-4.4-7.8-4.2-11.4c0.2-3.5,2-6.5,5.3-9c3.3-2.5,6.7-3.3,10.2-2.4c3.5,0.9,6.7,3.3,9.7,7.3
			L732.4,376.8z M720.8,375.6c-1.6-2.2-3.1-3.6-4.4-4.2c-1.4-0.6-2.6-0.5-3.9,0.4c-1.2,0.9-1.7,2-1.5,3.4c0.2,1.4,1,3.1,2.4,5.1
			l5.7,7.7c1.7,2.2,3.1,3.7,4.5,4.3c1.3,0.6,2.6,0.5,3.8-0.4c1.2-0.9,1.7-2,1.5-3.4c-0.2-1.4-1.1-3.2-2.6-5.4L720.8,375.6z"/>
		<path class="st0" d="M741.9,357.8l-2.5-13.6l8.3-6.1l2.6,21.1l19.8,8.7l-8.3,6.2l-12.6-6.4l2.5,13.9l-8.3,6.2l-2.6-21.5l-19.4-8.7
			l8.2-6.1L741.9,357.8z"/>
	</g>
</g>
</svg>
