<?xml version="1.0" encoding="utf-8"?>
<!-- Generator: Adobe Illustrator 22.0.0, SVG Export Plug-In . SVG Version: 6.00 Build 0)  -->
<svg version="1.1" id="Calque_1" xmlns="http://www.w3.org/2000/svg" xmlns:xlink="http://www.w3.org/1999/xlink" x="0px" y="0px"
	 viewBox="0 0 355.6 388.7" style="enable-background:new 0 0 355.6 388.7;" xml:space="preserve">
<style type="text/css">
	.st0{fill:#2E756F;}
	.st1{fill:#10101F;}
	.st2{fill:#4D72BA;stroke:#000000;stroke-width:2;stroke-miterlimit:10;}
	.st3{fill:#EDD048;}
	.st4{clip-path:url(#SVGID_4_);}
	.st5{fill:#C94742;}
	.st6{fill:#2D2211;}
	.st7{fill:none;stroke:#000000;stroke-width:2;stroke-miterlimit:10;}
	.st8{clip-path:url(#SVGID_8_);}
	.st9{fill:#6AB061;}
	.st10{fill:#FFFFFF;}
	.st11{clip-path:url(#SVGID_10_);}
	.st12{clip-path:url(#SVGID_12_);}
	.st13{fill:#4D72BA;}
	.st14{fill:#C94742;stroke:#000000;stroke-width:2;stroke-miterlimit:10;}
</style>
<g id="titre">
</g>
<g id="pays_x5F_ue_1_">
	<g>
		<g>
			<g>
				<path class="st0" d="M139.5,352.7l1.4-10.2h3v14.7h-2.1l0.3-11l-1.6,11h-1.8l-1.6-11l0.3,11h-2.1v-14.7h3L139.5,352.7z"/>
				<path class="st0" d="M145.6,354.9v-6c0-1.5,0.6-2.5,2.6-2.5s2.6,1,2.6,2.5v6c0,1.5-0.5,2.5-2.6,2.5S145.6,356.4,145.6,354.9z
					 M148.7,355v-6.1c0-0.5-0.3-0.6-0.5-0.6s-0.5,0.1-0.5,0.6v6.1c0,0.5,0.3,0.6,0.5,0.6S148.7,355.4,148.7,355z"/>
				<path class="st0" d="M151.9,360.6v-1.9c0.3,0.1,0.5,0.2,0.9,0.2s0.7-0.2,0.8-0.9l0.1-0.8l-1.8-10.5h2.2l0.7,6.9l0.7-6.9h2.2
					l-1.9,11.4c-0.3,2-1,2.7-2.9,2.7C152.6,360.8,152.1,360.7,151.9,360.6z"/>
				<path class="st0" d="M160.9,355c0,0.5,0.3,0.6,0.5,0.6s0.5-0.1,0.5-0.6v-1.6h2.1v1.5c0,1.5-0.5,2.5-2.6,2.5s-2.6-1-2.6-2.5V349
					c0-1.5,0.6-2.5,2.6-2.5s2.6,1,2.6,2.5v3.3h-3v2.7H160.9z M160.9,350.7h1v-1.8c0-0.5-0.3-0.6-0.5-0.6s-0.5,0.1-0.5,0.6V350.7z"/>
				<path class="st0" d="M168.7,357.2v-8.3c0-0.3-0.1-0.6-0.5-0.6c-0.3,0-0.5,0.2-0.5,0.6v8.3h-2.1v-10.5h1.2l0.4,0.5
					c0.4-0.5,0.9-0.7,1.7-0.7c1.5,0,2,0.8,2,2.4v8.3L168.7,357.2L168.7,357.2z"/>
				<path class="st0" d="M175.8,357.2v-8.3c0-0.3-0.1-0.6-0.5-0.6c-0.3,0-0.5,0.2-0.5,0.6v8.3h-2.1v-10.5h1.2l0.4,0.5
					c0.4-0.5,0.9-0.7,1.7-0.7c1.5,0,2,0.8,2,2.4v8.3L175.8,357.2L175.8,357.2z"/>
				<path class="st0" d="M181.8,355c0,0.5,0.3,0.6,0.5,0.6s0.5-0.1,0.5-0.6v-1.6h2.1v1.5c0,1.5-0.5,2.5-2.6,2.5s-2.6-1-2.6-2.5V349
					c0-1.5,0.6-2.5,2.6-2.5s2.6,1,2.6,2.5v3.3h-3v2.7H181.8z M181.8,350.7h1v-1.8c0-0.5-0.3-0.6-0.5-0.6s-0.5,0.1-0.5,0.6V350.7z"/>
				<path class="st0" d="M192.5,342.5v12.2c0,0.4,0.2,0.6,0.6,0.6c0.4,0,0.6-0.2,0.6-0.6v-12.2h2.3v12.3c0,1.5-0.6,2.6-2.9,2.6
					c-2.2,0-2.9-1.1-2.9-2.6v-12.3H192.5z"/>
				<path class="st0" d="M200.3,355h2.4v2.1H198v-14.7h4.6v2.1h-2.4v4.1h2.1v2.1h-2.1L200.3,355L200.3,355z"/>
				<path class="st0" d="M209.7,346.6c0,4.5-3.3,4.1-3.3,8.2v0.3h3.4v2.1h-5.7V355c0-5.4,3.3-4.8,3.3-8.4v-1.7
					c0-0.4-0.2-0.6-0.6-0.6c-0.4,0-0.6,0.3-0.6,0.6v1.8H204v-1.8c0-1.5,0.6-2.6,2.8-2.6s2.9,1.1,2.9,2.6V346.6L209.7,346.6z"/>
				<path class="st0" d="M211.3,354.7v-3.4c0-0.8,0.4-1.4,1-1.7c-0.7-0.3-1-0.9-1-1.7v-3.1c0-1.5,0.6-2.6,2.8-2.6s2.8,1.1,2.8,2.6
					v3.1c0,0.8-0.3,1.3-1,1.7c0.6,0.3,1,0.9,1,1.7v3.4c0,1.5-0.6,2.6-2.9,2.6S211.3,356.3,211.3,354.7z M213.6,348.2
					c0,0.4,0.2,0.6,0.6,0.6s0.6-0.3,0.6-0.6v-3.3c0-0.4-0.2-0.6-0.6-0.6s-0.6,0.3-0.6,0.6V348.2z M213.6,354.7
					c0,0.4,0.2,0.6,0.6,0.6s0.6-0.3,0.6-0.6v-3.5c0-0.4-0.2-0.6-0.6-0.6s-0.6,0.3-0.6,0.6V354.7z"/>
				<path class="st1" d="M141.2,366.6c0-0.4-0.2-0.7-0.6-0.7s-0.6,0.3-0.6,0.7v2.4h-3.7v-2.4c0-2.4,0.9-4.1,4.3-4.1s4.3,1.7,4.3,4.1
					v4.3c0,1.1-0.4,1.9-1.2,2.4c0.8,0.5,1.3,1.3,1.3,2.4v4.7c0,2.4-1,4.1-4.4,4.1s-4.3-1.7-4.3-4.1v-2.7h3.7v2.6
					c0,0.5,0.2,0.7,0.6,0.7s0.6-0.2,0.6-0.7v-4.8c0-0.3-0.2-0.5-0.5-0.5h-1.5v-3.5h1.5c0.3,0,0.5-0.2,0.5-0.5L141.2,366.6
					L141.2,366.6z"/>
				<path class="st1" d="M152.5,380.6h1.9v3.5h-7.5v-3.5h1.9v-13.1h-1.9v-2.7c1.6,0,2.4-0.9,2.4-2h3.2L152.5,380.6L152.5,380.6z"/>
				<path class="st1" d="M160.1,380.3l-1.4,6.6h-2.3v-6.6H160.1z"/>
				<path class="st1" d="M167.3,380.6h1.9v3.5h-7.5v-3.5h1.9v-13.1h-1.9v-2.7c1.6,0,2.4-0.9,2.4-2h3.2L167.3,380.6L167.3,380.6z"/>
				<path class="st1" d="M176.6,378l1.1-4.3h2.3l-1.7,5.1l1.9,5.4h-2.4l-1.3-4.5v4.5h-2.1v-14.9h2.1L176.6,378L176.6,378z"/>
				<path class="st1" d="M182.9,382.4c0,0.4,0.2,0.5,0.7,0.5c2.2,0,2.8,0.9,2.8,2.3v0.1c0,1.3-0.7,2.4-2.8,2.4s-2.8-1-2.8-2.4v-0.1
					c0-0.8,0.3-1.6,1-2c-0.3-0.2-0.5-0.5-0.5-0.9s0.2-0.7,0.6-0.9c-0.7-0.4-1-1.1-1-2.1V376c0-1.5,0.6-2.5,2.6-2.5
					c0.4,0,0.7,0,1,0.1c0.3-0.8,0.8-1.3,1.5-1.3c0.3,0,0.4,0,0.6,0.1v1.6c-0.3-0.1-0.4-0.1-0.8-0.1c-0.2,0-0.4,0.1-0.5,0.1
					c0.5,0.4,0.8,1.1,0.8,2v3.5c0,1.5-0.6,2.4-2.6,2.4C183.1,381.9,182.9,382.1,182.9,382.4z M182.9,385L182.9,385
					c0,0.6,0.3,0.8,0.7,0.8s0.7-0.2,0.7-0.8l0,0c0-0.5-0.3-0.7-0.7-0.7S182.9,384.4,182.9,385z M183.1,375.9v3.8
					c0,0.5,0.2,0.6,0.5,0.6s0.5-0.2,0.5-0.6v-3.8c0-0.5-0.2-0.6-0.5-0.6S183.1,375.5,183.1,375.9z"/>
				<path class="st1" d="M190.8,368.9h1.6l-3.4,16h-1.6L190.8,368.9z"/>
				<path class="st1" d="M196.9,384.2v-8.3c0-0.4-0.1-0.6-0.5-0.6c-0.3,0-0.5,0.2-0.5,0.5v8.3h-2.1v-14.9h2.1v4.6
					c0.3-0.3,0.8-0.4,1.1-0.4c1.5,0,2,0.8,2,2.4v8.3h-2.1V384.2z"/>
				<path class="st1" d="M203.5,375.9c0-0.4-0.2-0.6-0.5-0.6s-0.4,0.2-0.4,0.6v0.8h-2.1v-0.9c0-1.4,0.7-2.4,2.5-2.4
					c2,0,2.6,1,2.6,2.4v8.3h-1.2l-0.4-0.5c-0.4,0.5-0.8,0.7-1.6,0.7c-1.5,0-2.1-0.8-2.1-2.5v-1.6c0-1.5,1-2.2,3.1-3L203.5,375.9
					L203.5,375.9z M202.6,381.9c0,0.3,0.1,0.6,0.5,0.6c0.5,0,0.5-0.2,0.5-0.6v-3c-0.6,0.4-1,0.6-1,1.4V381.9z"/>
				<path class="st1" d="M212.7,381.9c0,1.7-0.6,2.5-2.1,2.5c-0.8,0-1.3-0.3-1.6-0.7l-0.4,0.5h-1.2v-14.9h2.1v4.6
					c0.3-0.3,0.8-0.4,1.1-0.4c1.5,0,2,0.8,2,2.4L212.7,381.9L212.7,381.9z M210.5,375.9c0-0.4-0.1-0.6-0.5-0.6
					c-0.3,0-0.5,0.2-0.5,0.5v6.1c0,0.4,0.1,0.6,0.5,0.6s0.5-0.3,0.5-0.6V375.9z"/>
				<path class="st1" d="M216.3,381.8v2.4h-2.1v-2.4H216.3z"/>
			</g>
		</g>
		<g>
			<rect x="140.6" y="262.7" class="st2" width="70.9" height="70.9"/>
			<g>
				<polygon class="st3" points="152.4,295.5 153.2,297.1 154.9,297.4 153.7,298.6 154,300.4 152.4,299.5 150.8,300.4 151.1,298.6 
					149.9,297.4 151.6,297.1 				"/>
				<polygon class="st3" points="155.2,307.3 156,308.8 157.8,309.1 156.5,310.3 156.8,312.1 155.2,311.3 153.7,312.1 154,310.3 
					152.7,309.1 154.5,308.8 				"/>
				<polygon class="st3" points="163.5,315.9 164.2,317.5 166,317.8 164.7,319 165,320.7 163.5,319.9 161.9,320.7 162.2,319 
					160.9,317.8 162.7,317.5 				"/>
				<polygon class="st3" points="176.2,319.5 177,321.1 178.7,321.3 177.5,322.6 177.8,324.3 176.2,323.5 174.6,324.3 174.9,322.6 
					173.6,321.3 175.4,321.1 				"/>
				<polygon class="st3" points="188.6,315.7 189.4,317.3 191.2,317.5 189.9,318.8 190.2,320.5 188.6,319.7 187.1,320.5 
					187.4,318.8 186.1,317.5 187.8,317.3 				"/>
				<polygon class="st3" points="197.5,307.2 198.2,308.8 200,309 198.7,310.3 199,312 197.5,311.2 195.9,312 196.2,310.3 
					194.9,309 196.7,308.8 				"/>
				<polygon class="st3" points="199.7,295.5 200.5,297.1 202.3,297.4 201,298.6 201.3,300.4 199.7,299.5 198.2,300.4 198.5,298.6 
					197.2,297.4 199,297.1 				"/>
				<polygon class="st3" points="197.3,284.6 198.1,286.2 199.9,286.4 198.6,287.7 198.9,289.4 197.3,288.6 195.8,289.4 
					196.1,287.7 194.8,286.4 196.6,286.2 				"/>
				<polygon class="st3" points="188.7,275.3 189.5,276.9 191.2,277.2 190,278.4 190.3,280.2 188.7,279.3 187.1,280.2 187.4,278.4 
					186.1,277.2 187.9,276.9 				"/>
				<polygon class="st3" points="176.1,272.1 176.9,273.7 178.7,273.9 177.4,275.2 177.7,276.9 176.1,276.1 174.6,276.9 
					174.9,275.2 173.6,273.9 175.3,273.7 				"/>
				<polygon class="st3" points="154.7,284.5 155.5,286.1 157.2,286.4 156,287.6 156.3,289.4 154.7,288.5 153.1,289.4 153.4,287.6 
					152.1,286.4 153.9,286.1 				"/>
				<polygon class="st3" points="163.5,275.4 164.2,277 166,277.2 164.7,278.5 165,280.2 163.5,279.4 161.9,280.2 162.2,278.5 
					160.9,277.2 162.7,277 				"/>
			</g>
		</g>
	</g>
</g>
<g id="pays_x5F_allemagne_1_">
	<g>
		<g>
			<g>
				<path class="st0" d="M276,254h2.9l1.7,14.7h-2.3l-0.2-2.9h-1.4l-0.2,2.9h-2.3L276,254z M277,263.8h0.9l-0.1-2.2
					c-0.1-1.8-0.3-3.6-0.3-5.1l0,0c-0.1,1.6-0.2,3.4-0.3,5.1L277,263.8z"/>
				<path class="st0" d="M284,253.8v14.9h-2.1v-14.9L284,253.8L284,253.8z"/>
				<path class="st0" d="M287.8,253.8v14.9h-2.1v-14.9L287.8,253.8L287.8,253.8z"/>
				<path class="st0" d="M291.5,266.5c0,0.5,0.3,0.6,0.5,0.6s0.5-0.1,0.5-0.6v-1.6h2.1v1.5c0,1.5-0.5,2.5-2.6,2.5s-2.6-1-2.6-2.5
					v-5.9c0-1.5,0.6-2.5,2.6-2.5s2.6,1,2.6,2.5v3.3h-3v2.7H291.5z M291.5,262.2h1v-1.8c0-0.5-0.3-0.6-0.5-0.6s-0.5,0.1-0.5,0.6
					V262.2z"/>
				<path class="st0" d="M299.3,268.7v-8.3c0-0.3-0.1-0.5-0.5-0.5c-0.3,0-0.5,0.2-0.5,0.5v8.3h-2.1v-10.5h1.2l0.4,0.5
					c0.4-0.5,1-0.7,1.7-0.7s1.2,0.2,1.5,0.6c0.4-0.4,0.9-0.6,1.6-0.6c1.5,0,2.1,0.8,2.1,2.4v8.3h-2.1v-8.3c0-0.3-0.1-0.6-0.5-0.6
					c-0.3,0-0.5,0.2-0.5,0.6v8.3L299.3,268.7L299.3,268.7z"/>
				<path class="st0" d="M309,260.4c0-0.4-0.2-0.6-0.5-0.6s-0.4,0.2-0.4,0.6v0.8H306v-0.9c0-1.4,0.7-2.4,2.5-2.4c2,0,2.6,1,2.6,2.4
					v8.3H310l-0.4-0.5c-0.4,0.5-0.8,0.7-1.6,0.7c-1.5,0-2.1-0.8-2.1-2.5v-1.6c0-1.5,1-2.2,3.1-3V260.4z M308.1,266.5
					c0,0.3,0.1,0.6,0.5,0.6c0.5,0,0.5-0.2,0.5-0.6v-3c-0.6,0.4-1,0.6-1,1.4V266.5z"/>
				<path class="st0" d="M314.6,267c0,0.4,0.2,0.5,0.7,0.5c2.2,0,2.8,0.9,2.8,2.3v0.1c0,1.3-0.7,2.4-2.8,2.4c-2.1,0-2.8-1-2.8-2.4
					v-0.1c0-0.8,0.3-1.6,1-2c-0.3-0.2-0.5-0.5-0.5-0.9s0.2-0.7,0.6-0.9c-0.7-0.4-1-1.1-1-2.1v-3.5c0-1.5,0.6-2.5,2.6-2.5
					c0.4,0,0.7,0,1,0.1c0.3-0.8,0.8-1.3,1.5-1.3c0.3,0,0.4,0,0.6,0.1v1.6c-0.3-0.1-0.4-0.1-0.8-0.1c-0.2,0-0.4,0.1-0.5,0.1
					c0.5,0.4,0.8,1.1,0.8,2v3.5c0,1.5-0.6,2.4-2.6,2.4C314.8,266.4,314.6,266.6,314.6,267z M314.5,269.6L314.5,269.6
					c0,0.6,0.3,0.8,0.7,0.8s0.7-0.2,0.7-0.8l0,0c0-0.5-0.3-0.7-0.7-0.7C314.9,268.8,314.5,269,314.5,269.6z M314.8,260.5v3.8
					c0,0.5,0.2,0.6,0.5,0.6s0.5-0.2,0.5-0.6v-3.8c0-0.5-0.2-0.6-0.5-0.6S314.8,260,314.8,260.5z"/>
				<path class="st0" d="M322.7,268.7v-8.3c0-0.3-0.1-0.6-0.5-0.6c-0.3,0-0.5,0.2-0.5,0.6v8.3h-2.1v-10.5h1.2l0.4,0.5
					c0.4-0.5,0.9-0.7,1.7-0.7c1.5,0,2,0.8,2,2.4v8.3L322.7,268.7L322.7,268.7z"/>
				<path class="st0" d="M328.7,266.5c0,0.5,0.3,0.6,0.5,0.6s0.5-0.1,0.5-0.6v-1.6h2.1v1.5c0,1.5-0.5,2.5-2.6,2.5s-2.6-1-2.6-2.5
					v-5.9c0-1.5,0.6-2.5,2.6-2.5s2.6,1,2.6,2.5v3.3h-3v2.7H328.7z M328.7,262.2h1v-1.8c0-0.5-0.3-0.6-0.5-0.6s-0.5,0.1-0.5,0.6
					V262.2z"/>
				<path class="st1" d="M267.6,276.1c0-0.4-0.2-0.7-0.6-0.7s-0.6,0.3-0.6,0.7v2.4h-3.7v-2.4c0-2.4,0.9-4.1,4.3-4.1s4.3,1.7,4.3,4.1
					v4.3c0,1.1-0.4,1.9-1.2,2.4c0.8,0.5,1.3,1.3,1.3,2.4v4.7c0,2.4-1,4.1-4.4,4.1s-4.3-1.7-4.3-4.1v-2.7h3.7v2.6
					c0,0.5,0.2,0.7,0.6,0.7s0.6-0.2,0.6-0.7V285c0-0.3-0.2-0.5-0.5-0.5h-1.5V281h1.5c0.3,0,0.5-0.2,0.5-0.5L267.6,276.1L267.6,276.1
					z"/>
				<path class="st1" d="M274.8,293.7c0-6.5,0.9-12.1,2.8-17.8H273v-3.5h8v3c-1.8,6.8-2.2,9.1-2.2,18.4h-4V293.7z"/>
				<path class="st1" d="M286.5,289.8l-1.4,6.6h-2.3v-6.6H286.5z"/>
				<path class="st1" d="M292.4,289.6h-4.6v-3.5l3.2-13.8h5.1v14h1.3v3.3h-1.3v4.1h-3.7V289.6z M292.4,286.3v-3.4
					c0-2.2,0.1-3.6,0.2-6.2l-1.7,9.6H292.4z"/>
				<path class="st1" d="M304.4,287.6l1.1-4.3h2.3l-1.7,5.1l1.9,5.4h-2.4l-1.3-4.5v4.5h-2.1v-14.9h2.1v8.7L304.4,287.6L304.4,287.6z
					"/>
				<path class="st1" d="M310.7,292c0,0.4,0.2,0.5,0.7,0.5c2.2,0,2.8,0.9,2.8,2.3v0.1c0,1.3-0.7,2.4-2.8,2.4s-2.8-1-2.8-2.4v-0.1
					c0-0.8,0.3-1.6,1-2c-0.3-0.2-0.5-0.5-0.5-0.9s0.2-0.7,0.6-0.9c-0.7-0.4-1-1.1-1-2.1v-3.5c0-1.5,0.6-2.5,2.6-2.5
					c0.4,0,0.7,0,1,0.1c0.3-0.8,0.8-1.3,1.5-1.3c0.3,0,0.4,0,0.6,0.1v1.6c-0.3-0.1-0.4-0.1-0.8-0.1c-0.2,0-0.4,0.1-0.5,0.1
					c0.5,0.4,0.8,1.1,0.8,2v3.5c0,1.5-0.6,2.4-2.6,2.4C311,291.4,310.7,291.6,310.7,292z M310.7,294.6L310.7,294.6
					c0,0.6,0.3,0.8,0.7,0.8s0.7-0.2,0.7-0.8l0,0c0-0.5-0.3-0.7-0.7-0.7S310.7,294,310.7,294.6z M310.9,285.5v3.8
					c0,0.5,0.2,0.6,0.5,0.6s0.5-0.2,0.5-0.6v-3.8c0-0.5-0.2-0.6-0.5-0.6S310.9,285,310.9,285.5z"/>
				<path class="st1" d="M318.7,278.4h1.6l-3.4,16h-1.6L318.7,278.4z"/>
				<path class="st1" d="M324.7,293.7v-8.3c0-0.4-0.1-0.6-0.5-0.6c-0.3,0-0.5,0.2-0.5,0.5v8.3h-2.1v-14.9h2.1v4.6
					c0.3-0.3,0.8-0.4,1.1-0.4c1.5,0,2,0.8,2,2.4v8.3h-2.1V293.7z"/>
				<path class="st1" d="M331.4,285.4c0-0.4-0.2-0.6-0.5-0.6s-0.4,0.2-0.4,0.6v0.8h-2.1v-0.9c0-1.4,0.7-2.4,2.5-2.4
					c2,0,2.6,1,2.6,2.4v8.3h-1.2l-0.4-0.5c-0.4,0.5-0.8,0.7-1.6,0.7c-1.5,0-2.1-0.8-2.1-2.5v-1.6c0-1.5,1-2.2,3.1-3v-1.3H331.4z
					 M330.4,291.5c0,0.3,0.1,0.6,0.5,0.6c0.5,0,0.5-0.2,0.5-0.6v-3c-0.6,0.4-1,0.6-1,1.4V291.5z"/>
				<path class="st1" d="M340.5,291.5c0,1.7-0.6,2.5-2.1,2.5c-0.8,0-1.3-0.3-1.6-0.7l-0.4,0.5h-1.2v-14.9h2.1v4.6
					c0.3-0.3,0.8-0.4,1.1-0.4c1.5,0,2,0.8,2,2.4v6H340.5z M338.4,285.5c0-0.4-0.1-0.6-0.5-0.6c-0.3,0-0.5,0.2-0.5,0.5v6.1
					c0,0.4,0.1,0.6,0.5,0.6s0.5-0.3,0.5-0.6V285.5z"/>
				<path class="st1" d="M344.1,291.3v2.4H342v-2.4H344.1z"/>
			</g>
		</g>
		<g>
			<g>
				<g>
					<defs>
						<rect id="SVGID_2_" x="264.6" y="167.9" width="77.3" height="77.3"/>
					</defs>
					<clipPath id="SVGID_4_">
						<use xlink:href="#SVGID_2_"  style="overflow:visible;"/>
					</clipPath>
					<g class="st4">
						<rect x="264.6" y="219.5" class="st3" width="77.3" height="25.8"/>
						<rect x="264.6" y="193.7" class="st5" width="77.3" height="25.8"/>
						<rect x="264.6" y="167.9" class="st6" width="77.3" height="25.8"/>
					</g>
				</g>
			</g>
			<g>
				<rect id="SVGID_1_" x="264.6" y="167.9" class="st7" width="77.3" height="77.3"/>
			</g>
		</g>
	</g>
</g>
<g id="pays_x5F_italie_1_">
	<g>
		<g>
			<g>
				<path class="st0" d="M289,94.5h2.3v14.7H289V94.5z"/>
				<path class="st0" d="M295.7,95.5v3.3h1.4v1.9h-1.4v6.4c0,0.4,0.2,0.6,0.5,0.6s0.5,0,0.9-0.2v1.8c-0.2,0.1-0.7,0.2-1,0.2
					c-2.1,0-2.6-0.9-2.6-2.5v-6.4h-1.1v-1.9h1.1V96L295.7,95.5z"/>
				<path class="st0" d="M301.2,100.9c0-0.4-0.2-0.6-0.5-0.6s-0.4,0.2-0.4,0.6v0.8h-2.1v-0.9c0-1.4,0.7-2.4,2.5-2.4
					c2,0,2.6,1,2.6,2.4v8.3h-1.2l-0.4-0.5c-0.4,0.5-0.8,0.7-1.6,0.7c-1.5,0-2.1-0.8-2.1-2.5v-1.6c0-1.5,1-2.2,3.1-3v-1.3H301.2z
					 M300.3,107c0,0.3,0.1,0.6,0.5,0.6c0.5,0,0.5-0.2,0.5-0.6v-3c-0.6,0.4-1,0.6-1,1.4V107z"/>
				<path class="st0" d="M307.1,94.3v14.9H305V94.3H307.1z"/>
				<path class="st0" d="M310.9,95.2v2.4h-2.1v-2.4H310.9z M310.9,98.7v10.5h-2.1V98.7H310.9z"/>
				<path class="st0" d="M314.7,107c0,0.5,0.3,0.6,0.5,0.6s0.5-0.1,0.5-0.6v-1.6h2.1v1.5c0,1.5-0.5,2.5-2.6,2.5s-2.6-1-2.6-2.5V101
					c0-1.5,0.6-2.5,2.6-2.5s2.6,1,2.6,2.5v3.3h-3v2.7H314.7z M314.7,102.7h1v-1.8c0-0.5-0.3-0.6-0.5-0.6s-0.5,0.1-0.5,0.6V102.7z"/>
				<path class="st1" d="M266.6,116.6c0-0.4-0.2-0.7-0.6-0.7s-0.6,0.3-0.6,0.7v2.4h-3.7v-2.4c0-2.4,0.9-4.1,4.3-4.1s4.3,1.7,4.3,4.1
					v4.3c0,1.1-0.4,1.9-1.2,2.4c0.8,0.5,1.3,1.3,1.3,2.4v4.7c0,2.4-1,4.1-4.4,4.1s-4.3-1.7-4.3-4.1v-2.7h3.7v2.6
					c0,0.5,0.2,0.7,0.6,0.7s0.6-0.2,0.6-0.7v-4.8c0-0.3-0.2-0.5-0.5-0.5h-1.5v-3.5h1.5c0.3,0,0.5-0.2,0.5-0.5L266.6,116.6
					L266.6,116.6z"/>
				<path class="st1" d="M276.6,130.1H272v-3.5l3.2-13.8h5.1v14h1.3v3.3h-1.3v4.1h-3.7V130.1z M276.6,126.8v-3.4
					c0-2.2,0.1-3.6,0.2-6.2l-1.7,9.6H276.6z"/>
				<path class="st1" d="M287,130.3l-1.4,6.6h-2.3v-6.6H287z"/>
				<path class="st1" d="M293.9,116.6c0-0.4-0.2-0.7-0.6-0.7s-0.6,0.3-0.6,0.7v2.4H289v-2.4c0-2.4,0.9-4.1,4.3-4.1s4.3,1.7,4.3,4.1
					v4.3c0,1.1-0.4,1.9-1.2,2.4c0.8,0.5,1.3,1.3,1.3,2.4v4.7c0,2.4-1,4.1-4.4,4.1s-4.3-1.7-4.3-4.1v-2.7h3.7v2.6
					c0,0.5,0.2,0.7,0.6,0.7s0.6-0.2,0.6-0.7v-4.8c0-0.3-0.2-0.5-0.5-0.5h-1.5v-3.5h1.5c0.3,0,0.5-0.2,0.5-0.5V116.6L293.9,116.6z"/>
				<path class="st1" d="M305.5,128.1l1.1-4.3h2.3l-1.7,5.1l1.9,5.4h-2.4l-1.3-4.5v4.5h-2.1v-14.9h2.1v8.7H305.5z"/>
				<path class="st1" d="M311.8,132.5c0,0.4,0.2,0.5,0.7,0.5c2.2,0,2.8,0.9,2.8,2.3v0.1c0,1.3-0.7,2.4-2.8,2.4s-2.8-1-2.8-2.4v-0.1
					c0-0.8,0.3-1.6,1-2c-0.3-0.2-0.5-0.5-0.5-0.9s0.2-0.7,0.6-0.9c-0.7-0.4-1-1.1-1-2.1V126c0-1.5,0.6-2.5,2.6-2.5
					c0.4,0,0.7,0,1,0.1c0.3-0.8,0.8-1.3,1.5-1.3c0.3,0,0.4,0,0.6,0.1v1.6c-0.3-0.1-0.4-0.1-0.8-0.1c-0.2,0-0.4,0.1-0.5,0.1
					c0.5,0.4,0.8,1.1,0.8,2v3.5c0,1.5-0.6,2.4-2.6,2.4C312,131.9,311.8,132.1,311.8,132.5z M311.7,135L311.7,135
					c0,0.6,0.3,0.8,0.7,0.8s0.7-0.2,0.7-0.8l0,0c0-0.5-0.3-0.7-0.7-0.7S311.7,134.5,311.7,135z M312,126v3.8c0,0.5,0.2,0.6,0.5,0.6
					s0.5-0.2,0.5-0.6V126c0-0.5-0.2-0.6-0.5-0.6C312.1,125.4,312,125.5,312,126z"/>
				<path class="st1" d="M319.7,118.9h1.6l-3.4,16h-1.6L319.7,118.9z"/>
				<path class="st1" d="M325.8,134.2V126c0-0.4-0.1-0.6-0.5-0.6c-0.3,0-0.5,0.2-0.5,0.5v8.3h-2.1v-14.9h2.1v4.6
					c0.3-0.3,0.8-0.4,1.1-0.4c1.5,0,2,0.8,2,2.4v8.3H325.8z"/>
				<path class="st1" d="M332.4,125.9c0-0.4-0.2-0.6-0.5-0.6s-0.4,0.2-0.4,0.6v0.8h-2.1v-0.9c0-1.4,0.7-2.4,2.5-2.4
					c2,0,2.6,1,2.6,2.4v8.3h-1.2l-0.4-0.5c-0.4,0.5-0.8,0.7-1.6,0.7c-1.5,0-2.1-0.8-2.1-2.5v-1.6c0-1.5,1-2.2,3.1-3v-1.3
					C332.3,125.9,332.4,125.9,332.4,125.9z M331.4,132c0,0.3,0.1,0.6,0.5,0.6c0.5,0,0.5-0.2,0.5-0.6v-3c-0.6,0.4-1,0.6-1,1.4V132z"
					/>
				<path class="st1" d="M341.5,132c0,1.7-0.6,2.5-2.1,2.5c-0.8,0-1.3-0.3-1.6-0.7l-0.4,0.5h-1.2v-14.9h2.1v4.6
					c0.3-0.3,0.8-0.4,1.1-0.4c1.5,0,2,0.8,2,2.4v6H341.5z M339.4,126c0-0.4-0.1-0.6-0.5-0.6c-0.3,0-0.5,0.2-0.5,0.5v6.1
					c0,0.4,0.1,0.6,0.5,0.6s0.5-0.3,0.5-0.6V126z"/>
				<path class="st1" d="M345.2,131.8v2.4H343v-2.4H345.2z"/>
			</g>
		</g>
		<g>
			<g>
				<g>
					<defs>
						<rect id="SVGID_6_" x="265.9" y="11" width="74.7" height="74.7"/>
					</defs>
					<clipPath id="SVGID_8_">
						<use xlink:href="#SVGID_6_"  style="overflow:visible;"/>
					</clipPath>
					<g class="st8">
						<rect x="265.9" y="11" class="st9" width="24.9" height="74.7"/>
						<rect x="290.8" y="11" class="st10" width="24.9" height="74.7"/>
						<rect x="315.7" y="11" class="st5" width="24.9" height="74.7"/>
					</g>
				</g>
			</g>
			<g>
				<rect id="SVGID_3_" x="265.9" y="11" class="st7" width="74.7" height="74.7"/>
			</g>
		</g>
	</g>
</g>
<g id="pays_x5F_autriche_1_">
	<g>
		<g>
			<g>
				<path class="st0" d="M28,254h3l1.7,14.7h-2.3l-0.2-2.9h-1.4l-0.2,2.9h-2.3L28,254z M29,263.8h1l-0.1-2.2
					c-0.1-1.8-0.3-3.6-0.3-5.1l0,0c-0.1,1.6-0.2,3.4-0.3,5.1L29,263.8z"/>
				<path class="st0" d="M36.1,258.2v8.3c0,0.3,0.1,0.6,0.5,0.6c0.3,0,0.5-0.2,0.5-0.6v-8.3h2.1v10.5H38l-0.4-0.5
					c-0.3,0.5-0.9,0.7-1.7,0.7c-1.5,0-2-0.8-2-2.4v-8.3L36.1,258.2L36.1,258.2z"/>
				<path class="st0" d="M43.6,255v3.3H45v1.9h-1.4v6.4c0,0.4,0.2,0.6,0.5,0.6s0.5,0,0.9-0.2v1.8c-0.2,0.1-0.7,0.2-1,0.2
					c-2.1,0-2.6-0.9-2.6-2.5v-6.4h-1.1v-1.9h1.1v-2.7L43.6,255z"/>
				<path class="st0" d="M49.9,260.1c-1.1-0.2-1.5,0.3-1.5,1.2v7.4h-2.1v-10.5h1.2l0.4,0.5c0.5-0.6,1-0.9,2.1-0.9v2.3H49.9z"/>
				<path class="st0" d="M53.3,254.7v2.4h-2.1v-2.4L53.3,254.7L53.3,254.7z M53.3,258.2v10.5h-2.1v-10.5H53.3z"/>
				<path class="st0" d="M60.1,264.9v1.6c0,1.5-0.5,2.5-2.6,2.5s-2.6-1-2.6-2.5v-6c0-1.5,0.6-2.5,2.6-2.5s2.6,1,2.6,2.5v1.4H58v-1.4
					c0-0.5-0.3-0.6-0.5-0.6S57,260,57,260.5v6.1c0,0.5,0.3,0.6,0.5,0.6s0.5-0.1,0.5-0.6V265h2.1V264.9z"/>
				<path class="st0" d="M64.7,268.7v-8.3c0-0.4-0.1-0.6-0.5-0.6c-0.3,0-0.5,0.2-0.5,0.5v8.3h-2.1v-14.9h2.1v4.6
					c0.3-0.3,0.8-0.4,1.1-0.4c1.5,0,2,0.8,2,2.4v8.3h-2.1V268.7z"/>
				<path class="st0" d="M70.6,266.5c0,0.5,0.3,0.6,0.5,0.6s0.5-0.1,0.5-0.6v-1.6h2.1v1.5c0,1.5-0.5,2.5-2.6,2.5s-2.6-1-2.6-2.5
					v-5.9c0-1.5,0.6-2.5,2.6-2.5s2.6,1,2.6,2.5v3.3h-3L70.6,266.5L70.6,266.5z M70.6,262.2h1v-1.8c0-0.5-0.3-0.6-0.5-0.6
					s-0.5,0.1-0.5,0.6V262.2z"/>
				<path class="st1" d="M13.8,276.1c0-0.4-0.2-0.7-0.6-0.7s-0.6,0.3-0.6,0.7v2.4H8.9v-2.4c0-2.4,0.9-4.1,4.3-4.1s4.3,1.7,4.3,4.1
					v4.3c0,1.1-0.4,1.9-1.2,2.4c0.8,0.5,1.3,1.3,1.3,2.4v4.7c0,2.4-1,4.1-4.4,4.1s-4.3-1.7-4.3-4.1v-2.7h3.7v2.6
					c0,0.5,0.2,0.7,0.6,0.7s0.6-0.2,0.6-0.7V285c0-0.3-0.2-0.5-0.5-0.5h-1.5V281h1.5c0.3,0,0.5-0.2,0.5-0.5
					C13.8,280.5,13.8,276.1,13.8,276.1z"/>
				<path class="st1" d="M23.9,289.6h-4.6v-3.5l3.2-13.8h5.1v14h1.3v3.3h-1.3v4.1h-3.7V289.6z M23.9,286.3v-3.4
					c0-2.2,0.1-3.6,0.2-6.2l-1.7,9.6H23.9z"/>
				<path class="st1" d="M34.2,289.8l-1.4,6.6h-2.3v-6.6H34.2z"/>
				<path class="st1" d="M44.7,278.4c0,6.6-4.8,6-4.8,11.7v0.2h4.9v3.5h-8.7v-3.4c0-7.7,4.8-6.9,4.8-11.9v-2.3
					c0-0.4-0.2-0.7-0.6-0.7s-0.6,0.3-0.6,0.7v2.4H36v-2.4c0-2.4,0.9-4.1,4.3-4.1c3.4,0,4.4,1.7,4.4,4.1V278.4z"/>
				<path class="st1" d="M52.2,287.6l1.1-4.3h2.3l-1.7,5.1l1.9,5.4h-2.4l-1.3-4.5v4.5H50v-14.9h2.1v8.7L52.2,287.6L52.2,287.6z"/>
				<path class="st1" d="M58.5,292c0,0.4,0.2,0.5,0.7,0.5c2.2,0,2.8,0.9,2.8,2.3v0.1c0,1.3-0.7,2.4-2.8,2.4s-2.8-1-2.8-2.4v-0.1
					c0-0.8,0.3-1.6,1-2c-0.3-0.2-0.5-0.5-0.5-0.9s0.2-0.7,0.6-0.9c-0.7-0.4-1-1.1-1-2.1v-3.5c0-1.5,0.6-2.5,2.6-2.5
					c0.4,0,0.7,0,1,0.1c0.3-0.8,0.8-1.3,1.5-1.3c0.3,0,0.4,0,0.6,0.1v1.6c-0.3-0.1-0.4-0.1-0.8-0.1c-0.2,0-0.4,0.1-0.5,0.1
					c0.5,0.4,0.8,1.1,0.8,2v3.5c0,1.5-0.6,2.4-2.6,2.4C58.7,291.4,58.5,291.6,58.5,292z M58.5,294.6L58.5,294.6
					c0,0.6,0.3,0.8,0.7,0.8s0.7-0.2,0.7-0.8l0,0c0-0.5-0.3-0.7-0.7-0.7S58.5,294,58.5,294.6z M58.7,285.5v3.8c0,0.5,0.2,0.6,0.5,0.6
					s0.5-0.2,0.5-0.6v-3.8c0-0.5-0.2-0.6-0.5-0.6S58.7,285,58.7,285.5z"/>
				<path class="st1" d="M66.4,278.4H68l-3.4,16H63L66.4,278.4z"/>
				<path class="st1" d="M72.5,293.7v-8.3c0-0.4-0.1-0.6-0.5-0.6c-0.3,0-0.5,0.2-0.5,0.5v8.3h-2.1v-14.9h2.1v4.6
					c0.3-0.3,0.8-0.4,1.1-0.4c1.5,0,2,0.8,2,2.4v8.3h-2.1V293.7z"/>
				<path class="st1" d="M79.1,285.4c0-0.4-0.2-0.6-0.5-0.6s-0.4,0.2-0.4,0.6v0.8h-2.1v-0.9c0-1.4,0.7-2.4,2.5-2.4
					c2,0,2.6,1,2.6,2.4v8.3H80l-0.4-0.5c-0.4,0.5-0.8,0.7-1.6,0.7c-1.5,0-2.1-0.8-2.1-2.5v-1.6c0-1.5,1-2.2,3.1-3L79.1,285.4
					L79.1,285.4z M78.2,291.5c0,0.3,0.1,0.6,0.5,0.6c0.5,0,0.5-0.2,0.5-0.6v-3c-0.6,0.4-1,0.6-1,1.4V291.5z"/>
				<path class="st1" d="M88.3,291.5c0,1.7-0.6,2.5-2.1,2.5c-0.8,0-1.3-0.3-1.6-0.7l-0.4,0.5H83v-14.9h2.1v4.6
					c0.3-0.3,0.8-0.4,1.1-0.4c1.5,0,2,0.8,2,2.4v6H88.3z M86.1,285.5c0-0.4-0.1-0.6-0.5-0.6c-0.3,0-0.5,0.2-0.5,0.5v6.1
					c0,0.4,0.1,0.6,0.5,0.6s0.5-0.3,0.5-0.6V285.5z"/>
				<path class="st1" d="M91.9,291.3v2.4h-2.1v-2.4H91.9z"/>
			</g>
		</g>
		<g>
			<g>
				<g>
					<defs>
						<rect id="SVGID_9_" x="13.5" y="171.7" width="73.5" height="73.5"/>
					</defs>
					<clipPath id="SVGID_10_">
						<use xlink:href="#SVGID_9_"  style="overflow:visible;"/>
					</clipPath>
					<g class="st11">
						<rect x="13.5" y="220.7" class="st5" width="73.5" height="24.5"/>
						<rect x="13.5" y="196.2" class="st10" width="73.5" height="24.5"/>
						<rect x="13.5" y="171.7" class="st5" width="73.5" height="24.5"/>
					</g>
				</g>
			</g>
			<g>
				<rect id="SVGID_5_" x="13.5" y="171.7" class="st7" width="73.5" height="73.5"/>
			</g>
		</g>
	</g>
</g>
<g id="pays_x5F_france_1_">
	<g>
		<g>
			<g>
				<path class="st0" d="M32.1,109.2V94.5h4.6v2.1h-2.3v4.1h2v2.1h-2v6.4H32.1z"/>
				<path class="st0" d="M41.6,100.6c-1.1-0.2-1.5,0.3-1.5,1.2v7.4H38V98.7h1.2l0.4,0.5c0.5-0.6,1-0.9,2.1-0.9v2.3H41.6z"/>
				<path class="st0" d="M45.8,100.9c0-0.4-0.2-0.6-0.5-0.6s-0.4,0.2-0.4,0.6v0.8h-2.1v-0.9c0-1.4,0.7-2.4,2.5-2.4
					c2,0,2.6,1,2.6,2.4v8.3h-1.2l-0.4-0.5c-0.4,0.5-0.8,0.7-1.6,0.7c-1.5,0-2.1-0.8-2.1-2.5v-1.6c0-1.5,1-2.2,3.1-3v-1.3H45.8z
					 M44.9,107c0,0.3,0.1,0.6,0.5,0.6c0.5,0,0.5-0.2,0.5-0.6v-3c-0.6,0.4-1,0.6-1,1.4V107z"/>
				<path class="st0" d="M52.8,109.2v-8.3c0-0.3-0.1-0.6-0.5-0.6c-0.3,0-0.5,0.2-0.5,0.6v8.3h-2.1V98.7h1.2l0.4,0.5
					c0.4-0.5,0.9-0.7,1.7-0.7c1.5,0,2,0.8,2,2.4v8.3C55,109.2,52.8,109.2,52.8,109.2z"/>
				<path class="st0" d="M61.9,105.4v1.6c0,1.5-0.5,2.5-2.6,2.5s-2.6-1-2.6-2.5v-6c0-1.5,0.6-2.5,2.6-2.5s2.6,1,2.6,2.5v1.4h-2.1
					V101c0-0.5-0.3-0.6-0.5-0.6s-0.5,0.1-0.5,0.6v6.1c0,0.5,0.3,0.6,0.5,0.6s0.5-0.1,0.5-0.6v-1.6L61.9,105.4L61.9,105.4z"/>
				<path class="st0" d="M65.5,107c0,0.5,0.3,0.6,0.5,0.6s0.5-0.1,0.5-0.6v-1.6h2.1v1.5c0,1.5-0.5,2.5-2.6,2.5s-2.6-1-2.6-2.5V101
					c0-1.5,0.6-2.5,2.6-2.5s2.6,1,2.6,2.5v3.3h-3L65.5,107L65.5,107z M65.5,102.7h1v-1.8c0-0.5-0.3-0.6-0.5-0.6s-0.5,0.1-0.5,0.6
					V102.7z"/>
				<path class="st1" d="M20.5,116.6c0-0.4-0.2-0.7-0.6-0.7s-0.6,0.3-0.6,0.7v2.4h-3.8v-2.4c0-2.4,0.9-4.1,4.3-4.1s4.3,1.7,4.3,4.1
					v4.3c0,1.1-0.4,1.9-1.2,2.4c0.8,0.5,1.3,1.3,1.3,2.4v4.7c0,2.4-1,4.1-4.4,4.1s-4.3-1.7-4.3-4.1v-2.7h3.7v2.6
					c0,0.5,0.2,0.7,0.6,0.7s0.6-0.2,0.6-0.7v-4.8c0-0.3-0.2-0.5-0.5-0.5h-1.4v-3.5H20c0.3,0,0.5-0.2,0.5-0.5V116.6z"/>
				<path class="st1" d="M35,118.9c0,6.6-4.8,6-4.8,11.7v0.2h4.9v3.5h-8.6v-3.4c0-7.7,4.8-6.9,4.8-11.9v-2.3c0-0.4-0.2-0.7-0.6-0.7
					c-0.4,0-0.6,0.3-0.6,0.7v2.4h-3.7v-2.4c0-2.4,0.9-4.1,4.3-4.1s4.4,1.7,4.4,4.1v2.2H35z"/>
				<path class="st1" d="M42.5,128.1l1.1-4.3h2.3l-1.7,5.1l1.9,5.4h-2.4l-1.3-4.5v4.5h-2.1v-14.9h2.2V128.1z"/>
				<path class="st1" d="M48.8,132.5c0,0.4,0.2,0.5,0.7,0.5c2.2,0,2.8,0.9,2.8,2.3v0.1c0,1.3-0.7,2.4-2.8,2.4s-2.8-1-2.8-2.4v-0.1
					c0-0.8,0.3-1.6,1-2c-0.3-0.2-0.5-0.5-0.5-0.9s0.2-0.7,0.6-0.9c-0.7-0.4-1-1.1-1-2.1V126c0-1.5,0.6-2.5,2.6-2.5
					c0.4,0,0.7,0,1,0.1c0.3-0.8,0.8-1.3,1.5-1.3c0.3,0,0.4,0,0.6,0.1v1.6c-0.3-0.1-0.4-0.1-0.8-0.1c-0.2,0-0.4,0.1-0.5,0.1
					c0.5,0.4,0.8,1.1,0.8,2v3.5c0,1.5-0.6,2.4-2.6,2.4C49.1,131.9,48.8,132.1,48.8,132.5z M48.8,135L48.8,135c0,0.6,0.3,0.8,0.7,0.8
					s0.7-0.2,0.7-0.8l0,0c0-0.5-0.3-0.7-0.7-0.7S48.8,134.5,48.8,135z M49,126v3.8c0,0.5,0.2,0.6,0.5,0.6s0.5-0.2,0.5-0.6V126
					c0-0.5-0.2-0.6-0.5-0.6S49,125.5,49,126z"/>
				<path class="st1" d="M56.8,118.9h1.6l-3.4,16h-1.6L56.8,118.9z"/>
				<path class="st1" d="M62.8,134.2V126c0-0.4-0.1-0.6-0.5-0.6c-0.3,0-0.5,0.2-0.5,0.5v8.3h-2.1v-14.9h2.1v4.6
					c0.3-0.3,0.8-0.4,1.1-0.4c1.5,0,2,0.8,2,2.4v8.3H62.8z"/>
				<path class="st1" d="M69.5,125.9c0-0.4-0.2-0.6-0.5-0.6s-0.4,0.2-0.4,0.6v0.8h-2.1v-0.9c0-1.4,0.7-2.4,2.5-2.4
					c2,0,2.6,1,2.6,2.4v8.3h-1.2l-0.4-0.5c-0.4,0.5-0.8,0.7-1.6,0.7c-1.5,0-2.1-0.8-2.1-2.5v-1.6c0-1.5,1-2.2,3.1-3L69.5,125.9
					L69.5,125.9z M68.5,132c0,0.3,0.1,0.6,0.5,0.6c0.5,0,0.5-0.2,0.5-0.6v-3c-0.6,0.4-1,0.6-1,1.4V132z"/>
				<path class="st1" d="M78.6,132c0,1.7-0.6,2.5-2.1,2.5c-0.8,0-1.3-0.3-1.6-0.7l-0.4,0.5h-1.2v-14.9h2.2v4.6
					c0.3-0.3,0.8-0.4,1.1-0.4c1.5,0,2,0.8,2,2.4V132z M76.5,126c0-0.4-0.1-0.6-0.5-0.6c-0.3,0-0.5,0.2-0.5,0.5v6.1
					c0,0.4,0.1,0.6,0.5,0.6s0.5-0.3,0.5-0.6V126z"/>
				<path class="st1" d="M82.2,131.8v2.4h-2.1v-2.4H82.2z"/>
			</g>
		</g>
		<g>
			<g>
				<g>
					<defs>
						<rect id="SVGID_11_" x="14.1" y="13.5" width="72.2" height="72.2"/>
					</defs>
					<clipPath id="SVGID_12_">
						<use xlink:href="#SVGID_11_"  style="overflow:visible;"/>
					</clipPath>
					<g class="st12">
						<rect x="14.1" y="13.5" class="st13" width="24.1" height="72.2"/>
						<rect x="38.2" y="13.5" class="st10" width="24.1" height="72.2"/>
						<rect x="62.2" y="13.5" class="st5" width="24.1" height="72.2"/>
					</g>
				</g>
			</g>
			<g>
				<rect id="SVGID_7_" x="14.1" y="13.5" class="st7" width="72.2" height="72.2"/>
			</g>
		</g>
	</g>
</g>
<g id="pays_x5F_suisse_1_">
	<g>
		<g>
			<g>
				<path class="st0" d="M148.7,189.5c0,0.7,0.3,1.1,1,1.1s1-0.4,1-1.1V187c0-6.8-5.9-4.4-5.9-12.1v-2.2c0-2.6,1.3-4.6,4.9-4.6
					c3.6,0,4.9,2,4.9,4.6v3.4h-3.9v-3.4c0-0.7-0.3-1.1-1-1.1s-1,0.4-1,1.1v2.1c0,5.9,5.9,3.4,5.9,12.2v2.7c0,2.6-1.3,4.6-4.9,4.6
					c-3.7,0-4.9-2-4.9-4.6v-3.8h3.9V189.5z"/>
				<path class="st0" d="M161.3,175.6V190c0,0.5,0.2,1,0.8,1s0.8-0.4,0.8-1v-14.3h3.7v18.1h-2.1l-0.6-0.9c-0.5,0.8-1.6,1.2-2.9,1.2
					c-2.5,0-3.5-1.3-3.5-4.2v-14.3H161.3z"/>
				<path class="st0" d="M173.3,169.6v4.1h-3.7v-4.1H173.3z M173.3,175.6v18.1h-3.7v-18.1H173.3z"/>
				<path class="st0" d="M179.4,190c0,0.8,0.3,1,0.8,1s0.8-0.2,0.8-1v-1.5c0-3.8-5.3-2.9-5.3-8.4v-0.6c0-2.6,1.2-4.2,4.5-4.2
					c3.4,0,4.5,1.6,4.5,4.3v1.7h-3.6v-1.7c0-0.7-0.3-1-0.8-1s-0.8,0.3-0.8,1v0.8c0,3.6,5.3,2.8,5.3,8.2v1.6c0,2.6-1.1,4.2-4.5,4.2
					s-4.4-1.6-4.4-4.2v-2.1h3.6v1.9H179.4z"/>
				<path class="st0" d="M190.6,190c0,0.8,0.3,1,0.8,1s0.8-0.2,0.8-1v-1.5c0-3.8-5.3-2.9-5.3-8.4v-0.6c0-2.6,1.2-4.2,4.5-4.2
					c3.4,0,4.5,1.6,4.5,4.3v1.7h-3.6v-1.7c0-0.7-0.3-1-0.8-1s-0.8,0.3-0.8,1v0.8c0,3.6,5.3,2.8,5.3,8.2v1.6c0,2.6-1.1,4.2-4.5,4.2
					s-4.4-1.6-4.4-4.2v-2.1h3.6v1.9H190.6z"/>
				<path class="st0" d="M202.2,190c0,0.8,0.4,1,0.8,1c0.4,0,0.8-0.2,0.8-1v-2.8h3.6v2.6c0,2.5-0.9,4.4-4.4,4.4
					c-3.6,0-4.5-1.8-4.5-4.4v-10.2c0-2.5,1.1-4.3,4.5-4.3s4.4,1.8,4.4,4.3v5.7h-5.3L202.2,190L202.2,190z M202.2,182.5h1.7v-3.1
					c0-0.8-0.5-1-0.8-1c-0.4,0-0.8,0.2-0.8,1L202.2,182.5L202.2,182.5z"/>
				<path class="st1" d="M127.6,230.4V221c-0.7,0.3-1.6,0.5-2.6,0.5c-4.2,0-6-2.3-6-6.4v-8.4c0-4.3,2.1-7.1,7.5-7.1
					c5.4,0,7.5,2.8,7.5,7.1v23.8c0,4.2-2.1,7.1-7.5,7.1c-5.4,0-7.5-2.8-7.5-7.1V226h6.4v4.6c0,0.9,0.5,1.2,1.1,1.2
					C127,231.6,127.6,231.3,127.6,230.4z M127.6,206.5c0-0.7-0.4-1.2-1.1-1.2s-1.1,0.5-1.1,1.2v8.1c0,0.7,0.4,1.2,1.1,1.2
					s1.1-0.5,1.1-1.2V206.5z"/>
				<path class="st1" d="M144.9,229.9h-8v-6l5.5-23.8h8.8v24.1h2.2v5.7h-2.2v7.1h-6.3V229.9z M143.4,224.2v-5.9
					c0-3.7,0.2-6.2,0.3-10.7l-3,16.6L143.4,224.2L143.4,224.2z"/>
				<path class="st1" d="M164.1,226.3l1.9-7.5h4l-2.9,8.8l3.2,9.3h-4.1l-2.2-7.8v7.8h-3.7v-25.7h3.7v15.1L164.1,226.3L164.1,226.3z"
					/>
				<path class="st1" d="M175,233.9c0,0.6,0.4,0.9,1.2,0.9c3.7,0,4.9,1.6,4.9,4v0.1c0,2.2-1.2,4.1-4.8,4.1s-4.9-1.8-4.9-4.1v-0.1
					c0-1.5,0.5-2.7,1.8-3.4c-0.6-0.4-0.9-0.9-0.9-1.5c0-0.7,0.4-1.2,1.1-1.5c-1.3-0.7-1.7-2-1.7-3.6v-6.1c0-2.5,1.1-4.3,4.5-4.3
					c0.7,0,1.2,0.1,1.7,0.2c0.5-1.4,1.3-2.2,2.6-2.2c0.4,0,0.7,0,1,0.1v2.8c-0.4-0.1-0.6-0.2-1.3-0.2c-0.4,0-0.7,0.1-0.9,0.3
					c0.9,0.8,1.3,1.9,1.3,3.4v6.1c0,2.5-1.1,4.2-4.5,4.2C175.4,233,175,233.3,175,233.9z M174.9,238.3L174.9,238.3
					c0,1,0.5,1.5,1.3,1.5c0.7,0,1.2-0.4,1.2-1.4v-0.1c0-0.9-0.5-1.3-1.2-1.3C175.5,237.1,174.9,237.3,174.9,238.3z M175.3,222.7v6.5
					c0,0.8,0.3,1.1,0.8,1.1s0.8-0.3,0.8-1.1v-6.5c0-0.8-0.3-1.1-0.8-1.1C175.6,221.6,175.3,221.9,175.3,222.7z"/>
				<path class="st1" d="M188.7,210.5h2.8l-5.8,27.6h-2.8L188.7,210.5z"/>
				<path class="st1" d="M199.1,236.9v-14.3c0-0.7-0.3-1-0.8-1s-0.8,0.3-0.8,0.9v14.4h-3.7v-25.7h3.7v8c0.5-0.4,1.3-0.7,2-0.7
					c2.6,0,3.4,1.3,3.4,4.2V237L199.1,236.9L199.1,236.9z"/>
				<path class="st1" d="M210.6,222.6c0-0.7-0.3-1-0.8-1s-0.7,0.3-0.7,1v1.4h-3.6v-1.5c0-2.4,1.2-4.1,4.4-4.1c3.4,0,4.5,1.8,4.5,4.2
					v14.3h-2.1l-0.6-0.9c-0.6,0.9-1.3,1.2-2.8,1.2c-2.5,0-3.6-1.4-3.6-4.3v-2.8c0-2.6,1.7-3.8,5.4-5.2L210.6,222.6L210.6,222.6z
					 M209,233c0,0.5,0.1,1.1,0.8,1.1c0.8,0,0.9-0.4,0.9-1.1v-5.2c-1,0.7-1.7,1.1-1.7,2.4V233z"/>
				<path class="st1" d="M226.4,233c0,2.9-1,4.3-3.6,4.3c-1.3,0-2.3-0.4-2.8-1.2l-0.6,0.9h-2.1v-25.7h3.7v8c0.5-0.4,1.3-0.7,2-0.7
					c2.6,0,3.4,1.3,3.4,4.2L226.4,233L226.4,233z M222.7,222.6c0-0.7-0.3-1-0.8-1s-0.8,0.3-0.8,0.9V233c0,0.6,0.3,1,0.8,1
					c0.7,0,0.8-0.4,0.8-1V222.6z"/>
				<path class="st1" d="M232.6,232.8v4.1h-3.7v-4.1H232.6z"/>
			</g>
		</g>
		<g>
			<rect x="114.6" y="34.4" class="st14" width="122.9" height="122.9"/>
			<polygon class="st10" points="211.1,85.3 186.6,85.3 186.6,60.8 165.5,60.8 165.5,85.3 141,85.3 141,106.4 165.5,106.4 
				165.5,130.9 186.6,130.9 186.6,106.4 211.1,106.4 			"/>
		</g>
	</g>
</g>
</svg>
