<svg class="gyres" version="1.1" xmlns="http://www.w3.org/2000/svg" xmlns:xlink="http://www.w3.org/1999/xlink" x="0px" y="0px"
	 viewBox="0 0 434.8 255.7" style="enable-background:new 0 0 434.8 255.7;" xml:space="preserve">
	<style type="text/css">
		.st0{fill:#2A5D56;}
		.st1{fill:#5FA89E;stroke:#2A5D56;stroke-width:0.3;stroke-linejoin:round;stroke-miterlimit:3.8636;}
		.st2{opacity:0.6;}
		.st3{fill:none;stroke:#FFFFFF;stroke-width:0.5;stroke-miterlimit:10;}
		.st4{fill:none;stroke:#FFFFFF;stroke-width:0.5;stroke-miterlimit:10;stroke-dasharray:1.9943,1.9943;}
		.st5{fill:none;stroke:#FFFFFF;stroke-width:4;stroke-miterlimit:10;}
		.st6{fill:#FFFFFF;}
		.st7{fill:none;stroke:#FFFFFF;stroke-width:7;stroke-miterlimit:10;}
		.st8{fill:#CB5286;}
		.st9{fill:none;stroke:#CB5286;stroke-miterlimit:10;}
		.st10{opacity:0.57;fill:#CB5286;}
		.st11{fill:url(#SVGID_1_);}
		.st12{fill:url(#SVGID_2_);}
	</style>
	<g id="scene-fond">
		<rect class="st0" width="434.8" height="255.7"/>
	</g>
	<g id="scene-land">
		<g id="Pays">
			<g id="Papouasie_N-G_1_">
				<polygon class="st1" points="388.7,162.2 389.5,163.9 390.6,165.6 391.1,163.5 			"/>
				<path class="st1" d="M378.9,170.4l-1.5-6.2l1.3,0.5l2-0.1v1.7l1.3,0.4l0.3,0.8l1.1,0.9l0.6,0.6l-0.2,1.5l1,1.5l1.7,0.5l1,1.6
					c0,0-1.6,0.5-1.9,0.3c-0.3-0.2-1.9-0.5-1.9-0.5l-1.6-1.7l-1.2-1.6L378.9,170.4z"/>
				<polygon class="st1" points="386,167.3 385.7,168.2 387.1,168.5 388.5,167.8 389.2,166.9 389.1,165.9 388,166 387.8,166.9 			"/>
				<path class="st1" d="M392.3,168c0.5,0,0.9-0.3,0.9-0.6c0-0.3-0.4-0.6-0.9-0.6c-0.5,0-0.9,0.3-0.9,0.6
					C391.4,167.8,391.8,168,392.3,168z"/>
			</g>
			<g id="Australie_1_">
				<polygon class="st1" points="364.1,176.2 364.5,177.2 362.1,177.5 361.1,178.7 361,179.4 360.8,180.7 359.3,181 358.8,180 
					358,179.1 356.1,179.5 355.8,180.7 354.8,181.5 353.7,182 353.1,183 353.1,183.9 352.4,183.9 351.8,183 351.5,185.1 349.6,187.3 
					347.9,188 343.5,189.3 341.6,191.1 339.4,191.4 339.7,195.2 340.6,195.9 340.4,196.7 339.1,195.9 339,197.1 339.6,199.3 
					340.4,200.7 340.4,202.2 340.4,203.4 341,203.7 341.1,206.1 340.4,206.2 340,207.2 339.4,207.9 342,210.1 343.1,210.3 
					343.5,209.7 344,208.8 346.1,209 350.4,208.4 351.2,207.3 352.5,206.3 356.5,205.9 357.3,205.2 358.9,205.1 360,204.9 
					360.1,205.5 361.9,205.6 362.9,206.5 363.8,208 363.9,209.6 364.7,209.5 365.6,208.8 366.6,207.8 367.4,206.5 367.5,207.6 
					367,208.7 366.3,209.7 367.2,209.9 367.5,209 367.9,208.5 367.9,209 368.1,209.9 368.9,210.6 369,211.6 368.5,212.8 369.7,214 
					372.4,215 375.5,215.6 377.7,214.8 381.2,213.1 382.2,210.5 383.8,209.3 384.9,207.1 386.9,205.2 387.6,204.3 387.6,201 
					388.3,196.6 388.2,195.5 386.7,193.6 386,191.3 384.3,190.5 383.9,188.3 381.4,187.1 381.3,184.2 380.5,181.2 379,179.5 
					378.1,177.2 378.8,176 377.5,174.5 376.6,176 375.9,176.9 376,181.9 375.2,183.2 374.8,184 373.3,184 372,182.9 370.4,182.3 
					369.3,181.3 368.3,180.9 368.9,179.6 369.2,178.6 369.9,178.3 370.5,176.8 368.8,176.5 367.2,176.4 365.3,175.5 363.4,175.2 
					363.3,175.8 			"/>
				<polygon class="st1" points="373.9,219 375.5,219.3 377.9,219.3 377.8,220.7 376.9,221.7 376.8,222.8 375.5,223.1 374.6,223.2 
					373.6,222.7 			"/>
			</g>
			<polygon id="Taiwan_1_" class="st1" points="348.9,125.2 348.1,126.3 347.9,128 349.2,129.3 350,127.3 		"/>
			<polygon id="Thailande_1_" class="st1" points="322.4,145.7 322.9,144.9 323.8,143.1 322.7,142.1 322.3,140.6 322.2,139.5 
				322.5,137.4 321.5,136.2 321.2,135.3 321.3,133.1 322.6,132.6 323.3,132 323.9,130.8 324.1,131.9 324.4,133.1 325.1,133.7 
				325.9,134.1 327.2,135.6 328.2,134.8 329.1,135.8 329.8,137.5 330.2,138.5 330.9,138.6 330.9,140.6 329.6,140.8 328.4,140 
				327.2,141.2 326.7,142.7 325.4,142.4 324.6,145 325.4,146.3 324.3,147.4 323.3,146.7 		"/>
			<polygon id="Pakistan_1_" class="st1" points="288.1,109.5 286.9,109.9 286.6,111.2 286.6,111.2 286.2,112.7 285.6,114 
				284.8,114.5 284.4,116 283.4,116.1 282,116.9 281,117.6 280.5,118.9 276.9,119.2 276.4,120.3 276.7,121.6 277.7,121.7 
				278.1,122.5 277.4,123.4 276.4,123.7 277.4,124 277.9,125.1 280,125.1 281.4,124.5 281.7,125.6 283,126.5 284.1,127.3 
				284.9,126.5 287.3,126.5 287.5,125.5 286.2,123.8 285.1,122.8 285.5,121.5 286.3,120.8 288.4,121.5 288.7,120.7 288.9,119.7 
				290.2,118.6 290.7,117.4 291.5,116.6 291.4,114.7 290.2,113.9 290.4,112.2 289.7,111.4 289.9,110.2 288.9,109.7 		"/>
			<polyline id="Bangladesh_1_" class="st1" points="315,129.7 314.4,130.7 313.7,130.5 312.8,129.2 312.9,128 312.2,127 
				311.9,127.9 310.8,128.4 310.7,129.8 309.3,129.6 309.2,126.3 308.3,126.1 309.2,123.5 310.7,124.5 312,124.8 313.5,125.6 
				313.7,127.1 314.2,129 315,129.7 		"/>
			<polygon id="Géorgie_1_" class="st1" points="246.6,96.6 249.2,95.1 250.8,95.9 251.8,95.9 252.9,96.9 254.2,98.3 253.3,99.8 
				252,100.4 250.4,100.5 250.2,99.3 249.5,98.3 247.8,97.8 		"/>
			<g id="Japon_1_">
				<path class="st1" d="M368.3,93.3l0.3,1.6l0.1,1.4l-0.8,1.4l-0.6,1.2l0.8,0.6l1.4-0.5l1.4,0.3c0,0,0.6,1.2,0.6,0.8
					c0-0.3,0.9-1.8,0.9-1.8l0.9-0.4l-0.2-1.6l-1.3-0.4l-1.8-0.6l-0.5-1.4l-0.5-1.2L368.3,93.3z"/>
				<polygon class="st1" points="368.9,100.7 370.1,100.7 370.5,102.7 370.9,103.5 371.9,104.5 370.4,105.7 371,107.9 370.7,109.3 
					370.1,110 369.4,110.2 369,111.3 368.1,110.4 367.7,110.9 366.1,111 365.8,110.2 365.1,110.5 365.1,112.3 364.3,111.8 
					363.7,111.1 363.4,112.3 362.6,112.5 361.9,111.6 360.9,111.5 360.3,111 361.2,110 362.3,109.4 363.1,108.8 365,109 365.1,107.7 
					365.5,106.7 366.2,107 367.9,106.8 368.1,105.9 368.1,104.4 368.7,103.5 368.2,101.6 			"/>
				<polyline class="st1" points="361.6,113.5 361.5,114.3 362.2,114.3 362.9,113.5 362.1,113.1 361.6,113.2 			"/>
				<polygon class="st1" points="358.8,112.4 358.2,113.3 357.5,113.7 358.1,115 358.8,114.3 359.3,114.5 359.1,115.4 359.6,116.4 
					360.4,115.9 360.4,114.6 360.2,112.7 359.7,112 			"/>
			</g>
			<polygon id="Corée_du_Sud_1_" class="st1" points="354.3,104.8 353.9,106 352.1,106.6 352.8,107.7 352.7,108.6 353.8,109.1 
				353.5,111.5 354.8,112 356.8,110.8 356.8,107.9 		"/>
			<polygon id="Corée_du_Nord_1_" class="st1" points="355.4,99.1 355.5,101.3 354.7,101.7 354.1,102.9 352.9,103.4 354.3,104.8 
				353.9,106 352.1,106.6 351.4,105.9 349.9,105.3 350.9,104.6 351,103.2 349.9,102.9 349.6,102.9 350.8,102.1 351.4,100.2 
				352.5,100.6 353.7,100.6 354.9,99.2 		"/>
			<polygon id="Birmanie_1_" class="st1" points="314.4,130.7 315,129.7 315,127.3 316,126.1 316.6,124.4 317.5,123.2 319.2,122.5 
				319.3,121.7 320.7,121.5 321,122.2 321.5,123.6 321,124.7 320.1,125.3 320,126.3 321.4,126.5 322.1,127.8 322.4,129.8 323.6,130 
				323.9,130.8 323.3,132 322.6,132.6 321.3,133.1 321.2,135.3 321.5,136.2 322.5,137.4 322.2,139.5 322.3,140.6 322.7,142.1 
				323.8,143.1 322.9,144.9 322.4,145.7 321.8,143.4 321.5,141.8 320.6,141.1 321,138 319.8,136.3 319.2,137.2 318.3,138 317,137.6 
				316.8,134.9 316.5,133.7 315.4,132.3 314.3,131.3 		"/>
			<polygon id="Cambodge_1_" class="st1" points="329.6,145.1 328,145.5 327.8,143.5 326.7,142.7 327.2,141.2 328.4,140 329.6,140.8 
				330.9,140.6 331.7,141.5 333,140.6 333.6,141 333.7,143.3 332.8,143.9 331.6,145.1 330.4,146 		"/>
			<polygon id="Vietnam_1_" class="st1" points="326.4,128.9 327.1,130.8 329.3,131.6 329.5,132.4 329.1,133.8 330,134.7 
				331.9,137.4 333,138.2 333,140.6 333.6,141 333.7,143.3 332.8,143.9 331.6,145.1 330.4,146 331,146.7 330.3,147.6 330.8,148.8 
				333,147.2 335,145.5 335.5,144.7 335.8,141.6 335.2,138.9 333.3,137 331.2,134.6 331.2,132.9 331.8,132.2 333.3,131.1 
				331.5,128.5 329.6,127.9 328.3,127.9 		"/>
			<g id="Chine_1_">
				<polyline class="st1" points="344,103.1 342.2,104.3 342.3,105.6 343.5,106.6 344.8,106.8 345.8,105.8 347.6,106 348.1,107.7 
					346.5,108.2 345.1,109.4 345.6,110.9 346.7,113 348.3,114.6 348.3,116 348.6,117.4 349.2,120.9 348.4,121.1 348.2,122.2 
					347,123.3 347.1,124.9 345.9,125.7 345.1,125.8 344.8,127.1 343.9,127.4 343.7,128.5 341.5,129.2 339.9,128.9 338,129.6 336,131 
					335.2,131.8 334.6,130.1 333.9,129.7 333.3,131.1 331.5,128.5 329.6,127.9 328.3,127.9 326.4,128.9 325.4,129.4 325.6,130.6 
					323.9,130.8 323.6,130 322.4,129.8 322.1,127.8 321.4,126.5 320,126.3 320.1,125.3 321,124.7 321.5,123.6 321,122.2 320.7,121.5 
					319.3,121.7 318.4,120.5 317,119.7 315.1,119.7 313.5,120.6 312.9,121.5 310.9,121.5 309.5,120.9 308.8,122 307.7,121.6 
					304.9,121.4 303.7,120.8 302.7,120.2 302.6,118.9 302.2,119.7 300.9,119.1 299.8,118.1 298.4,118.1 297.3,117 295.5,116.7 
					295.5,114.5 294.6,113.8 293.2,113.7 291.4,114.7 290.2,113.9 290.4,112.2 289.7,111.4 289.9,110.2 289.9,110.2 290.2,108.2 
					290.2,107.2 290,107.3 288.7,106.5 289,104.6 289.9,103.9 291.7,105 292.3,104.4 292.2,103.7 294.3,103.2 294.8,102.5 
					295.7,102.1 295.8,98.7 294.9,98.3 295.3,97.5 297.8,97.2 298.2,96.5 298.3,94.9 299.6,94.2 301.1,94.7 301.6,91.9 302.3,91.3 
					303.2,91.1 303.6,90.2 304.3,89.6 305,90.5 306.8,91.5 307.2,92.8 308.1,94.8 310.9,95.3 312.2,95.7 313.6,96.4 314.4,97.9 
					315.3,98.7 322.2,99.2 323.7,99.6 325.5,100.6 327.3,100.1 328.3,99.3 330.8,99.6 332.7,98.1 332.9,96.6 332.8,95.2 334.5,95.8 
					335.7,94.6 336.8,93.8 338.6,92.7 340.8,91.8 339.8,90.5 337.8,90.7 336.8,91 336.5,90.5 336.3,87.9 336.7,86.9 337.6,87.8 
					339.3,87.8 339.6,85.5 340.5,84.7 339.7,82.6 340.3,81.3 345.6,81.4 346.9,82.8 348.1,83.8 348.9,84.9 349.2,86.3 350.2,87.5 
					352.4,87.9 353.3,88.8 354.4,89.5 354.8,90.2 356.1,90.3 358.3,89.9 358.7,90.5 358.9,91.6 358.1,92.2 357.9,95.2 356.8,95 
					356.1,96.3 356.2,97.6 357.4,97.9 357.4,97.9 356.1,98.8 354.9,99.2 353.7,100.6 352.5,100.6 351.4,100.2 350.8,102.1 
					349.6,102.9 348.1,103.8 346.2,104.5 346.1,103 345.8,101.6 345.3,101.5 344.5,102.1 344,103.1 			"/>
				<polygon class="st1" points="335.2,133.1 334.4,134.2 334.5,135.8 335.6,135.8 336.8,134.3 336,132.3 			"/>
			</g>
			<polygon id="Brunei_1_" class="st1" points="344.9,151.7 343.9,152.3 343.6,153.7 344.7,153.1 345.1,152.4 		"/>
			<polygon id="Iran_1_" class="st1" points="254.1,103.1 253.6,103.6 254.2,105.2 254.8,106.7 255.1,108.3 255.3,109.3 256.6,109.5 
				256.4,110.7 255.5,111.4 255.5,112.6 256.7,113.1 256.9,114.2 257.8,114.4 258.7,114.2 258.9,115.2 258.4,116.4 259.2,116.7 
				259.3,117.8 259.8,118.4 261,118.2 261.1,117.6 261.8,118.8 262.1,120.5 263.2,120.8 263.1,121.5 264.1,121.6 264.8,122.6 
				268.5,122.8 269.1,121.8 269.8,122.1 270.3,124 271.5,124.9 275.3,124.7 276.1,124.9 276.4,123.7 277.4,123.4 278.1,122.5 
				277.7,121.7 276.7,121.6 276.4,120.3 275,119.6 275.1,118.5 275.7,117.6 275.3,116.2 273.8,116.2 274.1,113.2 273.8,111.4 
				274.2,108.6 272.5,107.8 270.6,106.4 269.2,106.3 267,105.9 266.5,107 265.2,107.5 263.9,107.9 263.3,108.5 261.8,108.3 
				260.4,107.3 259.2,106.4 258.8,104.9 258.3,103.3 257.6,103.7 257.3,104.8 255.6,104.8 255.1,103.7 		"/>
			<polyline id="Bahrein_1_" class="st1" points="263.1,125.5 262.4,125 262.2,123.4 263.1,123.7 263.4,124.3 263.1,125.5 		"/>
			<polygon id="Oman_1_" class="st1" points="267.8,128.5 268.9,130 268,133.3 264.5,134.1 265,135.5 265.7,137.4 267.9,137.1 
				268.6,135.8 269.7,135.5 270.4,134.8 271.8,134.5 272,132.2 272.5,131.3 273.5,130.8 273.8,128.5 272.7,128.2 272.6,127.1 
				270.5,126.7 269.6,125.7 		"/>
			<polygon id="Emirats_1_" class="st1" points="263.1,125.5 264,128.3 267.8,128.5 269.6,125.7 269.2,124.1 268.2,125.4 
				267.2,126.4 265.2,126.7 264.2,126.3 		"/>
			<polyline id="Irak_1_" class="st1" points="256.4,120.8 255.7,120.4 254.4,119.5 253.3,117.6 252.3,117.3 251.5,116 250.1,116.1 
				249.2,115.4 248.3,114.8 247.9,114.9 247.2,113.7 248.4,112.9 250.1,111.9 250.3,110.7 250.3,109.1 251.2,108.4 251.9,107.7 
				253.1,107.3 253.6,108.2 255.1,108.3 255.3,109.3 256.6,109.5 256.4,110.7 255.5,111.4 255.5,112.6 256.7,113.1 256.9,114.2 
				257.8,114.4 258.7,114.2 258.9,115.2 258.4,116.4 259.2,116.7 259.3,117.8 258.2,118.2 257.5,118.4 257.4,120.2 256.4,120.8 		"/>
			<polygon id="Israel_1_" class="st1" points="241.7,116.4 242.9,118.2 243.1,116.4 243.1,113.9 		"/>
			<polygon id="Liban_1_" class="st1" points="243.1,113.9 244.2,113.2 244.9,111.9 243.8,111.1 		"/>
			<g id="Philippines_1_">
				<polygon class="st1" points="348.3,144.8 348.1,145.6 346.9,146.5 346.3,147.5 346.5,149.2 347.8,147.9 348.7,146.3 349.1,145.2 
					348.7,144.3 			"/>
				<polygon class="st1" points="350.1,134 349.3,135.4 348.9,137.1 348,137.9 348.2,139.6 349.2,139.8 349.7,140.5 351,140.4 
					352.3,140 351.9,138.3 352.1,137.1 352.1,136.3 351.7,134.8 351.4,134.1 			"/>
				<path class="st1" d="M350.5,142.1l-1.3-0.5l-0.1,1l0.8,0.8l0.8,0.2c0,0,1.1-0.1,0.9-0.7C351.2,142.4,350.5,142.1,350.5,142.1"/>
				<polyline class="st1" points="352.5,141.2 352.4,142.2 353.3,142.7 355,142.8 355,141.7 353.7,140.9 352.5,141.2 			"/>
				<polyline class="st1" points="352.4,144.1 352,145 352.4,145.7 353.7,145.3 353.4,144.4 352.4,144.1 			"/>
				<polygon class="st1" points="355.2,144.1 355.4,144.8 356.1,144.8 356.6,144.5 356.7,143.7 355.9,143.7 			"/>
				<polygon class="st1" points="356.3,147 355.1,147.8 353.8,149.2 354.5,150.1 355.4,151.4 356.4,152.4 357.2,151.4 357.9,150.8 
					357.9,148.4 357.4,147.5 			"/>
				<polyline class="st1" points="353.1,147.4 352.3,148.2 351.8,149.5 351.6,150.3 352.8,149.9 353.4,148.9 353.8,147.7 
					353.1,147.4 			"/>
				<path class="st1" d="M354.5,146.6c-0.2,0-0.5-0.2-0.5-0.5c0-0.3,0.2-0.5,0.5-0.5c0.3,0,0.5,0.2,0.5,0.5
					C354.9,146.4,354.7,146.6,354.5,146.6z"/>
			</g>
			<polygon id="Sri_Lanka_1_" class="st1" points="300.1,147.2 299.4,148.6 299.3,150.5 300,152.2 301.7,151.9 301.7,148.8 
				301.2,148.1 		"/>
			<polyline id="Yémen_1_" class="st1" points="257.7,139 257.7,137.9 257.7,137.1 257.1,136.9 255.6,136.8 254.2,136.9 
				253.3,137.4 253.4,140.1 253.4,141.7 253.9,142.5 255.2,143.2 256.2,142.2 257.4,141.2 257.9,140.7 261,140.6 262,139.7 
				264.8,139.2 264.8,138.3 265.7,137.4 265,135.5 264.5,134.1 260.8,134.7 259.7,136 259.3,137.7 257.7,139 		"/>
			<polygon id="Jordanie_1_" class="st1" points="244.4,119.6 245.4,118.6 246.5,117.7 246.5,116.1 247.9,114.9 247.2,113.7 
				245.6,114.8 243.9,114.6 243.1,113.9 243.1,116.7 242.9,118.2 242.9,119.6 		"/>
			<polygon id="Syrie_1_" class="st1" points="243.1,113.9 243.9,114.6 245.6,114.8 247.2,113.7 248.4,112.9 250.1,111.9 
				250.3,110.7 250.3,109.1 249.9,107.9 248.3,108.2 246.9,108.2 244.9,108.4 243.8,108.6 243.5,109.8 243.8,111.1 244.9,111.9 
				244.2,113.2 		"/>
			<polygon id="Koweit_1_" class="st1" points="257.4,120.2 257.5,118.4 258.2,118.2 259.1,120.3 		"/>
			<polygon id="Arabie_saoudite_1_" class="st1" points="256.4,120.8 257.4,120.2 259.1,120.3 259.1,120.3 260.5,121.7 262.2,123.4 
				262.4,125 263.1,125.5 264,128.3 267.8,128.5 268.9,130 268,133.3 264.5,134.1 260.8,134.7 259.7,136 259.3,137.7 257.7,139 
				257.7,137.9 257.7,137.1 257.1,136.9 255.6,136.8 254.2,136.9 253.3,137.4 251.9,135.8 251.5,134.4 250.6,133.1 249.1,131.2 
				248.3,129.9 247.5,127.3 246.1,125.1 244.4,123.5 244.1,121.6 243.1,121 242.9,119.6 244.4,119.6 245.4,118.6 246.5,117.7 
				246.5,116.1 247.9,114.9 248.3,114.8 249.2,115.4 250.1,116.1 251.5,116 252.3,117.3 253.3,117.6 254.4,119.5 		"/>
			<g id="Indonésie_1_">
				<path class="st1" d="M359.8,162.9c-0.4,0-0.8-0.1-0.8-0.3c0-0.2,0.3-0.3,0.8-0.3c0.4,0,0.8,0.1,0.8,0.3
					C360.5,162.8,360.2,162.9,359.8,162.9z"/>
				<polygon class="st1" points="323.6,155.2 321.7,154.5 320.2,152.8 318.3,153 318.1,153.7 320.3,155.2 322.3,156.9 323.6,158 
					324,159.8 324.7,161.4 327.3,164.7 329.6,167.4 330.3,168.3 332.6,167.4 332.3,166 332.3,164.3 331.6,163.4 329.7,162.7 
					329.7,161.9 329,160.9 328.9,159.4 327.6,158.1 325.9,157.2 			"/>
				<polyline class="st1" points="331.7,162 332.7,162.1 333.4,162.9 333.8,163.9 332.9,164 331.6,162.7 331.7,162 			"/>
				<polygon class="st1" points="333.6,168.2 332.5,168.6 331.8,169.4 332.6,170.6 334.8,170.6 335.7,171 337.7,171 337.9,171.9 
					341.5,171.9 342.5,171.9 343.3,171.9 343.4,170.9 342.3,170.4 342.5,169.4 341.4,169.6 340,169.4 338.9,168.8 337.1,168.7 
					335.3,168.1 			"/>
				<path class="st1" d="M344.7,172.3c0.3,0,0.5-0.2,0.5-0.4c0-0.2-0.2-0.4-0.5-0.4c-0.3,0-0.5,0.2-0.5,0.4
					C344.1,172.1,344.4,172.3,344.7,172.3z"/>
				<path class="st1" d="M346,172.3c-0.1,0-0.2-0.2-0.2-0.4c0-0.2,0.1-0.4,0.2-0.4c0.1,0,0.2,0.2,0.2,0.4
					C346.2,172.1,346.1,172.3,346,172.3z"/>
				<polygon class="st1" points="347.2,171.5 347.8,171.1 348.4,171.5 348.3,172.4 347.1,172 			"/>
				<polygon class="st1" points="349,173.4 348.8,174.3 350.1,173.8 350.4,173.3 			"/>
				<polygon class="st1" points="350,171.9 351.5,171.6 352.8,172.2 351.8,172.9 350.2,172.6 			"/>
				<polygon class="st1" points="355,173.3 354.1,173.4 353.5,174.4 354.3,174.4 355,173.7 			"/>
				<polygon class="st1" points="349.9,159.1 349.7,160.8 349,161.5 348.8,162.7 347.8,163.4 347.8,165.6 348.9,166.1 349.1,167.6 
					350.2,167.8 350.6,165.4 351.5,165.2 351.4,167 352.4,167.4 352.7,168 353.8,167.8 353.7,166.4 352.1,163.7 352.9,163.1 
					353.7,161.7 353.1,161.2 352.3,161.6 351.4,162 350.9,160.4 350.6,159 351.3,159.2 352,159.7 353.3,159.5 354,159.9 355.4,159.5 
					356.1,159.1 355.8,157.7 355,157.7 354.5,158.7 351.7,158.5 350.1,158.6 			"/>
				<polygon class="st1" points="377.4,164.2 376.1,163.7 373.5,162.6 372.8,162.1 371.4,162.4 370.1,163.8 368.6,164.6 367.2,164.8 
					366.7,165.1 367.2,166 368.5,165.8 370.2,166.7 371.4,167.5 372.6,168.5 372.7,169.9 372.4,170.5 371.3,170.9 371.5,172 
					373.1,171.9 374.6,171.9 375.1,172.5 376.2,172.9 377.7,172.4 378.4,171.2 378.9,170.4 			"/>
				<polygon class="st1" points="359.6,158 358.5,158.6 358.8,159.8 360.1,160.7 360.5,158.9 360.6,157.4 360.2,156.3 359.6,156.8 
								"/>
				<polygon class="st1" points="360.5,164 361.6,163.7 362.5,163.7 363.1,164.5 363.2,165.2 362.2,164.7 361.3,164.5 360.2,164.7 
								"/>
				<path class="st1" d="M356.8,162.9c-0.6,0-1.1-0.1-1.1-0.2c0-0.1,0.5-0.2,1.1-0.2s1.1,0.1,1.1,0.2
					C358,162.8,357.4,162.9,356.8,162.9z"/>
				<polygon class="st1" points="368.5,163.1 367.3,163.2 367.5,162.2 368.1,161.2 369.3,161.4 370.4,161.7 370.1,162.4 369.2,163.2 
								"/>
				<polygon class="st1" points="347,155 346.3,154.4 345.4,154.2 344.8,155 344,156.3 343.7,157.6 343.5,158.6 342,158.8 
					341.1,158.1 340.7,158.7 339,158.6 338.3,158.1 335.7,158 335.4,160 336.2,160.5 336.3,162 337.4,162.2 337.6,164 338.3,164.1 
					338.8,164.8 340.6,165.3 341.3,164.4 342.4,164.6 343,165.9 344.6,165.8 344.9,164.7 345.6,163.7 345.6,162.5 346.7,161.6 
					347.2,159.6 348.3,159.2 348.3,157.9 347.1,157.1 			"/>
			</g>
			<polygon id="Inde_1_" class="st1" points="318.4,120.5 317,119.7 315.1,119.7 313.5,120.6 312.9,121.5 312.5,122.7 311.1,122.6 
				309.9,122.2 309.5,120.9 308.8,122 308.2,123.3 307,123.3 305.6,123.4 304.5,122.8 303,122.5 301.1,121.7 299.6,121.3 
				298.6,120.1 298.4,118.1 297.3,117 295.5,116.7 295.5,114.5 294.6,113.8 293.2,113.7 291.4,114.7 291.5,116.6 290.7,117.4 
				290.2,118.6 288.9,119.7 288.7,120.7 288.4,121.5 286.3,120.8 285.5,121.5 285.1,122.8 286.2,123.8 287.5,125.5 287.3,126.5 
				284.9,126.5 284.1,127.3 284.8,128.3 285.8,128.2 285.1,129.1 286.5,130.9 288.3,131 289.2,130.2 289.2,129 289.8,130.3 
				290.1,132.4 290.1,135 290.8,137.9 292.3,140.1 293.7,143.8 295.2,147.2 295.4,148.7 296.2,149.2 297.6,148.5 298.4,147.2 
				299.3,145.7 298.7,143.7 299.3,143.5 298.8,139.2 300.6,138.1 301.9,137.2 302.5,135.6 303.8,135.1 304.6,134.1 306.2,133.4 
				307.1,132.1 307.6,131.8 307.6,130.2 308.4,129.7 309.3,129.6 309.2,126.3 308.3,126.1 309.2,123.5 310.7,124.5 312,124.8 
				313.5,125.6 313.7,127.1 314.2,129 315,129.7 315,127.3 316,126.1 316.6,124.4 317.5,123.2 319.2,122.5 319.3,121.7 		"/>
			<g id="Malaisie_1_">
				<polyline class="st1" points="328.2,150.2 326.4,149.2 325.4,146.3 324.3,147.4 324.4,149.4 325,154 326.5,156 327.8,157.5 
					330.3,157.8 330.5,157 330.1,152.8 328.2,150.2 			"/>
				<polygon class="st1" points="349,152 347.5,151.7 346.6,151.4 345.1,150.7 344.9,151.7 345.1,152.4 344.7,153.1 343.6,153.7 
					342.5,154.2 341.3,155.1 340.7,156.3 339.2,156.2 338.9,157.4 338.3,158.1 339,158.6 340.7,158.7 341.1,158.1 342,158.8 
					343.5,158.6 343.7,157.6 344,156.3 344.8,155 345.4,154.2 346.3,154.4 347,155 348.1,154.2 349.3,153.3 			"/>
			</g>
			<g id="Turquie_1_">
				<polygon class="st1" points="231.5,101.9 232.7,101.9 233.6,101.1 232.2,100.3 231,100.5 231,101.4 			"/>
				<polygon class="st1" points="243.8,108.6 244.9,108.4 246.9,108.2 248.3,108.2 249.9,107.9 250.3,109.1 251.2,108.4 251.9,107.7 
					253.1,107.3 253.6,108.2 255.1,108.3 254.8,106.7 254.2,105.2 253.6,103.6 254.1,103.1 253.1,102.1 252,100.4 250.4,100.5 
					249.8,101.4 247.2,101.5 246.1,101.6 245,100.9 244,100.9 243.1,100 242,99.4 240.8,100 239.1,100.2 237.9,100.5 236.2,100.7 
					235.3,100.6 234,101.2 234.8,101.6 233.9,102 233.6,102.7 232.8,103.4 232.6,104.1 232.4,104.6 232.9,104.8 232.8,105.6 
					233.3,105.9 233.3,106.7 233.7,107.3 234.3,107.2 234.4,107.8 235.5,108.2 236.1,109 237,108.6 237.5,108.2 238.2,107.8 
					239.6,108.7 241.1,108.8 242.8,108.6 243.5,108.6 			"/>
			</g>
			<g id="Russie_1_">
				<path class="st1" d="M275.7,41.3c0.2,0,0.4-0.3,0.4-0.7c0-0.4-0.2-0.7-0.4-0.7c-0.2,0-0.4,0.3-0.4,0.7
					C275.3,41,275.5,41.3,275.7,41.3z"/>
				<polygon class="st1" points="253.9,50.7 253,51.7 253.4,52.5 254.1,52.4 254.9,51.4 			"/>
				<polygon class="st1" points="265,49.2 263.8,48.8 262.6,49.8 263.5,49.9 265.4,50.1 			"/>
				<polygon class="st1" points="260.6,42.9 261.6,42.1 262,41.5 263.5,40.4 265.1,39.5 267,38.1 268.2,37.7 270.6,36.8 272.3,36.3 
					273,35.9 272.5,35.1 270.4,35 269.1,36 267,36.5 264.7,36.6 263.5,37.7 262.1,37.7 261.4,38.6 259.3,39 259,40.6 258.9,41.4 
					257.9,41.3 257.9,41.7 258,42.1 257.7,42.7 257,43.1 256.7,44.5 256.5,46.2 257.6,46.7 258.5,48.7 260.2,48.9 262.2,48.7 
					262.4,47.8 261.1,47.1 260.3,46.3 260.3,44.6 260.6,43.2 			"/>
				<polygon class="st1" points="296.8,24.6 295.8,25.4 294.9,25.5 293.9,26.3 294.7,27.3 296.2,28.3 298.1,27.4 299.7,26.7 
					299.4,24.9 297.8,24 			"/>
				<polygon class="st1" points="299.4,28.4 300,27.3 301,27.1 302,27.4 302.7,28.6 302.7,29.4 303.4,29.3 303.5,30.1 301.5,30.7 
					299.7,29.9 297.9,29.3 298.2,28.5 			"/>
				<polygon class="st1" points="304.6,30.1 305.2,29.3 306.2,28.7 306.5,29.3 307,29.5 307.7,29.5 308.5,29.8 308.7,30.9 
					308.2,31.8 306.6,32.1 304.6,31.9 304.1,31.3 			"/>
				<polygon class="st1" points="349,36.6 348.8,37.6 347.4,37.5 347,36.9 345.7,36.3 344.6,36.9 344.6,38.4 346.2,39.6 348.3,39.8 
					349.1,39 350.4,39.6 352,39.5 352.7,38.6 351.4,38.2 350.8,36.9 349.6,36.4 			"/>
				<polygon class="st1" points="354.7,37.5 355.4,38 357.2,38 359.2,38 359.5,39.1 356.9,39.4 355.4,38.9 354.6,38.1 			"/>
				<polygon class="st1" points="395.1,46.2 394.1,47 393.7,48.1 395.6,48 396.9,47.9 397.2,46.7 396,45.9 			"/>
				<polygon class="st1" points="365.6,80.6 365.6,81.5 365.9,82.7 366.3,84.1 366.8,85.8 367.5,86.6 367.1,87.7 367.3,88.3 
					367.8,88.2 369.1,88.8 369.9,88.3 369.2,86.8 368.2,84.4 369.1,84.5 367.9,83 367,81.7 366.7,80.1 365.3,79.8 			"/>
				<path class="st1" d="M258.3,93.3l1-0.9l0.5-2.2l1.1-1.2l-0.1-1.6l-1.4-0.9l-0.6-1.4l3.8-4.3l1.3,1.5l0.5-1l1.6-0.4l1.4,0.3
					l2.4,0.2l3.1,1.9l-0.1,0.8l1.1,0.4l1.6-0.2l2.3,1.3l1.1,0.4l0.7-0.7l-0.7-1.5l1.4-0.7l1.4-0.7l-0.3-1.7l0.8-0.2l1.6,0.4l3.1,0.3
					l1.9-0.4l2.4-0.4l1,0.9l0.1,1l1.3,0.1l2-0.7h1.6l1.8,3.4l1.2,0.1l0.7,0.9l2,0.8l1.1,2.9l0.8-0.6l1.6-0.4l3.7-0.3l0.4,0.5l1.3,0.2
					l0.5,0.5l2.6-0.3l-0.6-1.4l-0.4-0.6l1.1-0.1V85v-2.1l2.3,0.8l1.5,0.1l1.1,1l0.5,1h1.8l2.7,0.2l1.5,0.8l1.2,0.3l0.3,0.9l3.2-0.4
					l0.5-0.8l1.1,0.6l1.5-1.3l1.2-0.1l1.1,0.6l1,0.9h1.6l0.3-2.3l1-0.8l-0.9-2.1l0.6-1.3l5.3,0.1l1.3,1.4l1.2,1l0.9,1l0.3,1.5l1,1.2
					l2.1,0.4l1,0.8l1.1,0.7l0.4,0.7l1.3,0.1l2.2-0.4l0.4,0.6l0.2,1l-0.9,0.6l-0.1,3l-1.2-0.2l-0.6,1.3l0.1,1.4l1.2,0.2l1.5,0.5l2-1.5
					l1.5-2.5l1.4-2.8l1.1-2.7l-0.6-2.8l0.4-0.8l-0.3-3l-1.3-1.9l-2-0.6l-0.6,1.2l-0.9,0.1l-0.2-1.2l-1.9-0.9l-0.3-0.9l1.2-1.2
					l1.4-2.2l0.8-1.6l1-1.5l2.9-0.7l2.4-0.1l3.2,0.3l0.8-1.3l2.4,0.5v0.8l3.1-0.5l0.2-1.5l0.5-2l0.6-1.2h3.2l1.1,1.3l0.8,0.3l1.1-1.9
					l0.9-0.3l0.8,1.5l-0.6,1.4l-1.7,1.4l-1.5,2.2l-1.3,1.7l-0.2,2.4l0.3,2.6l1.1,1.8l0.5,2.1l0.9,1.3l1.1,0.6l1.2-1.9l1.2-2.3v-1.4
					h1.3l-0.2-1.7l0.2-1.3l0.8-0.1l-0.5-0.9l-1.4-1.5c0,0-0.8-0.1-0.8-0.6c0-0.5,0.4-1.9,0.4-1.9l0.8-0.9l2-0.9l1.1-0.7l1.5-0.3
					l1,0.3l0.9,1l0.6,0.5l0.8-2.2l0.6-0.6l0.2-1.2l1.7,0.1l1.6-1.2l1-0.2l1.8,0.7l0.4-0.9l-1.6-2l-2.3-1.5l0.9-0.7l1.5-0.9l-0.5-0.8
					v-1.4l1.4-0.4l0.5,1.5l0.4,1.2l2.4,0.1l1,0.9l1.6,0.1l0.9,1.3l0.9,0.3l1.1-1l-1.1-1.3l0.3-0.9h1l0.9-0.4l0.3-1.6H409l-1.4-0.8
					l-1.9,0.2l-0.5,0.8l-0.8-1.4l-0.5-0.7l-1.8-0.4l-0.2-1h-2.5l-1.1-1.3l-1.7-0.8l-1.5-0.2l-1.7-0.6l-0.8-0.5l-1.7-0.5h-2.3
					l-2.8-0.3l-0.3,1.7l-1.3,0.2l-0.8-0.8l-1.4,0.3l-1.8-0.6l-3,0.3l-0.6,1l-1.1-0.3l-1.4-1.2l-1.4-1.5l-3.4-0.7l-1.2,0.3l-0.8,0.3
					l-1.9-0.2l-2.4-1.3l-1.5-0.7l-0.3-0.6h-3.7l-1.1,0.4l-1.1-1.3h-2l-0.9-1l-1.2,0.6l-1.1,0.7l0.8,1.7l-1.6,0.3l-1.9-0.3l-1.5-0.1
					l-1,0.5l-1.4-0.6l-0.8-0.8l-0.2,1.4l-1.9,0.2l-2.5-0.8l-1.5-0.5l0.4-0.8l1.1-0.3l-0.9-1.7l-2-0.7l-2.7,0.2l-0.9,2l-2-0.7
					l-1.8-0.8l-2.8-0.6h-5.2h-1.8l-1.8,0.7l-2.6,0.8L315,42l2.6-1.3l1.1-0.5l1.3-1.3l0.2-1.8l-1.7-0.7l-0.8-1.2l-4.1-0.3l-0.8,0.8
					l-1.4-0.6l-0.5-0.9l-1.1-0.8l-1-0.5l-2,0.8l-0.4,1.6l-0.4,0.6l1,0.3l-1.4,0.7l-2-0.4l-1.4,0.2l-0.6,0.6l-0.9-1l-1.2,0.5l-1.1-0.3
					l-0.1,1l-2.1,0.1l-1.9,0.2l-1.3,0.7l-1.4,0.5v1l1.1,0.3l0.3,1.4l-1.9-0.2l-2.5,0.1l-1.4,0.5l-0.3,1.4l0.6,1.2l1.1,0.1l0.9,1
					l0.8,1.4l-0.1,1l-1.8-1.8l-1.8-0.5l-0.9-1.2l-1.1,0.1l-0.5,1.4l0.5,0.7l0.1,0.7l-1.5-0.5l-1.5-1.3l-0.2-1.6l-0.6-0.9l-0.8,0.8
					l0.2,1.3l-0.2,0.8l0.2,0.8l0.6,0.2l0.2,2.3l0.2,1.2l1.6,0.2l0.2-0.6l1.2,0.4l0.8,0.3l0.5,0.7l0.3,1.2l0.6,0.5l0.8,0.4v0.8
					l-1.1-0.6l-0.9-0.9l-1.3-0.9h-1.3l-0.2,0.4l-0.2,0.9l-0.6,1.4l-0.9,1.6l-1.4,0.5l-2-0.6l0.3-0.7l1.3-0.4l1.2-0.6
					c0,0,0.4-0.9,0.4-1.4c0-0.4-0.6-1.9-0.6-1.9l-0.4-1.2v-0.9l-0.4-1.2l-0.3-1.5l-0.5-2.1l-0.4-1.6l-1.1-1.3l-1.6,0.2l-0.9,2
					l-0.3,2.1l-1.4,0.8l0.1,1.4l0.9,1.3l1,1.4l0.8,0.9l0.3,0.9l-1.2,0.4l-1.2-1.6l-2-1.2l-2.5-0.6l-2-0.1l-0.5,0.8l0.6,0.4l-0.1,1.6
					l-1.1,0.3l-0.3-1.4l-0.9-0.1l-0.9,1h-2.6l-1,1l-0.8-1.3l-0.9,0.2l-1.4,0.6l-1.4,0.5l-1.7,1.5l-1.8,0.8l-0.6-1.2V54l-1.2-1.3
					l-1.8,0.2l0.4,1l0.4,1.3l0.5,1.2l0.1,1.5l-1.3-0.6l-1.3-0.2l-0.8,0.8l-1.6,0.4l-0.1,1l1,0.5l-0.4,1.4H244v-1.4l-1.3-0.5l-1.2,0.5
					l0.1,1l0.9,0.3l0.3,0.5l-0.6,0.6l-1.3-0.9l-1-1.3l-0.6-1.3l-0.3-1.8l-0.5-0.7l1.4,0.4l2.1,0.6l2-0.5l0.9-0.8l0.5-0.9l-2.1-1.6
					l-2.6-1.2L238,51l-1.3-0.6l-1.5,0.9l-1.4,1.5l-0.5,1.3l0,1.3l0.4,1.7l0.1,2l0.5,1.7l0.6,1.9l0.6,0.7l0.9,0.7l0,0l-0.9,0.8
					l-1.3,1.4l-1.2,1.4l-0.3,1.2l0.1,1.4l0,0l-0.8,0.3l1.4,1.9l2,1.7l3.4,1.3l0.3,4.4l-0.5,0.5l-0.6,1.7l3.2-0.2l0.7,1.8l4.9,4
					l-0.8,3.7l0.6,0.6l-1.3,1.2l-1.1,1l-0.3,0.8l1.6,0.8l0.9,0.9l2.7-1.5l1.5,0.8h1l1.1,1l1.2,1.4l2.5-0.7L256,96l0.6-1.2L258.3,93.3
					z"/>
				<polygon class="st1" points="223.8,78.9 225.3,79.4 225.2,78.8 224.3,78.2 			"/>
			</g>
			<polygon id="Albanie_1_" class="st1" points="225.7,101.3 224.5,102.3 224.1,101.9 223.6,101.5 224.3,100.2 224,99.2 224.8,98.9 
				225.4,100.1 225.7,101.3 		"/>
			<polygon id="Ukraine_1_" class="st1" points="232.1,90.8 233.6,90.7 234.7,91.3 236.2,93.6 235.9,94.5 235.4,95.6 236.5,94.6 
				237.2,91.9 238.4,91.7 238.9,93.3 242.1,93 242.7,92.1 243.7,92.2 246.1,91.2 246.9,87.5 241.9,83.5 241.2,81.7 238,81.9 
				237.1,83.2 228.4,84.2 228.5,86.3 227.5,87 227.1,90.5 228.9,90.5 229.5,90.9 231.4,91.1 232.1,90.8 		"/>
			<polygon id="Serbie-Monténégro_1_" class="st1" points="224,99.2 224.8,98.9 225.4,100 226.1,99.5 227.7,98.9 227.7,98.8 
				227.1,97.6 227,96.9 228,96.1 227.3,95.5 226.1,94.9 224.8,94.2 224.5,93 223.5,92.9 222.9,93.4 223.2,94.8 223.7,95.9 224,97.2 
				222.9,98.2 222.1,99.2 223.1,99.8 224.3,100.2 		"/>
			<polygon id="Croatie_1_" class="st1" points="221.9,98.1 221.3,97.7 220.6,97 219.9,95 219.7,94.4 220.6,94.2 221.2,94.5 
				222.6,94.8 223.2,94.8 222.9,93.4 222.8,93.6 221.4,93.2 220.6,92.9 219.5,93.3 218.3,93.8 217.3,93.9 217.8,94.2 218.1,95.7 
				219.2,96.3 219.2,97.1 220.5,97.6 221.4,98.2 222.1,99.2 222.6,98.6 		"/>
			<polygon id="Bosnie_1_" class="st1" points="221.2,94.5 220.6,94.2 219.7,94.4 219.9,95 220.6,97 221.3,97.7 221.9,98.1 
				222.6,98.6 222.9,98.2 224,97.2 223.7,95.9 223.2,94.8 222.6,94.8 		"/>
			<polygon id="Islande_1_" class="st1" points="177.8,58 176.3,56.8 174.4,58.9 174.6,59.9 176.7,59.5 176.7,61.2 176.1,62.2 
				178,61.8 179.9,62.6 180.6,63.5 182.3,61.8 183.8,61.8 185.3,60.7 185.7,59.1 185.3,57.2 183.2,57.2 181,57.8 178.7,57 		"/>
			<g id="Norvège_1_">
				<polygon class="st1" points="191.5,47.3 190.9,49.6 192.8,48.2 			"/>
				<polygon class="st1" points="217,51.4 216.5,52.1 217.6,52.2 218,51.4 			"/>
				<polygon class="st1" points="219.1,50.3 219.2,51.4 219.8,51.6 220,53 220.4,52.1 220.4,51.2 220.2,50.3 			"/>
				<polygon class="st1" points="221.1,50.7 221.6,51.3 222.1,50.5 			"/>
				<polygon class="st1" points="217.6,27.7 217.1,29.3 215.6,28.3 214.3,29.1 213.7,27.7 212,28.9 212.4,29.8 212.6,31.2 
					214.5,31.4 215.6,30.4 216.5,30.6 216.1,31.9 215.8,32.9 216.9,33.7 217.8,35.2 219.1,35.6 219.5,33.5 221.2,31.6 222.3,32.3 
					222.3,33.7 224.4,33.5 225.3,33.9 226.2,32.5 221.2,30 219.7,27.5 			"/>
				<polygon class="st1" points="221.4,26.6 221.9,28.7 225.1,29.6 227.4,28.7 229.4,26.8 225.9,26.8 224,26.4 			"/>
				<polyline class="st1" points="232,52.8 232.7,50.8 231.7,50 230.8,49.8 230,50.4 229.3,51.3 228.7,52.6 227,52.8 225.8,52.6 
					225,52.4 224.2,53 223.6,53.7 222.4,53.7 221.5,53.8 220.9,54.5 220.2,54.8 219.5,54.6 219.4,55.6 218.7,56 218.5,57.1 
					217.7,57.2 217.3,58.1 216.7,58.4 216.5,60 215.9,61.1 216.7,61.7 216.2,62.1 215,61.9 214.7,62.7 215,64.9 215.2,66.3 
					215.8,67.7 216.2,69.1 215,69.7 214.5,71.2 214.1,72 213.3,71.5 211.4,71.8 210.5,72.5 209.5,72.8 208,72.9 207.9,71.4 207.2,71 
					207.6,68.8 206.7,68.7 206.6,65.6 207.6,65.2 207.8,64.5 209,64.1 210,64 210.6,63.3 211.9,63.1 212,61.7 213.7,61.2 213.9,60 
					214.8,59.4 215.1,58.2 215.4,57.1 216.7,55.8 217.8,54.6 219,53.7 220.7,53.5 221.6,53 223.5,52.7 223.8,51.6 224.9,51.1 
					224.5,49.9 223.7,49.2 225,48.8 225.4,48 225.6,49.1 226.3,49.3 226.3,48.7 226.9,48.7 227.1,49.2 228,49.4 228.4,48.5 
					227.8,48.1 228.8,47.5 229.9,48.3 230.6,47.2 230.9,48.4 232,48.5 233.1,47.7 234.5,48.5 234.3,49.4 236.8,50.3 235.3,51.3 
					233.9,52.7 233.3,54 232,52.8 232.7,50.8 			"/>
			</g>
			<polygon id="Sahara_occidental_1_" class="st1" points="191,121.4 191.1,120.8 190.2,120.8 187,120.8 186.5,121.5 185,121.3 
				184.8,122.9 184.3,123.7 183.2,124.1 182.7,124.7 182.8,126.4 182,126.6 182.2,127.5 181.7,127.9 181.3,129.2 181.4,130.8 
				181.8,131 183.6,131.2 184.7,131.2 184.8,129.5 185.1,128.4 185.9,127.8 187,128.1 187,124 190,123.8 190.5,123.1 		"/>
			<polygon id="Benin_1_" class="st1" points="201.3,146.5 201.8,147.3 202.2,149 202.3,150.6 202.7,152.1 204.3,151.4 204,148.7 
				204.7,147.7 205.4,145 205.2,143.4 204,143.6 203.7,144.8 202.3,145.2 		"/>
			<polygon id="Namibie_1_" class="st1" points="215.3,184.2 216.6,183.7 217.8,184.3 220,184.5 223.2,184.4 223.7,185.1 
				226.3,185.4 227.3,185.5 226.7,186.7 226.6,191 226,191.4 225.3,191.7 225.4,196 225.1,200.7 224.3,201.4 222.7,201.3 
				222.1,200.3 221.9,200.7 221,200.8 220.6,199.7 220,198.9 219.1,198.8 219.2,197.1 218.8,195.3 218.7,194 218.6,192.4 
				218.2,191.1 217.8,190.3 217.4,189.4 216.6,187.9 216.2,187.1 215.2,185.8 		"/>
			<polygon id="Tunisie_1_" class="st1" points="212.8,116.2 212,116.1 211.7,114.8 210.6,114.4 210.1,113 210.4,111.7 211.6,111.3 
				211,110.4 211.2,109.4 211.7,109.4 211.5,107.9 212.3,107.3 213,107.3 213.6,107.7 214.6,108.1 214.3,109.1 214.8,109.8 
				214.6,111.3 213.7,111.5 213.6,112.7 214.4,112.9 214.9,113.5 214.6,115.4 214,115.6 		"/>
			<polygon id="Sierra_Leone_1_" class="st1" points="188.6,149.1 188.3,147.8 186.9,147 185.8,147.6 184.5,147.9 184.8,149 
				185.7,149.3 185.9,150.4 187.1,150.7 187.4,151.3 		"/>
			<polygon id="Nigeria_1_" class="st1" points="214.9,150 215.7,148.6 216.3,146.3 216.7,145.7 217.4,145.2 217.6,143.6 
				217.3,141.5 217.3,141.5 216.5,142 215.9,142.7 215.3,142 213.6,141.9 213.4,142.6 212.4,142.5 211.7,141.8 210.8,141.9 
				209.2,142.1 209.1,142.6 208.6,141.8 207.5,141.6 206.4,141.9 205.9,142.8 205.5,143.5 205.2,143.4 205.4,145 204.7,147.7 
				204,148.7 204.3,151.4 205.3,151.6 206.4,151.4 206.9,152 207.4,152.8 207.4,153.9 208.3,154.6 209.5,154.6 211.8,152.8 
				212.5,151.9 213.5,150.9 		"/>
			<polygon id="Egypte_1_" class="st1" points="231.3,116.3 231.4,130.9 232.1,130.5 233.1,129.9 241.1,129.9 241.9,130.5 244,128.8 
				244,127.2 244.5,126.8 241.6,122.3 240,119.6 240,118.4 240.8,119.4 242.2,120.9 242.9,119.6 242.9,118.2 241.7,116.4 240,116.3 
				236.8,116 236.4,117.4 235.5,117 234.7,116.1 		"/>
			<polyline id="Maroc_1_" class="st1" points="197.2,111.3 198.6,111 199.6,112 198.9,113.1 199.7,113.5 199.1,115.6 197.7,115.7 
				197.5,116.6 198.2,117.2 196.6,118.5 195.5,119.6 194.5,120.1 193.7,120.1 193.3,120.7 192.4,120.6 192.3,121.4 191,121.4 
				191.1,120.8 190.2,120.8 187,120.8 187.8,119.7 188.5,119.4 189.1,118.7 189.7,115 190.1,113.9 190.6,114 190.7,113.1 192.8,113 
				192.8,112.1 193.5,111.3 194,110.5 194.3,109.7 195.2,110.3 196.3,110.4 197.2,111.3 		"/>
			<polygon id="Algérie_1_" class="st1" points="198.6,111 199.6,112 198.9,113.1 199.7,113.5 199.1,115.6 197.7,115.7 197.5,116.6 
				198.2,117.2 196.6,118.5 195.5,119.6 194.5,120.1 193.7,120.1 193.3,120.7 192.4,120.6 192.3,121.4 191,121.4 193.5,124.4 
				194.8,125.2 203.4,131.9 204.6,132.5 205,134.5 206,134.2 206.2,133.6 208.2,133.5 209.1,132.5 209.8,132.1 210,131.3 
				212.1,130.7 212.6,129.8 213.7,129 215,128.5 215.4,128 215.2,126.7 213.2,126.4 212.6,125.8 212.5,124.3 212.8,116.2 212,116.1 
				211.7,114.8 210.6,114.4 210.1,113 210.4,111.7 211.6,111.3 211,110.4 211.2,109.4 211.7,109.4 211.5,107.9 207.8,107.6 
				206.1,107.8 204.7,108.4 202,108.6 201,109.4 199.2,109.7 		"/>
			<polygon id="Madagascar_1_" class="st1" points="261,176.9 260.9,178.6 260.4,178.8 260.3,180.1 259.5,180.1 259.2,180.5 
				259,181.3 258.3,181.8 258,182.5 257.5,182.4 257.4,181.7 256.6,181.7 256.5,182.3 255.7,182.6 255.4,183.6 255,183.8 
				255.2,187.2 255.5,187.3 255.7,188.2 255.2,188.6 255,189.7 254.3,190 254.2,190.6 253.5,190.8 253.6,192.5 254.5,192.4 
				254.4,195.6 255.2,195.6 255.7,196.1 256.3,196.4 257.1,195.7 257.9,195.5 258.5,195.1 259.2,194.8 259.4,193.2 260.1,192.9 
				260.2,190.8 260.5,190.6 260.5,187.6 261.4,187.1 261.9,186.6 261.9,184.2 262.5,183.8 262.7,182 263.2,182 263.3,179 
				262.5,178.6 262.5,177.1 261.7,176.6 		"/>
			<polygon id="Cameroun_1_" class="st1" points="209.5,154.6 211.8,152.8 212.5,151.9 213.5,150.9 214.9,150 215.7,148.6 
				216.3,146.3 216.7,145.7 217.4,145.2 217.6,143.6 217.3,141.5 217.3,141.5 217.9,141.5 218.1,142.2 218.5,142.9 219,144.1 
				219,144.7 218.5,145 218.8,145.2 219,146 219.5,146.6 219.4,147.2 218.8,147.6 218.9,148.3 219.8,149.4 220.4,150.7 219.9,151.5 
				219.3,153.1 220.2,154.5 220.8,156.2 221.3,156.9 217.4,157.4 215.4,157.6 214.7,158.1 214.7,158.8 212.9,158.9 212.7,157.6 
				213.4,156.4 212.8,155.7 211.5,155.2 		"/>
			<polygon id="Togo_1_" class="st1" points="201.9,152.4 201.5,150.8 201.3,149.1 201.4,148.1 200.8,147.8 200.7,146.6 201.3,146.5 
				201.8,147.3 202.2,149 202.3,150.6 202.7,152.1 		"/>
			<polygon id="Liberia_1_" class="st1" points="187.4,151.3 188.6,149.1 189.3,150.6 190.3,150.9 190.7,152 191.4,152.2 
				191.6,153.6 193,154.1 192.8,154.8 192,155.3 190.5,154.9 		"/>
			<polygon id="Mauritanie_1_" class="st1" points="191,121.4 190.5,123.1 190,123.8 187,124 187,128.1 185.9,127.8 185.1,128.4 
				184.8,129.5 184.7,131.2 183.6,131.2 181.8,131 181.4,130.8 181.4,134.5 181.7,134.9 181.7,137.7 182.8,137.5 183.3,138.2 
				184.2,138.5 185.2,139.9 186,140.5 187.3,138.9 188.3,139.4 192.7,139.7 194.3,139.5 194.2,138 193.2,137.7 193.3,128.4 
				192.7,127.6 192.7,125.8 193.5,125.6 193.5,124.4 		"/>
			<polygon id="Congo_1_" class="st1" points="215.3,166.5 215.7,165.9 216.1,164.9 215.6,164.5 215.4,163.8 216.3,163.4 217,163.3 
				217.6,164.1 218.6,163.7 219.4,162.5 219.2,161.4 218.6,160.8 218.2,160 218.5,159.3 218.2,158.6 217.4,158.5 217.4,157.4 
				221.3,156.9 221.7,156.2 222.4,155.5 223.3,155.4 224.1,155.6 223.8,157.2 223.4,157.5 223.3,161.3 223,161.8 222.5,162.4 
				222.3,164 221.4,164.1 221.3,166 219.9,166.6 219.6,167 218.6,167 218,166.6 217.2,167 216.6,167.3 216,167.5 216,166.8 		"/>
			<polygon id="Angola_1_" class="st1" points="215.9,168.7 216.5,168.9 218.3,169 219.6,168.5 221.9,168.8 222.4,170.8 222.9,171 
				223,171.8 225.2,171.7 225.3,170.4 225.9,169.9 226.6,171.4 227.1,171 227.9,170.9 228.4,171.6 228.5,174.3 228.5,175.3 
				229.3,175.9 230.7,175.9 230.5,178.8 229.4,178.8 229,178 228.5,178.1 228.5,178.8 227.6,178.9 227.6,182.1 227.7,183.2 
				228.7,184.4 228.7,185 227.3,185.5 226.3,185.4 223.7,185.1 223.2,184.4 220,184.5 217.8,184.3 216.6,183.7 215.3,184.2 
				215.3,182.1 216.7,179.8 217.4,178.2 217.5,177.8 218.1,177.6 218.3,176.4 217.5,175.1 217.3,173.5 217.1,171.7 216.4,171.3 
				216.4,169.4 215.7,169.4 		"/>
			<polygon id="Kenya_1_" class="st1" points="249.8,166.6 247.9,165.5 247.7,164.5 246.5,164.2 244,162.1 243,162.1 242.7,161.4 
				242.9,160 243.6,158.6 243.6,156.3 242.9,155.1 244.6,153.9 245.9,154.2 247,155 247.2,155.8 249.9,155.6 249.9,155.1 251.6,155 
				252,155.5 252.5,155.8 251.9,156.4 251.5,157.2 251.8,162.5 252.3,162.8 251.7,163.3 251.3,164.2 250.4,164.9 250.2,165.7 		"/>
			<polygon id="Somalie_1_" class="st1" points="253.5,146.3 254.5,147.2 256.5,149.1 258,149 259.2,150.2 257.9,151.2 257.7,152.9 
				256.4,154.2 254.8,154.6 253.5,154.6 252.5,155.8 251.9,156.4 251.5,157.2 251.8,162.5 252.3,162.8 253.2,161.6 253.9,160.3 
				255.3,159.4 257.7,157.3 259.9,155.1 261.3,153.2 261.9,150.9 262.6,149.1 263.7,147.8 264.1,146.3 264.8,145.6 264,144.9 
				263.1,143.6 261.8,144.7 260.4,145 259.6,145.4 258.7,146 256.2,145.8 254.7,145.3 		"/>
			<polyline id="Libye_1_" class="st1" points="214.9,113.5 215.9,114.1 216.6,114.2 219.4,114.7 219.8,115.7 221.8,116 221.8,116.6 
				223.6,117 224.7,117.4 225,116.8 225,115.1 225.6,114.6 226.1,113.8 226.6,113.4 227.8,113.5 228.6,114.2 229.2,114.8 
				230.3,114.7 231.4,115.1 231.3,116.3 231.4,130.9 231.2,133 230.4,133.2 230.6,135.4 229.7,135.3 227.7,133.8 226.8,133.3 
				225,132.4 224.3,131.3 222.2,131 221.7,129.9 220.7,129.6 220.6,129.1 219.4,129 218.6,128.7 217.1,128.5 217,128 215.4,128 
				215.2,126.7 213.2,126.4 212.6,125.8 212.5,124.3 212.8,116.2 214,115.6 214.6,115.4 214.9,113.5 		"/>
			<polygon id="Gabon_1_" class="st1" points="217.4,157.4 215.4,157.6 214.7,158.1 214.7,158.8 214.4,159.7 213.1,159.8 
				212.8,159.4 212.8,161 211.7,161.4 211.5,161.8 212.1,162.1 212.1,163.2 213.6,164.6 214.8,166 215.3,166.5 215.7,165.9 
				216.1,164.9 215.6,164.5 215.4,163.8 216.3,163.4 217,163.3 217.6,164.1 218.6,163.7 219.4,162.5 219.2,161.4 218.6,160.8 
				218.2,160 218.5,159.3 218.2,158.6 217.4,158.5 		"/>
			<polygon id="Cote_d_x27_Ivoire_1_" class="st1" points="193,154.1 191.6,153.6 191.4,152.2 190.7,152 190.3,150.9 190.7,149.3 
				192.1,148.4 191.2,147.6 191.6,146.7 192.7,146.6 194.2,146.4 195,146.9 197.4,147 197.5,148.2 198.3,148.6 198.2,149.5 
				197.5,149.6 197.3,151.5 197.5,153.5 194.5,153.6 		"/>
			<polygon id="Guinée_équatoriale_1_" class="st1" points="214.7,158.8 212.9,158.9 212.8,159.4 213.1,159.8 214.4,159.7 		"/>
			<polygon id="Guinée_1_" class="st1" points="182.4,144.5 183,143.7 184.5,143.2 186.2,143.5 187.6,143.5 188.9,143.8 
				190.3,144.1 191.3,145.1 191.6,146.7 191.2,147.6 192.1,148.4 190.7,149.3 190.3,150.9 189.3,150.6 188.6,149.1 188.3,147.8 
				186.9,147 185.8,147.6 184.5,147.9 183,146.3 		"/>
			<polygon id="Ghana_1_" class="st1" points="197.5,153.5 197.3,151.5 197.5,149.6 198.2,149.5 198.3,148.6 197.5,148.2 197.4,147 
				198,145.9 198.8,145.9 199.7,146.4 200.7,146.6 200.8,147.8 201.4,148.1 201.3,149.1 201.5,150.8 201.9,152.4 201.4,153 
				200.4,153 199.9,153.6 198.9,153.7 		"/>
			<polygon id="Mozambique_1_" class="st1" points="241.3,199.2 240.3,198.9 240.1,197.9 239.6,197 239.6,195.8 239.6,194.3 
				239.6,192.2 239.9,191.3 240.6,190.8 240.5,189.2 241.3,188.7 241.8,188.1 241.3,187 241.2,186.1 241.7,184.4 241,183.2 
				239.3,182.9 238.7,182 238.2,181.8 240.2,181.4 240.5,180.6 241.6,180.1 242.5,180.5 243.4,180.8 243.4,181.7 243,182.9 
				243.5,183.5 244.4,183.4 244.7,182.5 245.5,181.9 245.3,180.8 245,180 244.5,179.2 244.1,178.8 243.6,178.2 243.8,177.3 
				244,176.3 243.8,175 244.8,175.9 245.1,176.6 247.6,176.8 247.9,176 249.3,176 249.6,175.5 251.1,175.2 251.1,177.6 251.1,182.1 
				250.3,182.9 250,183.7 248,184 247.8,184.6 246.9,184.9 246.5,185.3 246.3,186.8 245.2,187 244.5,187.6 244.2,188.2 244.1,190.8 
				244.4,191.1 244.4,193.5 244.5,194.6 244.1,194.7 244,195.3 243,195.3 242.8,195.7 241.6,195.8 241.5,196.8 241.5,197.6 
				241.5,198.5 		"/>
			<polygon id="Tamzanie_1_" class="st1" points="251.1,175.2 249.6,175.5 249.3,176 247.9,176 247.6,176.8 245.1,176.6 244.8,175.9 
				243.8,175 242.9,174.5 242.2,174.2 241.4,173.1 240.3,172.5 239.5,171.6 239.3,170.9 238.3,171 238.4,170.3 238.3,169.5 
				238.1,168.7 237.9,168.1 238,166.9 237.6,166.1 238.3,165.9 239.3,165.8 239.1,164.4 238.8,163.8 238.6,162.5 239.2,162.1 
				240.5,162.2 243,162.1 244,162.1 246.5,164.2 247.7,164.5 247.9,165.5 249.8,166.6 249.8,167.2 249.9,168.1 249.4,168.7 
				249.2,169.6 249.9,169.7 249.8,171.1 250.2,172.5 250.2,174 250.7,174.5 		"/>
			<polygon id="Djibouti_1_" class="st1" points="253.5,146.3 252.1,146.1 252.3,143.8 254.7,145.3 		"/>
			<polygon id="Gambie_1_" class="st1" points="181.1,141.2 182.7,141.3 183.4,141.1 184.9,141.3 184.9,142 184.2,141.9 183.5,141.7 
				182.2,142.4 180.9,142.2 181.6,141.7 		"/>
			<polygon id="Guinée-Bissau_1_" class="st1" points="184.5,143.2 182.7,142.6 180.8,143 180.8,144 181.9,144 182.4,144.5 
				183,143.7 		"/>
			<polygon id="Sénégal_1_" class="st1" points="187,142.1 186.3,141.6 186,140.5 185.2,139.9 184.2,138.5 183.3,138.2 
				182.8,137.5 181.7,137.7 180.2,139.4 179.3,139.9 180.3,140.2 181.1,141.2 182.7,141.3 183.4,141.1 184.9,141.3 184.9,142 
				184.2,141.9 183.5,141.7 182.2,142.4 180.9,142.2 180.8,143 180.8,143 182.7,142.6 184.5,143.2 184.5,143.2 186.2,143.5 
				187.6,143.5 		"/>
			<path id="Afrique_du_Sud_1_" class="st1" d="M240.3,198.9l-0.4,0.3l-0.8-0.2l-0.5-0.2l-0.1-0.6l0.2-0.8l1-0.4l0.1-1.2v-1.5v-2.1
				h-1.3l-0.4-0.4l-0.8-0.4l-0.3,0.7l-0.8,0.6l-0.7,0.7l-1,0.5l-0.3,1.2l-0.8,0.2l-0.5,0.8l-0.8,0.7h-1.2l-0.8-0.5h-0.7l-0.5,0.6
				l-0.3,0.8l-0.7,0.4l-1.7-0.4l-0.3-1.3l-0.5-0.5l-0.3,4.7l-0.8,0.7l-1.6-0.2l-0.6-1l-0.3,0.4l-0.9,0.1l0.2,0.6v1.3l0.9,0.3l0.1,1.7
				l0.6,0.2v0.5l0.6,0.1l-0.2,1l-0.6,0.5l2.3,2.8l1.5,0.2l0.9-0.5l0.6-0.9l2.6,0.1l0.3,0.5l1.4-0.6l0.6-0.5l1.8-0.3l1-0.6l0.9-1.6
				l1.2-0.7l1.6-1.4l0.3-1.4l0.4-1.2l1-0.2l0.7-1.4L240.3,198.9z M236.6,202.8h-0.5l-0.2,0.6l-0.4,0.5l-0.5,0.1l-0.3-0.4l-1.1,0.1
				l-0.1-1.9l0.8-0.1l0.3-0.7l0.9-0.2l1.1,0.1V202.8z"/>
			<g id="Soudan_1_">
				<polygon class="st1" points="248.1,135.5 247.5,134.8 246.9,133.7 246.4,132.7 246.3,131.6 245.7,130.1 244,128.8 241.9,130.5 
					241.1,129.9 233.1,129.9 232.1,130.5 231.4,130.9 231.2,133 230.4,133.2 230.6,135.4 230.5,139 229.7,139.3 228.9,140.6 
					228.6,141.9 227.7,141.9 227.6,142.7 228.5,143.1 228.7,144 229.3,144.3 229.3,144.9 229,145.3 229.6,146.2 230.2,147.4 
					230.1,148.4 230.7,148.7 230.8,149.4 231.6,149.2 231.9,150.3 233.1,150.6 233.3,151.9 234,152.2 234.3,152.6 234.5,153 
					234.4,153.6 234.8,154.3 237.7,154.5 238.1,155.1 238.9,155.3 239,155.5 240.3,155.5 241.5,155.6 242.9,155.1 244.6,153.9 
					244.7,153.1 244.1,152.2 243.7,151.9 243.1,151.4 243,150.5 242.4,150.3 241.7,149.1 243,149 243.3,146.3 244.3,146.2 
					244.5,143.4 246.1,143.2 245.9,139.9 245.1,139.7 245.1,138.7 246.2,138.8 246.2,138.6 246.4,136.6 247.7,136.5 248.6,136.5 			
					"/>
			</g>
			<polyline class="st1" points="230.2,147.5 230.5,146.4 231.6,146.2 232.7,147.4 234.6,147.7 235.3,147.7 236.5,147.2 237.2,146.4 
				238.9,147.2 240.6,145.6 240.2,144.2 241.4,143.8 241.5,145.8 242.1,146.1 242.6,147.6 243.1,147.6 243.1,147.6 243,149 
				241.7,149.1 242.4,150.3 243,150.5 243.1,151.4 243.7,151.9 244.1,152.2 244.7,153.1 244.6,153.9 242.9,155.1 241.5,155.6 
				240.3,155.5 239,155.5 238.9,155.3 238.1,155.1 237.7,154.5 234.8,154.3 234.4,153.6 234.5,153 234.3,152.6 234,152.2 
				233.3,151.9 233.1,150.6 231.9,150.3 231.6,149.2 230.8,149.4 230.7,148.7 230.1,148.4 230.2,147.4 		"/>
			<polygon id="Etythrée_1_" class="st1" points="252.3,144.4 252.3,143.8 252.3,143.1 251.4,141.2 250,139.6 248.8,139.1 
				248.9,138 248.9,137.1 248.6,136.5 247.7,136.5 246.4,136.6 246.2,138.6 246.2,138.8 245.1,138.7 245.1,139.7 245.9,139.9 
				246.6,140.2 246.9,139.7 247.4,140 248.7,140.1 250.8,141.7 251.2,142.7 251.7,144 		"/>
			<polygon id="Malouines_1_" class="st1" points="133,236.6 131.7,236.8 131.6,238 131.8,238.9 132.8,238 133.4,238.4 135.1,237.9 
				136.2,237.4 134.9,236.6 134.2,235.9 134,236.7 		"/>
			<polygon id="Colombie_1_" class="st1" points="106.2,152 106.4,149.2 107.6,150.3 107.8,148.5 109.1,148 109.2,146.6 110.5,145.6 
				112,145.5 112.4,144.4 113.3,144 113.9,144.4 113,145.6 112.4,147.6 111.6,148.1 112.7,149.5 112.3,151 114.6,151.1 114.7,152 
				116.5,152.8 118.5,153.4 118.5,155.8 118,157.3 118.2,158.4 116.1,159.2 115.6,160 116.2,160.6 115.6,161.1 115.9,163.5 
				115.9,164.5 114.6,164.6 113.5,163.9 111.4,163.7 110.3,162.3 109,161.5 108,160.6 106,160.7 104.2,159.7 105.1,158.3 
				105.3,157.6 106.5,157.5 		"/>
			<polygon id="Venezuela_1_" class="st1" points="113.9,144.4 113,145.6 112.4,147.6 111.6,148.1 112.7,149.5 112.3,151 
				114.6,151.1 114.7,152 116.5,152.8 118.5,153.4 118.5,155.8 118,157.3 118.2,158.4 119,158.8 119.6,159.6 120.6,160.1 
				121.9,159.9 123,159.1 122.9,158.2 122.1,157.7 122,156.9 122.2,155.8 122.7,155.6 123.8,156.6 124.5,156.1 126.6,156 127,155.1 
				127,154.3 126.4,153.6 126.5,152.4 127.2,151.7 127.4,151.1 127.9,150.5 127.9,149.3 127.4,149.1 127,147.9 126.4,147.3 
				126.7,146.9 126.7,146.3 124.8,146.2 123.4,146.5 122.6,147.1 121.6,146.9 118.9,146.8 118.7,146 118,145.8 116.9,145.5 
				116.6,144.7 115.7,144.5 115.7,144 115.3,144.5 		"/>
			<polygon id="Paraguay_1_" class="st1" points="127.1,193.5 127.4,194 128.2,194.3 128.9,195 129.3,195.8 131,196 131.4,196.2 
				131.8,196.7 131.3,198.4 131,199.5 134.9,199.6 135,199 135.8,198.5 136.4,197.5 136.2,197.2 135.9,194.1 134.8,194 134.7,192.6 
				133.6,192.5 132.9,192.2 132.6,191.6 131.5,191.4 131.4,190.4 130.5,190 130.4,189.2 129.9,188.3 128.3,187.7 127.4,188.5 
				126,189 125.6,190 125.1,192.1 125.9,193 		"/>
			<polygon id="Uruguay_1_" class="st1" points="133.2,203.5 133.7,204.1 134.9,204.6 137.5,207 138.1,207.9 138.3,208.9 
				137.5,209.4 137.2,209.7 137.1,210.2 136.1,210.3 135.9,210.7 135.3,210.5 134.1,210 133.1,209.5 132.7,210 132.2,210.2 
				131.8,208.8 131.6,206.8 131.8,205.5 132.5,204.4 		"/>
			<g id="Argentine_1_">
				<polygon class="st1" points="124.1,243.2 125,240.5 125.2,240.6 126,241.5 127.7,242.8 125.8,242.7 125.4,243.7 			"/>
				<polygon class="st1" points="120.2,193.4 120.9,191.8 122.1,192.8 123.6,193.3 125.1,192.1 125.9,193 127.1,193.5 127.4,194 
					128.2,194.3 128.9,195 129.3,195.8 131,196 131.4,196.2 131.8,196.7 131.3,198.4 131,199.5 134.9,199.6 135,199 135.8,198.5 
					136.4,197.5 136.5,198.8 137.2,198.8 137.2,199.8 136.3,199.9 135.7,200.7 135.1,201 134.4,201.9 133.7,202.6 133.2,203.5 
					132.5,204.4 131.8,205.5 131.6,206.8 131.8,208.8 132.2,210.2 132.7,210 132.6,210.6 133.2,210.9 133.9,211 134,212.8 134.6,213 
					134.5,214.6 133.7,215.1 132.7,215.2 132.4,216.1 131.7,216.2 129.4,216.6 128.6,216.7 128.2,217.1 128.5,218.4 128.6,220 
					127.3,220.4 125.3,219.4 125.1,220.8 126,221.4 126.4,222.2 126.6,223.2 126.1,223.8 125.6,224.4 125.1,226 124.4,226.3 
					124.2,226.9 123.4,227.2 123.1,228.9 125,229.7 125.1,230.5 125.1,231.2 124.4,231.8 123.9,232.5 123.9,234.5 123,234.7 
					122.4,235.2 122.4,236.3 122.3,237.8 118.6,238 118.3,236.3 117.2,235.7 117,232 117.7,231.8 117.9,230.7 118,225.7 117.4,224.3 
					117.4,222.2 117.1,220 116.5,218.9 116.6,217.9 117.5,216.7 116.4,214.3 117.3,212.9 117.8,212.1 117.3,211.4 117.3,209.6 
					118,209.5 117.9,208 117.3,207.8 117.2,205.7 117.8,205.3 117.7,204.3 117.3,202.2 117.8,201.4 118,200.3 118.7,199.7 
					119.2,198.6 118.5,197.7 119.2,196.8 119.3,195.2 120.1,195 			"/>
			</g>
			<g id="Chili_1_">
				<polygon class="st1" points="125,240.5 124.1,243.2 122.3,242.1 122.7,240.7 123.6,240.1 125.2,240.6 			"/>
				<polygon class="st1" points="122.3,237.8 118.6,238 118.3,236.3 117.2,235.7 117,232 117.7,231.8 117.9,230.7 118,225.7 
					117.4,224.3 117.4,222.2 117.1,220 116.5,218.9 116.6,217.9 117.5,216.7 116.4,214.3 117.3,212.9 117.8,212.1 117.3,211.4 
					117.3,209.6 118,209.5 117.9,208 117.3,207.8 117.2,205.7 117.8,205.3 117.7,204.3 117.3,202.2 117.8,201.4 118,200.3 
					118.7,199.7 119.2,198.6 118.5,197.7 119.2,196.8 119.3,195.2 120.1,195 120.2,193.4 119.3,192.9 118.4,191.2 118.4,188.6 
					117.2,187.5 117.1,186.3 116.4,185.6 115.5,186.4 115.8,188.3 116.1,188.9 116.2,193.7 115.7,194.3 115.7,195 116.1,195 
					116.1,197.9 115.8,197.9 115.7,201.2 114.8,201.2 115.2,202.1 114.9,203.7 114.6,207.8 115,208 114.5,213.3 114.1,214.1 
					113.7,214.6 114.6,222.2 114.2,223.4 115,223.3 115.3,223.6 115.5,227.4 114.9,228.6 114.8,230.4 115.7,230.9 114.8,233.1 
					115.5,235.3 116.1,236.3 117,236.7 117.2,238 117.6,238.6 118.5,239 118.9,239.8 120,240.5 120.7,241.1 121.3,242.1 121.7,240.6 
					122.5,240.1 			"/>
			</g>
			<polygon id="Guyane_F_1_" class="st1" points="135.4,153.3 135.1,153.9 135.1,157.5 134.7,157.8 135.2,158.4 136.5,158.5 
				136.8,157.8 137.2,157.1 137.9,156.4 138.9,156.5 138.6,155.6 137.9,155 137.6,154.3 137,154 136.2,153.8 136,153.2 		"/>
			<polygon id="Guyana_1_" class="st1" points="127.9,149.3 127.9,150.5 127.4,151.1 127.2,151.7 126.5,152.4 126.4,153.6 127,154.3 
				127,155.1 128,155.5 128.2,156.9 127.9,157.8 128.5,159 129.1,159.7 130,159.6 130.3,159.1 131.3,159.1 131.6,158.4 131.5,157.2 
				130.8,156.8 130.3,156.3 130.2,155.2 130.8,154.8 131.7,154.9 131.8,153.6 131.7,152.3 131.1,151.9 130.1,151.8 130,150.6 
				129.3,150.5 128.8,149.5 		"/>
			<polygon id="Surinam_1_" class="st1" points="131.8,153.6 131.7,154.9 130.8,154.8 130.2,155.2 130.3,156.3 130.8,156.8 
				131.5,157.2 131.6,158.4 131.3,159.1 132.8,159 132.9,157.9 134.7,157.8 135.1,157.5 135.1,153.9 135.4,153.3 134.9,152.5 
				133.5,152.4 133,153.1 		"/>
			<polygon id="Brésil_1_" class="st1" points="118.2,158.4 116.1,159.2 115.6,160 116.2,160.6 115.6,161.1 115.9,163.5 
				115.9,164.5 114.6,164.6 115.4,166.2 115.1,167.3 114.2,167.9 113,167.6 112.2,168.2 111.8,169.3 112.1,170.1 111.5,170.6 
				110.8,170.9 110.5,172 110.8,172.8 111.7,173.5 112,174.3 112.9,174.5 113,175.2 114.2,175.3 115.1,174.8 115.6,176.3 
				116.7,176.9 117.6,177 118.4,176.6 118.8,176.3 119.1,175.7 119.8,175.8 119.9,174.9 121.5,175.1 121.7,177.5 122.2,178.5 
				122.4,178.8 124.4,178.9 124.6,179.2 125.4,179.4 125.6,180.1 126.8,180.3 127.5,180.4 127.7,181.6 128.3,181.7 127.7,182.2 
				127.8,183.9 128.1,184 128.5,184.4 130.2,184.4 130.3,185.3 131,185.4 131.2,186.4 131.6,186.7 131.5,188.3 131,189 130.4,189.2 
				130.5,190 131.4,190.4 131.5,191.4 132.6,191.6 132.9,192.2 133.6,192.5 134.7,192.6 134.8,194 135.9,194.1 136.2,197.2 
				136.4,197.5 136.5,198.8 137.2,198.8 137.2,199.8 136.3,199.9 135.7,200.7 135.1,201 134.4,201.9 133.7,202.6 133.2,203.5 
				133.7,204.1 134.9,204.6 137.5,207 138.1,207.9 138.3,208.9 139,207.9 139.1,206.4 139.4,205.4 139.4,203.8 139.9,203.9 
				140.2,204.2 140.1,205.1 139.7,205.7 140.9,205.3 141.1,204.2 141.8,203.7 141.7,201.9 143,201.2 143.5,197.1 143.8,196.2 
				144.8,195.7 145.2,195.1 145.9,194.5 147.2,193.7 149.7,193.3 150.1,192.7 152,192.6 152.3,190.4 153,189.4 153.5,188.1 
				153.7,185.8 154.3,185.4 154.6,179.1 155.7,178.6 155.8,177.4 156.3,177.1 156.6,175.9 157.3,175.7 157.6,174.5 158.5,174.1 
				158.5,173.1 159.1,173 159,171.8 159.6,171.7 159.7,170.7 158.9,170.6 158.7,168.3 158.1,167.8 157.2,167.6 156.4,167.1 
				155.8,166.1 154.7,166.1 154.4,165.1 153.6,164.7 152.4,164.8 151.1,164.5 150.5,163.9 149.7,164.4 149,164.5 148,163.8 
				147.2,162.8 146.1,162.3 145.1,162.1 143.7,162.2 142.7,162.5 142.5,163.1 141.3,163.7 141.8,162.8 142.4,161.8 141.7,161.4 
				140.8,161.4 140,162 139.3,162.7 138.7,163.5 137.9,163.9 139,162 139.7,161.1 140.2,159.9 140.5,159.3 139.6,157.1 138.9,156.5 
				137.9,156.4 137.2,157.1 136.8,157.8 136.5,158.5 135.2,158.4 134.7,157.8 132.9,157.9 132.8,159 131.3,159.1 130.3,159.1 
				130,159.6 129.1,159.7 128.5,159 127.9,157.8 128.2,156.9 128,155.5 127,155.1 126.6,156 124.5,156.1 123.8,156.6 122.7,155.6 
				122.2,155.8 122,156.9 122.1,157.7 122.9,158.2 123,159.1 121.9,159.9 120.6,160.1 119.6,159.6 119,158.8 		"/>
			<path id="Pérou_1_" class="st1" d="M117.6,178.3l-1-1.5l-1.1-0.5l-0.5-1.6l-1,0.6l-1.1-0.2l-0.2-0.7l-0.9-0.2l-0.3-0.8l-0.9-0.7
				l-0.3-0.8l0.3-1.1l0.8-0.3l0.5-0.5l-0.2-0.8l0.3-1.1l0.9-0.6l1.1,0.3l1-0.5l0.3-1.1l-0.9-1.6l-1.1-0.7l-2.1-0.2l-1.1-1.4l-0.3-0.2
				l0,0l-0.1,1.3l-1.5,1.4l-1.8,0.6l-1.5,1c0,0-0.9,1.6-0.9,1.7l-0.2,0.1l-0.9-0.9l-0.3-1.1l-0.7,0.1l-0.5,0.5l0.1,2.8h1.3l0.5,2
				l0.6,0.4l0.2,1.3l0.5,1.1l0.7,0.4l0.2,1.3l0.4,0.3l0.5,0.7l0.4,1.2l0.5,1.2l0.6,0.5l-0.3,0.5l0.4,1l1.3,0.8l1.2,1.4l1.8,0.7
				l1.7,1.4l1.1,0.8l0.9-0.8l0.4-1l0.4-0.2l-0.4-0.7l0.2-2.1l-0.1-1.6l0.6-0.5L117.6,178.3z"/>
			<path id="Equateur_1_" class="st1" d="M108,160.6l-2,0.1l-1.8-1l-1.1,0.5l-0.2,1.5l-0.5,0.7l-0.4,0.9l0.4,0.9l0.8,0.7l0.2,0.9
				l0,1.2l0.8,0.9l0.1,0l0.1-0.1c0.2-0.3,0.9-1.6,0.9-1.6l1.5-1l1.8-0.6l1.5-1.4l0.1-1.3l0,0l-1-0.7L108,160.6z"/>
			<polygon id="Salvador_1_" class="st1" points="94,143.1 93.9,141.5 92.5,141.4 91.7,141.8 		"/>
			<polyline id="Honduras_1_" class="st1" points="93,139.6 92.7,140.7 91.9,140.7 91.7,141.8 92.5,141.4 93.9,141.5 94,143.1 
				95.2,142.4 96.9,142.3 97.3,141.1 99.2,141.2 100,140.2 98.7,139.8 97.9,139.1 95.9,139.1 95.1,139.7 94.6,139 93.7,139.5 
				93,139.6 		"/>
			<polygon id="Nicaragua_1_" class="st1" points="99.2,141.2 97.3,141.1 96.9,142.3 95.2,142.4 94,143.1 94.7,143.7 95.4,145.3 
				96.2,146.2 98.9,146.3 99.2,142.6 99.7,141.7 		"/>
			<polygon id="Guatemala_1_" class="st1" points="88.7,140.8 89.2,139.3 90.3,139 90.5,137.5 92.4,136.7 92.3,138.3 92.3,139.5 
				93,139.6 92.7,140.7 91.9,140.7 91.7,141.8 89.9,141.8 		"/>
			<polygon id="Costa-Rica_1_" class="st1" points="98.9,146.3 96.2,146.2 96.1,147.1 96.8,148.1 99.1,148.7 100.2,148.2 100.1,147 
						"/>
			<polygon id="Panama_1_" class="st1" points="100.2,148.2 99.1,148.7 99.2,150.1 101.7,150.4 102.7,151.2 103.7,150.7 103.3,149.6 
				104.5,149.5 105.7,151 106.2,152 106.4,149.2 104.9,148.2 103.5,147.8 102.6,148.7 		"/>
			<polygon id="Jamaïque_1_" class="st1" points="106.7,135.2 107.8,135.2 109,135.7 108.6,136.6 107.1,136.7 106.1,136 		"/>
			<polygon id="Rep_Dominicaine_1_" class="st1" points="114.1,136.4 114.5,135.4 114.5,133.6 114.5,133 115.6,133.2 116,133.7 
				116.6,133.9 117.1,133.9 117.3,134.7 118,135 118.8,135.6 118.5,136.1 117.4,136.2 115.6,136.1 		"/>
			<polygon id="Haïti_1_" class="st1" points="113.6,133.1 113.1,134.2 113.6,134.8 112.9,135.2 110.9,135.2 111.3,136.1 
				112.7,136.2 114.1,136.4 114.5,135.4 114.5,133.6 114.5,133 		"/>
			<polygon id="Porto-Rico_1_" class="st1" points="120.4,135.4 119.8,135.9 120.2,136.2 121,136.6 121.7,136.2 121.6,135.3 		"/>
			<polygon id="Cuba_1_" class="st1" points="98.7,130.6 99.9,129.5 101,129 102.7,129.2 105.2,129.7 107.3,130.9 110.9,132.5 
				111.4,133.4 109.7,134.3 107.1,134.1 107.3,132.8 106.5,131.9 104.6,130.7 103.9,130.3 100.2,130.1 		"/>
			<polygon id="Mexique_1_" class="st1" points="83.3,124.7 81.6,124.7 81.3,123.1 80.2,122.5 79.9,120.8 79.1,119.8 77.8,118.9 
				77.4,120.6 76.1,120.6 75.5,118.6 74.7,118.4 74.6,117.2 73.6,117 73.2,115.7 72.4,116.4 71.3,116.5 71.1,117.2 69.2,117.2 
				67.8,117.7 65.9,117.3 64.6,116.1 63.5,115.6 63.2,114.9 60.5,114.8 60.8,117.8 61.9,119.2 63,120.9 62.7,122 62,122.4 64.1,124 
				65.5,125.1 65.7,127 68.1,129.6 69,129.6 68.4,127.7 67.3,125.6 66.4,123.5 64.9,121.7 64,120 63.2,118.6 63.2,116.6 64.1,117.1 
				65,118.1 66,118.9 66.2,121.2 67.2,122.1 68.2,123.7 68.9,124.1 68.8,125.4 70,125.8 70.1,127.2 71.6,128 71.6,129 72.6,129.1 
				72.7,130.7 73.2,132.1 72.8,133.3 74,134.1 80.7,138.3 84.2,139.4 85.4,138.7 86.3,139.1 87.7,139.6 88.7,140.8 89.2,139.3 
				90.3,139 90.5,137.5 92.4,136.7 93.1,136.5 94.6,135.7 95.5,134.6 95.4,133 95.9,132.7 95.6,131.4 92.9,131.2 91.7,132.2 
				90.4,134.7 88.5,135.2 85.8,135.3 83.7,133.9 83.1,130.5 82.5,128.1 83,126.3 		"/>
			<g id="Canada_1_">
				<polygon class="st1" points="140.2,91.5 140.1,92.3 140,93.1 139.1,93.3 			"/>
				<polyline class="st1" points="136.3,86.1 137.2,86.5 137.1,87.3 137.5,88.3 138.6,88.3 139.4,88.6 139.7,90.4 139.2,91.7 
					138.6,93.1 138.2,92.2 137.5,92 137.5,93.1 136.6,92.8 136.4,91.2 135.4,91.2 134.3,91.8 132.9,91.6 132.9,89.9 133.4,88.7 
					134.5,88.2 135.2,87.3 135.8,86.4 136.6,86.1 			"/>
				<polygon class="st1" points="72.4,41.2 73.7,39.9 74.7,41 77.5,41.6 79.7,43.5 78,44.7 75.4,45.4 73.7,46.4 70.4,48.1 68.7,47 
					67.6,45.8 69.1,44.1 70,42.6 71.5,40.3 			"/>
				<polygon class="st1" points="82.7,43.7 83.5,45.4 84.4,43.9 85.5,44.7 86.8,46.2 87.4,43.5 90,43.9 89.3,45.4 90.6,47.9 
					92.8,49.1 90.9,49.5 91.7,51.6 88.5,52.3 83.3,52.5 80.3,52.5 78.2,51.4 75.8,50.2 76.5,49.5 79.9,48.7 75.4,47.9 75.6,46.8 
					78.4,46.6 78.4,45.6 80.8,44.3 			"/>
				<path class="st1" d="M89.2,42.4c0-0.3,0.5-0.6,1.2-0.6c0.7,0,1.2,0.3,1.2,0.6c0,0.3-0.5,0.6-1.2,0.6C89.8,43,89.2,42.8,89.2,42.4
					z"/>
				<polygon class="st1" points="81.4,35.9 79.5,35.9 77.3,38 74.1,37.6 74.3,36.1 76.7,35.5 79.5,34.3 81.4,33.6 			"/>
				<path class="st1" d="M79.2,39.8c-0.3,0-0.6-0.5-0.6-1c0-0.6,0.3-1,0.6-1c0.3,0,0.6,0.5,0.6,1C79.9,39.3,79.6,39.8,79.2,39.8z"/>
				<polygon class="st1" points="86.3,37.2 86.6,35.9 88.5,35.7 88.9,37.2 91.3,37.8 92.4,40.1 90.2,39.5 87.8,39.9 85.9,40.5 
					83.8,41 81.2,40.3 81.6,38.4 84,38.4 85,37.4 			"/>
				<polygon class="st1" points="88.3,32.8 88.1,34.1 86.3,34.5 84.8,35.3 84.8,34.3 85.5,33 87,33 			"/>
				<polygon class="st1" points="85.7,30.5 86.8,29.9 88.3,30.1 88.9,31.1 87,31.8 84.6,32 			"/>
				<polygon class="st1" points="94.1,29.9 95.6,30.1 97.1,30.5 98.4,32 98.8,33.2 96.2,33.6 95.6,32.4 94.1,32.2 93,30.7 			"/>
				<polygon class="st1" points="98.2,41.6 97.9,43.9 98.6,45.4 97.5,47.2 95.6,47 94.7,46 93,44.9 93.2,43.7 95.2,44.7 95.4,43.3 
					94.9,42 			"/>
				<polygon class="st1" points="97.7,51.6 96.4,52.5 94.3,52.3 94.7,50.8 96,50 			"/>
				<polygon class="st1" points="100.3,45.8 100.5,43.9 101.2,42.2 103.1,41.4 104.8,41.6 106.1,42 105,43.3 103.3,44.5 102,44.5 
					101.6,45.8 			"/>
				<polygon class="st1" points="109.8,44.9 111.3,45.1 111.5,43.7 113,41.8 116,42 115.4,45.8 116.6,44.1 120.9,43.7 122.7,46.4 
					124.8,47.5 128.3,48.9 129.3,50.8 128,52.3 129.8,54.6 132.1,55.2 134.3,56.7 133.4,58.1 132.1,60.2 128.7,56.9 127.6,57.1 
					127.4,59.6 129.5,60 130.2,62.5 129.3,64.6 126.3,62.7 127.8,66.1 123.5,64 120.3,61.5 117.1,62.3 115.6,60.8 116.4,59.6 
					120.3,58.8 122.7,56.2 122.4,53.9 121.2,52.9 119,52.9 119.2,51.4 116.9,49.3 114.9,50.6 112.3,49.3 108.3,50 107.8,49.1 
					108.7,48.3 106.8,47.5 106.5,45.1 108,42.6 110.6,41.8 			"/>
				<path class="st1" d="M117.1,56.9c-0.5,0,0.1-0.9,0.1-1.4c0-0.6,0.4-1,0.9-1s0.9,0.5,0.9,1C119.1,56.1,117.6,56.9,117.1,56.9z"/>
				<path class="st1" d="M116.2,53.4c-0.3,0-0.6-0.5-0.6-1.2c0-0.7,0.3-1.2,0.6-1.2s0.6,0.5,0.6,1.2
					C116.8,52.9,116.6,53.4,116.2,53.4z"/>
				<polygon class="st1" points="108.3,60 110.4,60.6 111.1,61.9 109.3,62.5 107.4,64.2 106.1,62.5 106.3,60.8 			"/>
				<polyline class="st1" points="95.8,37.2 97.5,36.1 99.2,36.4 99,38.9 95.4,39.5 94.3,38.2 93.2,36.6 94.1,35.7 95.2,37 			"/>
				<polygon class="st1" points="102.9,30.5 104,32 103.3,33.4 102,33.6 101,32.6 101,31.1 			"/>
				<polygon class="st1" points="102.5,27.8 102,29 100.3,29 100.5,27.4 			"/>
				<polygon class="st1" points="110.4,26.3 111.9,28.2 111.7,30.5 110.6,32 106.8,31.5 106.3,30.3 106.5,29.2 105,29.2 104.8,27.6 
					106.1,26.1 107.2,24.6 			"/>
				<polygon class="st1" points="114.1,23.2 114.5,22.3 116.4,21.9 117.3,23 119,23 120.7,21.1 124.4,21.3 124.6,20.4 126.5,22.1 
					128.7,20.4 135.1,20.7 137.7,20.7 139.2,22.1 136.6,23.2 132.8,23.8 133.6,25.3 129.3,28.8 127,28.2 125.2,29.2 124.6,30.3 
					122.4,32.4 120.9,32.8 119.7,33.2 120.9,34.9 119.4,36.6 116,37.2 110,36.4 108.9,34.5 111.1,34.9 111.7,33.8 113,33 114.1,32.2 
					115.4,31.1 114.3,29.7 114.5,28 115.8,28.8 118.6,28.8 117.1,28.2 118.8,27.4 121.6,26.7 121.6,25.3 120.7,25.7 118.1,26.3 
					116.2,27.1 114.1,26.5 113,26.1 111.9,24.8 111.3,23.6 			"/>
				<polygon class="st1" points="107.8,34.9 108.5,37.2 112.6,38.2 117.1,38.4 117.5,40.8 114.3,39.9 108.7,40.5 106.8,39.7 
					104.8,37.6 103.7,36.1 105.5,34.7 			"/>
				<polygon class="st1" points="103.3,38.4 103.5,39.5 102.2,40.1 100.7,39.5 101.8,38.2 			"/>
				<polygon class="st1" points="54.7,87.9 55.4,87.1 57,88.7 57.6,89.8 56.4,90.1 55.1,88.9 			"/>
				<path class="st1" d="M137.5,83.6v-1.5l-0.2-1l-1.2-0.1l-1.2,0.6l-1.3,0.4l-0.8-0.4l1.7-0.4l0.3-0.8l0.9-1.2l-1.3,0.2l0.2-0.8
					l-1.6,0.2l-0.4-2l-0.9-0.2l-0.1-0.8l0.6-0.4v-0.9l-0.6,0.1l-0.3-2.1h-1l-0.4-1.6l-0.6-1l-1.1,1.8l-0.8,1l-1.9,0.6l-1.8-0.5
					l-0.1-3.2l0.8-0.9l-1.7-0.6l-1.1-1.2l-1.1-1h-2.7l-1.9-1l-1.3,1.9l-0.3,1.9l0.3,0.8l-0.4,2.4l-1.2,0.5c1.6,0.7,0.6,6.1,0.6,6.1
					l-1.8,0.9l-0.2,1.8l0.1,1l-0.5,2.6l-0.4,0.9l-1-0.7l-0.8,0.8l-1-0.1l-0.9-1.7l0.2-2.3l0.2-2.6l-2.3,0.2l-1.3-1.4l-1.3-0.2l-2.1-2
					l-3.3-0.4l-0.8-2.9L95.1,72l0.1-1.8l1.6-2.4l1.9-1.7l2.4-1.8l1-1.5l1.7-0.2l1.1-0.7l0.5-1.9l-2-0.7l-0.1-0.8l0.9-0.1l0.6,0.6h2.1
					l0.3-1.5l1.8-0.1l0.5,0.8l3.4-1.8l-0.5-2.4l1.1-0.6l-0.8-1.9l-2.7-0.3l-0.6,2l-1.5,1.5l-0.4,1.4h-1.1l0.1-2.4l-0.8-1.5l-1.4,1.7
					l-0.5-1.7l-1.1-0.9l-0.2-1.2l0.4-1.4l-1.7-1.5l-1.6,1l-0.6,1l-1.2,0.7l1.5,1l0.6,2.4l-1.2,0.8l-1.3,0.7l-0.9-1.3l-1.6,0.2l-1,1.2
					l-5.5-0.3l-1.8-1.4l-1.7,1.7l0.2,1l-1.5,0.1l-2-2l-2.9,0.8l0.4-1.5l-2.1-1l-2.9-0.1l-4.6-1.5L68.6,52l-0.9-1.3l-0.6,0.7l-1.4-0.2
					l-1.1-1.8l-0.8,0.3l-0.5,0.9l-0.9,0.8l-2.3,0.1l2.1-1.4l-0.9-0.5l-3,1.9l-1.2,0.8l-0.1,1.3l-1.3-0.1l-3.2-1.5l-3.5-0.6L43.7,70
					l1.1-0.4l0.5,0.4l0.3,1.6l1.1,0.7l0.3-0.7h0.8l0.2-0.8l0.8,0.1l1.8,2l0.3,1.5l0.6,0.3l0.4,2l1.7,0.4l-0.9,0.8l-0.5,0.9L52,80.6
					l0.8,0.3l0.1,1.2l1.2-0.1l0.1,1.5l0.1,1.8l1.3,1.5l1.6,1l1.6,2l32.7-0.1l-0.1,0.8h2.3l3.4,0.3h0.2l0.5-0.4l-0.6-0.3l1.5-0.3
					l2.4-0.2L103,92l1,1.3l2.1,1l1.1,2l-1.1-0.2l-0.6,2.6l-0.4-0.3l-1.1,1.5l-0.6,0.9l1.8,0.7l2.7-2.3l1.1-0.9l2.8,0.1l0.5-1.8l1-0.9
					l5.1,0.3l0.9-1.2l0.6-1.2l0.8-2l1.7,0.3l0.2,3.3l0.9,0.4l3.1-2.6h1.1l0.2,0.5l-3.7,3.3l0.6,0.7l3-2l3.1-1.7l-3.4-1.7L126,91
					l1-1.5l-1.5-0.8l-1.5,0.7l-2.6,1l1.5-1.9l1.6-0.7l1.1-0.9l1.5,0.2h3l2.9-0.3l1.7-1.5l1.3,0.1l1.5-0.4l0.1-0.6L137.5,83.6z
					M91.2,87.2l-0.9-0.1l-0.8-0.3v-2l-1.2-0.2l0.2-3.7l1.1,0.2v1.6l0.4,1.6l0.2,0.8l0.5,0.6l1,1.3L91.2,87.2z"/>
			</g>
			<g id="Etats-Unis_1_">
				<path class="st1" d="M33.5,48.2l-1.1,0.8h-2.6l-0.6,1.3l-3,0.2l-1.1,2.3l-4.3,0.6l-0.4,1l2.4,1.7l3.7,1.5l-2.6,0.4l-1.7,0.4
					l-0.9-1l-1.3,0.4v0.6l-2.1,0.2l-0.6,0.8l1.3,0.6l-0.2,1.3l0.9,0.6h2.6l1.7-1l0.6,0.6l-0.9,0.6l-0.2,1.5H21L20.6,65l-1.1-0.8
					L17.8,65l-0.2,1.3l-1.7,0.8l0.6,1l1.1,0.4L16,69.4l1.1,1.3l1.3-0.2l0.6-1V71l-0.6,1l0.2,1.3l1.9-0.6l0.6,0.5l1.5-0.5l0.2,2
					L18,77.8l-3.5,1.6l-1.7,0.7l0.1,0.7l5.7-1l6.1-4l0.6-0.6l1-0.6l1.7-1l-0.3-1.2l1.9-1.7l2.4-2.8l2,0.5l-3.2,2.3l0.5,0.7l-0.9,0.6
					l1,0.6c1.3,0.3,3-2.2,3-2.2l1.1-0.5l0.2-1.4l1.6-0.5l0.3,0.8l1.2,0.1v1l3.8,0.2l0.4,0.3l0.1,0.7l1.3,0.3l0.2,0.9l1-0.1l0.3,0.8
					l1,0.5l0.5-0.8l0.5,0.8l0.8,0.4l0.4-0.4l0.5,0.2l-0.1,0.5v1l0.5,0.6l0.8,0.1v0.9l1,0.5h1l0.9-0.8l-1.7-0.4l-0.4-2l-0.6-0.3
					l-0.3-1.5l-1.8-2L48,70.7l-0.2,0.8H47l-0.3,0.7l-1.1-0.7L45.3,70l-0.5-0.4L43.7,70l5.5-18.4l-1.3-1.2l-3,0.3l-1.3,0.1L42.7,50
					l-3.9,0.3l-1.3-1.7l-1.3,1l-1.8-0.2l-0.1-1.2L33.5,48.2z"/>
				<polygon class="st1" points="26.8,75.4 27.2,74.7 28.4,74.7 28.4,75.8 27,77.1 26,76.2 			"/>
				<path class="st1" d="M123.3,95.9l-0.8,0.8l-1.1,0.1l-0.5,0.7l-0.9-0.1l-0.2,0.6h-1l-0.4,1l-0.2,0.9l0.9,0.8l-1.1,0.6l-2.3,0.2
					l-0.4,0.9l-0.4,0.6l-1.3,0.2l-0.6,0.8l-0.3,2.1l-0.9,0.3l-0.5,0.6l-0.5,0.7l0.6,0.4l-0.1,2.5l-0.9,0.4l-0.2,0.9l-1.4-0.1
					l-0.6,0.8l-1.3,0.4l-0.4,1.2l-1,0.2l-1.1,0.9l-0.3,1.2v1.9l-0.1,1.6l0.5,0.2l0.1,2.1l0.2,0.5l0.6,3l-0.5,1.1l-0.6-0.8l-1.3-0.7
					l-0.6-1.7l-0.5-1.8l0.2-1.9l-1-0.9l-1.2-0.9l-1.5,0.3l-1.2-0.6l-2.8,0.2l-0.9,0.6l0.5,1.3l-1.3,0.1l-1.4-0.3l-0.2-1.7l-1,0.3
					l-0.3,1.3l-0.8-0.2l-0.8-1l-0.9,0.5l-0.8,0.7l-0.8,1.2l-0.8,0.8l-1.4,0.6l-0.5,2h-1.7l-0.3-1.7l-1.1-0.5l-0.3-1.8l-0.8-0.9
					l-1.3-0.9l-0.4,1.7h-1.3l-0.6-2l-0.8-0.2l-0.1-1.2l-1-0.2l-0.4-1.3l-0.9,0.6l-1.1,0.1l-0.2,0.7h-1.8l-1.4,0.5l-1.9-0.4l-1.3-1.3
					l-1.1-0.4l-0.3-0.7l-2.7-0.1l0.1-1l-1.6-0.5l-1.1-0.8l-1.2-0.5l0.2-1.7l-1.5-0.3l0.1-0.9l0.4-1.2l-0.8-0.9l-1.1-1l-0.2-3.6
					l0.8-0.6l-0.5-0.5l-0.1-0.6l0.3-0.6l0.2-1.4l0.6-0.4V96l0.6-0.5l0.5-2.4l0.6-0.2l-0.9-1v-1l1.1-0.2l0.8,0.8l0.5,0.7l0.2-2.4
					l32.7-0.1l-0.1,0.8h2.3l3.4,0.3h0.2l-2.6,1.7l0.1,0.7l1.8,0.7l2.1-2.4l0.1,0.4l1.9,0.5l1.5,1.6l1.3,1.9l-0.4,2.3l1.1-0.5l0.8,0.7
					l-1.1,1.5l-0.6,0.9l1.8,0.7l2.7-2.3l1.1-0.9l2.8,0.1l0.5-1.8l1-0.9l5.1,0.3l0.9-1.2l0.6-1.2l0.8-2l1.7,0.3l0.2,3.3L123.3,95.9z
					M101,93.7l-1.3,0.2l-1.2,1.3l-0.3,1.2l0.9-0.7l-0.3,1.6l-0.2,1l-0.1,2.3l1.1,1.3l1.4-1l-0.8-3.3l0.1-1.4l1.2-0.6l0.3-0.7
					l-0.8-1.3"/>
			</g>
			<polygon id="Bulgarie_1_" class="st1" points="232.2,100.3 231,100.5 230.4,100.4 229.6,101 228.5,100.6 227.8,100.7 227.7,98.8 
				227.1,97.6 227,96.9 228,96.1 228.4,96.4 228.8,95.9 230.2,96.4 230.5,97.4 232.3,97.2 233.4,97 233.8,98.1 233.5,98.9 233,99.5 
				233.3,100.1 		"/>
			<polygon id="Roumanie_1_" class="st1" points="228,96.1 227.3,95.5 226.1,94.9 224.8,94.2 224.5,93 225.7,92.7 226.6,91.3 
				227.1,90.5 228.9,90.5 229.5,90.9 231.4,91.1 232.1,90.8 233.8,92.5 233.9,93.8 234.6,95.4 234.4,96.2 233.4,97 232.3,97.2 
				230.5,97.4 230.2,96.4 228.8,95.9 228.4,96.4 		"/>
			<path id="Chypre_1_" class="st1" d="M240.6,110.7c-0.3,0-0.9,0.3-1.1,0.3c-0.3-0.1-0.2-0.6-0.2-0.7c0-0.2,0.4-0.1,1.1-0.1
				c0.4,0,1.1-0.3,1.4-0.3c0.2,0-0.3,0.5-0.3,0.6C241.5,110.6,241.3,110.7,240.6,110.7z"/>
			<polygon id="Belgique_1_" class="st1" points="204.7,84.7 204.6,85.4 205.6,85.9 206.1,87 207.5,87.5 207.7,86.9 208.5,86 
				207.7,85.6 207.5,84.6 206.7,84.4 206,84.7 		"/>
			<g id="Danemark_1_">
				<polygon class="st1" points="212.9,78.7 211.5,79 211,77.8 210.2,77.5 210.2,75.4 211.9,75.3 212.6,73.8 213.6,75.3 212.7,77.4 
								"/>
				<polygon class="st1" points="211.5,73.6 211.8,73 212.5,73 213,73 			"/>
			</g>
			<polygon id="Pays-Bas_1_" class="st1" points="206,84.7 206.7,84.4 207.5,84.6 207.7,85.6 207.9,84.2 208.8,83.6 209.6,82.5 
				209.6,81.2 207.9,81.5 207.6,81.8 207.5,82.1 207.5,82.6 206.7,82.1 206.2,83.5 206.4,83.7 		"/>
			<polygon id="Lettonie_1_" class="st1" points="232.8,75.8 232.7,75 230.2,74 227.6,75.5 225.6,75.6 225.4,73.5 226.3,72.6 
				227.3,74 228.6,74 228.9,72.7 227.9,72.3 227.5,71.4 229.9,71.2 231.1,72.2 233.5,72.3 235.4,74 234.5,74.6 233.3,74.2 		"/>
			<polygon id="Estonie_1_" class="st1" points="233.5,72.3 231.1,72.2 229.9,71.2 227.5,71.4 228.5,70.5 230.2,69.7 232.1,70.4 		
				"/>
			<polygon id="Finlande_1_" class="st1" points="226.3,58.2 227.1,57.7 227,55.1 226.9,54.3 225.9,53.4 225,52.4 225.8,52.6 
				227,52.8 228.7,52.6 229.3,51.3 230,50.4 230.8,49.8 231.7,50 232.7,50.8 232,52.8 233.3,54 233.3,54 233.3,55.3 233.8,57 
				233.9,59 234.4,60.7 235,62.6 235.7,63.3 236.6,64 235.6,64.8 234.3,66.2 233.1,67.5 232.8,68.7 232.9,70.1 231.6,68.2 230,68.5 
				229.3,69.2 227.1,69.1 225.6,68.1 225.1,66.7 224.6,65.3 225,63 226.5,62.4 227.6,61.4 227.9,60 229.7,60.2 228.6,58.4 		"/>
			<polygon id="Irlande_1_" class="st1" points="191.9,78.2 191.4,78.7 191.4,79.6 189.4,79.8 189.2,80.4 189.2,81.5 189.8,81.6 
				189.8,82.3 189.2,82.7 189.3,83.8 189.3,84.5 190.7,84.4 192,83.6 193.1,83.6 193.9,83.3 194.2,81.6 193.8,80.3 192.4,80.3 
				192.1,79.5 192.5,78.6 		"/>
			<g id="Royaume-Uni_1_">
				<polygon class="st1" points="197.9,71.1 198,71.5 198.6,71.1 			"/>
				<polygon class="st1" points="193.8,80.3 192.4,80.3 192.1,79.5 192.5,78.6 193.2,78.1 193.9,78.3 194.5,78.8 194.7,79.7 			"/>
				<polygon class="st1" points="193.7,72.5 192.8,73 192.7,73.8 193.2,74.2 193.8,73.4 			"/>
				<polygon class="st1" points="195.4,72.4 194.9,73.3 194,74.2 194.7,74.6 194.9,75.3 194.9,76 194.1,76.4 194.5,77.2 195.2,77.3 
					195.4,77.9 195.1,78.5 197.1,79 197.6,79.7 198.2,79.9 198,80.5 196.9,81.2 196.1,81.2 196,82.1 196.3,82.6 196.1,83.5 
					195.4,83.9 197.4,84.3 197.2,84.6 196.5,84.7 195.7,85.5 195,86.4 194.9,87.2 196.7,86.5 197.9,85.9 199.5,86.3 200.8,85.4 
					202.4,85 201.4,84.3 202,83.9 202.8,84 202.9,82.1 201.3,81.6 201.2,80.3 201,79.6 200.1,79.3 200.3,78.2 199.5,78 199.7,76.5 
					197.7,75.1 198.8,74.8 198.9,73.5 196.9,73.5 196.9,72.2 			"/>
				<polygon class="st1" points="199.7,68.2 199.1,68.9 199.3,69.7 199.8,69.7 			"/>
			</g>
			<polygon id="Espagne_1_" class="st1" points="205.1,99.4 202.7,99.5 201.9,98.7 200.1,98.6 198.5,98.1 196.7,97.5 195.6,97.8 
				194.8,97.3 190.6,97.4 190.8,98 190.2,98.2 190.3,99.2 190.9,99.8 191.1,100.6 192.3,100.5 193.2,100.2 193.5,100.6 193.3,101 
				192.9,101.5 192.5,103.8 192,104.3 192.6,104.8 192.7,106.6 192.8,107.4 193.6,107.5 193.6,108.4 194.5,108.9 195.3,108.7 
				195.8,108.3 198.9,108.4 199.5,107.8 199.5,107.1 200.4,106.6 201,105.9 201.2,105 200.4,104 201,103.2 201.5,102.4 202.5,102.2 
				203.5,100.9 204.1,100.3 		"/>
			<polygon id="Portugal_1_" class="st1" points="192.7,106.6 192.6,104.8 192,104.3 192.5,103.8 192.9,101.5 193.3,101 193.5,100.6 
				193.2,100.2 192.3,100.5 191.1,100.6 190.9,99.8 190.4,100.8 190.4,102.1 190.6,102.6 190,103.4 189.3,104 189.2,105.2 190,105.6 
				190.2,106.5 190.3,107.3 191.1,107.6 192.1,107.6 		"/>
			<g id="France_1_">
				<polygon class="st1" points="203.5,84.9 203.2,86 202.5,86.5 202.3,87.1 201.3,87 201.1,87.7 200.1,87.8 199.5,87.1 198.9,87.3 
					199.2,87.9 199,88.7 197.9,88.8 197.4,89.1 197.1,89.2 195.9,89.4 195.9,89.7 195.9,90.3 197.4,91 198.1,91.3 198.9,92.1 
					199.3,93.3 200,94 199.4,94.3 199,97.4 198.5,98.1 200.1,98.6 201.9,98.7 202.7,99.5 205.1,99.4 204.9,98.5 205.3,97.6 
					206.3,97.5 207.3,97.5 208.1,98 209.1,98.3 209.8,97.1 209.8,96.3 208.8,95.9 208.7,94.7 209.2,94 209.2,93.1 208.5,92.5 
					208.8,91.7 209.3,91 210.1,90.8 209.9,88.9 210.4,88.3 209.2,87.4 207.5,87.5 206.1,87 205.6,85.9 204.6,85.4 204.7,84.7 			"/>
				<polygon class="st1" points="212.6,98.7 212.3,99.2 211.6,99.6 211.8,100.5 212.4,101 			"/>
			</g>
			<g id="Italie_1_">
				<polygon class="st1" points="219.5,106 218.6,106.2 217.3,106.1 217.5,106.5 217.7,107.1 218.5,107.2 219.8,107.6 219.7,106.8 
								"/>
				<polygon class="st1" points="209.8,97.1 209.8,96.3 208.8,95.9 208.7,94.7 209.2,94 209.2,93.1 210.4,93 210.9,92.5 211.3,93.1 
					211.7,92.6 212.2,92.9 212.7,91.9 213.2,92.2 214.5,92.2 215.6,91.7 216.3,92.5 216.6,93.4 215.9,94 215.6,95.1 215.7,95.9 
					216.2,96.2 216.9,97.5 217.8,98.7 219.3,100.1 220.1,100.2 220.7,100 220.8,100.5 221.3,101 221.6,101.6 222.2,102 222.8,102.5 
					223.5,103.3 223,103.7 222,102.9 221.2,103.3 221,103.8 221.4,104.8 221,105.2 220.6,105.9 219.9,105.9 220,104.5 220,103.7 
					219.2,103.2 218.7,102.4 218,102.3 218,101.6 216.3,101 215.1,100 214.4,99.5 213.7,98.9 213.3,97.5 212.9,96.6 211.5,96.4 
					211.2,97.1 			"/>
				<polygon class="st1" points="211.3,102 211.5,102 212.1,101.8 212.5,101.7 212.7,102.1 212.7,102.9 212.6,103.5 212.5,104.4 
					211.8,104.6 211.4,104.4 211.4,103.7 211.3,102.9 211.1,102.4 			"/>
			</g>
			<polygon id="Allemagne_1_" class="st1" points="218,84.8 214.5,86.1 214.5,86.1 218,84.8 217.2,82.6 217.4,80.2 217,79.8 
				214.1,80.4 213.5,79.6 212.9,78.7 211.5,79 211.4,80.2 211.5,80.7 211.1,80.7 209.6,81.2 209.6,82.5 208.8,83.6 207.9,84.2 
				207.7,85.6 208.5,86 208.4,86.9 209.2,87.4 210.4,88.3 209.9,88.9 210.1,90.8 210.9,90.9 211.7,90.7 212.4,91.1 212.9,91.2 
				213.4,91.3 214.9,90.6 216.1,89.9 216.4,89.5 216.5,88.3 214.5,86.1 		"/>
			<g id="Pologne_1_">
				<polyline class="st1" points="218,84.8 217.2,82.6 217.4,80.2 220.9,78.6 222.1,79.1 223.8,78.9 225.9,79.6 227.6,81.1 
					227.6,82.8 228.3,82.8 228.4,84.2 228.5,86.3 227.5,87 227.5,87 225.5,87.1 223.5,87.3 222.1,86.5 219.2,85.5 218,84.8 			"/>
			</g>
			<polygon id="Suède_1_" class="st1" points="214.1,72 214.5,71.2 215,69.7 216.2,69.1 215.8,67.7 215.2,66.3 215,64.9 214.7,62.7 
				215,61.9 216.2,62.1 216.7,61.7 215.9,61.1 216.5,60 216.7,58.4 217.3,58.1 217.7,57.2 218.5,57.1 218.7,56 219.4,55.6 
				219.5,54.6 220.2,54.8 220.9,54.5 221.5,53.8 222.4,53.7 223.6,53.7 224.2,53 225,52.4 225.9,53.4 226.9,54.3 227,55.1 
				227.1,57.7 226.3,58.2 225.3,59 225,60.4 225.1,61.4 223.8,62.2 223,63.1 221.3,63.5 220.7,64.8 220.7,67.1 221.6,68.3 
				222.1,69.2 220,70.2 221,70.2 221.5,70.7 221.9,71.5 221.1,72 220.2,73 220.2,74.6 219.3,75.3 219,76.1 218,76.8 217.4,77.6 
				216.1,77.1 216.2,75.5 215.4,75.3 215.2,74.3 214.7,73.1 		"/>
			<polygon id="Luxembourg_1_" class="st1" points="209.2,87.4 207.5,87.5 207.7,86.9 208.5,86 208.4,86.9 		"/>
			<g id="Grèce_1_">
				<polygon class="st1" points="227.5,105.2 226,105 225.8,104.2 224.7,103.1 224.6,102.2 225.7,101.3 225.7,101.3 226.7,101.6 
					227.8,100.7 228.5,100.6 229.6,101 230.4,100.4 231,100.5 231,101.4 230.3,101.6 229.9,102 229.4,102.4 229.7,103 228.9,103.2 
					228.5,102.9 228,103 228.5,103.5 227.9,104.2 228.7,104.5 229.9,105.3 230.1,105.9 229.6,105.7 228.5,106.2 229,106.9 226.8,107 
					226.8,106.2 226.1,105.9 226.8,105.5 227.3,105.4 			"/>
				<path class="st1" d="M230.5,108.3c-0.3,0-1.1-0.4-1.3-0.4c-0.3-0.1,0,0,0-0.1c0-0.2,0.4-0.1,1.1-0.1c0.4,0,1.1-0.3,1.4-0.3
					c0.2,0,0.4,0.5,0.4,0.6C232.1,108.2,231.3,108.3,230.5,108.3z"/>
			</g>
			<polygon id="Lituanie_1_" class="st1" points="232.8,75.8 232.7,75 230.2,74 227.6,75.5 225.6,75.6 224.9,77 224.3,78.2 
				225.2,78.8 225.3,79.4 225.9,79.6 227.6,81.1 227.4,80 228.8,79.5 230.3,79.7 230.6,78.7 232.3,78.1 231.6,77.2 232.5,75.6 		"/>
			<polygon id="Slovénie_1_" class="st1" points="219.5,93.3 220.6,92.9 220,92.6 219.5,92.4 218.3,92.9 216.3,92.5 216.6,93.4 
				217.3,93.9 218.3,93.8 		"/>
			<g id="N-Zélande_1_">
				<polygon class="st1" points="410.1,209.3 410.1,210.6 410.8,212.1 411.4,213.2 410.9,214.8 409.7,216.2 409.8,217.1 410.2,219.7 
					411.4,220.2 411.8,218.5 412.9,217.3 414.9,216.3 415.3,214.9 415.2,213.9 413.1,213.9 413,212.3 412.4,212.3 411.6,212 
					411.8,210.4 411.3,209.5 			"/>
				<polygon class="st1" points="406.6,218.4 406.4,220 404.7,220.9 403.4,222.5 400.3,223.9 398.2,225.8 398.6,227 400.5,228.8 
					402.8,226.8 403.6,225.1 405.3,223.8 406.3,223.8 406.8,222.3 407.9,221.1 409,220 408.5,218.7 407.9,219.4 407.8,218.3 			"/>
			</g>
			<polygon id="N-Calédonie_1_" class="st1" points="402.5,186.6 401.5,187 402.2,187.7 403.1,188.5 406.3,192.6 406.6,191.9 
				405.1,189.2 		"/>
			<polyline id="Népal_1_" class="st1" points="298.4,118.1 299.8,118.1 300.9,119.1 302.2,119.7 302.6,118.9 302.7,120.2 
				303.7,120.8 304.9,121.4 307.7,121.6 308.8,122 308.2,123.3 307,123.3 305.6,123.4 304.5,122.8 303,122.5 301.1,121.7 
				299.6,121.3 298.6,120.1 298.4,118.1 		"/>
			<polygon id="Laos_1_" class="st1" points="323.9,130.8 324.1,131.9 324.4,133.1 325.1,133.7 325.9,134.1 327.2,135.6 328.2,134.8 
				329.1,135.8 329.8,137.5 330.2,138.5 330.9,138.6 330.9,140.6 331.7,141.5 333,140.6 333,138.2 331.9,137.4 330,134.7 
				329.1,133.8 329.5,132.4 329.3,131.6 327.1,130.8 326.4,128.9 325.4,129.4 325.6,130.6 		"/>
			<polygon id="Bhoutan_1_" class="st1" points="312.5,122.7 311.1,122.6 309.9,122.2 309.5,120.9 310.9,121.5 312.9,121.5 		"/>
			<polygon id="Mongolie_1_" class="st1" points="304.3,89.6 305.1,89 306.7,88.6 310.3,88.3 310.8,88.8 312.1,89 312.6,89.5 
				315.2,89.2 314.5,87.9 314.1,87.2 315.2,87.1 315.2,85 315.2,82.9 317.4,83.7 318.9,83.8 320,84.9 320.6,85.9 322.4,85.9 
				325.1,86.1 326.6,87 327.8,87.3 328.1,88.2 331.3,87.8 331.8,87 332.9,87.6 334.4,86.3 335.6,86.2 336.7,86.9 336.3,87.9 
				336.5,90.5 336.8,91 337.8,90.7 339.8,90.5 340.8,91.8 338.6,92.7 336.8,93.8 335.7,94.6 334.5,95.8 332.8,95.2 332.9,96.6 
				332.7,98.1 330.8,99.6 328.3,99.3 327.3,100.1 325.5,100.6 323.7,99.6 322.2,99.2 315.3,98.7 314.4,97.9 313.6,96.4 312.2,95.7 
				310.9,95.3 308.1,94.8 307.2,92.8 306.8,91.5 305,90.5 		"/>
			<path id="Kazakhstan_1_" class="st1" d="M304.3,89.6l-1.1-2.9l-2-0.8l-0.7-0.9l-1.2-0.1l-1.8-3.4h-1.6l-2,0.7l-1.3-0.1l-0.1-1
				l-1-0.9l-2.4,0.4l-1.9,0.4l-3.1-0.3l-1.6-0.4l-0.8,0.2l0.3,1.7l-1.4,0.7c0,0-0.9,0.6-1.2,0.6c-0.3,0,0.5,1.6,0.5,1.6l-0.7,0.7
				l-1.1-0.4l-2.3-1.3l-1.6,0.2l-1.1-0.4l0.1-0.8l-3.1-1.9l-2-0.1l-1.9-0.3l-1.6,0.4l-0.5,1l-1.3-1.5l-2.1,2.3l-1.7,2l0.6,1.4
				l1.4,0.9l0.1,1.6l-1.1,1.2l-0.5,2.2l1.6-0.4l1.6,0.5l0.4-0.6l0.9,0.4l-0.3,1.6l0.3,0.7h-1.7l-0.6,0.6l-0.1,0.9l-1,0.1l0.2,0.8
				l0.4,1.2h1.9l0.5,2.1l0.3-1.1l1.5,0.2l0.4,1.6l1.2-0.5l1,0.4v0.8l1.1,0.3l0.9-6l2.7-2l1.2-0.3v-1.4h2.4v1.9l0.8,0.8l-0.5,0.6
				l0.8,1.4l0.4,1l1.5-0.4l1.4,0.2l1.3,0.6l0.1,1.8l0.4,1.1l1.7,0.8l0.7,0.5l1.4-1l3-1l0.4-0.7l-1-0.9l-1,0.2l-1-0.9l0.6-0.8
				l-0.2-0.8l0-0.3l0.9-0.7l1.1,1.1l0.5-0.9l1.5-0.4l0.9,0.8l2.7-0.4l1.6,0.1l1.5,1.1l0.4-0.6l0.1-1.7l1.3-0.6l1.5,0.4l0.5-2.7
				l0.6-0.6l1-0.2l0.3-0.9L304.3,89.6z"/>
			<polygon id="Afghanistan_1_" class="st1" points="290.2,108.2 287.6,108.1 287.6,108.1 286.3,107.6 285.6,106 285,105.9 
				284.4,107 282.5,107.4 281.8,107.8 280.8,107.4 279.2,107.3 278.5,107.8 277.6,107.9 277.2,108.5 276.4,109.1 276.2,110.1 
				274.9,110.4 273.8,111.4 274.1,113.2 273.8,116.2 275.3,116.2 275.7,117.6 275.1,118.5 275,119.6 276.4,120.3 276.9,119.2 
				280.5,118.9 281,117.6 282,116.9 283.4,116.1 284.4,116 284.8,114.5 285.6,114 286.2,112.7 286.6,111.2 286.6,111.2 286.9,109.9 
				288.1,109.5 288.1,109.5 288.9,109.7 289.9,110.2 		"/>
			<polygon id="Turkménistan_1_" class="st1" points="279.2,107.3 278.5,107.8 277.6,107.9 277.2,108.5 276.4,109.1 276.2,110.1 
				274.9,110.4 273.8,111.4 274.2,108.6 272.5,107.8 270.6,106.4 269.2,106.3 267,105.9 266.5,107 265.2,107.5 265,105.9 
				264.9,105.1 264.6,104.5 264.3,103.1 263.8,102.6 264.2,102 263.6,101.6 263.7,100.8 265,102 265.6,101 266.9,100.5 267.8,100.9 
				267.8,101.7 269,102 270.5,102.5 270.7,101.6 271.5,101.4 272.4,101 272.8,101.7 273.4,102.2 273.1,102.8 274,103 274.6,103 
				275.3,103.3 275,104.3 277.9,106.5 278.6,106.1 279.2,106.4 		"/>
			<polygon id="Kirghizistan_1_" class="st1" points="295.3,97.5 297.8,97.2 296.3,96.1 294.7,96 292,96.4 291.1,95.6 289.5,96 
				289,96.9 287.9,95.8 287,96.5 287.2,97.6 286.5,98.4 287.6,99.3 288.6,99.1 289.6,100 289.2,100.7 286.2,101.7 284.8,102.7 
				287.9,103.2 289.1,103 290.6,102 291.7,105 292.3,104.4 292.2,103.7 294.3,103.2 294.8,102.5 295.7,102.1 295.8,98.7 294.9,98.3 
						"/>
			<polygon id="Tadjikistan_1_" class="st1" points="284.8,102.7 284.1,104.1 283.1,105.4 281.8,107.8 282.5,107.4 284.4,107 
				285,105.9 285.6,106 286.3,107.6 287.6,108.1 287.6,108.1 290.2,108.2 290.2,107.2 290,107.3 288.7,106.5 289,104.6 289.9,103.9 
				291.7,105 290.6,102 289.1,103 287.9,103.2 		"/>
			<polygon id="Ouzbékistan_1_" class="st1" points="281.8,107.8 280.8,107.4 279.2,107.3 279.2,106.4 278.6,106.1 277.9,106.5 
				275,104.3 275.3,103.3 274.6,103 274,103 273.1,102.8 273.4,102.2 272.8,101.7 272.4,101 271.5,101.4 270.7,101.6 270.5,102.5 
				269,102 269.9,96 272.6,94 272.8,97 274.1,97 274.7,97.6 276.2,97.6 276.3,95.7 277.2,97.1 277.6,98.1 279.1,97.7 280.6,97.9 
				281.9,98.5 282,100.3 282.4,101.4 283.9,102.1 284.8,102.7 284.1,104.1 283.1,105.4 		"/>
			<polygon id="Moldavie_1_" class="st1" points="232.1,90.8 233.6,90.7 234.7,91.3 236.2,93.6 235.9,94.5 235.4,95.6 234.9,94.7 
				234.6,95.4 233.9,93.8 233.8,92.5 		"/>
			<polygon id="Biélorussie_1_" class="st1" points="228.4,84.2 237.1,83.2 238,81.9 238.6,80.1 239.1,79.6 238.8,75.3 235.4,74 
				234.5,74.6 233.3,74.2 232.8,75.8 232.5,75.6 231.6,77.2 232.3,78.1 230.6,78.7 230.3,79.7 228.8,79.5 227.4,80 227.6,81.1 
				227.6,82.8 228.3,82.8 		"/>
			<polygon id="Macédoine_1_" class="st1" points="227.8,100.7 227.7,98.9 226.1,99.5 225.4,100 225.4,100.1 225.7,101.3 
				226.7,101.6 		"/>
			<polygon id="Suisse_1_" class="st1" points="209.2,93.1 208.5,92.5 208.8,91.7 209.3,91 210.1,90.8 210.9,90.9 211.7,90.7 
				212.4,91.1 212.7,91.9 212.2,92.9 211.7,92.6 211.3,93.1 210.9,92.5 210.4,93 		"/>
			<polygon id="Belize_1_" class="st1" points="92.4,136.7 93.1,136.5 94.6,135.7 94.3,137.3 94.6,139 93.7,139.5 93,139.6 
				92.3,139.5 92.3,138.3 		"/>
			<polygon id="Hongrie_1_" class="st1" points="227.1,90.5 226.1,89.7 225.5,89.5 223.4,89.9 222,89.9 220.3,89.7 220.5,90.8 
				220,91.5 219.9,91.9 219.5,92.4 220,92.6 220,92.6 221.4,93.3 222.8,93.6 223.5,92.9 224.5,93 225.7,92.7 226.6,91.3 		"/>
			<polyline id="Autriche_1_" class="st1" points="212.7,91.9 212.4,91.1 212.9,91.2 213.4,91.3 214.9,90.6 216.1,89.9 216.4,89.5 
				216.5,88.3 217.4,89.1 218.3,89 218.6,88.3 219.7,88.4 219.5,89.2 220.3,89.7 220.5,90.8 220,91.5 219.9,91.9 219.5,92.4 
				218.3,92.9 216.3,92.5 215.6,91.7 214.5,92.2 213.2,92.2 212.7,91.9 		"/>
			<polygon id="Rep_tchèque_1_" class="st1" points="214.5,86.1 218,84.8 219.2,85.5 222.1,86.5 223.5,87.3 221.1,88.8 220.3,89.7 
				219.5,89.2 219.7,88.4 218.6,88.3 218.3,89 217.4,89.1 216.5,88.3 		"/>
			<polygon id="Slovaquie_1_" class="st1" points="223.5,87.3 227.5,87 227.1,90.5 226.1,89.7 225.5,89.5 223.4,89.9 222,89.9 
				220.3,89.7 221.1,88.8 		"/>
			<polygon id="Arménie_1_" class="st1" points="256.6,104.1 255.6,104.8 255.1,103.7 254.1,103.1 253.1,102.1 252,100.4 
				253.3,99.8 254.2,98.3 254.6,100.1 255.5,101.9 		"/>
			<polygon id="Mali_1_" class="st1" points="186,140.5 187.3,138.9 188.3,139.4 192.7,139.7 194.3,139.5 194.2,138 193.2,137.7 
				193.3,128.4 192.7,127.6 192.7,125.8 193.5,125.6 193.5,124.4 194.8,125.2 203.4,131.9 204.6,132.5 205,134.5 206,134.2 
				206.2,138.2 205.4,138.3 205.4,139.1 202.2,139.5 201.2,140.1 199.1,140 198.5,140.9 197.8,141.5 196.2,142 195.9,142.7 
				195.5,143.6 194.6,144.7 194.2,146.4 192.7,146.6 191.6,146.7 191.3,145.1 190.3,144.1 188.9,143.8 187.6,143.5 187,142.1 
				186.3,141.6 		"/>
			<polygon id="Rep_Centrafricaine_1_" class="st1" points="234.4,153.6 233.7,153.5 232.2,153.9 231.1,153.7 231,154.2 228.5,154.4 
				228.3,154.9 226.1,155.2 225.7,154.3 224.9,154 224.4,154.7 223.8,155 223.3,155.4 222.4,155.5 221.7,156.2 221.3,156.9 
				220.8,156.2 220.2,154.5 219.3,153.1 219.9,151.5 220.4,150.7 221.1,150.3 222.3,150.4 222.7,149.7 224,149.6 224.7,148.7 
				225.9,148.5 226.3,147.6 227.1,147.2 227.6,146.2 228.5,145.5 229,145.3 229.6,146.2 230.2,147.4 230.1,148.4 230.7,148.7 
				230.8,149.4 231.6,149.2 231.9,150.3 233.1,150.6 233.3,151.9 234,152.2 234.3,152.6 234.5,153 		"/>
			<polygon id="Botswana_1_" class="st1" points="229.4,185.1 232.6,185.4 233.1,187.2 233.2,188.1 233.9,188.4 234.2,189.4 
				235,189.5 235.3,190.8 235.9,190.9 237.1,191.4 236.8,192.2 236,192.7 235.3,193.5 234.4,193.9 234,195.1 233.2,195.3 
				232.8,196.1 232,196.8 230.8,196.8 230,196.3 229.3,196.3 228.8,197 228.6,197.8 227.9,198.2 226.2,197.8 225.9,196.6 225.4,196 
				225.3,191.7 226,191.4 226.6,191 226.7,186.7 227.3,185.5 228.7,185 		"/>
			<polygon id="Malawi_1_" class="st1" points="241.6,180.1 241.7,177.9 242.4,177.3 242.1,175.9 242.2,174.2 242.9,174.5 243.8,175 
				244,176.3 243.8,177.3 243.6,178.2 244.1,178.8 244.5,179.2 245,180 245.3,180.8 245.5,181.9 244.7,182.5 244.4,183.4 
				243.5,183.5 243,182.9 243.4,181.7 243.4,180.8 242.5,180.5 		"/>
			<polygon id="Zimbabwe_1_" class="st1" points="238.2,181.8 237.7,182.5 236.6,182.6 236.5,183.5 236,183.8 235.4,183.9 
				235.2,184.8 234.5,185.1 233.4,185.1 232.6,185.4 233.1,187.2 233.2,188.1 233.9,188.4 234.2,189.4 235,189.5 235.3,190.8 
				235.9,190.9 237.1,191.4 237.9,191.8 238.3,192.2 239.6,192.2 239.9,191.3 240.6,190.8 240.5,189.2 241.3,188.7 241.8,188.1 
				241.3,187 241.2,186.1 241.7,184.4 241,183.2 239.3,182.9 238.7,182 		"/>
			<polyline id="RD_Congo_1_" class="st1" points="216.5,167.9 216,168.2 215.9,168.7 216.5,168.9 218.3,169 219.6,168.5 
				221.9,168.8 222.4,170.8 222.9,171 223,171.8 225.2,171.7 225.3,170.4 225.9,169.9 226.6,171.4 227.1,171 227.9,170.9 
				228.4,171.6 228.5,174.3 228.5,175.3 229.3,175.9 230.7,175.9 232,176.1 232.4,177.3 233,177.6 233.4,176.8 234.4,176.6 
				234.5,177.1 235.5,177.6 235.8,178.9 236.3,179.5 237.6,179.5 238,178.7 237.7,177.2 236.9,177.1 236.4,176.6 236.7,173 
				237.2,172.1 238.1,171.7 238.3,171 238.4,170.3 238.3,169.5 238.1,168.7 237.9,168.1 238,166.9 237.6,166.1 237.2,165.7 
				237.4,164.4 236.6,164.5 236.6,163.7 237,163.3 236.9,162.5 237.6,162.2 238,159.2 239.3,158.8 240,158.4 240.1,157.7 
				239.3,157.6 239.3,157 239,155.5 238.9,155.3 238.1,155.1 237.7,154.5 234.8,154.3 234.4,153.6 233.7,153.5 232.2,153.9 
				231.1,153.7 231,154.2 228.5,154.4 228.3,154.9 226.1,155.2 225.7,154.3 224.9,154 224.4,154.7 223.8,155 223.3,155.4 
				224.1,155.6 223.8,157.2 223.4,157.5 223.3,161.3 223,161.8 222.5,162.4 222.3,164 221.4,164.1 221.3,166 219.9,166.6 219.6,167 
				218.6,167 218,166.6 217.2,167 216.6,167.3 216,167.5 216.3,167.9 		"/>
			<polygon id="Rwanda_1_" class="st1" points="237.6,162.2 236.9,162.5 237,163.3 236.6,163.7 236.6,164.5 237.4,164.4 238.4,164.4 
				238.8,163.8 238.6,162.5 		"/>
			<polygon id="Burkina-Faso_1_" class="st1" points="204,143.6 203.7,144.8 202.3,145.2 201.3,146.5 200.7,146.6 199.7,146.4 
				198.8,145.9 198,145.9 197.4,147 195,146.9 194.2,146.4 194.6,144.7 195.5,143.6 195.9,142.7 196.2,142 197.8,141.5 198.5,140.9 
				199.1,140 201.2,140.1 201.6,140.8 202.4,141.3 202.5,142.5 203.3,142.6 		"/>
			<polygon id="Burundi_1_" class="st1" points="238.3,165.9 239.3,165.8 239.1,164.4 238.8,163.8 238.4,164.4 237.4,164.4 
				237.2,165.7 237.6,166.1 		"/>
			<polygon id="Ouganda_1_" class="st1" points="242.9,155.1 243.6,156.3 243.6,158.6 242.9,160 242.7,161.4 243,162.1 240.5,162.2 
				239.2,162.1 238.6,162.5 237.6,162.2 238,159.2 239.3,158.8 240,158.4 240.1,157.7 239.3,157.6 239.3,157 239,155.5 240.3,155.5 
				241.5,155.6 		"/>
			<polygon id="Zambie_1_" class="st1" points="232.6,185.4 233.4,185.1 234.5,185.1 235.2,184.8 235.4,183.9 236,183.8 236.5,183.5 
				236.6,182.6 237.7,182.5 238.2,181.8 240.2,181.4 240.5,180.6 241.6,180.1 241.7,177.9 242.4,177.3 242.1,175.9 242.2,174.2 
				241.4,173.1 240.3,172.5 239.5,171.6 239.3,170.9 238.3,171 238.1,171.7 237.2,172.1 236.7,173 236.4,176.6 236.9,177.1 
				237.7,177.2 238,178.7 237.6,179.5 236.3,179.5 235.8,178.9 235.5,177.6 234.5,177.1 234.4,176.6 233.4,176.8 233,177.6 
				232.4,177.3 232,176.1 230.7,175.9 230.5,178.8 229.4,178.8 229,178 228.5,178.1 228.5,178.8 227.6,178.9 227.6,182.1 
				227.7,183.2 228.7,184.4 228.7,185 229.4,185.1 		"/>
			<polygon id="Tchad_1_" class="st1" points="219.4,129 219.6,129.7 219.8,130.2 220.4,131.5 219.9,138.1 219.1,138.3 218.6,139.1 
				217.8,139.6 217.3,140.3 217.3,141.5 217.9,141.5 218.1,142.2 218.5,142.9 219,144.1 219,144.7 218.5,145 218.8,145.2 219,146 
				219.5,146.6 219.4,147.2 218.8,147.6 218.9,148.3 219.8,149.4 220.4,150.7 221.1,150.3 222.3,150.4 222.7,149.7 224,149.6 
				224.7,148.7 225.9,148.5 226.3,147.6 227.1,147.2 227.6,146.2 228.5,145.5 229,145.3 229.3,144.9 229.3,144.3 228.7,144 
				228.5,143.1 227.6,142.7 227.7,141.9 228.6,141.9 228.9,140.6 229.7,139.3 230.5,139 230.6,135.4 229.7,135.3 227.7,133.8 
				226.8,133.3 225,132.4 224.3,131.3 222.2,131 221.7,129.9 220.7,129.6 220.6,129.1 		"/>
			<polygon id="Niger_1_" class="st1" points="205.5,143.5 205.9,142.8 206.4,141.9 207.5,141.6 208.6,141.8 209.1,142.6 
				209.2,142.1 210.8,141.9 211.7,141.8 212.4,142.5 213.4,142.6 213.6,141.9 215.3,142 215.9,142.7 216.5,142 217.3,141.5 
				217.3,140.3 217.8,139.6 218.6,139.1 219.1,138.3 219.9,138.1 220.4,131.5 219.8,130.2 219.6,129.7 219.4,129 218.6,128.7 
				217.1,128.5 217,128 215.4,128 215,128.5 213.7,129 212.6,129.8 212.1,130.7 210,131.3 209.8,132.1 209.1,132.5 208.2,133.5 
				206.2,133.6 206,134.2 206.2,138.2 205.4,138.3 205.4,139.1 202.2,139.5 201.2,140.1 201.6,140.8 202.4,141.3 202.5,142.5 
				203.3,142.6 204,143.6 205.2,143.4 		"/>
			<polygon id="Lesotho_1_" class="st1" points="234.6,201.1 234.3,201.8 233.5,201.9 233.6,203.8 234.6,203.7 234.9,204 235.4,204 
				235.9,203.5 236.1,202.8 236.6,202.8 236.6,201 235.5,200.9 		"/>
			<polygon id="Swaziland_1_" class="st1" points="240.3,198.9 240.1,197.9 239.6,197 238.6,197.4 238.4,198.2 238.6,198.8 
				239.1,199 239.9,199.2 		"/>
			<polygon id="Ethiopie_1_" class="st1" points="258,149 256.5,149.1 254.5,147.2 253.5,146.3 252.1,146.1 252.3,144.4 251.7,144 
				251.2,142.7 250.8,141.7 248.7,140.1 247.4,140 246.9,139.7 246.6,140.2 245.9,139.9 246.1,143.2 244.5,143.4 244.3,146.2 
				243.3,146.3 243,149 241.7,149.1 242.4,150.3 243,150.5 243.1,151.4 243.7,151.9 244.1,152.2 244.7,153.1 244.6,153.9 
				245.9,154.2 247,155 247.2,155.8 249.9,155.6 249.9,155.1 251.6,155 252,155.5 252.5,155.8 253.5,154.6 254.8,154.6 256.4,154.2 
				257.7,152.9 257.9,151.2 259.2,150.2 		"/>
			<g id="Groenland_1_">
				<polygon class="st1" points="143,50.4 142.2,51.9 143.7,51.9 145.2,51.3 			"/>
				<polygon class="st1" points="140.1,24 139,25.5 135.3,26.3 135.1,28.8 132.3,29.7 129.8,31.5 127.2,32.4 127.4,33.2 131.9,33 
					132.8,34.3 130.8,34.7 128.9,34.9 131.9,37 139.4,37 141.4,39.1 142.7,42.4 143.3,45.8 143.5,47.2 145.2,46.4 146,48.3 143.8,49 
					146.7,50.2 146.3,52.7 143.9,53.9 143.3,55.8 144.4,59.6 145.9,63.6 147.8,67.3 150,67.8 151,69.4 153,69 155.1,63.8 156.6,61.9 
					156.8,59.2 160.5,58.3 164.4,57.5 166.3,53.7 171,54.1 175.1,51.4 177,49.3 174.9,48.7 172.3,48.3 172.7,46.8 174.2,46.4 
					176,47.7 177.7,48.5 178.5,47.2 177.5,45.1 175.1,44.3 175.3,42.8 177,42.8 177.7,43.5 178.3,42.4 180.1,42 179.4,41 180.9,41 
					182.2,39.7 182.6,38.4 180.7,37.6 180.5,36.1 181.3,35.1 182.4,34.9 182.2,33 178.5,32.6 179.4,30.5 181.3,29.2 182.4,28.4 
					180.3,27.4 181.8,26.7 183.1,26.5 186.1,25.7 188.9,23.8 183.5,23.4 180.7,24.2 176.8,26.1 178.8,22.8 174.5,24.2 174.7,22.3 
					167.6,23 171.7,21.7 176.8,20.9 178.5,20.4 175.1,19.2 167.6,20.2 171.7,18.6 162.6,18.8 160.1,21.1 156.4,19.8 156.4,21.5 
					155.8,23.4 154.5,21.9 153.2,21.9 151.5,21.9 151.5,24 149.5,24 149.3,22.3 147.4,22.1 147.8,23.2 144.4,21.9 142.9,22.8 
					141.6,22.8 			"/>
			</g>
			<polygon id="Bolivie_1_" class="st1" points="130.4,189.2 131,189 131.5,188.3 131.6,186.7 131.2,186.4 131,185.4 130.3,185.3 
				130.2,184.4 128.5,184.4 128.1,184 127.8,183.9 127.7,182.2 128.3,181.7 127.7,181.6 127.5,180.4 126.8,180.3 125.6,180.1 
				125.4,179.4 124.6,179.2 124.4,178.9 122.4,178.8 122.2,178.5 121.7,177.5 121.5,175.1 119.9,174.9 119.8,175.8 119.1,175.7 
				118.8,176.3 118.4,176.6 117.6,177 116.7,176.9 117.6,178.3 117.5,179.5 116.9,180 117,181.7 116.7,183.8 117.2,184.5 
				116.7,184.6 116.4,185.6 117.1,186.3 117.2,187.5 118.4,188.6 118.4,191.2 119.3,192.9 120.2,193.4 120.9,191.8 122.1,192.8 
				123.6,193.3 125.1,192.1 125.6,190 126,189 127.4,188.5 128.3,187.7 129.9,188.3 		"/>
			<polygon id="Azerbaidjan_1_" class="st1" points="254.2,98.3 254.6,100.1 255.5,101.9 256.6,104.1 255.6,104.8 257.3,104.8 
				257.6,103.7 258.3,103.3 258.8,104.9 259.5,104.3 259.7,103.1 260.6,102.8 260.4,102 259.1,101.2 257.9,100 256.6,97.6 		"/>
		</g>
	</g>
	<g id="scene-equateur">
		<g class="st2">
			<g>
				<line class="st3" x1="0" y1="162.8" x2="1" y2="162.8"/>
				<line class="st4" x1="3" y1="162.8" x2="432.8" y2="162.8"/>
				<line class="st3" x1="433.8" y1="162.8" x2="434.8" y2="162.8"/>
			</g>
		</g>
		<g>
			<g>
				<line class="st5" x1="151.8" y1="144.8" x2="171.5" y2="144.8"/>
				<g>
					<polygon class="st6" points="140.5,144.8 156.4,151.3 152.7,144.8 156.4,138.3 				"/>
				</g>
			</g>
		</g>
		<g>
			<g>
				<line class="st5" x1="181.6" y1="176.6" x2="201.2" y2="176.6"/>
				<g>
					<polygon class="st6" points="170.3,176.6 186.2,183.1 182.4,176.6 186.2,170.1 				"/>
				</g>
			</g>
		</g>
		<g>
			<g>
				<line class="st5" x1="386.9" y1="148.2" x2="406.5" y2="148.2"/>
				<g>
					<polygon class="st6" points="375.6,148.2 391.5,154.7 387.7,148.2 391.5,141.7 				"/>
				</g>
			</g>
		</g>
		<g>
			<g>
				<line class="st5" x1="38" y1="146.2" x2="57.7" y2="146.2"/>
				<g>
					<polygon class="st6" points="26.7,146.2 42.6,152.7 38.8,146.2 42.6,139.7 				"/>
				</g>
			</g>
		</g>
	</g>
	<g id="fleche-zoom-1_1_">
		<g>
			<g>
				<line class="st7" x1="179.7" y1="198.1" x2="234" y2="198.1"/>
				<g>
					<polygon class="st6" points="159.9,198.1 187.8,209.5 181.2,198.1 187.8,186.7 				"/>
				</g>
			</g>
		</g>
		<circle class="st8" cx="215.6" cy="222" r="8"/>
		<g>
			<path class="st6" d="M216.8,226.1h-1.7v-6.5l-2,0.6v-1.4l3.5-1.3h0.2V226.1z"/>
		</g>
	</g>
	<g id="fleche-zoom-2">
		<g>
			<g>
				<path class="st9" d="M148,198.5c0,0-46.6,11.8-71.9-19.3c-5.6-6.3-8.6-16.9-1.5-21.1c7.9-4.6,11.6,0.6,14.7,9.7
					c2.3,6.9,11.7,11.8,20-8c1.4-3.9,2.6-8.9,4-13.1"/>
				<g>
					<polygon class="st8" points="116.1,140.3 116.1,151 113.3,147.3 108.6,147.9 				"/>
				</g>
			</g>
		</g>
		<circle class="st8" cx="176.2" cy="59.4" r="8"/>
		<g>
			<path class="st6" d="M179.2,63.5h-5.8v-1.2l2.8-2.9c0.4-0.4,0.7-0.8,0.8-1.1s0.3-0.6,0.3-0.9c0-0.4-0.1-0.7-0.3-0.9
				s-0.5-0.3-0.8-0.3c-0.4,0-0.7,0.1-0.9,0.4s-0.3,0.6-0.3,1h-1.7c0-0.5,0.1-1,0.4-1.4s0.6-0.8,1.1-1s1-0.4,1.5-0.4
				c0.9,0,1.6,0.2,2,0.6s0.7,1,0.7,1.8c0,0.4-0.1,0.9-0.3,1.3s-0.6,0.9-1.1,1.5l-1.9,2h3.7V63.5z"/>
		</g>
		<g>
			<g>
				<path class="st9" d="M274.9,39.5c6.2,14.6,9.2,69.5-13,131l-9.1,19.3"/>
				<g>
					<polygon class="st8" points="249.9,196.2 250.4,185.5 253.1,189.4 257.8,189 				"/>
				</g>
			</g>
		</g>
		<g>
			<g>
				<path class="st9" d="M119.6,133.8c14.4-17.2,41.6-18.6,58.7-31.8c17.1-13.2,24.5-43.6,34-55.2c0,0,10.4-12.9,44-14.7"/>
				<g>
					<polygon class="st8" points="263.3,32 253.5,36.4 255.8,32.2 253.3,28.3 				"/>
				</g>
			</g>
		</g>
	</g>
	<g id="fleche-zoom-3">
		<path class="st10" d="M186.8,120.2c-7.2-3.1-29,1.2-35.6,18s-15.6,39.3,9.8,41.2c25.3,1.9,31.8,4.8,52.2-3.9s25.9-6.7,32.4-39.1
			c6.5-32.4,25.9-62.1,4.3-72.4s-34.3,2-42.3,14.2s-4.3,24.8-7.1,34.6C197.7,122.5,190.6,121.8,186.8,120.2z"/>
		<circle class="st8" cx="212.6" cy="135.9" r="8"/>
		<g>
			<path class="st6" d="M211.5,135h0.9c0.4,0,0.7-0.1,1-0.3s0.3-0.5,0.3-0.9c0-0.3-0.1-0.6-0.3-0.8s-0.5-0.3-0.8-0.3
				c-0.3,0-0.6,0.1-0.8,0.3s-0.3,0.4-0.3,0.7h-1.7c0-0.4,0.1-0.8,0.4-1.2s0.6-0.6,1-0.8s0.9-0.3,1.4-0.3c0.9,0,1.6,0.2,2.1,0.6
				s0.8,1,0.8,1.8c0,0.4-0.1,0.8-0.4,1.1s-0.6,0.6-0.9,0.8c0.5,0.2,0.8,0.4,1.1,0.8s0.4,0.8,0.4,1.2c0,0.8-0.3,1.4-0.8,1.8
				s-1.3,0.7-2.2,0.7c-0.9,0-1.5-0.2-2.1-0.7s-0.8-1-0.8-1.8h1.7c0,0.3,0.1,0.6,0.4,0.8s0.5,0.3,0.9,0.3c0.4,0,0.7-0.1,0.9-0.3
				s0.3-0.5,0.3-0.8c0-0.9-0.5-1.3-1.4-1.3h-0.9V135z"/>
		</g>
	</g>
	<g id="fleche-zoom-4">
	</g>
	<g id="fleche-zoom-5">
	</g>
	<g id="gyre1">
		<g>
			<g>
				<g>
					<line class="st5" x1="151.8" y1="144.8" x2="171.5" y2="144.8"/>
					<g>
						<polygon class="st6" points="140.5,144.8 156.4,151.3 152.7,144.8 156.4,138.3 					"/>
					</g>
				</g>
			</g>
			<g>
				<g>
					<path class="st9" d="M132.9,143.2c0,0-25.8,0.8-36.4-12.3c-2.3-2.6-3.6-7.1-0.6-8.8c3.3-1.9,4.9,0.2,6.1,4.1
						c1,2.9,4.9,4.9,8.4-3.3c0.5-1.5,1-3.3,1.5-4.9"/>
					<g>
						<polygon class="st8" points="113.2,114.7 113.3,120 111.8,118.2 109.5,118.5 					"/>
					</g>
				</g>
			</g>
			<g>
				<g>
					<path class="st9" d="M114.7,112c6-7.2,17.4-7.8,24.5-13.3c7.2-5.5,10.3-18.2,14.2-23.1c0,0,4.2-5.2,17.8-6.1"/>
					<g>
						<polygon class="st8" points="174.8,69.4 169.9,71.7 171,69.6 169.7,67.6 					"/>
					</g>
				</g>
			</g>
			<g>
				<g>
					<path class="st9" d="M179.6,72.5c2.6,6.1,3.9,29.1-5.4,54.8l-3.5,7.6"/>
					<g>
						<polygon class="st8" points="169.1,138.1 169.4,132.7 170.8,134.6 173.1,134.4 					"/>
					</g>
				</g>
			</g>
			<path class="st10" d="M142.8,106.3c-3-1.3-12.1,0.5-14.9,7.5c-2.7,7-6.5,16.4,4.1,17.2c10.6,0.8,13.3,2,21.8-1.6
				c8.5-3.7,10.8-2.8,13.6-16.3s10.8-26,1.8-30.3c-9-4.3-14.3,0.8-17.7,5.9c-3.4,5.1-1.8,10.4-3,14.5
				C147.3,107.2,144.4,107,142.8,106.3z"/>
		</g>
	</g>
	<g id="gyre2">
		<g>
			<g>
				<path class="st9" d="M154,156.3c1.1,4.3,15.2,18.2,7.4,30.9c-5.3,8.6-22.5,18.8-23.1,36.4c-0.5,8.1,4.8,10.9,8.5,11.8"/>
				<g>
					<polygon class="st8" points="150.3,235.9 145,237.1 146.5,235.3 145.7,233.1 				"/>
				</g>
			</g>
		</g>
		<g>
			<g>
				<path class="st9" d="M159.7,235.9c4.6-4.9,9.8-24.1,38.5-25.9"/>
				<g>
					<polygon class="st8" points="201.7,209.8 196.9,212.1 197.9,210.1 196.6,208.1 				"/>
				</g>
			</g>
		</g>
		<path class="st10" d="M173.3,179.5c2.1-7.2,14.6-17.6,22.6-8.6c8,9,9,11.6,4.9,18.7c-4.1,7.1-7.4,15.2-14.2,16.3
			c-6.8,1-24.2,12.8-28.5,3.4s-1.4-13.9,5.5-16.7S173.3,179.5,173.3,179.5z"/>
		<g>
			<g>
				<path class="st9" d="M207.7,201.4c0.7-4.3,6.7-19.5,2.9-29.9c-2.8-7.6-6.1-8.7-9.5-8.7"/>
				<g>
					<polygon class="st8" points="197.6,163 202.5,160.8 201.4,162.9 202.6,164.9 				"/>
				</g>
			</g>
		</g>
	</g>
	<g id="gyre3">
		<g>
			<g>
				<path class="st9" d="M276.4,157.7c-9.5,3.6-15.9,12.5-20.5,20.4c-4.6,7.9-10.5,22.5-9,29c0.8,3.5,1.7,5.8,2.4,7.3"/>
				<g>
					<polygon class="st8" points="251.5,217.1 246.9,214.4 249.2,214.1 250.1,211.9 				"/>
				</g>
			</g>
		</g>
		<g>
			<g>
				<path class="st9" d="M256.5,221.1c27.4,2.4,23.1-5,59.2-4.1"/>
				<g>
					<polygon class="st8" points="319.3,217.1 314.3,219.1 315.5,217.1 314.3,215 				"/>
				</g>
			</g>
		</g>
		<g>
			<g>
				<path class="st9" d="M324.3,209.8c2.5-9.7,7.7-52.4-30.5-53.6"/>
				<g>
					<polygon class="st8" points="290.2,156.3 295.2,154.2 294,156.3 295.2,158.3 				"/>
				</g>
			</g>
		</g>
		<path class="st10" d="M284,169.4c-10.4,2.7-13.6,1.6-15,9.4c-1.4,7.9-2.2,15.9,2.5,22.1c4.7,6.2,3.5,12.4,20.1,7.9
			c16.6-4.5,21.1-7.3,22.8-16.3c1.7-9,0.6-15.2-10-19.7C293.8,168.4,284,169.4,284,169.4z"/>
	</g>
	<g id="gyre4">
		<g>
			<g>
				<path class="st9" d="M14.6,229.4c21.9,2.8,30.7,5.9,72.1,3.7"/>
				<g>
					<polygon class="st8" points="90.2,232.9 85.3,235.2 86.4,233.1 85.1,231.1 				"/>
				</g>
			</g>
		</g>
		<g>
			<g>
				<path class="st9" d="M98.2,226.9c5.8-19.3,12.3-22.1,6.9-34.7c-4.9-11.4-11.8-13.6-14.3-24.7"/>
				<g>
					<polygon class="st8" points="90.2,164 93.1,168.5 90.9,167.7 89.1,169.3 				"/>
				</g>
			</g>
		</g>
		<path class="st10" d="M37.2,179.3c-12.1,7-11.2,8.5-13.7,17.7c-2.5,9.2,2,16.2,8.5,19.4c6.5,3.2,20.8,6.3,29.3,1.6
			s16.5-15.1,14.5-25.6c-2-10.5-9.8-17.4-18.1-18.8C49.3,172.1,37.2,179.3,37.2,179.3z"/>
	</g>
	<g id="gyre5">
		<g>
			<g>
				<path class="st9" d="M372.8,142.4c-4-12.9,0.2-63.2,40.6-64.8"/>
				<g>
					<polygon class="st8" points="416.9,77.5 412,79.6 413.1,77.6 411.9,75.6 				"/>
				</g>
			</g>
		</g>
		<g>
			<g>
				<path class="st9" d="M6.7,92.4c0,0,52.9-22.1,43.3,37.1"/>
				<g>
					<polygon class="st8" points="49.4,133 48.2,127.8 50,129.3 52.2,128.4 				"/>
				</g>
			</g>
		</g>
		<path class="st10" d="M17.7,101.8C8.3,105-1,122,8.5,131.6s12.9,10.7,18.2,10.3c5.3-0.4,15-5.5,15.5-11c0.5-5.5,3.6-13,0-18.8
			C38.6,106.2,27.6,98.4,17.7,101.8z"/>
	</g>
	<g id="gradient">
		<linearGradient id="SVGID_1_" gradientUnits="userSpaceOnUse" x1="0" y1="127.8658" x2="47.7285" y2="127.8658">
			<stop  offset="0" style="stop-color:#2A5D56"/>
			<stop  offset="1" style="stop-color:#2A5D56;stop-opacity:0"/>
		</linearGradient>
		<rect class="st11" width="47.7" height="255.7"/>
		
			<linearGradient id="SVGID_2_" gradientUnits="userSpaceOnUse" x1="93.154" y1="184.2046" x2="140.8826" y2="184.2046" gradientTransform="matrix(-1 0 0 -1 527.7285 312.0703)">
			<stop  offset="0" style="stop-color:#2A5D56"/>
			<stop  offset="1" style="stop-color:#2A5D56;stop-opacity:0"/>
		</linearGradient>
		<polygon class="st12" points="386.8,0 434.6,0 434.6,255.7 386.8,255.7 	"/>
	</g>
</svg>
