<?xml version="1.0" encoding="utf-8"?>
<!-- Generator: Adobe Illustrator 22.0.0, SVG Export Plug-In . SVG Version: 6.00 Build 0)  -->
<svg version="1.1" xmlns="http://www.w3.org/2000/svg" xmlns:xlink="http://www.w3.org/1999/xlink" x="0px" y="0px"
	 viewBox="0 0 1093.4 1093.4" style="enable-background:new 0 0 1093.4 1093.4;" xml:space="preserve">
<style type="text/css">
	.st0{fill:#004DE6;}
	.st1{clip-path:url(#SVGID_2_);}
	.st2{fill:#090033;}
	.st3{fill:none;stroke:#00CC88;stroke-width:2.6757;stroke-miterlimit:10;}
	.st4{clip-path:url(#SVGID_4_);}
	.st5{fill:#00CC88;}
	.st6{fill:#FFFFFF;}
	.st7{fill:none;}
	.st8{fill:#FF5B00;}
	.st9{fill:none;stroke:#FFFFFF;stroke-width:2.3025;stroke-miterlimit:10;}
	.st10{fill:none;stroke:#FFD500;stroke-width:16.1174;stroke-linecap:round;stroke-miterlimit:10;}
	.st11{fill:none;stroke:#00CC88;stroke-width:2.3025;stroke-miterlimit:10;}
	.st12{fill:#FFD500;}
	.st13{fill:none;stroke:#090033;stroke-width:2.3025;stroke-miterlimit:10;}
	.st14{fill:none;stroke:#FFD500;stroke-width:2.3025;stroke-miterlimit:10;}
	.st15{fill:none;stroke:#004DE6;stroke-width:2.3025;stroke-miterlimit:10;}
	.st16{fill:none;stroke:#090033;stroke-width:2.7106;stroke-miterlimit:10;}
	.st17{fill:none;stroke:#00CC88;stroke-width:2.7106;stroke-miterlimit:10;}
	.st18{clip-path:url(#SVGID_6_);}
	.st19{clip-path:url(#SVGID_8_);fill:none;stroke:#00CC88;stroke-width:2.6757;stroke-miterlimit:10;}
	
		.st20{fill:none;stroke:#004DE6;stroke-width:11.5125;stroke-linecap:round;stroke-linejoin:round;stroke-miterlimit:10;stroke-dasharray:0,29.9324;}
	.st21{fill:#FFFFFF;stroke:#090033;stroke-width:2.3025;stroke-miterlimit:10;}
	.st22{clip-path:url(#SVGID_10_);}
	.st23{fill:none;stroke:#FFD500;stroke-width:11.5125;stroke-miterlimit:10;stroke-dasharray:2.3025,6.9075;}
	.st24{clip-path:url(#SVGID_12_);}
	.st25{fill:none;stroke:#090033;stroke-width:29.9324;stroke-miterlimit:10;stroke-dasharray:2.1874,6.9075;}
	.st26{fill:none;stroke:#090033;stroke-width:16.1174;stroke-linecap:round;stroke-miterlimit:10;}
	.st27{fill:#090033;stroke:#090033;stroke-width:2;stroke-miterlimit:10;}
</style>
<g id="hand">
	<g>
		<path class="st0" d="M879.6,521.6l-4-283.8h0C804.7,238.8,748,297.1,749,368l0.3,21.3L460.1,100c-23.2-23.2-60.9-23.2-84.1,0l0,0
			c-23.2,23.2-23.2,60.9,0,84.1l193,193l-11.2,11.5L314.3,145.3c-23.2-23.2-60.9-23.2-84.1,0l0,0c-23.2,23.2-23.2,60.9,0,84.1
			L474.7,474l-11.2,11.5L260.9,283c-23.2-23.2-60.9-23.2-84.1,0v0c-23.2,23.2-23.2,60.9,0,84.1l203.7,203.7l-11.2,11.5L241.7,454.8
			c-23.2-23.2-60.9-23.2-84.1,0v0c-23.2,23.2-23.2,60.9,0,84.1l128.7,128.7l-1.1,1.1l353,353l365.6-375.8L879.6,521.6z"/>
	</g>
	<g>
		<defs>
			<path id="SVGID_1_" d="M879.6,521.6l-4-283.8h0C804.7,238.8,748,297.1,749,368l0.3,21.3L460.1,100c-23.2-23.2-60.9-23.2-84.1,0
				l0,0c-23.2,23.2-23.2,60.9,0,84.1l193,193l-11.2,11.5L314.3,145.3c-23.2-23.2-60.9-23.2-84.1,0l0,0c-23.2,23.2-23.2,60.9,0,84.1
				L474.7,474l-11.2,11.5L260.9,283c-23.2-23.2-60.9-23.2-84.1,0v0c-23.2,23.2-23.2,60.9,0,84.1l203.7,203.7l-11.2,11.5L241.7,454.8
				c-23.2-23.2-60.9-23.2-84.1,0v0c-23.2,23.2-23.2,60.9,0,84.1l128.7,128.7l-1.1,1.1l353,353l365.6-375.8L879.6,521.6z"/>
		</defs>
		<clipPath id="SVGID_2_">
			<use xlink:href="#SVGID_1_"  style="overflow:visible;"/>
		</clipPath>
		<g id="ombre" class="st1">
			
				<ellipse transform="matrix(0.7071 -0.7071 0.7071 0.7071 -257.939 602.6391)" class="st2" cx="598.5" cy="612.7" rx="274.2" ry="274.2"/>
		</g>
	</g>
</g>
<g id="plate">
	<path class="st3" d="M544.8,865.3L544.8,865.3c-159.7,0-289.2-129.5-289.2-289.2v-58.1c0-159.7,129.5-289.2,289.2-289.2h0
		c159.7,0,289.2,129.5,289.2,289.2v58.1C834,735.8,704.5,865.3,544.8,865.3z"/>
	<g id="vert">
		<defs>
			<path id="SVGID_3_" d="M544.8,865.3L544.8,865.3c-159.7,0-289.2-129.5-289.2-289.2v-58.1c0-159.7,129.5-289.2,289.2-289.2h0
				c159.7,0,289.2,129.5,289.2,289.2v58.1C834,735.8,704.5,865.3,544.8,865.3z"/>
		</defs>
		<clipPath id="SVGID_4_">
			<use xlink:href="#SVGID_3_"  style="overflow:visible;"/>
		</clipPath>
		<g class="st4">
			<polygon class="st5" points="557.9,1042.3 217,701.5 571.1,337.6 911.9,678.4 			"/>
		</g>
		<g class="st4">
			<path class="st5" d="M466,763.2L466,763.2c-23.2,23.2-60.9,23.2-84.1,0L126.1,507.4c-23.2-23.2-23.2-60.9,0-84.1l0,0
				c23.2-23.2,60.9-23.2,84.1,0L466,679.1C489.3,702.3,489.3,740,466,763.2z"/>
		</g>
		<g class="st4">
			<path class="st5" d="M572.1,678.3L572.1,678.3c-23.2,23.2-60.9,23.2-84.1,0L176.8,367.1c-23.2-23.2-23.2-60.9,0-84.1l0,0
				c23.2-23.2,60.9-23.2,84.1,0l311.2,311.2C595.3,617.4,595.3,655,572.1,678.3z"/>
		</g>
		<g class="st4">
			<path class="st5" d="M771.3,495.3L771.3,495.3c-23.2,23.2-60.9,23.2-84.1,0L375.9,184.2c-23.2-23.2-23.2-60.9,0-84.1l0,0
				c23.2-23.2,60.9-23.2,84.1,0l311.2,311.2C794.5,434.4,794.5,472.1,771.3,495.3z"/>
		</g>
		<g class="st4">
			<path class="st5" d="M880.8,609.6l-128.4,1.8L749,368c-1-70.9,55.7-129.2,126.5-130.2h0L880.8,609.6z"/>
		</g>
		<g class="st4">
			<path class="st5" d="M671.7,586.8L671.7,586.8c-23.2,23.2-60.9,23.2-84.1,0L230.2,229.5c-23.2-23.2-23.2-60.9,0-84.1l0,0
				c23.2-23.2,60.9-23.2,84.1,0l357.3,357.3C694.9,525.9,694.9,563.6,671.7,586.8z"/>
		</g>
	</g>
	
		<ellipse transform="matrix(0.7071 -0.7071 0.7071 0.7071 -227.2218 545.4434)" class="st6" cx="544.8" cy="547" rx="289.2" ry="289.2"/>
	
		<ellipse transform="matrix(0.7071 -0.7071 0.7071 0.7071 -227.2218 545.4434)" class="st3" cx="544.8" cy="547" rx="289.2" ry="289.2"/>
	<g>
		
			<ellipse transform="matrix(0.7071 -0.7071 0.7071 0.7071 -218.24 544.5812)" class="st7" cx="548.2" cy="535.7" rx="289.9" ry="289.9"/>
	</g>
</g>
<g id="mrsa-numbers-2018">
	<path class="st8" d="M253.4,1007.2v5h-26.5v-5h10.8V961c-0.4,0.6-1.1,1.3-2.1,2.1c-1,0.8-2.1,1.5-3.3,2.2c-1.2,0.7-2.5,1.3-3.8,1.8
		c-1.3,0.5-2.5,0.7-3.5,0.7v-5.1c1.4,0,2.9-0.4,4.4-1.2c1.5-0.8,2.8-1.7,4.1-2.6c1.3-1,2.3-1.9,3-2.7c0.7-0.8,1.1-1.3,1.2-1.3h5.5
		v52.2H253.4z"/>
	<path class="st8" d="M299.9,996.2c0,3.3-0.9,6.2-2.8,8.6c-1.8,2.4-4.3,4.3-7.3,5.7c-3,1.4-6.3,2-9.9,2c-3.8,0-7.1-0.8-10.1-2.3
		c-2.9-1.5-5.2-3.5-6.9-6c-1.7-2.5-2.5-5.3-2.5-8.4c0-2.4,0.6-4.6,1.7-6.5c1.1-1.9,2.6-3.6,4.3-4.9c1.7-1.3,3.5-2.3,5.3-2.9
		c-1.7-0.7-3.2-1.6-4.6-2.7c-1.4-1.1-2.6-2.5-3.4-4c-0.9-1.5-1.3-3.2-1.3-5.1c0-2.3,0.5-4.4,1.6-6.2c1-1.8,2.4-3.3,4.1-4.5
		c1.7-1.2,3.6-2.2,5.7-2.8c2.1-0.6,4.2-0.9,6.4-0.9c2.1,0,4.2,0.3,6.3,0.9c2.1,0.6,4,1.5,5.8,2.7c1.7,1.2,3.1,2.7,4.2,4.5
		c1,1.8,1.6,3.8,1.6,6.2c0,1.9-0.4,3.6-1.3,5.1c-0.9,1.6-2,2.9-3.5,4.1c-1.4,1.1-3,2.1-4.7,2.7c2.1,0.7,4,1.7,5.7,3.1
		c1.7,1.4,3.1,3.1,4.2,5C299.4,991.6,299.9,993.8,299.9,996.2z M294.4,995.8c0-1.9-0.4-3.6-1.2-5.1c-0.8-1.5-1.9-2.7-3.4-3.7
		c-1.4-1-3-1.8-4.6-2.3c-1.7-0.5-3.4-0.8-5.1-0.8c-2.3,0-4.5,0.5-6.7,1.5c-2.2,1-3.9,2.4-5.3,4.1c-1.4,1.8-2,3.9-2,6.3
		c0,1.9,0.4,3.5,1.2,4.9c0.8,1.4,1.9,2.7,3.3,3.7c1.4,1,2.9,1.8,4.6,2.3c1.7,0.5,3.4,0.8,5.1,0.8c2.3,0,4.5-0.5,6.7-1.5
		c2.2-1,3.9-2.4,5.3-4.2C293.7,1000.2,294.4,998.1,294.4,995.8z M267.9,970c0,2,0.6,3.8,1.9,5.2c1.3,1.5,2.8,2.6,4.8,3.3
		c1.9,0.7,3.8,1.1,5.6,1.1c1.9,0,3.8-0.4,5.7-1.2c1.9-0.8,3.5-1.9,4.7-3.3c1.3-1.5,1.9-3.2,1.9-5.3c0-2-0.6-3.7-1.8-5.2
		c-1.2-1.4-2.7-2.5-4.6-3.3c-1.9-0.7-3.9-1.1-6-1.1c-2,0-4,0.4-5.9,1.2c-1.9,0.8-3.4,1.9-4.6,3.3C268.5,966.2,267.9,968,267.9,970z"
		/>
	<path class="st8" d="M328.3,1012.5c-3.4,0-6.4-0.6-9.1-1.7c-2.7-1.1-4.9-2.7-6.6-4.6c-1.7-2-2.8-4.3-3.2-6.9l3.4-3
		c0.1,1.8,0.8,3.6,2.2,5.3c1.3,1.7,3.2,3.1,5.5,4.2c2.3,1.1,5,1.6,8,1.6c2.7,0,5.1-0.5,7.2-1.4c2.2-0.9,3.9-2.2,5.1-3.8
		c1.3-1.6,1.9-3.5,1.9-5.6c0-2.3-0.7-4.3-2.2-6c-1.5-1.7-3.6-2.9-6.3-3.8c-2.7-0.9-5.9-1.3-9.7-1.3h-2.7v-4.7h2.7
		c5.2,0,9.3-0.8,12.2-2.5c3-1.7,4.5-4.2,4.5-7.6c0-2.2-0.6-4.1-1.8-5.8c-1.2-1.6-2.8-2.9-4.8-3.8c-2-0.9-4.2-1.3-6.5-1.3
		c-3.5,0-6.5,0.8-9,2.3c-2.5,1.5-4.3,3.5-5.3,5.8l-3.8-3.7c1-1.9,2.4-3.6,4.3-5c1.8-1.4,3.9-2.5,6.3-3.2c2.4-0.7,4.8-1.1,7.4-1.1
		c3.6,0,6.9,0.7,9.7,2.1c2.9,1.4,5.1,3.2,6.7,5.5c1.6,2.3,2.4,5,2.4,8c0,2.1-0.4,4-1.3,5.7c-0.9,1.7-2.1,3.1-3.8,4.2
		c-1.7,1.1-3.7,2-6.1,2.6c2.5,0.5,4.7,1.4,6.6,2.8c1.9,1.4,3.4,3,4.4,5c1,2,1.6,4.2,1.6,6.5c0,3.2-0.9,5.9-2.8,8.2
		c-1.8,2.3-4.3,4-7.2,5.3C335.1,1011.9,331.8,1012.5,328.3,1012.5z"/>
	<path class="st8" d="M357.5,1012.1c-0.1-3.3,0.2-6.3,0.8-8.8c0.6-2.5,1.5-4.8,2.7-6.8c1.2-2,2.7-3.7,4.4-5.1
		c1.7-1.5,3.6-2.7,5.8-3.9c2-1.1,4.1-2.1,6.3-3.1c2.2-0.9,4.2-1.9,6.1-3.1c1.9-1.1,3.4-2.5,4.5-4.1c1.1-1.6,1.7-3.6,1.7-6.1
		c0-2-0.4-3.9-1.3-5.6c-0.9-1.7-2.2-3.1-4-4.1c-1.8-1-4.1-1.6-6.9-1.6c-2.7,0-5.1,0.5-7.2,1.4c-2.1,0.9-3.9,2-5.3,3.3
		c-1.4,1.3-2.5,2.5-3.4,3.5l-3.6-3.5c0.3-0.4,1-1.1,2-2.2c1-1.1,2.3-2.2,4-3.4c1.7-1.2,3.7-2.2,6-3c2.3-0.8,5-1.2,8.1-1.2
		c3.9,0,7.2,0.8,9.8,2.3c2.6,1.5,4.6,3.5,5.9,5.9c1.3,2.4,2,5.1,2,8c0,2.8-0.5,5.2-1.6,7.1c-1.1,1.9-2.5,3.6-4.2,4.8
		c-1.7,1.3-3.6,2.4-5.6,3.4c-2,1-3.9,1.9-5.6,2.7c-3.4,1.5-6.1,3-8.2,4.5c-2,1.5-3.5,3-4.5,4.5c-1,1.5-1.6,3-2,4.5
		c-0.3,1.5-0.5,3-0.6,4.5h32.4v5H357.5z"/>
</g>
<g id="escr-numbers-2018">
	<path class="st8" d="M841.9,929.5c-3.4,0-6.4-0.6-9.1-1.7c-2.7-1.1-4.9-2.7-6.6-4.6c-1.7-2-2.8-4.3-3.2-6.9l3.4-3
		c0.1,1.8,0.8,3.6,2.2,5.3c1.3,1.7,3.2,3.1,5.5,4.2c2.3,1.1,5,1.6,8,1.6c2.7,0,5.1-0.5,7.2-1.4c2.2-0.9,3.9-2.2,5.1-3.8
		c1.3-1.6,1.9-3.5,1.9-5.6c0-2.3-0.7-4.3-2.2-6c-1.5-1.7-3.6-2.9-6.3-3.8c-2.7-0.9-5.9-1.3-9.7-1.3h-2.7v-4.7h2.7
		c5.2,0,9.3-0.8,12.2-2.5c3-1.7,4.5-4.2,4.5-7.6c0-2.2-0.6-4.1-1.8-5.8c-1.2-1.6-2.8-2.9-4.8-3.8s-4.2-1.3-6.5-1.3
		c-3.5,0-6.5,0.8-9,2.3c-2.5,1.5-4.3,3.5-5.3,5.8l-3.8-3.7c1-1.9,2.4-3.6,4.3-5c1.8-1.4,3.9-2.5,6.3-3.2c2.4-0.7,4.8-1.1,7.4-1.1
		c3.6,0,6.9,0.7,9.7,2.1c2.9,1.4,5.1,3.2,6.7,5.5c1.6,2.3,2.4,5,2.4,8c0,2.1-0.4,4-1.3,5.7c-0.9,1.7-2.1,3.1-3.8,4.2
		c-1.7,1.1-3.7,2-6.1,2.6c2.5,0.5,4.7,1.4,6.6,2.8c1.9,1.4,3.4,3,4.4,5c1,2,1.6,4.2,1.6,6.5c0,3.2-0.9,5.9-2.8,8.2
		c-1.8,2.3-4.3,4-7.2,5.3C848.7,928.9,845.5,929.5,841.9,929.5z"/>
	<path class="st8" d="M894.7,929.5c-3.8-0.1-7.2-1-10.2-2.8c-2.9-1.7-5.4-4-7.4-6.9c-2-2.8-3.5-5.9-4.5-9.2c-1-3.3-1.5-6.6-1.5-9.7
		c0-3.4,0.5-6.8,1.6-10.2c1.1-3.4,2.7-6.5,4.7-9.3c2.1-2.8,4.5-5,7.4-6.7c2.9-1.7,6.1-2.5,9.8-2.5c3.8,0,7.2,0.9,10.2,2.7
		c2.9,1.8,5.4,4.1,7.4,7c2,2.9,3.5,6,4.4,9.3c1,3.3,1.5,6.5,1.5,9.6c0,3.4-0.5,6.8-1.6,10.2c-1.1,3.4-2.7,6.4-4.7,9.2
		c-2,2.8-4.5,5-7.4,6.6C901.6,928.6,898.3,929.5,894.7,929.5z M876.8,900.9c0.1,2.8,0.5,5.5,1.3,8.3c0.8,2.8,1.9,5.3,3.4,7.6
		c1.5,2.3,3.3,4.2,5.5,5.6c2.2,1.4,4.7,2.1,7.6,2.1c3,0,5.6-0.7,7.8-2.2c2.2-1.5,4.1-3.4,5.6-5.8c1.5-2.4,2.6-5,3.3-7.7
		c0.7-2.7,1.1-5.3,1.1-7.8c0-2.8-0.4-5.5-1.2-8.3c-0.8-2.8-2-5.3-3.5-7.6c-1.5-2.3-3.4-4.2-5.6-5.6c-2.2-1.4-4.7-2.1-7.5-2.1
		c-3,0-5.7,0.8-7.9,2.3c-2.2,1.5-4.1,3.5-5.6,5.8c-1.5,2.4-2.6,4.9-3.3,7.7C877.2,895.8,876.8,898.4,876.8,900.9z"/>
	<path class="st8" d="M927.4,929.1c-0.1-3.3,0.2-6.3,0.8-8.8c0.6-2.5,1.5-4.8,2.7-6.8c1.2-2,2.7-3.7,4.4-5.1
		c1.7-1.5,3.6-2.7,5.8-3.9c2-1.1,4.1-2.1,6.3-3.1c2.2-0.9,4.2-1.9,6.1-3.1c1.9-1.1,3.4-2.5,4.5-4.1c1.1-1.6,1.7-3.6,1.7-6.1
		c0-2-0.4-3.9-1.3-5.6c-0.9-1.7-2.2-3.1-4-4.1c-1.8-1-4.1-1.6-6.9-1.6c-2.7,0-5.1,0.5-7.2,1.4c-2.1,0.9-3.9,2-5.3,3.3
		c-1.4,1.3-2.5,2.5-3.4,3.5l-3.6-3.5c0.3-0.4,1-1.1,2-2.2c1-1.1,2.3-2.2,4-3.4c1.7-1.2,3.7-2.2,6-3c2.3-0.8,5-1.2,8.1-1.2
		c3.9,0,7.2,0.8,9.8,2.3c2.6,1.5,4.6,3.5,5.9,5.9c1.3,2.4,2,5.1,2,8c0,2.8-0.5,5.2-1.6,7.1c-1.1,1.9-2.5,3.6-4.2,4.8
		c-1.7,1.3-3.6,2.4-5.6,3.4c-2,1-3.9,1.9-5.6,2.7c-3.4,1.5-6.1,3-8.2,4.5c-2,1.5-3.5,3-4.5,4.5c-1,1.5-1.6,3-2,4.5
		c-0.3,1.5-0.5,3-0.6,4.5h32.4v5H927.4z"/>
	<path class="st8" d="M998.9,929.5c-3.8-0.1-7.2-1-10.2-2.8c-2.9-1.7-5.4-4-7.4-6.9c-2-2.8-3.5-5.9-4.5-9.2c-1-3.3-1.5-6.6-1.5-9.7
		c0-3.4,0.5-6.8,1.6-10.2c1.1-3.4,2.7-6.5,4.7-9.3c2.1-2.8,4.5-5,7.4-6.7c2.9-1.7,6.1-2.5,9.8-2.5c3.8,0,7.2,0.9,10.2,2.7
		c2.9,1.8,5.4,4.1,7.4,7c2,2.9,3.5,6,4.4,9.3c1,3.3,1.5,6.5,1.5,9.6c0,3.4-0.5,6.8-1.6,10.2c-1.1,3.4-2.7,6.4-4.7,9.2
		c-2,2.8-4.5,5-7.4,6.6C1005.8,928.6,1002.5,929.5,998.9,929.5z M981.1,900.9c0.1,2.8,0.5,5.5,1.3,8.3c0.8,2.8,1.9,5.3,3.4,7.6
		c1.5,2.3,3.3,4.2,5.5,5.6c2.2,1.4,4.7,2.1,7.6,2.1c3,0,5.6-0.7,7.8-2.2c2.2-1.5,4.1-3.4,5.6-5.8c1.5-2.4,2.6-5,3.3-7.7
		c0.7-2.7,1.1-5.3,1.1-7.8c0-2.8-0.4-5.5-1.2-8.3c-0.8-2.8-2-5.3-3.5-7.6c-1.5-2.3-3.4-4.2-5.6-5.6c-2.2-1.4-4.7-2.1-7.5-2.1
		c-3,0-5.7,0.8-7.9,2.3c-2.2,1.5-4.1,3.5-5.6,5.8c-1.5,2.4-2.6,4.9-3.3,7.7C981.4,895.8,981.1,898.4,981.1,900.9z"/>
	<path class="st8" d="M1069.8,919.9c-1.8,2.9-4.2,5.3-7.2,7c-3,1.8-6.5,2.6-10.2,2.6c-3.9,0-7.5-0.9-10.5-2.8
		c-3.1-1.9-5.5-4.6-7.2-8.1c-1.8-3.5-2.6-7.8-2.6-12.6c0-7.7,0.9-14,2.6-19c1.8-5,4.2-8.8,7.4-11.2c3.1-2.5,6.8-3.7,11-3.7
		c3.8,0,7.2,0.9,10.2,2.8c3,1.9,5.3,4.5,6.8,7.7l-3.5,3.2c-1.1-2.7-2.9-4.9-5.3-6.5c-2.4-1.6-5.1-2.4-8.1-2.4c-3.1,0-5.9,1-8.2,2.9
		c-2.3,2-4.2,4.8-5.5,8.4c-1.3,3.6-2,8.1-2,13.2c0.8-2.1,2-3.9,3.5-5.4c1.5-1.5,3.4-2.7,5.5-3.6c2.1-0.8,4.4-1.3,6.8-1.3
		c3.6,0,6.9,0.8,9.9,2.5c3,1.7,5.3,4,7,6.9c1.7,2.9,2.6,6.1,2.6,9.7C1072.5,913.7,1071.6,916.9,1069.8,919.9z M1059.9,922.7
		c2.2-1.3,4-3.1,5.4-5.3c1.4-2.2,2-4.7,2-7.3s-0.7-5.1-2-7.3c-1.4-2.2-3.2-4-5.4-5.3c-2.2-1.3-4.7-2-7.4-2c-2.7,0-5.2,0.7-7.5,2
		c-2.3,1.3-4.1,3.1-5.4,5.3c-1.3,2.2-2,4.6-2,7.3c0,2.6,0.7,5,2,7.2s3.2,4,5.4,5.4c2.2,1.3,4.7,2,7.4,2
		C1055.2,924.7,1057.6,924.1,1059.9,922.7z"/>
</g>
<g id="fqr-numbers-2018">
	<path class="st8" d="M29.1,799.5c-0.1-3.3,0.2-6.3,0.8-8.8c0.6-2.5,1.5-4.8,2.7-6.8c1.2-2,2.7-3.7,4.4-5.1c1.7-1.5,3.6-2.7,5.8-3.9
		c2-1.1,4.1-2.1,6.3-3.1c2.2-0.9,4.2-1.9,6.1-3.1c1.9-1.1,3.4-2.5,4.5-4.1c1.1-1.6,1.7-3.6,1.7-6.1c0-2-0.4-3.9-1.3-5.6
		c-0.9-1.7-2.2-3.1-4-4.1c-1.8-1-4.1-1.6-6.9-1.6c-2.7,0-5.1,0.5-7.2,1.4c-2.1,0.9-3.9,2-5.3,3.3c-1.4,1.3-2.5,2.5-3.4,3.5l-3.6-3.5
		c0.3-0.4,1-1.1,2-2.2c1-1.1,2.3-2.2,4-3.4c1.7-1.2,3.7-2.2,6-3c2.3-0.8,5-1.2,8.1-1.2c3.9,0,7.2,0.8,9.8,2.3
		c2.6,1.5,4.6,3.5,5.9,5.9c1.3,2.4,2,5.1,2,8c0,2.8-0.5,5.2-1.6,7.1c-1.1,1.9-2.5,3.6-4.2,4.8c-1.7,1.3-3.6,2.4-5.6,3.4
		c-2,1-3.9,1.9-5.6,2.7c-3.4,1.5-6.1,3-8.2,4.5c-2,1.5-3.5,3-4.5,4.5c-1,1.5-1.6,3-2,4.5c-0.3,1.5-0.5,3-0.6,4.5h32.4v5H29.1z"/>
	<path class="st8" d="M101.1,799.5v-15.2H73.1v-4.9l29.6-36.7h3.8v36.6h7v5h-7v15.2H101.1z M79,779.3h22.6v-28.2L79,779.3z"/>
	<path class="st8" d="M151.2,747.7h-30.6v-5h39.3l-28.8,56.8H125L151.2,747.7z"/>
	<path class="st8" d="M184.1,799.9c-3.4,0-6.4-0.6-9.1-1.7c-2.7-1.1-4.9-2.7-6.6-4.6c-1.7-2-2.8-4.3-3.2-6.9l3.4-3
		c0.1,1.8,0.8,3.6,2.2,5.3c1.3,1.7,3.2,3.1,5.5,4.2c2.3,1.1,5,1.6,8,1.6c2.7,0,5.1-0.5,7.2-1.4c2.2-0.9,3.9-2.2,5.1-3.8
		c1.3-1.6,1.9-3.5,1.9-5.6c0-2.3-0.7-4.3-2.2-6c-1.5-1.7-3.6-2.9-6.3-3.8c-2.7-0.9-5.9-1.3-9.7-1.3h-2.7v-4.7h2.7
		c5.2,0,9.3-0.8,12.2-2.5c3-1.7,4.5-4.2,4.5-7.6c0-2.2-0.6-4.1-1.8-5.8c-1.2-1.6-2.8-2.9-4.8-3.8c-2-0.9-4.2-1.3-6.5-1.3
		c-3.5,0-6.5,0.8-9,2.3c-2.5,1.5-4.3,3.5-5.3,5.8l-3.8-3.7c1-1.9,2.4-3.6,4.3-5c1.8-1.4,3.9-2.5,6.3-3.2c2.4-0.7,4.8-1.1,7.4-1.1
		c3.6,0,6.9,0.7,9.7,2.1c2.9,1.4,5.1,3.2,6.7,5.5c1.6,2.3,2.4,5,2.4,8c0,2.1-0.4,4-1.3,5.7c-0.9,1.7-2.1,3.1-3.8,4.2
		c-1.7,1.1-3.7,2-6.1,2.6c2.5,0.5,4.7,1.4,6.6,2.8c1.9,1.4,3.4,3,4.4,5c1,2,1.6,4.2,1.6,6.5c0,3.2-0.9,5.9-2.8,8.2
		c-1.8,2.3-4.3,4-7.2,5.3C191,799.2,187.7,799.9,184.1,799.9z"/>
	<path class="st8" d="M253,783.5c0,3.3-0.9,6.2-2.8,8.6c-1.8,2.4-4.3,4.3-7.3,5.7c-3,1.4-6.3,2-9.9,2c-3.8,0-7.1-0.8-10.1-2.3
		c-2.9-1.5-5.2-3.5-6.9-6c-1.7-2.5-2.5-5.3-2.5-8.4c0-2.4,0.6-4.6,1.7-6.5c1.1-1.9,2.6-3.6,4.3-4.9c1.7-1.3,3.5-2.3,5.3-2.9
		c-1.7-0.7-3.2-1.6-4.6-2.7c-1.4-1.1-2.6-2.5-3.4-4c-0.9-1.5-1.3-3.2-1.3-5.1c0-2.3,0.5-4.4,1.6-6.2c1-1.8,2.4-3.3,4.1-4.5
		c1.7-1.2,3.6-2.2,5.7-2.8c2.1-0.6,4.2-0.9,6.4-0.9c2.1,0,4.2,0.3,6.3,0.9c2.1,0.6,4,1.5,5.8,2.7c1.7,1.2,3.1,2.7,4.2,4.5
		c1,1.8,1.6,3.8,1.6,6.2c0,1.9-0.4,3.6-1.3,5.1c-0.9,1.6-2,2.9-3.5,4.1c-1.4,1.1-3,2.1-4.7,2.7c2.1,0.7,4,1.7,5.7,3.1
		c1.7,1.4,3.1,3.1,4.2,5C252.5,779,253,781.1,253,783.5z M247.5,783.1c0-1.9-0.4-3.6-1.2-5.1c-0.8-1.5-1.9-2.7-3.4-3.7
		c-1.4-1-3-1.8-4.6-2.3c-1.7-0.5-3.4-0.8-5.1-0.8c-2.3,0-4.5,0.5-6.7,1.5c-2.2,1-3.9,2.4-5.3,4.1c-1.4,1.8-2,3.9-2,6.3
		c0,1.9,0.4,3.5,1.2,4.9c0.8,1.4,1.9,2.7,3.3,3.7c1.4,1,2.9,1.8,4.6,2.3c1.7,0.5,3.4,0.8,5.1,0.8c2.3,0,4.5-0.5,6.7-1.5
		c2.2-1,3.9-2.4,5.3-4.2C246.8,787.5,247.5,785.5,247.5,783.1z M221,757.3c0,2,0.6,3.8,1.9,5.2c1.3,1.5,2.8,2.6,4.8,3.3
		c1.9,0.7,3.8,1.1,5.6,1.1c1.9,0,3.8-0.4,5.7-1.2c1.9-0.8,3.5-1.9,4.7-3.3c1.3-1.5,1.9-3.2,1.9-5.3c0-2-0.6-3.7-1.8-5.2
		c-1.2-1.4-2.7-2.5-4.6-3.3c-1.9-0.7-3.9-1.1-6-1.1c-2,0-4,0.4-5.9,1.2c-1.9,0.8-3.4,1.9-4.6,3.3C221.6,753.6,221,755.3,221,757.3z"
		/>
</g>
<g id="pnsp-numbers-2018">
	<path class="st8" d="M968.8,406.2v5h-26.5v-5h10.8V360c-0.4,0.6-1.1,1.3-2.1,2.1c-1,0.8-2.1,1.5-3.3,2.2c-1.2,0.7-2.5,1.3-3.8,1.8
		c-1.3,0.5-2.5,0.7-3.5,0.7v-5.1c1.4,0,2.9-0.4,4.4-1.2c1.5-0.8,2.8-1.7,4.1-2.6c1.3-1,2.3-1.9,3-2.7c0.7-0.8,1.1-1.3,1.2-1.3h5.5
		v52.2H968.8z"/>
	<path class="st8" d="M998.3,411.5c-3.8-0.1-7.2-1-10.2-2.8c-2.9-1.7-5.4-4-7.4-6.9c-2-2.8-3.5-5.9-4.5-9.2c-1-3.3-1.5-6.6-1.5-9.7
		c0-3.4,0.5-6.8,1.6-10.2c1.1-3.4,2.7-6.5,4.7-9.3c2.1-2.8,4.5-5,7.4-6.7c2.9-1.7,6.1-2.5,9.8-2.5c3.8,0,7.2,0.9,10.2,2.7
		c2.9,1.8,5.4,4.1,7.4,7c2,2.9,3.5,6,4.4,9.3c1,3.3,1.5,6.5,1.5,9.6c0,3.4-0.5,6.8-1.6,10.2c-1.1,3.4-2.7,6.4-4.7,9.2
		c-2,2.8-4.5,5-7.4,6.6C1005.2,410.6,1002,411.5,998.3,411.5z M980.5,382.9c0.1,2.8,0.5,5.5,1.3,8.3c0.8,2.8,1.9,5.3,3.4,7.6
		c1.5,2.3,3.3,4.2,5.5,5.6c2.2,1.4,4.7,2.1,7.6,2.1c3,0,5.6-0.7,7.8-2.2c2.2-1.5,4.1-3.4,5.6-5.8c1.5-2.4,2.6-5,3.3-7.7
		c0.7-2.7,1.1-5.3,1.1-7.8c0-2.8-0.4-5.5-1.2-8.3c-0.8-2.8-2-5.3-3.5-7.6c-1.5-2.3-3.4-4.2-5.6-5.6c-2.2-1.4-4.7-2.1-7.5-2.1
		c-3,0-5.7,0.8-7.9,2.3c-2.2,1.5-4.1,3.5-5.6,5.8c-1.5,2.4-2.6,4.9-3.3,7.7C980.9,377.8,980.5,380.4,980.5,382.9z"/>
	<path class="st8" d="M1057.2,411.1v-15.2h-27.9V391l29.6-36.7h3.8V391h7v5h-7v15.2H1057.2z M1035.1,391h22.6v-28.2L1035.1,391z"/>
</g>
<g id="vre-numbers-2018">
	<path class="st8" d="M52.8,192.1v-15.2H24.9V172l29.6-36.7h3.8V172h7v5h-7v15.2H52.8z M30.7,172h22.6v-28.2L30.7,172z"/>
	<path class="st8" d="M101.5,187.2v5H75v-5h10.8V141c-0.4,0.6-1.1,1.3-2.1,2.1c-1,0.8-2.1,1.5-3.3,2.2c-1.2,0.7-2.5,1.3-3.8,1.8
		c-1.3,0.5-2.5,0.7-3.5,0.7v-5.1c1.4,0,2.9-0.4,4.4-1.2c1.5-0.8,2.8-1.7,4.1-2.6c1.3-1,2.3-1.9,3-2.7c0.7-0.8,1.1-1.3,1.2-1.3h5.5
		v52.2H101.5z"/>
	<path class="st8" d="M108.5,192.1c-0.1-3.3,0.2-6.3,0.8-8.8c0.6-2.5,1.5-4.8,2.7-6.8c1.2-2,2.7-3.7,4.4-5.1
		c1.7-1.5,3.6-2.7,5.8-3.9c2-1.1,4.1-2.1,6.3-3.1c2.2-0.9,4.2-1.9,6.1-3.1c1.9-1.1,3.4-2.5,4.5-4.1c1.1-1.6,1.7-3.6,1.7-6.1
		c0-2-0.4-3.9-1.3-5.6c-0.9-1.7-2.2-3.1-4-4.1c-1.8-1-4.1-1.6-6.9-1.6c-2.7,0-5.1,0.5-7.2,1.4c-2.1,0.9-3.9,2-5.3,3.3
		c-1.4,1.3-2.5,2.5-3.4,3.5l-3.6-3.5c0.3-0.4,1-1.1,2-2.2c1-1.1,2.3-2.2,4-3.4c1.7-1.2,3.7-2.2,6-3c2.3-0.8,5-1.2,8.1-1.2
		c3.9,0,7.2,0.8,9.8,2.3c2.6,1.5,4.6,3.5,5.9,5.9c1.3,2.4,2,5.1,2,8c0,2.8-0.5,5.2-1.6,7.1c-1.1,1.9-2.5,3.6-4.2,4.8
		c-1.7,1.3-3.6,2.4-5.6,3.4c-2,1-3.9,1.9-5.6,2.7c-3.4,1.5-6.1,3-8.2,4.5c-2,1.5-3.5,3-4.5,4.5c-1,1.5-1.6,3-2,4.5
		c-0.3,1.5-0.5,3-0.6,4.5h32.4v5H108.5z"/>
</g>
<g id="vre-numbers-2016">
	<path class="st0" d="M55.9,187.2v5H29.4v-5h10.8V141c-0.4,0.6-1.1,1.3-2.1,2.1c-1,0.8-2.1,1.5-3.3,2.2c-1.2,0.7-2.5,1.3-3.8,1.8
		c-1.3,0.5-2.5,0.7-3.5,0.7v-5.1c1.4,0,2.9-0.4,4.4-1.2c1.5-0.8,2.8-1.7,4.1-2.6c1.3-1,2.3-1.9,3-2.7c0.7-0.8,1.1-1.3,1.2-1.3h5.5
		v52.2H55.9z"/>
	<path class="st0" d="M102.5,176.2c0,3.3-0.9,6.2-2.8,8.6c-1.8,2.4-4.3,4.3-7.3,5.7c-3,1.4-6.3,2-9.9,2c-3.8,0-7.1-0.8-10.1-2.3
		c-2.9-1.5-5.2-3.5-6.9-6c-1.7-2.5-2.5-5.3-2.5-8.4c0-2.4,0.6-4.6,1.7-6.5c1.1-1.9,2.6-3.6,4.3-4.9c1.7-1.3,3.5-2.3,5.3-2.9
		c-1.7-0.7-3.2-1.6-4.6-2.7c-1.4-1.1-2.6-2.5-3.4-4c-0.9-1.5-1.3-3.2-1.3-5.1c0-2.3,0.5-4.4,1.6-6.2c1-1.8,2.4-3.3,4.1-4.5
		c1.7-1.2,3.6-2.2,5.7-2.8c2.1-0.6,4.2-0.9,6.4-0.9c2.1,0,4.2,0.3,6.3,0.9c2.1,0.6,4,1.5,5.8,2.7c1.7,1.2,3.1,2.7,4.2,4.5
		c1,1.8,1.6,3.8,1.6,6.2c0,1.9-0.4,3.6-1.3,5.1c-0.9,1.6-2,2.9-3.5,4.1c-1.4,1.1-3,2.1-4.7,2.7c2.1,0.7,4,1.7,5.7,3.1
		c1.7,1.4,3.1,3.1,4.2,5C101.9,171.6,102.5,173.8,102.5,176.2z M96.9,175.8c0-1.9-0.4-3.6-1.2-5.1c-0.8-1.5-1.9-2.7-3.4-3.7
		c-1.4-1-3-1.8-4.6-2.3c-1.7-0.5-3.4-0.8-5.1-0.8c-2.3,0-4.5,0.5-6.7,1.5c-2.2,1-3.9,2.4-5.3,4.1c-1.4,1.8-2,3.9-2,6.3
		c0,1.9,0.4,3.5,1.2,4.9c0.8,1.4,1.9,2.7,3.3,3.7c1.4,1,2.9,1.8,4.6,2.3c1.7,0.5,3.4,0.8,5.1,0.8c2.3,0,4.5-0.5,6.7-1.5
		c2.2-1,3.9-2.4,5.3-4.2C96.2,180.2,96.9,178.1,96.9,175.8z M70.5,150c0,2,0.6,3.8,1.9,5.2c1.3,1.5,2.8,2.6,4.8,3.3
		c1.9,0.7,3.8,1.1,5.6,1.1c1.9,0,3.8-0.4,5.7-1.2c1.9-0.8,3.5-1.9,4.7-3.3c1.3-1.5,1.9-3.2,1.9-5.3c0-2-0.6-3.7-1.8-5.2
		c-1.2-1.4-2.7-2.5-4.6-3.3c-1.9-0.7-3.9-1.1-6-1.1c-2,0-4,0.4-5.9,1.2c-1.9,0.8-3.4,1.9-4.6,3.3C71,146.2,70.5,148,70.5,150z"/>
	<path class="st0" d="M141.1,140.4h-30.6v-5h39.3l-28.8,56.8h-6.1L141.1,140.4z"/>
</g>
<g id="pnsp-numbers-2016">
	<path class="st0" d="M999.8,359.4h-30.6v-5h39.3l-28.8,56.8h-6.1L999.8,359.4z"/>
	<path class="st0" d="M1041.6,406.2v5h-26.5v-5h10.8V360c-0.4,0.6-1.1,1.3-2.1,2.1c-1,0.8-2.1,1.5-3.3,2.2c-1.2,0.7-2.5,1.3-3.8,1.8
		c-1.3,0.5-2.5,0.7-3.5,0.7v-5.1c1.4,0,2.9-0.4,4.4-1.2c1.5-0.8,2.8-1.7,4.1-2.6c1.3-1,2.3-1.9,3-2.7c0.7-0.8,1.1-1.3,1.2-1.3h5.5
		v52.2H1041.6z"/>
</g>
<g id="fqr-numbers-2016">
	<path class="st0" d="M28.8,799.5c-0.1-3.3,0.2-6.3,0.8-8.8c0.6-2.5,1.5-4.8,2.7-6.8c1.2-2,2.7-3.7,4.4-5.1c1.7-1.5,3.6-2.7,5.8-3.9
		c2-1.1,4.1-2.1,6.3-3.1c2.2-0.9,4.2-1.9,6.1-3.1c1.9-1.1,3.4-2.5,4.5-4.1c1.1-1.6,1.7-3.6,1.7-6.1c0-2-0.4-3.9-1.3-5.6
		c-0.9-1.7-2.2-3.1-4-4.1c-1.8-1-4.1-1.6-6.9-1.6c-2.7,0-5.1,0.5-7.2,1.4c-2.1,0.9-3.9,2-5.3,3.3c-1.4,1.3-2.5,2.5-3.4,3.5l-3.6-3.5
		c0.3-0.4,1-1.1,2-2.2c1-1.1,2.3-2.2,4-3.4c1.7-1.2,3.7-2.2,6-3c2.3-0.8,5-1.2,8.1-1.2c3.9,0,7.2,0.8,9.8,2.3
		c2.6,1.5,4.6,3.5,5.9,5.9c1.3,2.4,2,5.1,2,8c0,2.8-0.5,5.2-1.6,7.1c-1.1,1.9-2.5,3.6-4.2,4.8c-1.7,1.3-3.6,2.4-5.6,3.4
		c-2,1-3.9,1.9-5.6,2.7c-3.4,1.5-6.1,3-8.2,4.5c-2,1.5-3.5,3-4.5,4.5c-1,1.5-1.6,3-2,4.5c-0.3,1.5-0.5,3-0.6,4.5h32.4v5H28.8z"/>
	<path class="st0" d="M104.6,794.5v5H78.1v-5h10.8v-46.2c-0.4,0.6-1.1,1.3-2.1,2.1c-1,0.8-2.1,1.5-3.3,2.2c-1.2,0.7-2.5,1.3-3.8,1.8
		c-1.3,0.5-2.5,0.7-3.5,0.7v-5.1c1.4,0,2.9-0.4,4.4-1.2c1.5-0.8,2.8-1.7,4.1-2.6c1.3-1,2.3-1.9,3-2.7c0.7-0.8,1.1-1.3,1.2-1.3h5.5
		v52.2H104.6z"/>
	<path class="st0" d="M134.1,799.9c-3.8-0.1-7.2-1-10.2-2.8c-2.9-1.7-5.4-4-7.4-6.9c-2-2.8-3.5-5.9-4.5-9.2c-1-3.3-1.5-6.6-1.5-9.7
		c0-3.4,0.5-6.8,1.6-10.2c1.1-3.4,2.7-6.5,4.7-9.3c2.1-2.8,4.5-5,7.4-6.7c2.9-1.7,6.1-2.5,9.8-2.5c3.8,0,7.2,0.9,10.2,2.7
		c2.9,1.8,5.4,4.1,7.4,7c2,2.9,3.5,6,4.4,9.3c1,3.3,1.5,6.5,1.5,9.6c0,3.4-0.5,6.8-1.6,10.2c-1.1,3.4-2.7,6.4-4.7,9.2
		c-2,2.8-4.5,5-7.4,6.6C141,799,137.8,799.8,134.1,799.9z M116.3,771.3c0.1,2.8,0.5,5.5,1.3,8.3c0.8,2.8,1.9,5.3,3.4,7.6
		c1.5,2.3,3.3,4.2,5.5,5.6c2.2,1.4,4.7,2.1,7.6,2.1c3,0,5.6-0.7,7.8-2.2c2.2-1.5,4.1-3.4,5.6-5.8c1.5-2.4,2.6-5,3.3-7.7
		c0.7-2.7,1.1-5.3,1.1-7.8c0-2.8-0.4-5.5-1.2-8.3c-0.8-2.8-2-5.3-3.5-7.6c-1.5-2.3-3.4-4.2-5.6-5.6c-2.2-1.4-4.7-2.1-7.5-2.1
		c-3,0-5.7,0.8-7.9,2.3c-2.2,1.5-4.1,3.5-5.6,5.8c-1.5,2.4-2.6,4.9-3.3,7.7C116.7,766.2,116.3,768.8,116.3,771.3z"/>
	<path class="st0" d="M184.5,799.9c-4.1,0-7.7-1-10.9-3c-3.2-2-5.7-4.7-7.3-8l3.7-2.7c1.4,2.6,3.5,4.7,6.1,6.3
		c2.6,1.6,5.5,2.4,8.6,2.4c2.7,0,5.1-0.6,7.2-1.7c2.1-1.2,3.8-2.8,5-4.8c1.3-2,1.9-4.4,1.9-7.1c0-2.6-0.6-4.9-1.8-6.9
		c-1.2-2-2.9-3.5-4.9-4.7c-2-1.1-4.3-1.7-6.9-1.7c-2.5,0-4.8,0.6-7,1.7c-2.2,1.1-4.1,2.7-5.4,4.7h-5.1l6.4-31.8h27.4v5h-23.4
		l-4,20.2c1.4-1.5,3.1-2.7,5.2-3.5c2.1-0.8,4.3-1.2,6.6-1.2c3.5,0,6.6,0.8,9.4,2.3s5,3.6,6.6,6.3c1.6,2.7,2.4,5.8,2.4,9.3
		c0,3.7-0.9,6.9-2.6,9.7c-1.8,2.8-4.1,5-7.1,6.6C191.5,799.1,188.1,799.9,184.5,799.9z"/>
	<path class="st0" d="M215.2,751.8c1.8-2.9,4.2-5.3,7.2-7c3.1-1.7,6.5-2.6,10.2-2.6c4.1,0,7.6,0.9,10.6,2.8c3,1.9,5.4,4.6,7.2,8.1
		c1.7,3.5,2.6,7.7,2.6,12.6c0,7.7-0.9,14-2.6,19.1c-1.7,5-4.2,8.8-7.3,11.3c-3.1,2.5-6.8,3.7-11,3.7c-3.7,0-7.1-0.9-10.1-2.8
		c-3-1.9-5.3-4.5-6.8-7.8l3.4-3.1c1.2,2.7,3,4.8,5.4,6.4c2.4,1.6,5.1,2.4,8.1,2.4c3.1,0,5.9-1,8.2-2.9c2.3-1.9,4.2-4.7,5.5-8.4
		c1.3-3.7,2-8.1,2-13.3c-0.7,2-1.9,3.8-3.5,5.4c-1.6,1.6-3.4,2.8-5.5,3.6c-2.1,0.9-4.4,1.3-6.8,1.3c-3.6,0-6.9-0.8-9.9-2.5
		c-3-1.7-5.3-4-7-6.9c-1.7-2.9-2.6-6.1-2.6-9.6C212.5,758.1,213.4,754.8,215.2,751.8z M225.2,749c-2.2,1.3-4,3.1-5.4,5.3
		c-1.3,2.2-2,4.7-2,7.3c0,2.7,0.7,5.1,2,7.3c1.3,2.2,3.1,4,5.4,5.3c2.3,1.3,4.7,2,7.4,2c2.7,0,5.2-0.7,7.4-2c2.2-1.3,4-3.1,5.4-5.3
		c1.4-2.2,2-4.6,2-7.3c0-2.6-0.7-5.1-2.1-7.3c-1.4-2.2-3.2-4-5.4-5.4c-2.2-1.3-4.7-2-7.4-2C229.9,747,227.4,747.7,225.2,749z"/>
</g>
<g id="mrsa-numbers-2016">
	<path class="st0" d="M262.5,1007.2v5H236v-5h10.8V961c-0.4,0.6-1.1,1.3-2.1,2.1c-1,0.8-2.1,1.5-3.3,2.2c-1.2,0.7-2.5,1.3-3.8,1.8
		c-1.3,0.5-2.5,0.7-3.5,0.7v-5.1c1.4,0,2.9-0.4,4.4-1.2c1.5-0.8,2.8-1.7,4.1-2.6c1.3-1,2.3-1.9,3-2.7c0.7-0.8,1.1-1.3,1.2-1.3h5.5
		v52.2H262.5z"/>
	<path class="st0" d="M298.7,960.4h-30.6v-5h39.3l-28.8,56.8h-6.1L298.7,960.4z"/>
	<path class="st0" d="M340.5,1007.2v5H314v-5h10.8V961c-0.4,0.6-1.1,1.3-2.1,2.1c-1,0.8-2.1,1.5-3.3,2.2c-1.2,0.7-2.5,1.3-3.8,1.8
		c-1.3,0.5-2.5,0.7-3.5,0.7v-5.1c1.4,0,2.9-0.4,4.4-1.2c1.5-0.8,2.8-1.7,4.1-2.6c1.3-1,2.3-1.9,3-2.7c0.7-0.8,1.1-1.3,1.2-1.3h5.5
		v52.2H340.5z"/>
	<path class="st0" d="M387.1,996.5c0,3.3-0.9,6.2-2.8,8.7c-1.8,2.5-4.3,4.4-7.3,5.7c-3,1.4-6.3,2-9.9,2c-3.8,0-7.1-0.8-10.1-2.3
		c-2.9-1.5-5.2-3.5-6.9-6.1c-1.7-2.5-2.5-5.3-2.5-8.4c0-2.4,0.6-4.6,1.7-6.5c1.1-2,2.6-3.6,4.3-4.9c1.7-1.3,3.5-2.3,5.3-2.9
		c-1.7-0.7-3.2-1.6-4.6-2.8c-1.4-1.1-2.6-2.5-3.4-4.1c-0.9-1.6-1.3-3.3-1.3-5.1c0-2.4,0.5-4.4,1.6-6.2c1-1.8,2.4-3.3,4.1-4.6
		c1.7-1.3,3.6-2.2,5.7-2.8c2.1-0.6,4.2-0.9,6.4-0.9c2.1,0,4.2,0.3,6.3,0.9c2.1,0.6,4,1.5,5.8,2.8c1.7,1.2,3.1,2.7,4.2,4.5
		c1,1.8,1.6,3.9,1.6,6.2c0,1.9-0.4,3.6-1.3,5.2c-0.9,1.6-2,2.9-3.5,4.1c-1.4,1.2-3,2.1-4.7,2.8c2.1,0.7,4,1.8,5.7,3.2
		c1.7,1.4,3.1,3.1,4.2,5C386.5,991.9,387.1,994.1,387.1,996.5z M381.5,996.1c0-1.9-0.4-3.6-1.2-5.1c-0.8-1.5-1.9-2.7-3.4-3.7
		c-1.4-1-3-1.8-4.6-2.3c-1.7-0.5-3.4-0.8-5.1-0.8c-2.3,0-4.5,0.5-6.7,1.5c-2.2,1-3.9,2.4-5.3,4.2c-1.4,1.8-2,3.9-2,6.4
		c0,1.9,0.4,3.5,1.2,5c0.8,1.4,1.9,2.7,3.3,3.7c1.4,1,2.9,1.8,4.6,2.4c1.7,0.5,3.4,0.8,5.1,0.8c2.3,0,4.5-0.5,6.7-1.5
		c2.2-1,3.9-2.4,5.3-4.2C380.8,1000.5,381.5,998.4,381.5,996.1z M355.1,970.1c0,2,0.6,3.8,1.9,5.3c1.3,1.5,2.8,2.6,4.8,3.3
		c1.9,0.8,3.8,1.1,5.6,1.1c1.9,0,3.8-0.4,5.7-1.2c1.9-0.8,3.5-1.9,4.7-3.4c1.3-1.5,1.9-3.3,1.9-5.3c0-2-0.6-3.8-1.8-5.2
		c-1.2-1.4-2.7-2.5-4.6-3.3c-1.9-0.8-3.9-1.1-6-1.1c-2,0-4,0.4-5.9,1.2c-1.9,0.8-3.4,1.9-4.6,3.4C355.6,966.3,355.1,968,355.1,970.1
		z"/>
</g>
<g id="escr-numbers-2016">
	<path class="st0" d="M844.4,929.1c-0.1-3.3,0.2-6.3,0.8-8.8c0.6-2.5,1.5-4.8,2.7-6.8c1.2-2,2.7-3.7,4.4-5.1
		c1.7-1.5,3.6-2.7,5.8-3.9c2-1.1,4.1-2.1,6.3-3.1c2.2-0.9,4.2-1.9,6.1-3.1c1.9-1.1,3.4-2.5,4.5-4.1c1.1-1.6,1.7-3.6,1.7-6.1
		c0-2-0.4-3.9-1.3-5.6c-0.9-1.7-2.2-3.1-4-4.1c-1.8-1-4.1-1.6-6.9-1.6c-2.7,0-5.1,0.5-7.2,1.4c-2.1,0.9-3.9,2-5.3,3.3
		c-1.4,1.3-2.5,2.5-3.4,3.5l-3.6-3.5c0.3-0.4,1-1.1,2-2.2c1-1.1,2.3-2.2,4-3.4c1.7-1.2,3.7-2.2,6-3c2.3-0.8,5-1.2,8.1-1.2
		c3.9,0,7.2,0.8,9.8,2.3c2.6,1.5,4.6,3.5,5.9,5.9c1.3,2.4,2,5.1,2,8c0,2.8-0.5,5.2-1.6,7.1c-1.1,1.9-2.5,3.6-4.2,4.8
		c-1.7,1.3-3.6,2.4-5.6,3.4c-2,1-3.9,1.9-5.6,2.7c-3.4,1.5-6.1,3-8.2,4.5c-2,1.5-3.5,3-4.5,4.5c-1,1.5-1.6,3-2,4.5
		c-0.3,1.5-0.5,3-0.6,4.5h32.4v5H844.4z"/>
	<path class="st0" d="M911.3,929.5c-3.4,0-6.4-0.6-9.1-1.7c-2.7-1.1-4.9-2.7-6.6-4.6c-1.7-2-2.8-4.3-3.2-6.9l3.4-3
		c0.1,1.8,0.8,3.6,2.2,5.3c1.3,1.7,3.2,3.1,5.5,4.2c2.3,1.1,5,1.6,8,1.6c2.7,0,5.1-0.5,7.2-1.4c2.2-0.9,3.9-2.2,5.1-3.8
		c1.3-1.6,1.9-3.5,1.9-5.6c0-2.3-0.7-4.3-2.2-6c-1.5-1.7-3.6-2.9-6.3-3.8c-2.7-0.9-5.9-1.3-9.7-1.3h-2.7v-4.7h2.7
		c5.2,0,9.3-0.8,12.2-2.5c3-1.7,4.5-4.2,4.5-7.6c0-2.2-0.6-4.1-1.8-5.8c-1.2-1.6-2.8-2.9-4.8-3.8s-4.2-1.3-6.5-1.3
		c-3.5,0-6.5,0.8-9,2.3c-2.5,1.5-4.3,3.5-5.3,5.8l-3.8-3.7c1-1.9,2.4-3.6,4.3-5c1.8-1.4,3.9-2.5,6.3-3.2c2.4-0.7,4.8-1.1,7.4-1.1
		c3.6,0,6.9,0.7,9.7,2.1c2.9,1.4,5.1,3.2,6.7,5.5c1.6,2.3,2.4,5,2.4,8c0,2.1-0.4,4-1.3,5.7c-0.9,1.7-2.1,3.1-3.8,4.2
		c-1.7,1.1-3.7,2-6.1,2.6c2.5,0.5,4.7,1.4,6.6,2.8c1.9,1.4,3.4,3,4.4,5c1,2,1.6,4.2,1.6,6.5c0,3.2-0.9,5.9-2.8,8.2
		c-1.8,2.3-4.3,4-7.2,5.3C918.2,928.9,914.9,929.5,911.3,929.5z"/>
	<path class="st0" d="M968.4,924.2v5H942v-5h10.8V878c-0.4,0.6-1.1,1.3-2.1,2.1c-1,0.8-2.1,1.5-3.3,2.2c-1.2,0.7-2.5,1.3-3.8,1.8
		c-1.3,0.5-2.5,0.7-3.5,0.7v-5.1c1.4,0,2.9-0.4,4.4-1.2c1.5-0.8,2.8-1.7,4.1-2.6c1.3-1,2.3-1.9,3-2.7c0.7-0.8,1.1-1.3,1.2-1.3h5.5
		v52.2H968.4z"/>
	<path class="st0" d="M977.7,881.5c1.8-2.9,4.2-5.3,7.2-7c3.1-1.7,6.5-2.6,10.2-2.6c4.1,0,7.6,0.9,10.6,2.8c3,1.9,5.4,4.6,7.2,8.1
		c1.7,3.5,2.6,7.7,2.6,12.6c0,7.7-0.9,14-2.6,19.1c-1.7,5-4.2,8.8-7.3,11.3c-3.1,2.5-6.8,3.7-11,3.7c-3.7,0-7.1-0.9-10.1-2.8
		c-3-1.9-5.3-4.5-6.8-7.8l3.4-3.1c1.2,2.7,3,4.8,5.4,6.4c2.4,1.6,5.1,2.4,8.1,2.4c3.1,0,5.9-1,8.2-2.9c2.3-1.9,4.2-4.7,5.5-8.4
		c1.3-3.7,2-8.1,2-13.3c-0.7,2-1.9,3.8-3.5,5.4c-1.6,1.6-3.4,2.8-5.5,3.6c-2.1,0.9-4.4,1.3-6.8,1.3c-3.6,0-6.9-0.8-9.9-2.5
		c-3-1.7-5.3-4-7-6.9c-1.7-2.9-2.6-6.1-2.6-9.6C975.1,887.7,976,884.4,977.7,881.5z M987.7,878.6c-2.2,1.3-4,3.1-5.4,5.3
		c-1.3,2.2-2,4.7-2,7.3c0,2.7,0.7,5.1,2,7.3c1.3,2.2,3.1,4,5.4,5.3c2.3,1.3,4.7,2,7.4,2c2.7,0,5.2-0.7,7.4-2c2.2-1.3,4-3.1,5.4-5.3
		c1.4-2.2,2-4.6,2-7.3c0-2.6-0.7-5.1-2.1-7.3c-1.4-2.2-3.2-4-5.4-5.4c-2.2-1.3-4.7-2-7.4-2C992.4,876.6,990,877.3,987.7,878.6z"/>
	<path class="st0" d="M1053,924.2v5h-26.5v-5h10.8V878c-0.4,0.6-1.1,1.3-2.1,2.1c-1,0.8-2.1,1.5-3.3,2.2c-1.2,0.7-2.5,1.3-3.8,1.8
		c-1.3,0.5-2.5,0.7-3.5,0.7v-5.1c1.4,0,2.9-0.4,4.4-1.2c1.5-0.8,2.8-1.7,4.1-2.6c1.3-1,2.3-1.9,3-2.7c0.7-0.8,1.1-1.3,1.2-1.3h5.5
		v52.2H1053z"/>
</g>
<g id="escr-title">
	<g>
		<path class="st2" d="M858.1,974.3v2.8h-16.9v-24.9h16.6v2.8h-13.4v8H856v2.6h-11.7v8.6H858.1z"/>
		<path class="st2" d="M877.3,957.5c-0.3-0.3-0.7-0.6-1.1-0.9c-0.5-0.3-1-0.6-1.6-0.8c-0.6-0.2-1.2-0.4-1.9-0.6
			c-0.7-0.2-1.4-0.2-2.2-0.2c-1.9,0-3.3,0.4-4.2,1.1c-0.9,0.7-1.4,1.7-1.4,3c0,0.9,0.2,1.6,0.7,2.1c0.5,0.5,1.2,0.9,2.2,1.3
			c1,0.3,2.2,0.7,3.7,1c1.7,0.4,3.2,0.8,4.5,1.4c1.3,0.5,2.2,1.2,2.9,2.1c0.7,0.9,1,2.1,1,3.6c0,1.2-0.2,2.2-0.7,3.1
			c-0.5,0.9-1.1,1.6-1.9,2.2c-0.8,0.6-1.8,1-2.9,1.3c-1.1,0.3-2.3,0.4-3.6,0.4c-1.3,0-2.5-0.1-3.7-0.4c-1.2-0.3-2.3-0.7-3.4-1.2
			c-1.1-0.5-2.1-1.2-3-1.9l1.5-2.7c0.4,0.4,0.9,0.8,1.5,1.2c0.6,0.4,1.3,0.7,2,1.1c0.8,0.3,1.6,0.6,2.5,0.8c0.9,0.2,1.8,0.3,2.7,0.3
			c1.8,0,3.2-0.3,4.1-1c1-0.6,1.5-1.6,1.5-2.8c0-0.9-0.3-1.7-0.8-2.2c-0.5-0.6-1.4-1-2.4-1.4c-1.1-0.4-2.4-0.7-3.9-1.1
			c-1.7-0.4-3.1-0.9-4.2-1.4c-1.1-0.5-2-1.2-2.6-2c-0.6-0.8-0.9-1.9-0.9-3.2c0-1.6,0.4-2.9,1.2-4c0.8-1.1,1.8-1.9,3.2-2.5
			c1.4-0.6,2.9-0.8,4.6-0.8c1.1,0,2.2,0.1,3.1,0.3c1,0.2,1.9,0.6,2.7,1c0.8,0.4,1.6,0.9,2.3,1.5L877.3,957.5z"/>
		<path class="st2" d="M883.1,964.5c0-1.5,0.3-3,0.8-4.5c0.5-1.5,1.3-2.8,2.3-4c1-1.2,2.3-2.2,3.7-2.9c1.5-0.7,3.1-1.1,5-1.1
			c2.2,0,4.1,0.5,5.7,1.5c1.6,1,2.8,2.3,3.5,3.9l-2.5,1.6c-0.5-1-1.1-1.9-1.9-2.5c-0.8-0.6-1.6-1.1-2.5-1.3
			c-0.9-0.3-1.7-0.4-2.6-0.4c-1.4,0-2.6,0.3-3.7,0.8c-1.1,0.6-2,1.3-2.7,2.2c-0.7,0.9-1.3,2-1.6,3.1c-0.4,1.2-0.5,2.3-0.5,3.5
			c0,1.3,0.2,2.5,0.6,3.7c0.4,1.2,1,2.2,1.8,3.2c0.8,0.9,1.7,1.6,2.7,2.2c1,0.5,2.2,0.8,3.4,0.8c0.9,0,1.8-0.2,2.7-0.5
			c0.9-0.3,1.8-0.8,2.6-1.4c0.8-0.6,1.4-1.5,1.9-2.5l2.6,1.4c-0.5,1.2-1.3,2.3-2.4,3.2s-2.3,1.5-3.6,2c-1.3,0.4-2.6,0.7-3.9,0.7
			c-1.7,0-3.3-0.4-4.7-1.1c-1.4-0.7-2.7-1.7-3.7-2.9c-1-1.2-1.8-2.6-2.4-4.1C883.4,967.6,883.1,966,883.1,964.5z"/>
		<path class="st2" d="M909.3,977.1v-24.9h10.6c1.1,0,2.1,0.2,3,0.7s1.7,1.1,2.4,1.8c0.7,0.8,1.2,1.6,1.6,2.6
			c0.4,0.9,0.6,1.9,0.6,2.9c0,1.1-0.2,2.2-0.6,3.3c-0.4,1-1,1.9-1.8,2.6c-0.8,0.7-1.7,1.2-2.7,1.5l6,9.5h-3.6l-5.7-8.9h-6.6v8.9
			H909.3z M912.4,965.4h7.5c0.9,0,1.6-0.2,2.3-0.7s1.1-1.1,1.5-1.9c0.4-0.8,0.5-1.6,0.5-2.6c0-0.9-0.2-1.8-0.6-2.6
			c-0.4-0.8-1-1.4-1.6-1.9c-0.7-0.5-1.4-0.7-2.2-0.7h-7.3V965.4z"/>
		<path class="st2" d="M932.2,969v-2.8h10.3v2.8H932.2z"/>
		<path class="st2" d="M965.3,974.3v2.8h-16.9v-24.9H965v2.8h-13.4v8h11.7v2.6h-11.7v8.6H965.3z"/>
		<path class="st2" d="M969.6,977.1v-3.9h2.6v3.9H969.6z"/>
		<path class="st2" d="M975.8,964.5c0-1.5,0.3-3,0.8-4.5c0.5-1.5,1.3-2.8,2.3-4c1-1.2,2.3-2.2,3.7-2.9c1.5-0.7,3.1-1.1,5-1.1
			c2.2,0,4.1,0.5,5.7,1.5c1.6,1,2.8,2.3,3.5,3.9l-2.5,1.6c-0.5-1-1.1-1.9-1.9-2.5c-0.8-0.6-1.6-1.1-2.4-1.3
			c-0.9-0.3-1.7-0.4-2.6-0.4c-1.4,0-2.6,0.3-3.7,0.8c-1.1,0.6-2,1.3-2.7,2.2c-0.7,0.9-1.3,2-1.6,3.1c-0.4,1.2-0.5,2.3-0.5,3.5
			c0,1.3,0.2,2.5,0.6,3.7c0.4,1.2,1,2.2,1.8,3.2c0.8,0.9,1.7,1.6,2.7,2.2c1,0.5,2.2,0.8,3.4,0.8c0.9,0,1.8-0.2,2.7-0.5
			c0.9-0.3,1.8-0.8,2.6-1.4c0.8-0.6,1.4-1.5,1.9-2.5l2.6,1.4c-0.5,1.2-1.3,2.3-2.4,3.2c-1.1,0.9-2.3,1.5-3.6,2
			c-1.3,0.4-2.6,0.7-3.9,0.7c-1.7,0-3.3-0.4-4.7-1.1c-1.4-0.7-2.7-1.7-3.7-2.9c-1-1.2-1.8-2.6-2.4-4.1
			C976.1,967.6,975.8,966,975.8,964.5z"/>
		<path class="st2" d="M1011.8,977.3c-1.8,0-3.3-0.3-4.8-1c-1.4-0.7-2.7-1.7-3.7-2.9c-1-1.2-1.8-2.6-2.4-4.1c-0.6-1.5-0.8-3-0.8-4.6
			c0-1.7,0.3-3.2,0.9-4.7c0.6-1.5,1.4-2.8,2.5-4c1.1-1.2,2.3-2.1,3.7-2.8c1.4-0.7,3-1,4.7-1c1.8,0,3.3,0.4,4.8,1.1
			c1.4,0.7,2.6,1.7,3.7,2.9c1,1.2,1.8,2.6,2.4,4.1c0.6,1.5,0.8,3,0.8,4.6c0,1.7-0.3,3.2-0.9,4.7c-0.6,1.5-1.4,2.8-2.5,4
			c-1.1,1.2-2.3,2.1-3.7,2.8C1015.1,977,1013.5,977.3,1011.8,977.3z M1003.3,964.7c0,1.3,0.2,2.5,0.6,3.7c0.4,1.2,1,2.2,1.7,3.1
			c0.7,0.9,1.6,1.6,2.7,2.2c1,0.5,2.2,0.8,3.5,0.8c1.3,0,2.5-0.3,3.6-0.8c1-0.6,1.9-1.3,2.7-2.2c0.7-0.9,1.3-2,1.7-3.1
			c0.4-1.2,0.6-2.3,0.6-3.5c0-1.3-0.2-2.5-0.6-3.6c-0.4-1.2-1-2.2-1.8-3.1c-0.8-0.9-1.7-1.6-2.7-2.2c-1-0.5-2.2-0.8-3.4-0.8
			c-1.3,0-2.5,0.3-3.6,0.8c-1,0.5-1.9,1.3-2.7,2.2c-0.7,0.9-1.3,2-1.7,3.1C1003.5,962.3,1003.3,963.5,1003.3,964.7z"/>
		<path class="st2" d="M1028.6,977.1v-24.9h3.2v22.1h13.9v2.8H1028.6z"/>
		<path class="st2" d="M1049.8,977.1v-24.9h3.2v24.9H1049.8z"/>
	</g>
</g>
<g id="mrsa-title">
	<g>
		<path class="st2" d="M118.7,1060.1v-19l-8.2,14.6h-1.9l-8.2-14.6v19h-3.1v-24.8h3.3l9,16.1l9-16.1h3.3v24.8H118.7z"/>
		<path class="st2" d="M128.5,1060.1v-24.8h10.6c1.1,0,2.1,0.2,3,0.7c0.9,0.5,1.7,1.1,2.4,1.8c0.7,0.8,1.2,1.6,1.6,2.6
			c0.4,0.9,0.6,1.9,0.6,2.9c0,1.1-0.2,2.2-0.6,3.3c-0.4,1-1,1.9-1.8,2.6c-0.8,0.7-1.7,1.2-2.7,1.5l6,9.5h-3.6l-5.7-8.9h-6.6v8.9
			H128.5z M131.7,1048.4h7.5c0.9,0,1.6-0.2,2.3-0.7c0.6-0.5,1.1-1.1,1.5-1.9c0.4-0.8,0.5-1.6,0.5-2.6c0-0.9-0.2-1.8-0.6-2.6
			c-0.4-0.8-1-1.4-1.6-1.9c-0.7-0.5-1.4-0.7-2.2-0.7h-7.3V1048.4z"/>
		<path class="st2" d="M166.8,1040.5c-0.3-0.3-0.7-0.6-1.1-0.9c-0.5-0.3-1-0.6-1.6-0.8c-0.6-0.2-1.2-0.4-1.9-0.6
			c-0.7-0.2-1.4-0.2-2.2-0.2c-1.9,0-3.3,0.4-4.2,1.1c-0.9,0.7-1.4,1.7-1.4,3c0,0.9,0.2,1.6,0.7,2.1c0.5,0.5,1.2,0.9,2.2,1.3
			c1,0.3,2.2,0.7,3.7,1c1.7,0.4,3.2,0.8,4.5,1.4c1.3,0.5,2.2,1.2,2.9,2.1c0.7,0.9,1,2.1,1,3.6c0,1.2-0.2,2.2-0.7,3.1
			c-0.5,0.9-1.1,1.6-1.9,2.2c-0.8,0.6-1.8,1-2.9,1.3c-1.1,0.3-2.3,0.4-3.6,0.4c-1.3,0-2.5-0.1-3.7-0.4c-1.2-0.3-2.3-0.7-3.4-1.2
			c-1.1-0.5-2.1-1.2-3-1.9l1.5-2.7c0.4,0.4,0.9,0.8,1.5,1.2c0.6,0.4,1.3,0.7,2,1.1c0.8,0.3,1.6,0.6,2.5,0.8c0.9,0.2,1.8,0.3,2.7,0.3
			c1.8,0,3.1-0.3,4.1-1c1-0.6,1.5-1.6,1.5-2.8c0-0.9-0.3-1.7-0.8-2.2c-0.5-0.6-1.4-1-2.4-1.4c-1.1-0.4-2.4-0.7-3.9-1.1
			c-1.7-0.4-3.1-0.9-4.2-1.4c-1.1-0.5-2-1.2-2.6-2c-0.6-0.8-0.9-1.9-0.9-3.2c0-1.6,0.4-2.9,1.2-4c0.8-1.1,1.8-1.9,3.2-2.5
			c1.4-0.6,2.9-0.8,4.6-0.8c1.1,0,2.2,0.1,3.1,0.4c1,0.2,1.9,0.6,2.7,1c0.8,0.4,1.6,0.9,2.3,1.5L166.8,1040.5z"/>
		<path class="st2" d="M181.4,1035.3h2.7l10.1,24.8h-3.4l-2.8-7.3h-10.7l-2.8,7.3h-3.4L181.4,1035.3z M187.1,1050.4l-4.4-11.5
			l-4.4,11.5H187.1z"/>
		<path class="st2" d="M205.2,1048c0-2.4,0.5-4.7,1.5-7c1-2.3,2.1-4.6,3.5-6.9l2.4,1c-0.4,0.7-0.9,1.5-1.4,2.5c-0.5,1-1,2.1-1.5,3.3
			c-0.5,1.2-0.8,2.4-1.1,3.6c-0.3,1.2-0.4,2.4-0.4,3.6c0,1.8,0.4,3.8,1.2,5.9c0.8,2.1,1.9,4.2,3.2,6.4l-2.3,1.2
			c-1-1.5-1.8-3-2.6-4.5s-1.3-3-1.8-4.6C205.4,1051,205.2,1049.5,205.2,1048z"/>
		<path class="st2" d="M231.9,1040.5c-0.3-0.3-0.7-0.6-1.1-0.9c-0.5-0.3-1-0.6-1.6-0.8c-0.6-0.2-1.2-0.4-1.9-0.6
			c-0.7-0.2-1.4-0.2-2.2-0.2c-1.9,0-3.3,0.4-4.2,1.1c-0.9,0.7-1.4,1.7-1.4,3c0,0.9,0.2,1.6,0.7,2.1s1.2,0.9,2.2,1.3
			c1,0.3,2.2,0.7,3.7,1c1.7,0.4,3.2,0.8,4.5,1.4s2.2,1.2,2.9,2.1s1,2.1,1,3.6c0,1.2-0.2,2.2-0.7,3.1s-1.1,1.6-1.9,2.2
			c-0.8,0.6-1.8,1-2.9,1.3c-1.1,0.3-2.3,0.4-3.6,0.4c-1.3,0-2.5-0.1-3.7-0.4c-1.2-0.3-2.3-0.7-3.4-1.2c-1.1-0.5-2.1-1.2-3-1.9
			l1.5-2.7c0.4,0.4,0.9,0.8,1.5,1.2c0.6,0.4,1.3,0.7,2,1.1c0.8,0.3,1.6,0.6,2.5,0.8s1.8,0.3,2.7,0.3c1.8,0,3.1-0.3,4.1-1
			c1-0.6,1.5-1.6,1.5-2.8c0-0.9-0.3-1.7-0.8-2.2c-0.5-0.6-1.4-1-2.4-1.4c-1.1-0.4-2.4-0.7-3.9-1.1c-1.7-0.4-3.1-0.9-4.2-1.4
			c-1.1-0.5-2-1.2-2.6-2c-0.6-0.8-0.9-1.9-0.9-3.2c0-1.6,0.4-2.9,1.2-4c0.8-1.1,1.8-1.9,3.2-2.5c1.4-0.6,2.9-0.8,4.6-0.8
			c1.1,0,2.2,0.1,3.1,0.4c1,0.2,1.9,0.6,2.7,1c0.8,0.4,1.6,0.9,2.3,1.5L231.9,1040.5z"/>
		<path class="st2" d="M257.1,1038.1h-8.6v22h-3.2v-22h-8.6v-2.8h20.3V1038.1z"/>
		<path class="st2" d="M266.5,1035.3h2.7l10.1,24.8H276l-2.8-7.3h-10.7l-2.8,7.3h-3.4L266.5,1035.3z M272.2,1050.4l-4.4-11.5
			l-4.4,11.5H272.2z"/>
		<path class="st2" d="M283.3,1060.1v-24.8h10.4c1.1,0,2.1,0.2,3,0.7c0.9,0.5,1.7,1.1,2.4,1.8c0.7,0.8,1.2,1.6,1.6,2.6
			c0.4,0.9,0.6,1.9,0.6,2.9c0,1.4-0.3,2.6-0.9,3.9c-0.6,1.2-1.5,2.2-2.6,3c-1.1,0.8-2.4,1.1-3.8,1.1h-7.4v8.9H283.3z M286.5,1048.4
			h7.2c0.9,0,1.6-0.2,2.3-0.7c0.6-0.5,1.1-1.1,1.5-1.9c0.4-0.8,0.5-1.7,0.5-2.6c0-1-0.2-1.9-0.6-2.6c-0.4-0.8-1-1.4-1.6-1.8
			c-0.7-0.4-1.4-0.7-2.2-0.7h-7V1048.4z"/>
		<path class="st2" d="M325.8,1035.3v24.8h-3.2v-11.3H309v11.3h-3.2v-24.8h3.2v10.7h13.7v-10.7H325.8z"/>
		<path class="st2" d="M350.7,1035.3l-16.8,24.8h-3.4l16.8-24.8H350.7z"/>
		<path class="st2" d="M364.6,1060.3c-1.8,0-3.3-0.3-4.8-1c-1.4-0.7-2.7-1.7-3.7-2.9c-1-1.2-1.8-2.6-2.4-4.1
			c-0.6-1.5-0.8-3.1-0.8-4.6c0-1.7,0.3-3.2,0.9-4.7c0.6-1.5,1.4-2.8,2.5-4c1.1-1.2,2.3-2.1,3.7-2.8c1.4-0.7,3-1,4.7-1
			c1.8,0,3.3,0.4,4.8,1.1c1.4,0.7,2.6,1.7,3.7,2.9c1,1.2,1.8,2.6,2.4,4.1c0.6,1.5,0.8,3,0.8,4.6c0,1.7-0.3,3.2-0.9,4.7
			c-0.6,1.5-1.4,2.8-2.5,4c-1.1,1.2-2.3,2.1-3.7,2.8C367.8,1060,366.3,1060.3,364.6,1060.3z M356.1,1047.7c0,1.3,0.2,2.5,0.6,3.7
			c0.4,1.2,1,2.2,1.7,3.1c0.7,0.9,1.6,1.6,2.7,2.2c1,0.5,2.2,0.8,3.5,0.8c1.3,0,2.5-0.3,3.6-0.8s1.9-1.3,2.7-2.2
			c0.7-0.9,1.3-2,1.7-3.1c0.4-1.2,0.6-2.3,0.6-3.5c0-1.3-0.2-2.5-0.6-3.6c-0.4-1.2-1-2.2-1.8-3.1c-0.8-0.9-1.7-1.6-2.7-2.2
			c-1-0.5-2.2-0.8-3.4-0.8c-1.3,0-2.5,0.3-3.6,0.8c-1,0.5-1.9,1.3-2.7,2.2c-0.7,0.9-1.3,2-1.7,3.1
			C356.3,1045.3,356.1,1046.5,356.1,1047.7z"/>
		<path class="st2" d="M381,1035.3l7.5,10.3l7.5-10.3h3.5l-9.3,12.6l9,12.2h-3.5l-7.2-9.9l-7.2,9.9h-3.6l9-12.2l-9.3-12.6H381z"/>
		<path class="st2" d="M410.8,1035.3h2.7l10.1,24.8h-3.4l-2.8-7.3h-10.7l-2.8,7.3h-3.4L410.8,1035.3z M416.5,1050.4l-4.4-11.5
			l-4.4,11.5H416.5z"/>
		<path class="st2" d="M425.1,1047.5c0-1.5,0.3-3,0.8-4.5c0.5-1.5,1.3-2.8,2.3-4c1-1.2,2.3-2.2,3.7-2.9c1.5-0.7,3.1-1.1,5-1.1
			c2.2,0,4.1,0.5,5.7,1.5c1.6,1,2.8,2.3,3.5,3.9l-2.5,1.6c-0.5-1-1.1-1.9-1.9-2.5c-0.8-0.6-1.6-1.1-2.4-1.3
			c-0.9-0.3-1.7-0.4-2.6-0.4c-1.4,0-2.6,0.3-3.7,0.8c-1.1,0.6-2,1.3-2.7,2.2c-0.7,0.9-1.3,2-1.6,3.1c-0.4,1.2-0.5,2.3-0.5,3.5
			c0,1.3,0.2,2.5,0.6,3.7c0.4,1.2,1,2.2,1.8,3.2c0.8,0.9,1.7,1.6,2.7,2.2c1,0.5,2.2,0.8,3.4,0.8c0.9,0,1.8-0.2,2.7-0.5
			c0.9-0.3,1.8-0.8,2.6-1.4c0.8-0.6,1.4-1.5,1.9-2.5l2.6,1.4c-0.5,1.2-1.3,2.3-2.4,3.1c-1.1,0.9-2.3,1.5-3.6,2
			c-1.3,0.4-2.6,0.7-3.9,0.7c-1.7,0-3.3-0.4-4.7-1.1c-1.4-0.7-2.7-1.7-3.7-2.9c-1-1.2-1.8-2.6-2.4-4.1
			C425.4,1050.6,425.1,1049,425.1,1047.5z"/>
		<path class="st2" d="M451.3,1060.1v-24.8h3.2v24.8H451.3z"/>
		<path class="st2" d="M461.1,1060.1v-24.8h3.2v22h13.9v2.8H461.1z"/>
		<path class="st2" d="M482.2,1060.1v-24.8h3.2v24.8H482.2z"/>
		<path class="st2" d="M495.2,1041.1v19H492v-24.8h2.7l15.2,19.4v-19.4h3.1v24.8h-2.9L495.2,1041.1z"/>
		<path class="st2" d="M525.2,1048c0,1.5-0.2,3-0.6,4.6s-1,3.1-1.8,4.6c-0.8,1.5-1.6,3-2.6,4.5l-2.3-1.2c1.4-2.1,2.4-4.2,3.2-6.4
			c0.8-2.1,1.2-4.1,1.2-5.9c0-1.1-0.1-2.3-0.4-3.6c-0.3-1.2-0.7-2.5-1.1-3.6c-0.5-1.2-1-2.3-1.5-3.3c-0.5-1-1-1.8-1.4-2.5l2.4-1
			c1.4,2.3,2.5,4.6,3.5,6.9C524.7,1043.3,525.2,1045.6,525.2,1048z"/>
	</g>
</g>
<g id="fqr-title">
	<g>
		<path class="st2" d="M41.1,847.5v-24.8h16.4v2.8H44.3v8.3h11.2v2.6H44.3v11.1H41.1z"/>
		<path class="st2" d="M71.8,847.6c-1.8,0-3.3-0.4-4.8-1.1c-1.4-0.7-2.7-1.7-3.7-2.9c-1-1.2-1.8-2.5-2.4-4c-0.6-1.5-0.8-3.1-0.8-4.6
			c0-1.7,0.3-3.2,0.9-4.7c0.6-1.5,1.4-2.8,2.5-4c1.1-1.2,2.3-2.1,3.7-2.8c1.4-0.7,3-1,4.7-1c1.8,0,3.3,0.4,4.8,1.1
			c1.4,0.7,2.6,1.7,3.7,2.9c1,1.2,1.8,2.6,2.4,4.1c0.6,1.5,0.8,3,0.8,4.6c0,1.7-0.3,3.2-0.9,4.7c-0.6,1.5-1.4,2.8-2.5,4
			c-1.1,1.2-2.3,2.1-3.7,2.8C75,847.3,73.5,847.6,71.8,847.6z M71.8,844.8c1.3,0,2.5-0.3,3.6-0.8c1-0.6,1.9-1.3,2.7-2.2
			c0.7-0.9,1.3-2,1.7-3.1c0.4-1.2,0.6-2.3,0.6-3.5c0-1.3-0.2-2.5-0.6-3.7c-0.4-1.2-1-2.2-1.8-3.1c-0.8-0.9-1.7-1.6-2.7-2.2
			c-1-0.5-2.2-0.8-3.4-0.8c-1.3,0-2.5,0.3-3.6,0.8c-1,0.6-1.9,1.3-2.7,2.2c-0.7,0.9-1.3,2-1.7,3.1c-0.4,1.2-0.6,2.3-0.6,3.6
			c0,1.3,0.2,2.5,0.6,3.7c0.4,1.2,1,2.2,1.7,3.1c0.7,0.9,1.6,1.6,2.7,2.2C69.4,844.5,70.5,844.8,71.8,844.8z M73.2,839.3h3.1l7,8.1
			h-3.1L73.2,839.3z"/>
		<path class="st2" d="M88.5,847.5v-24.8h10.6c1.1,0,2.1,0.2,3,0.7c0.9,0.5,1.7,1.1,2.4,1.8c0.7,0.8,1.2,1.6,1.6,2.6
			c0.4,0.9,0.6,1.9,0.6,2.9c0,1.1-0.2,2.2-0.6,3.3c-0.4,1-1,1.9-1.8,2.6c-0.8,0.7-1.7,1.2-2.7,1.5l6,9.5h-3.6l-5.7-8.9h-6.6v8.9
			H88.5z M91.7,835.7h7.5c0.9,0,1.6-0.2,2.3-0.7c0.6-0.5,1.1-1.1,1.5-1.9c0.4-0.8,0.5-1.6,0.5-2.6c0-0.9-0.2-1.8-0.6-2.6
			c-0.4-0.8-1-1.4-1.6-1.9c-0.7-0.5-1.4-0.7-2.2-0.7h-7.3V835.7z"/>
		<path class="st2" d="M111.5,839.3v-2.8h10.3v2.8H111.5z"/>
		<path class="st2" d="M144.6,844.7v2.8h-16.9v-24.8h16.6v2.8h-13.4v8h11.7v2.6h-11.7v8.6H144.6z"/>
		<path class="st2" d="M148.4,839.3v-2.8h10.3v2.8H148.4z"/>
		<path class="st2" d="M163,834.8c0-1.5,0.3-3,0.8-4.5c0.5-1.5,1.3-2.8,2.3-4c1-1.2,2.3-2.2,3.7-2.9c1.5-0.7,3.1-1.1,5-1.1
			c2.2,0,4.1,0.5,5.7,1.5c1.6,1,2.8,2.3,3.5,3.9l-2.5,1.6c-0.5-1-1.1-1.9-1.9-2.5c-0.8-0.6-1.6-1.1-2.5-1.3
			c-0.9-0.3-1.7-0.4-2.6-0.4c-1.4,0-2.6,0.3-3.7,0.8c-1.1,0.6-2,1.3-2.7,2.2c-0.7,0.9-1.3,2-1.6,3.1c-0.4,1.2-0.5,2.3-0.5,3.5
			c0,1.3,0.2,2.5,0.6,3.7c0.4,1.2,1,2.2,1.8,3.2c0.8,0.9,1.7,1.6,2.7,2.2c1,0.5,2.2,0.8,3.4,0.8c0.9,0,1.8-0.2,2.7-0.5
			c0.9-0.3,1.8-0.8,2.6-1.4c0.8-0.6,1.4-1.5,1.9-2.5l2.6,1.4c-0.5,1.2-1.3,2.3-2.4,3.1c-1.1,0.9-2.3,1.5-3.6,2
			c-1.3,0.4-2.6,0.7-3.9,0.7c-1.7,0-3.3-0.4-4.7-1.1c-1.4-0.7-2.7-1.7-3.7-2.9c-1-1.2-1.8-2.6-2.4-4.1
			C163.3,837.9,163,836.4,163,834.8z"/>
		<path class="st2" d="M199,847.6c-1.8,0-3.3-0.3-4.8-1c-1.4-0.7-2.7-1.7-3.7-2.9c-1-1.2-1.8-2.6-2.4-4.1c-0.6-1.5-0.8-3.1-0.8-4.6
			c0-1.7,0.3-3.2,0.9-4.7c0.6-1.5,1.4-2.8,2.5-4c1.1-1.2,2.3-2.1,3.7-2.8c1.4-0.7,3-1,4.7-1c1.8,0,3.3,0.4,4.8,1.1
			c1.4,0.7,2.6,1.7,3.7,2.9c1,1.2,1.8,2.6,2.4,4.1c0.6,1.5,0.8,3,0.8,4.6c0,1.7-0.3,3.2-0.9,4.7c-0.6,1.5-1.4,2.8-2.5,4
			c-1.1,1.2-2.3,2.1-3.7,2.8C202.2,847.3,200.7,847.6,199,847.6z M190.5,835c0,1.3,0.2,2.5,0.6,3.7c0.4,1.2,1,2.2,1.7,3.1
			c0.7,0.9,1.6,1.6,2.7,2.2c1.1,0.5,2.2,0.8,3.5,0.8c1.3,0,2.5-0.3,3.6-0.8c1-0.6,1.9-1.3,2.7-2.2c0.7-0.9,1.3-2,1.7-3.1
			c0.4-1.2,0.6-2.3,0.6-3.5c0-1.3-0.2-2.5-0.6-3.6c-0.4-1.2-1-2.2-1.8-3.1c-0.8-0.9-1.7-1.6-2.7-2.2c-1-0.5-2.2-0.8-3.4-0.8
			c-1.3,0-2.5,0.3-3.6,0.8c-1,0.5-1.9,1.3-2.7,2.2c-0.7,0.9-1.3,2-1.7,3.1C190.7,832.6,190.5,833.8,190.5,835z"/>
		<path class="st2" d="M215.8,847.5v-24.8h3.1v22h13.9v2.8H215.8z"/>
		<path class="st2" d="M237,847.5v-24.8h3.1v24.8H237z"/>
	</g>
</g>
<g id="vre-title-2016">
	<g id="vre">
		<path class="st2" d="M55.4,215.3l8.2,20.9l8.2-20.9h3.3l-10.1,24.8h-2.9l-10.1-24.8H55.4z"/>
		<path class="st2" d="M79.2,240.1v-24.8h10.6c1.1,0,2.1,0.2,3,0.7c0.9,0.5,1.7,1.1,2.4,1.8c0.7,0.8,1.2,1.6,1.6,2.6
			c0.4,0.9,0.6,1.9,0.6,2.9c0,1.1-0.2,2.2-0.6,3.3c-0.4,1-1,1.9-1.8,2.6c-0.8,0.7-1.7,1.2-2.7,1.5l6,9.5h-3.6l-5.7-8.9h-6.6v8.9
			H79.2z M82.4,228.4h7.5c0.9,0,1.6-0.2,2.3-0.7s1.1-1.1,1.5-1.9c0.4-0.8,0.5-1.6,0.5-2.6c0-0.9-0.2-1.8-0.6-2.6
			c-0.4-0.8-1-1.4-1.6-1.9c-0.7-0.5-1.4-0.7-2.2-0.7h-7.3V228.4z"/>
		<path class="st2" d="M119.8,237.3v2.8h-16.9v-24.8h16.6v2.8h-13.4v8h11.7v2.6h-11.7v8.6H119.8z"/>
	</g>
</g>
<g id="pnsp-title_1_">
	<g>
		<path class="st2" d="M960.4,459.1v-24.8h10.4c1.1,0,2.1,0.2,3,0.7c0.9,0.5,1.7,1.1,2.4,1.8c0.7,0.8,1.2,1.6,1.6,2.6
			c0.4,0.9,0.6,1.9,0.6,2.9c0,1.4-0.3,2.6-0.9,3.9c-0.6,1.2-1.5,2.2-2.6,3c-1.1,0.8-2.4,1.1-3.8,1.1h-7.4v8.9H960.4z M963.6,447.4
			h7.2c0.9,0,1.6-0.2,2.3-0.7c0.6-0.5,1.1-1.1,1.5-1.9c0.4-0.8,0.5-1.7,0.5-2.6c0-1-0.2-1.9-0.6-2.6c-0.4-0.8-1-1.4-1.6-1.8
			c-0.7-0.4-1.4-0.7-2.2-0.7h-7V447.4z"/>
		<path class="st2" d="M986.1,440.1v19h-3.2v-24.8h2.7l15.2,19.4v-19.4h3.1v24.8h-2.9L986.1,440.1z"/>
		<path class="st2" d="M1025.2,439.5c-0.3-0.3-0.7-0.6-1.1-0.9c-0.5-0.3-1-0.6-1.6-0.8c-0.6-0.2-1.2-0.4-1.9-0.6
			c-0.7-0.2-1.4-0.2-2.2-0.2c-1.9,0-3.3,0.4-4.2,1.1c-0.9,0.7-1.4,1.7-1.4,3c0,0.9,0.2,1.6,0.7,2.1c0.5,0.5,1.2,0.9,2.2,1.3
			c1,0.3,2.2,0.7,3.7,1c1.7,0.4,3.2,0.8,4.5,1.4c1.3,0.5,2.2,1.2,2.9,2.1c0.7,0.9,1,2.1,1,3.6c0,1.2-0.2,2.2-0.7,3.1
			s-1.1,1.6-1.9,2.2c-0.8,0.6-1.8,1-2.9,1.3c-1.1,0.3-2.3,0.4-3.6,0.4c-1.3,0-2.5-0.1-3.7-0.4c-1.2-0.3-2.3-0.7-3.4-1.2
			c-1.1-0.5-2.1-1.2-3-1.9l1.5-2.7c0.4,0.4,0.9,0.8,1.5,1.2c0.6,0.4,1.3,0.7,2,1.1c0.8,0.3,1.6,0.6,2.5,0.8c0.9,0.2,1.8,0.3,2.7,0.3
			c1.8,0,3.1-0.3,4.1-1c1-0.6,1.5-1.6,1.5-2.8c0-0.9-0.3-1.7-0.8-2.2c-0.5-0.6-1.4-1-2.4-1.4c-1.1-0.4-2.4-0.7-3.9-1.1
			c-1.7-0.4-3.1-0.9-4.2-1.4c-1.1-0.5-2-1.2-2.6-2c-0.6-0.8-0.9-1.9-0.9-3.2c0-1.6,0.4-2.9,1.2-4c0.8-1.1,1.8-1.9,3.2-2.5
			c1.4-0.6,2.9-0.8,4.6-0.8c1.1,0,2.2,0.1,3.1,0.4c1,0.2,1.9,0.6,2.7,1c0.8,0.4,1.6,0.9,2.3,1.5L1025.2,439.5z"/>
		<path class="st2" d="M1032.6,459.1v-24.8h10.4c1.1,0,2.1,0.2,3,0.7c0.9,0.5,1.7,1.1,2.4,1.8c0.7,0.8,1.2,1.6,1.6,2.6
			c0.4,0.9,0.6,1.9,0.6,2.9c0,1.4-0.3,2.6-0.9,3.9c-0.6,1.2-1.5,2.2-2.6,3c-1.1,0.8-2.4,1.1-3.8,1.1h-7.4v8.9H1032.6z M1035.8,447.4
			h7.2c0.9,0,1.6-0.2,2.3-0.7c0.6-0.5,1.1-1.1,1.5-1.9c0.4-0.8,0.5-1.7,0.5-2.6c0-1-0.2-1.9-0.6-2.6c-0.4-0.8-1-1.4-1.6-1.8
			c-0.7-0.4-1.4-0.7-2.2-0.7h-7V447.4z"/>
	</g>
</g>
<g id="bad-step-1">
	<g>
		<line class="st9" x1="566" y1="722.3" x2="591.4" y2="722.3"/>
		<g>
			<g>
				<g>
					<g>
						<g>
							<line class="st11" x1="442.7" y1="308.5" x2="442.7" y2="402.1"/>
						</g>
					</g>
					<g>
						<g>
							<line class="st11" x1="428.3" y1="309.6" x2="442.9" y2="402.1"/>
						</g>
					</g>
					<g>
						<g>
							<line class="st11" x1="414.3" y1="313" x2="443.1" y2="402.1"/>
						</g>
					</g>
					<g>
						<g>
							<line class="st11" x1="400.9" y1="318.5" x2="443.3" y2="402"/>
						</g>
					</g>
					<g>
						<g>
							<line class="st11" x1="388.6" y1="326.1" x2="443.5" y2="401.8"/>
						</g>
					</g>
					<g>
						<g>
							<line class="st11" x1="377.6" y1="335.4" x2="443.7" y2="401.7"/>
						</g>
					</g>
					<g>
						<g>
							<line class="st11" x1="368.2" y1="346.4" x2="443.9" y2="401.5"/>
						</g>
					</g>
					<g>
						<g>
							<line class="st11" x1="360.6" y1="358.7" x2="444" y2="401.3"/>
						</g>
					</g>
					<g>
						<g>
							<line class="st11" x1="355.1" y1="372.1" x2="444.1" y2="401.1"/>
						</g>
					</g>
					<g>
						<g>
							<line class="st11" x1="351.7" y1="386.2" x2="444.1" y2="400.9"/>
						</g>
					</g>
					<g>
						<g>
							<line class="st11" x1="350.5" y1="400.6" x2="444.2" y2="400.6"/>
						</g>
					</g>
					<g>
						<g>
							<line class="st11" x1="351.7" y1="415" x2="444.2" y2="400.4"/>
						</g>
					</g>
					<g>
						<g>
							<line class="st11" x1="355" y1="429" x2="444.1" y2="400.2"/>
						</g>
					</g>
					<g>
						<g>
							<line class="st11" x1="360.6" y1="442.4" x2="444" y2="399.9"/>
						</g>
					</g>
					<g>
						<g>
							<line class="st11" x1="368.1" y1="454.7" x2="443.9" y2="399.7"/>
						</g>
					</g>
					<g>
						<g>
							<line class="st11" x1="377.5" y1="465.7" x2="443.7" y2="399.6"/>
						</g>
					</g>
					<g>
						<g>
							<line class="st11" x1="388.5" y1="475.1" x2="443.5" y2="399.4"/>
						</g>
					</g>
					<g>
						<g>
							<line class="st11" x1="400.8" y1="482.7" x2="443.3" y2="399.3"/>
						</g>
					</g>
					<g>
						<g>
							<line class="st11" x1="414.2" y1="488.2" x2="443.1" y2="399.2"/>
						</g>
					</g>
					<g>
						<g>
							<line class="st11" x1="428.2" y1="491.6" x2="442.9" y2="399.1"/>
						</g>
					</g>
					<g>
						<g>
							<line class="st11" x1="442.6" y1="492.7" x2="442.7" y2="399.1"/>
						</g>
					</g>
					<g>
						<g>
							<line class="st11" x1="457" y1="491.6" x2="442.4" y2="399.1"/>
						</g>
					</g>
					<g>
						<g>
							<line class="st11" x1="471.1" y1="488.3" x2="442.2" y2="399.2"/>
						</g>
					</g>
					<g>
						<g>
							<line class="st11" x1="484.5" y1="482.7" x2="442" y2="399.3"/>
						</g>
					</g>
					<g>
						<g>
							<line class="st11" x1="496.8" y1="475.2" x2="441.8" y2="399.4"/>
						</g>
					</g>
					<g>
						<g>
							<line class="st11" x1="507.8" y1="465.8" x2="441.6" y2="399.6"/>
						</g>
					</g>
					<g>
						<g>
							<line class="st11" x1="517.2" y1="454.8" x2="441.4" y2="399.7"/>
						</g>
					</g>
					<g>
						<g>
							<line class="st11" x1="524.7" y1="442.5" x2="441.3" y2="399.9"/>
						</g>
					</g>
					<g>
						<g>
							<line class="st11" x1="530.3" y1="429.1" x2="441.2" y2="400.2"/>
						</g>
					</g>
					<g>
						<g>
							<line class="st11" x1="533.7" y1="415.1" x2="441.2" y2="400.4"/>
						</g>
					</g>
					<g>
						<g>
							<line class="st11" x1="534.8" y1="400.6" x2="441.2" y2="400.6"/>
						</g>
					</g>
					<g>
						<g>
							<line class="st11" x1="533.7" y1="386.2" x2="441.2" y2="400.9"/>
						</g>
					</g>
					<g>
						<g>
							<line class="st11" x1="530.3" y1="372.2" x2="441.2" y2="401.1"/>
						</g>
					</g>
					<g>
						<g>
							<line class="st11" x1="524.8" y1="358.8" x2="441.3" y2="401.3"/>
						</g>
					</g>
					<g>
						<g>
							<line class="st11" x1="517.2" y1="346.5" x2="441.4" y2="401.5"/>
						</g>
					</g>
					<g>
						<g>
							<line class="st11" x1="507.8" y1="335.5" x2="441.6" y2="401.7"/>
						</g>
					</g>
					<g>
						<g>
							<line class="st11" x1="496.8" y1="326.1" x2="441.8" y2="401.8"/>
						</g>
					</g>
					<g>
						<g>
							<line class="st11" x1="484.5" y1="318.5" x2="442" y2="402"/>
						</g>
					</g>
					<g>
						<g>
							<line class="st11" x1="471.1" y1="313" x2="442.2" y2="402.1"/>
						</g>
					</g>
					<g>
						<g>
							<line class="st11" x1="457.1" y1="309.6" x2="442.4" y2="402.1"/>
						</g>
					</g>
					<g>
						<g>
							<line class="st11" x1="442.7" y1="308.5" x2="442.7" y2="402.1"/>
						</g>
					</g>
				</g>
				<g>
					<g>
						<circle class="st5" cx="442.3" cy="400.6" r="79.9"/>
					</g>
					<path class="st9" d="M384.9,400.6c0-31.7,25.7-57.4,57.4-57.4"/>
					<circle class="st12" cx="475.1" cy="379.1" r="24.2"/>
					
						<ellipse transform="matrix(0.2306 -0.9731 0.9731 0.2306 -109.8796 700.2996)" class="st12" cx="387.9" cy="419.6" rx="8.5" ry="8.5"/>
					<g>
						<polygon class="st6" points="427.1,428 419.9,415.6 412.7,403.1 427.1,403.1 441.4,403.1 434.2,415.6 						"/>
					</g>
					
						<rect x="450.5" y="430.8" transform="matrix(0.7071 0.7071 -0.7071 0.7071 448.456 -197.27)" class="st2" width="23.7" height="23.7"/>
				</g>
			</g>
			<line class="st9" x1="442.3" y1="333.3" x2="442.3" y2="353.2"/>
		</g>
	</g>
</g>
<g id="bad-step-2">
	<g>
		<g>
			<polyline class="st11" points="399.3,630.6 418.1,634.2 414.5,615.4 433.3,619 429.7,600.2 448.5,603.8 444.9,585 463.8,588.6 
				460.1,569.7 479,573.4 			"/>
		</g>
		<g>
			<g>
				<circle class="st0" cx="310.4" cy="595.4" r="15.4"/>
			</g>
			<g>
				<g>
					<line class="st13" x1="310.5" y1="595.2" x2="310.5" y2="640.5"/>
					<path class="st12" d="M315.7,642.2c-3,3-7.8,3-10.7,0s-3-7.8,0-10.7c3-3,7.8-3,10.7,0C318.7,634.4,318.7,639.3,315.7,642.2z"/>
				</g>
			</g>
		</g>
		<g>
			<g>
				<path class="st0" d="M756.6,620.8c-6.2,0-12.4-2.4-17.1-7.1c-9.4-9.4-9.4-24.7,0-34.2c21.7-21.7,21.7-57,0-78.7
					c-9.4-9.4-9.4-24.7,0-34.2c9.4-9.4,24.7-9.4,34.2,0c40.5,40.5,40.5,106.5,0,147.1C768.9,618.4,762.8,620.8,756.6,620.8z"/>
			</g>
			<polyline class="st14" points="768.9,565.3 780,559.7 771.2,550.9 781.7,544.3 772,536.6 781.5,528.6 770.7,522.4 778.8,513 
				767,509.1 772.1,497.6 755.6,482.4 			"/>
			<circle class="st12" cx="755.6" cy="482.4" r="11.4"/>
			<g>
				<line class="st15" x1="743.5" y1="533.1" x2="763.5" y2="553.1"/>
				<line class="st15" x1="737.7" y1="538.8" x2="757.7" y2="558.9"/>
			</g>
			<g>
				<line class="st15" x1="766" y1="598.2" x2="786" y2="618.2"/>
				<line class="st15" x1="760.2" y1="604" x2="780.3" y2="624"/>
			</g>
			<g>
				<line class="st15" x1="786.2" y1="519.4" x2="814.5" y2="519.4"/>
				<line class="st15" x1="786.2" y1="527.6" x2="814.5" y2="527.6"/>
			</g>
			<g>
				<line class="st15" x1="777.3" y1="496.3" x2="797.3" y2="476.3"/>
				<line class="st15" x1="783" y1="502.1" x2="803.1" y2="482"/>
			</g>
			<polygon class="st5" points="755.6,587.3 760.5,595.8 765.4,604.3 755.6,604.3 745.8,604.3 750.7,595.8 			"/>
		</g>
		<line class="st9" x1="566" y1="722.3" x2="591.4" y2="722.3"/>
		<g>
			<g>
				<path class="st11" d="M591.1,801.2c40.8-8.2,84.4-27.3,120.4-59.3"/>
				<path class="st0" d="M716,745.4L716,745.4c-0.2,0.3-0.5,0.6-0.8,0.8l0,0l0,0l0,0c-2.4,2.1-6,1.9-8.1-0.5l0,0
					c-2.1-2.4-1.9-6,0.5-8.1l0,0c2.4-2.1,6-1.8,8.1,0.5C717.6,740.2,717.7,743.2,716,745.4z"/>
				<path class="st0" d="M692.5,763.8L692.5,763.8c-0.4,0.5-0.8,0.9-1.3,1.2l0,0l0,0l0,0c-2.6,1.8-6.2,1.2-8-1.5l0,0
					c-1.8-2.6-1.1-6.2,1.5-8l0,0c2.6-1.8,6.2-1.2,8,1.5C694.1,759.1,693.9,761.8,692.5,763.8z"/>
				<path class="st0" d="M666.9,779.3L666.9,779.3c-0.5,0.6-1.1,1.2-1.9,1.6l0,0c-2.8,1.5-6.3,0.4-7.8-2.4l0,0
					c-1.5-2.8-0.4-6.3,2.4-7.8l0,0c2.8-1.5,6.3-0.4,7.8,2.4C668.5,775.2,668.2,777.6,666.9,779.3z"/>
				<path class="st0" d="M639.8,791.9L639.8,791.9c-0.6,0.8-1.5,1.5-2.5,1.9l0,0c-3,1.2-6.3-0.3-7.5-3.2l0,0c-1.2-3,0.3-6.3,3.2-7.5
					l0,0c3-1.2,6.3,0.3,7.5,3.2C641.3,788.2,641,790.3,639.8,791.9z"/>
			</g>
			<path class="st11" d="M592.6,808.1l16.4-4.2c3.6-1,5.6-4.8,4.5-8.3l0,0c-1-3.6-4.8-5.6-8.3-4.5l-16.4,4.2"/>
		</g>
	</g>
</g>
<g id="bad-step-3">
	<g>
		<g>
			<line class="st14" x1="552.6" y1="281.7" x2="552.6" y2="336.2"/>
			<line class="st14" x1="525.3" y1="309" x2="579.8" y2="309"/>
			<line class="st14" x1="552.6" y1="281.7" x2="552.6" y2="371.7"/>
			<line class="st14" x1="525.3" y1="309" x2="579.8" y2="309"/>
			<line class="st14" x1="533.3" y1="289.7" x2="571.9" y2="328.2"/>
			<line class="st14" x1="533.3" y1="328.2" x2="571.9" y2="289.7"/>
		</g>
		<g>
			<g>
				<g>
					<g>
						<line class="st16" x1="720.5" y1="726.3" x2="720.6" y2="676.4"/>
					</g>
				</g>
				<g>
					<g>
						<line class="st16" x1="728.2" y1="725.7" x2="720.5" y2="676.4"/>
					</g>
				</g>
				<g>
					<g>
						<line class="st16" x1="735.7" y1="723.9" x2="720.3" y2="676.4"/>
					</g>
				</g>
				<g>
					<g>
						<line class="st16" x1="742.8" y1="720.9" x2="720.2" y2="676.5"/>
					</g>
				</g>
				<g>
					<g>
						<line class="st16" x1="749.4" y1="716.9" x2="720.1" y2="676.5"/>
					</g>
				</g>
				<g>
					<g>
						<line class="st16" x1="755.3" y1="711.9" x2="720" y2="676.6"/>
					</g>
				</g>
				<g>
					<g>
						<line class="st16" x1="760.3" y1="706.1" x2="719.9" y2="676.7"/>
					</g>
				</g>
				<g>
					<g>
						<line class="st16" x1="764.3" y1="699.5" x2="719.9" y2="676.8"/>
					</g>
				</g>
				<g>
					<g>
						<line class="st16" x1="767.3" y1="692.4" x2="719.8" y2="676.9"/>
					</g>
				</g>
				<g>
					<g>
						<line class="st16" x1="769.1" y1="684.9" x2="719.8" y2="677.1"/>
					</g>
				</g>
				<g>
					<g>
						<line class="st16" x1="769.7" y1="677.2" x2="719.8" y2="677.2"/>
					</g>
				</g>
				<g>
					<g>
						<line class="st16" x1="769.1" y1="669.5" x2="719.8" y2="677.3"/>
					</g>
				</g>
				<g>
					<g>
						<line class="st16" x1="767.3" y1="662" x2="719.8" y2="677.4"/>
					</g>
				</g>
				<g>
					<g>
						<line class="st16" x1="764.3" y1="654.9" x2="719.9" y2="677.6"/>
					</g>
				</g>
				<g>
					<g>
						<line class="st16" x1="760.3" y1="648.4" x2="719.9" y2="677.7"/>
					</g>
				</g>
				<g>
					<g>
						<line class="st16" x1="755.3" y1="642.5" x2="720" y2="677.8"/>
					</g>
				</g>
				<g>
					<g>
						<line class="st16" x1="749.4" y1="637.5" x2="720.1" y2="677.8"/>
					</g>
				</g>
				<g>
					<g>
						<line class="st16" x1="742.9" y1="633.5" x2="720.2" y2="677.9"/>
					</g>
				</g>
				<g>
					<g>
						<line class="st16" x1="735.8" y1="630.5" x2="720.3" y2="678"/>
					</g>
				</g>
				<g>
					<g>
						<line class="st16" x1="728.3" y1="628.7" x2="720.4" y2="678"/>
					</g>
				</g>
				<g>
					<g>
						<line class="st16" x1="720.6" y1="628.1" x2="720.6" y2="678"/>
					</g>
				</g>
				<g>
					<g>
						<line class="st16" x1="712.9" y1="628.7" x2="720.7" y2="678"/>
					</g>
				</g>
				<g>
					<g>
						<line class="st16" x1="705.4" y1="630.5" x2="720.8" y2="678"/>
					</g>
				</g>
				<g>
					<g>
						<line class="st16" x1="698.3" y1="633.4" x2="720.9" y2="677.9"/>
					</g>
				</g>
				<g>
					<g>
						<line class="st16" x1="691.7" y1="637.5" x2="721" y2="677.8"/>
					</g>
				</g>
				<g>
					<g>
						<line class="st16" x1="685.9" y1="642.5" x2="721.1" y2="677.8"/>
					</g>
				</g>
				<g>
					<g>
						<line class="st16" x1="680.9" y1="648.3" x2="721.2" y2="677.7"/>
					</g>
				</g>
				<g>
					<g>
						<line class="st16" x1="676.8" y1="654.9" x2="721.3" y2="677.6"/>
					</g>
				</g>
				<g>
					<g>
						<line class="st16" x1="673.9" y1="662" x2="721.3" y2="677.4"/>
					</g>
				</g>
				<g>
					<g>
						<line class="st16" x1="672.1" y1="669.5" x2="721.4" y2="677.3"/>
					</g>
				</g>
				<g>
					<g>
						<line class="st16" x1="671.5" y1="677.2" x2="721.4" y2="677.2"/>
					</g>
				</g>
				<g>
					<g>
						<line class="st16" x1="672.1" y1="684.9" x2="721.4" y2="677.1"/>
					</g>
				</g>
				<g>
					<g>
						<line class="st16" x1="673.9" y1="692.4" x2="721.3" y2="676.9"/>
					</g>
				</g>
				<g>
					<g>
						<line class="st16" x1="676.8" y1="699.5" x2="721.3" y2="676.8"/>
					</g>
				</g>
				<g>
					<g>
						<line class="st16" x1="680.9" y1="706" x2="721.2" y2="676.7"/>
					</g>
				</g>
				<g>
					<g>
						<line class="st16" x1="685.9" y1="711.9" x2="721.1" y2="676.6"/>
					</g>
				</g>
				<g>
					<g>
						<line class="st16" x1="691.7" y1="716.9" x2="721" y2="676.5"/>
					</g>
				</g>
				<g>
					<g>
						<line class="st16" x1="698.3" y1="720.9" x2="720.9" y2="676.5"/>
					</g>
				</g>
				<g>
					<g>
						<line class="st16" x1="705.4" y1="723.9" x2="720.8" y2="676.4"/>
					</g>
				</g>
				<g>
					<g>
						<line class="st16" x1="712.9" y1="725.7" x2="720.7" y2="676.4"/>
					</g>
				</g>
				<g>
					<g>
						<line class="st16" x1="720.6" y1="726.3" x2="720.6" y2="676.4"/>
					</g>
				</g>
			</g>
			<g>
				<g>
					
						<ellipse transform="matrix(0.7071 -0.7071 0.7071 0.7071 -267.7327 708.0216)" class="st2" cx="720.8" cy="677.2" rx="42.6" ry="42.6"/>
				</g>
				<g>
					<defs>
						
							<ellipse id="SVGID_5_" transform="matrix(0.7437 -0.6685 0.6685 0.7437 -267.9722 655.3564)" cx="720.8" cy="677.2" rx="37.3" ry="37.3"/>
					</defs>
					<clipPath id="SVGID_6_">
						<use xlink:href="#SVGID_5_"  style="overflow:visible;"/>
					</clipPath>
					<g class="st18">
						<path class="st12" d="M743.4,678.5h26.3v-2.7h-26.2c0,0.2,0,0.4,0,0.6C743.5,677.1,743.4,677.8,743.4,678.5z"/>
						<path class="st12" d="M769.3,670.9l-0.4-2.7l-25.8,4.1c0.2,0.9,0.3,1.8,0.3,2.7L769.3,670.9z"/>
						<path class="st12" d="M767.7,663.3l-0.8-2.6l-24.7,8c0.3,0.8,0.5,1.7,0.7,2.6L767.7,663.3z"/>
						<path class="st12" d="M764.9,656.1l-1.2-2.4l-23,11.7c0.4,0.8,0.8,1.6,1.2,2.5L764.9,656.1z"/>
						<path class="st12" d="M761.1,649.4l-1.6-2.2l-20.8,15.1c0.6,0.7,1.1,1.5,1.5,2.2L761.1,649.4z"/>
						<path class="st12" d="M738.1,661.6l18.2-18.2l-1.9-1.9l-18.1,18.1C736.8,660.3,737.5,660.9,738.1,661.6z"/>
						<path class="st12" d="M750.5,638.3l-2.2-1.6l-15,20.7c0.8,0.5,1.5,1.1,2.2,1.6L750.5,638.3z"/>
						<path class="st12" d="M744.1,634.1l-2.4-1.2l-11.6,22.7c0.8,0.4,1.6,0.8,2.4,1.3L744.1,634.1z"/>
						<path class="st12" d="M737,630.9l-2.6-0.8l-7.9,24.2c0.9,0.2,1.7,0.5,2.6,0.9L737,630.9z"/>
						<path class="st12" d="M729.6,628.9l-2.7-0.4l-4,25.1c0.9,0.1,1.8,0.2,2.7,0.4L729.6,628.9z"/>
						<path class="st12" d="M721.9,653.6v-25.5h-2.7v25.5c0.4,0,0.9,0,1.4,0C721,653.5,721.5,653.5,721.9,653.6z"/>
					</g>
					<g class="st18">
						<path class="st12" d="M679.8,704.2l1.6,2.2l20.8-15.1c-0.6-0.7-1.1-1.5-1.5-2.2L679.8,704.2z"/>
						<path class="st12" d="M702.8,692l-18.2,18.2l1.9,1.9l18.1-18.1C704,693.4,703.4,692.7,702.8,692z"/>
						<path class="st12" d="M690.4,715.4l2.2,1.6l15-20.7c-0.8-0.5-1.5-1.1-2.2-1.6L690.4,715.4z"/>
						<path class="st12" d="M696.8,719.6l2.4,1.2l11.6-22.7c-0.8-0.4-1.6-0.8-2.4-1.3L696.8,719.6z"/>
						<path class="st12" d="M703.9,722.8l2.6,0.8l7.9-24.2c-0.9-0.2-1.7-0.5-2.6-0.9L703.9,722.8z"/>
					</g>
				</g>
				<g>
					
						<ellipse transform="matrix(0.1294 -0.9916 0.9916 0.1294 -43.3619 1303.3959)" class="st2" cx="720.6" cy="676.4" rx="29.7" ry="29.7"/>
				</g>
				
					<ellipse transform="matrix(0.9346 -0.3558 0.3558 0.9346 -193.4873 300.5937)" class="st5" cx="720.6" cy="676.4" rx="23.3" ry="23.3"/>
				<g>
					
						<rect x="710.9" y="666.9" transform="matrix(0.7071 -0.7071 0.7071 0.7071 -267.3515 707.7151)" class="st2" width="19.4" height="19.4"/>
				</g>
			</g>
		</g>
		<g>
			<polyline class="st11" points="727.7,427.4 735.4,438.8 743.1,427.4 750.9,438.8 758.6,427.4 766.4,438.8 774.1,427.4 
				781.9,438.8 789.6,427.4 797.4,438.8 			"/>
		</g>
		<g>
			<defs>
				
					<rect id="SVGID_7_" x="571.3" y="443.6" transform="matrix(7.286548e-07 1 -1 7.286548e-07 1115.495 -164.2481)" width="137.2" height="64.1"/>
			</defs>
			<clipPath id="SVGID_8_">
				<use xlink:href="#SVGID_7_"  style="overflow:visible;"/>
			</clipPath>
			<line class="st19" x1="725.7" y1="466" x2="669.7" y2="481"/>
			<line class="st19" x1="720" y1="452.3" x2="669.8" y2="481.2"/>
			<line class="st19" x1="710.9" y1="440.4" x2="669.9" y2="481.4"/>
			<line class="st19" x1="699.1" y1="431.4" x2="670.1" y2="481.6"/>
			<line class="st19" x1="685.3" y1="425.7" x2="670.3" y2="481.7"/>
			<line class="st19" x1="670.6" y1="423.7" x2="670.6" y2="481.7"/>
			<line class="st19" x1="655.8" y1="425.7" x2="670.8" y2="481.7"/>
			<line class="st19" x1="642.1" y1="431.4" x2="671.1" y2="481.6"/>
			<line class="st19" x1="630.2" y1="440.4" x2="671.2" y2="481.4"/>
			<line class="st19" x1="621.2" y1="452.3" x2="671.4" y2="481.2"/>
			<line class="st19" x1="615.5" y1="466" x2="671.5" y2="481"/>
			<line class="st19" x1="613.5" y1="480.8" x2="671.5" y2="480.8"/>
			<line class="st19" x1="615.5" y1="495.5" x2="671.5" y2="480.5"/>
			<line class="st19" x1="621.2" y1="509.3" x2="671.4" y2="480.3"/>
			<line class="st19" x1="630.2" y1="521.1" x2="671.2" y2="480.1"/>
			<line class="st19" x1="642.1" y1="530.2" x2="671.1" y2="480"/>
			<line class="st19" x1="655.8" y1="535.9" x2="670.8" y2="479.9"/>
			<line class="st19" x1="670.6" y1="537.8" x2="670.6" y2="479.8"/>
			<line class="st19" x1="685.3" y1="535.9" x2="670.3" y2="479.9"/>
			<line class="st19" x1="699.1" y1="530.2" x2="670.1" y2="480"/>
			<line class="st19" x1="710.9" y1="521.1" x2="669.9" y2="480.1"/>
			<line class="st19" x1="720" y1="509.3" x2="669.8" y2="480.3"/>
			<line class="st19" x1="725.7" y1="495.5" x2="669.7" y2="480.5"/>
			<line class="st19" x1="727.6" y1="480.8" x2="669.7" y2="480.8"/>
			<line class="st19" x1="725.7" y1="466" x2="669.7" y2="481"/>
			<line class="st19" x1="720" y1="452.3" x2="669.8" y2="481.2"/>
			<line class="st19" x1="710.9" y1="440.4" x2="669.9" y2="481.4"/>
			<line class="st19" x1="699.1" y1="431.4" x2="670.1" y2="481.6"/>
			<line class="st19" x1="685.3" y1="425.7" x2="670.3" y2="481.7"/>
			<line class="st19" x1="670.6" y1="423.7" x2="670.6" y2="481.7"/>
			<line class="st19" x1="655.8" y1="425.7" x2="670.8" y2="481.7"/>
			<line class="st19" x1="642.1" y1="431.4" x2="671.1" y2="481.6"/>
			<line class="st19" x1="630.2" y1="440.4" x2="671.2" y2="481.4"/>
			<line class="st19" x1="621.2" y1="452.3" x2="671.4" y2="481.2"/>
			<line class="st19" x1="615.5" y1="466" x2="671.5" y2="481"/>
			<line class="st19" x1="613.5" y1="480.8" x2="671.5" y2="480.8"/>
		</g>
		<g>
			<path class="st14" d="M436.4,522.4c-64,0-115.9-51.9-115.9-115.9"/>
			<path class="st14" d="M487.8,529.5h-31.3c-3.9,0-7.1-3.2-7.1-7.1l0,0c0-3.9,3.2-7.1,7.1-7.1h31.3"/>
			<line class="st14" x1="434.2" y1="522.4" x2="487.8" y2="522.4"/>
			<path class="st20" d="M436.4,522.4c-64,0-115.9-51.9-115.9-115.9"/>
		</g>
		<g>
			<path class="st11" d="M376.1,644.6c-28.1,0-50.9,22.8-50.9,50.9"/>
			<circle class="st13" cx="376.1" cy="695.5" r="37.8"/>
			<g>
				<circle class="st0" cx="376.1" cy="695.5" r="24.6"/>
			</g>
			<circle class="st5" cx="359.1" cy="679.8" r="7.1"/>
			<polygon class="st12" points="392.9,719.7 385.7,707.3 378.5,694.9 392.9,694.9 407.2,694.9 400,707.3 			"/>
		</g>
		<polygon class="st5" points="412.7,741.9 420.6,755.6 428.5,769.3 412.7,769.3 396.9,769.3 404.8,755.6 		"/>
		<g>
			<g>
				<polygon class="st0" points="633,298.9 637.4,327.4 650.4,301.7 645.8,330.1 666.1,309.6 652.9,335.3 678.5,322.1 658.1,342.4 
					686.5,337.8 660.8,350.8 689.3,355.2 660.8,359.6 686.5,372.5 658.1,367.9 678.5,388.2 652.9,375 666.1,400.7 645.8,380.2 
					650.4,408.7 637.4,382.9 633,411.4 628.6,382.9 615.6,408.7 620.2,380.2 599.9,400.7 613.1,375 587.5,388.2 607.9,367.9 
					579.5,372.5 605.2,359.6 576.8,355.2 605.2,350.8 579.5,337.8 607.9,342.4 587.5,322.1 613.1,335.3 599.9,309.6 620.2,330.1 
					615.6,301.7 628.6,327.4 				"/>
				<circle class="st12" cx="633" cy="355.2" r="18.6"/>
			</g>
			<g>
				<polygon class="st2" points="637.2,360.2 645,346.5 629.3,346.5 				"/>
			</g>
			<circle class="st6" cx="624.8" cy="358" r="5.4"/>
		</g>
		<g>
			<g>
				<g>
					<path class="st0" d="M650.7,625.9c5.2,6.4,4.2,15.8-2.2,21c-6.4,5.2-15.8,4.2-21-2.2c-5.2-6.4-4.2-15.8,2.2-21
						C636.1,618.5,645.5,619.5,650.7,625.9z"/>
				</g>
				<g>
					
						<ellipse transform="matrix(0.1609 -0.987 0.987 0.1609 -61.2997 1138.7598)" class="st5" cx="639.1" cy="605.4" rx="15" ry="15"/>
				</g>
				
					<ellipse transform="matrix(0.9246 -0.3809 0.3809 0.9246 -182.4232 289.0465)" class="st6" cx="639.1" cy="605.4" rx="7.8" ry="7.8"/>
				<g>
					
						<ellipse transform="matrix(0.7071 -0.7071 0.7071 0.7071 -222.5244 643.2516)" class="st5" cx="665.2" cy="590.2" rx="15" ry="15"/>
				</g>
				<path class="st11" d="M626.3,653c7.8,5.7,18.7,5.6,26.6-0.7"/>
				<g>
					<path class="st0" d="M612.8,577.6c7,0,12.7,5.7,12.7,12.7c0,7-5.7,12.7-12.7,12.7c-7,0-12.7-5.7-12.7-12.7
						C600.1,583.3,605.8,577.6,612.8,577.6 M612.8,575.3c-8.3,0-15,6.7-15,15c0,8.3,6.7,15,15,15c8.3,0,15-6.7,15-15
						C627.7,582,621,575.3,612.8,575.3L612.8,575.3z"/>
				</g>
				<g>
					
						<ellipse transform="matrix(0.7998 -0.6002 0.6002 0.7998 -249.7132 491.9712)" class="st0" cx="612.8" cy="620.4" rx="15" ry="15"/>
				</g>
				
					<ellipse transform="matrix(0.9224 -0.3862 0.3862 0.9224 -172.6797 291.4665)" class="st12" cx="639.1" cy="575.5" rx="15" ry="15"/>
				<g>
					
						<ellipse transform="matrix(0.1598 -0.9872 0.9872 0.1598 -31.1528 1114.4305)" class="st0" cx="639.1" cy="575.5" rx="7.8" ry="7.8"/>
				</g>
				<path class="st11" d="M631,555.3c11.1-4.6,23.8,0.7,28.3,11.8"/>
				
					<ellipse transform="matrix(0.2283 -0.9736 0.9736 0.2283 -90.6575 1126.4066)" class="st12" cx="665.2" cy="620.4" rx="15" ry="15"/>
			</g>
			<circle class="st12" cx="612.8" cy="620.4" r="4.2"/>
			<circle class="st12" cx="665.2" cy="590.5" r="4.2"/>
			<path class="st6" d="M643.3,635.7c0-2.3-1.9-4.2-4.2-4.2c-2.3,0-4.2,1.9-4.2,4.2s1.9,4.2,4.2,4.2S643.3,638,643.3,635.7z"/>
		</g>
		
			<ellipse transform="matrix(0.923 -0.3849 0.3849 0.923 -180.2885 211.4676)" class="st12" cx="438.1" cy="556.1" rx="9.3" ry="9.3"/>
		<line class="st13" x1="438.1" y1="556.1" x2="503.5" y2="556.1"/>
	</g>
	<g>
		<g>
			<circle class="st12" cx="528" cy="553.2" r="9.6"/>
		</g>
		<g>
			<g>
				<line class="st14" x1="555.2" y1="510.3" x2="500.7" y2="510.3"/>
				<line class="st14" x1="528" y1="483" x2="528" y2="537.5"/>
				<line class="st14" x1="555.2" y1="510.3" x2="500.7" y2="510.3"/>
				<line class="st14" x1="528" y1="483" x2="528" y2="537.5"/>
				<line class="st14" x1="547.2" y1="491" x2="508.7" y2="529.6"/>
				<line class="st14" x1="508.7" y1="491" x2="547.2" y2="529.6"/>
			</g>
			
				<ellipse transform="matrix(0.2279 -0.9737 0.9737 0.2279 -89.2241 908.033)" class="st21" cx="528" cy="510.3" rx="18.7" ry="18.7"/>
			<circle class="st2" cx="528" cy="510.3" r="9.6"/>
		</g>
		<line class="st13" x1="528" y1="519.6" x2="528" y2="552.9"/>
	</g>
</g>
<g id="bad-step-4">
	<g>
		<g>
			<line class="st15" x1="455.4" y1="620.6" x2="455.4" y2="655.1"/>
			<line class="st15" x1="438.1" y1="637.9" x2="472.7" y2="637.9"/>
			<line class="st15" x1="455.4" y1="620.6" x2="455.4" y2="655.1"/>
			<line class="st15" x1="438.1" y1="637.9" x2="472.7" y2="637.9"/>
			<line class="st15" x1="443.2" y1="625.6" x2="467.6" y2="650.1"/>
			<line class="st15" x1="455.4" y1="637.9" x2="467.6" y2="625.6"/>
			<path class="st15" d="M428.2,670.1c7-12.4,16.4-23.3,27.5-32.2"/>
		</g>
		<g>
			<g>
				<defs>
					
						<rect id="SVGID_9_" x="325.5" y="571.5" transform="matrix(0.7071 -0.7071 0.7071 0.7071 -311.2497 447.5163)" width="118.1" height="56"/>
				</defs>
				<clipPath id="SVGID_10_">
					<use xlink:href="#SVGID_9_"  style="overflow:visible;"/>
				</clipPath>
				<g class="st22">
					<g>
						<g>
							<line class="st14" x1="321.2" y1="578.4" x2="371.1" y2="578.4"/>
						</g>
					</g>
					<g>
						<g>
							<line class="st14" x1="322.9" y1="590.9" x2="371.1" y2="578"/>
						</g>
					</g>
					<g>
						<g>
							<line class="st14" x1="327.7" y1="602.6" x2="370.9" y2="577.7"/>
						</g>
					</g>
					<g>
						<g>
							<line class="st14" x1="335.4" y1="612.7" x2="370.7" y2="577.4"/>
						</g>
					</g>
					<g>
						<g>
							<line class="st14" x1="345.5" y1="620.4" x2="370.4" y2="577.2"/>
						</g>
					</g>
					<g>
						<g>
							<line class="st14" x1="357.2" y1="625.2" x2="370.1" y2="577"/>
						</g>
					</g>
					<g>
						<g>
							<line class="st14" x1="369.7" y1="626.9" x2="369.7" y2="577"/>
						</g>
					</g>
					<g>
						<g>
							<line class="st14" x1="382.3" y1="625.2" x2="369.4" y2="577"/>
						</g>
					</g>
					<g>
						<g>
							<line class="st14" x1="394" y1="620.4" x2="369.1" y2="577.2"/>
						</g>
					</g>
					<g>
						<g>
							<line class="st14" x1="404.1" y1="612.7" x2="368.8" y2="577.4"/>
						</g>
					</g>
					<g>
						<g>
							<line class="st14" x1="411.8" y1="602.6" x2="368.6" y2="577.7"/>
						</g>
					</g>
					<g>
						<g>
							<line class="st14" x1="416.6" y1="590.9" x2="368.4" y2="578"/>
						</g>
					</g>
					<g>
						<g>
							<line class="st14" x1="418.3" y1="578.4" x2="368.4" y2="578.4"/>
						</g>
					</g>
					<g>
						<g>
							<line class="st14" x1="416.6" y1="565.8" x2="368.4" y2="578.7"/>
						</g>
					</g>
					<g>
						<g>
							<line class="st14" x1="411.8" y1="554.1" x2="368.6" y2="579.1"/>
						</g>
					</g>
					<g>
						<g>
							<line class="st14" x1="404.1" y1="544.1" x2="368.8" y2="579.3"/>
						</g>
					</g>
					<g>
						<g>
							<line class="st14" x1="394" y1="536.4" x2="369.1" y2="579.6"/>
						</g>
					</g>
					<g>
						<g>
							<line class="st14" x1="382.3" y1="531.5" x2="369.4" y2="579.7"/>
						</g>
					</g>
					<g>
						<g>
							<line class="st14" x1="369.7" y1="529.9" x2="369.7" y2="579.8"/>
						</g>
					</g>
					<g>
						<g>
							<line class="st14" x1="357.2" y1="531.5" x2="370.1" y2="579.7"/>
						</g>
					</g>
					<g>
						<g>
							<line class="st14" x1="345.5" y1="536.4" x2="370.4" y2="579.6"/>
						</g>
					</g>
					<g>
						<g>
							<line class="st14" x1="335.4" y1="544.1" x2="370.7" y2="579.3"/>
						</g>
					</g>
					<g>
						<g>
							<line class="st14" x1="327.7" y1="554.1" x2="370.9" y2="579.1"/>
						</g>
					</g>
					<g>
						<g>
							<line class="st14" x1="322.9" y1="565.8" x2="371.1" y2="578.7"/>
						</g>
					</g>
					<g>
						<g>
							<line class="st14" x1="321.2" y1="578.4" x2="371.1" y2="578.4"/>
						</g>
					</g>
					<g>
						<g>
							<line class="st14" x1="322.9" y1="590.9" x2="371.1" y2="578"/>
						</g>
					</g>
					<g>
						<g>
							<line class="st14" x1="327.7" y1="602.6" x2="370.9" y2="577.7"/>
						</g>
					</g>
					<g>
						<g>
							<line class="st14" x1="335.4" y1="612.7" x2="370.7" y2="577.4"/>
						</g>
					</g>
					<g>
						<g>
							<line class="st14" x1="345.5" y1="620.4" x2="370.4" y2="577.2"/>
						</g>
					</g>
					<g>
						<g>
							<line class="st14" x1="357.2" y1="625.2" x2="370.1" y2="577"/>
						</g>
					</g>
					<g>
						<g>
							<line class="st14" x1="369.7" y1="626.9" x2="369.7" y2="577"/>
						</g>
					</g>
					<g>
						<g>
							<line class="st14" x1="382.3" y1="625.2" x2="369.4" y2="577"/>
						</g>
					</g>
					<g>
						<g>
							<line class="st14" x1="394" y1="620.4" x2="369.1" y2="577.2"/>
						</g>
					</g>
					<g>
						<g>
							<line class="st14" x1="404.1" y1="612.7" x2="368.8" y2="577.4"/>
						</g>
					</g>
				</g>
			</g>
			<g>
				<g>
					<path class="st2" d="M388.9,560.4c-4.7-5.1-10.9-7.9-17.3-8.4c-5.5-0.5-9.9-4.8-10.3-10.4c-0.5-6-3-11.9-7.6-16.5
						c-4.6-4.6-10.5-7.1-16.5-7.6c-5.5-0.5-9.9-4.8-10.4-10.3c-0.5-6.4-3.3-12.6-8.4-17.3c-10-9.2-25.6-9.3-35.6-0.1
						c-11.2,10.2-11.5,27.6-0.9,38.2c4.6,4.6,10.5,7.1,16.5,7.6c5.5,0.5,9.9,4.8,10.4,10.4c0.5,6,3,11.9,7.6,16.5
						c4.6,4.6,10.5,7.1,16.5,7.6c5.5,0.5,9.9,4.8,10.4,10.4c0.5,6,3,11.9,7.6,16.5c10.6,10.6,28,10.3,38.2-0.9
						C398.1,586,398.1,570.4,388.9,560.4z"/>
				</g>
				<circle class="st12" cx="300.5" cy="509.3" r="13.2"/>
				<g>
					<path class="st5" d="M344.3,553.1c-5.2,5.2-13.5,5.2-18.7,0c-5.2-5.2-5.2-13.5,0-18.7c5.2-5.2,13.5-5.2,18.7,0
						C349.5,539.6,349.5,548,344.3,553.1z"/>
				</g>
				<g>
					
						<ellipse transform="matrix(0.3838 -0.9234 0.9234 0.3838 -306.3232 697.5049)" class="st5" cx="369.5" cy="578.3" rx="13.2" ry="13.2"/>
				</g>
			</g>
		</g>
		<g>
			
				<rect x="701.3" y="352.8" transform="matrix(0.7071 -0.7071 0.7071 0.7071 -50.8097 615.6071)" class="st12" width="32.8" height="32.8"/>
			<g>
				<line class="st13" x1="717.7" y1="369.1" x2="749.7" y2="401.1"/>
				<circle class="st2" cx="747.1" cy="398.7" r="7.6"/>
			</g>
		</g>
		<polygon class="st0" points="567.4,584.1 582.2,558.5 552.6,558.5 		"/>
		<g>
			
				<rect x="515.6" y="588.8" transform="matrix(-0.7071 -0.7071 0.7071 -0.7071 478.0223 1403.8864)" class="st5" width="28.3" height="28.3"/>
			<g>
				<g>
					<g>
						
							<rect x="478.5" y="581.4" transform="matrix(-0.7071 -0.7071 0.7071 -0.7071 427.2588 1382.8596)" class="st5" width="43" height="43"/>
					</g>
					<line class="st14" x1="496.3" y1="603.1" x2="572.1" y2="603.1"/>
				</g>
				<polyline class="st14" points="564.5,613.5 554.2,603.1 564.5,592.8 				"/>
			</g>
			<circle class="st12" cx="500.2" cy="603.1" r="8.8"/>
		</g>
		<g>
			<g>
				<path class="st12" d="M619.5,683.1c-5.7-0.3-11.2,0.5-16.3,2.3c-9.2,3.2-19.4,0.3-25.5-7.3c-13.6-16.8-34.2-27.6-57.4-28
					c-41.6-0.7-76.3,32.9-76.8,74.5c-0.6,42.2,33.5,76.6,75.5,76.6c24,0,45.4-11.2,59.3-28.7c6.2-7.8,16.5-10.9,26-7.8
					c4,1.3,8.3,2,12.8,2c23.6,0,42.7-19.6,41.8-43.4C658,701.8,640.8,684.3,619.5,683.1z"/>
				<path class="st23" d="M619.5,683.1c-5.7-0.3-11.2,0.5-16.3,2.3c-9.2,3.2-19.4,0.3-25.5-7.3c-13.6-16.8-34.2-27.6-57.4-28
					c-41.6-0.7-76.3,32.9-76.8,74.5c-0.6,42.2,33.5,76.6,75.5,76.6c24,0,45.4-11.2,59.3-28.7c6.2-7.8,16.5-10.9,26-7.8
					c4,1.3,8.3,2,12.8,2c23.6,0,42.7-19.6,41.8-43.4C658,701.8,640.8,684.3,619.5,683.1z"/>
				<circle class="st2" cx="616.8" cy="726.1" r="15.6"/>
				<path class="st13" d="M616.8,699.4c14.8,0,26.7,12,26.7,26.7"/>
			</g>
			<g>
				<defs>
					<rect id="SVGID_11_" x="435.4" y="644.5" width="86.6" height="85"/>
				</defs>
				<clipPath id="SVGID_12_">
					<use xlink:href="#SVGID_11_"  style="overflow:visible;"/>
				</clipPath>
				<g class="st24">
					<g>
						<line class="st9" x1="582.3" y1="726.1" x2="456.2" y2="726.1"/>
					</g>
					<g>
						<line class="st9" x1="581.6" y1="736" x2="457" y2="716.2"/>
					</g>
					<g>
						<line class="st9" x1="579.3" y1="745.6" x2="459.3" y2="706.6"/>
					</g>
					<g>
						<line class="st9" x1="575.5" y1="754.7" x2="463.1" y2="697.5"/>
					</g>
					<g>
						<line class="st9" x1="570.3" y1="763.2" x2="468.3" y2="689.1"/>
					</g>
					<g>
						<line class="st9" x1="563.9" y1="770.7" x2="474.7" y2="681.5"/>
					</g>
					<g>
						<line class="st9" x1="556.4" y1="777.1" x2="482.2" y2="675.1"/>
					</g>
					<g>
						<line class="st9" x1="547.9" y1="782.3" x2="490.7" y2="669.9"/>
					</g>
					<g>
						<line class="st9" x1="538.8" y1="786.1" x2="499.8" y2="666.1"/>
					</g>
					<g>
						<line class="st9" x1="529.2" y1="788.4" x2="509.4" y2="663.8"/>
					</g>
					<g>
						<line class="st9" x1="519.3" y1="789.2" x2="519.3" y2="663.1"/>
					</g>
					<g>
						<line class="st9" x1="509.4" y1="788.4" x2="529.2" y2="663.8"/>
					</g>
					<g>
						<line class="st9" x1="499.8" y1="786.1" x2="538.8" y2="666.1"/>
					</g>
					<g>
						<line class="st9" x1="490.7" y1="782.3" x2="547.9" y2="669.9"/>
					</g>
					<g>
						<line class="st9" x1="482.2" y1="777.1" x2="556.4" y2="675.1"/>
					</g>
					<g>
						<line class="st9" x1="474.7" y1="770.7" x2="563.9" y2="681.5"/>
					</g>
					<g>
						<line class="st9" x1="468.3" y1="763.2" x2="570.3" y2="689.1"/>
					</g>
					<g>
						<line class="st9" x1="463.1" y1="754.7" x2="575.5" y2="697.5"/>
					</g>
					<g>
						<line class="st9" x1="459.3" y1="745.6" x2="579.3" y2="706.6"/>
					</g>
					<g>
						<line class="st9" x1="457" y1="736" x2="581.6" y2="716.2"/>
					</g>
					<g>
						<line class="st9" x1="456.2" y1="726.1" x2="582.3" y2="726.1"/>
					</g>
					<g>
						<line class="st9" x1="457" y1="716.2" x2="581.6" y2="736"/>
					</g>
					<g>
						<line class="st9" x1="459.3" y1="706.6" x2="579.3" y2="745.6"/>
					</g>
					<g>
						<line class="st9" x1="463.1" y1="697.5" x2="575.5" y2="754.7"/>
					</g>
					<g>
						<line class="st9" x1="468.3" y1="689.1" x2="570.3" y2="763.2"/>
					</g>
					<g>
						<line class="st9" x1="474.7" y1="681.5" x2="563.9" y2="770.7"/>
					</g>
					<g>
						<line class="st9" x1="482.2" y1="675.1" x2="556.4" y2="777.1"/>
					</g>
					<g>
						<line class="st9" x1="490.7" y1="669.9" x2="547.9" y2="782.3"/>
					</g>
					<g>
						<line class="st9" x1="499.8" y1="666.1" x2="538.8" y2="786.1"/>
					</g>
					<g>
						<line class="st9" x1="509.4" y1="663.8" x2="529.2" y2="788.4"/>
					</g>
					<g>
						<line class="st9" x1="519.3" y1="663.1" x2="519.3" y2="789.2"/>
					</g>
					<g>
						<line class="st9" x1="529.2" y1="663.8" x2="509.4" y2="788.4"/>
					</g>
					<g>
						<line class="st9" x1="538.8" y1="666.1" x2="499.8" y2="786.1"/>
					</g>
					<g>
						<line class="st9" x1="547.9" y1="669.9" x2="490.7" y2="782.3"/>
					</g>
					<g>
						<line class="st9" x1="556.4" y1="675.1" x2="482.2" y2="777.1"/>
					</g>
					<g>
						<line class="st9" x1="563.9" y1="681.5" x2="474.7" y2="770.7"/>
					</g>
					<g>
						<line class="st9" x1="570.3" y1="689.1" x2="468.3" y2="763.2"/>
					</g>
					<g>
						<line class="st9" x1="575.5" y1="697.5" x2="463.1" y2="754.7"/>
					</g>
					<g>
						<line class="st9" x1="579.3" y1="706.6" x2="459.3" y2="745.6"/>
					</g>
					<g>
						<line class="st9" x1="581.6" y1="716.2" x2="457" y2="736"/>
					</g>
					<g>
						<line class="st9" x1="582.3" y1="726.1" x2="456.2" y2="726.1"/>
					</g>
				</g>
			</g>
			<g>
				<path class="st13" d="M572.5,726.3c0,29.9-24.2,54.1-54.1,54.1c-29.9,0-54.1-24.2-54.1-54.1"/>
				<rect x="452.4" y="723.4" class="st12" width="133.3" height="7.5"/>
			</g>
			
				<ellipse transform="matrix(0.1426 -0.9898 0.9898 0.1426 -273.4752 1135.8524)" class="st12" cx="518.9" cy="725.8" rx="37.8" ry="37.8"/>
			<line class="st9" x1="552.4" y1="680.6" x2="617.6" y2="726.3"/>
			<g>
				<circle class="st6" cx="519.1" cy="726.3" r="29.3"/>
				<line class="st13" x1="519.1" y1="726.3" x2="552.4" y2="680.6"/>
			</g>
			
				<ellipse transform="matrix(0.1596 -0.9872 0.9872 0.1596 -207.6107 1117.3569)" class="st6" cx="552.4" cy="680.6" rx="11.8" ry="11.8"/>
		</g>
		<g>
			<g>
				<polygon class="st12" points="705.7,453.1 690.2,480 721.2,480 				"/>
				<polygon class="st12" points="705.7,426.6 690.2,453.5 721.2,453.5 				"/>
				<polygon class="st12" points="705.7,479.7 690.2,506.5 721.2,506.5 				"/>
				<polygon class="st12" points="705.7,506.8 690.2,533.6 721.2,533.6 				"/>
				<polygon class="st12" points="705.7,534.6 690.2,561.5 721.2,561.5 				"/>
				<line class="st15" x1="705.7" y1="553.7" x2="705.7" y2="603.1"/>
				<polyline class="st15" points="693.6,594.2 705.7,582 717.8,594.2 				"/>
			</g>
			<circle class="st0" cx="705.7" cy="415.9" r="10.8"/>
		</g>
		<g>
			
				<ellipse transform="matrix(0.7846 -0.62 0.62 0.7846 -76.9233 373.7373)" class="st2" cx="499.4" cy="297.6" rx="11.2" ry="11.2"/>
		</g>
		<polygon class="st12" points="781.4,656.2 793.1,636 769.7,636 		"/>
		<line class="st13" x1="566" y1="729.8" x2="591.4" y2="729.8"/>
		<line class="st9" x1="566" y1="722.3" x2="591.4" y2="722.3"/>
		<g>
			<g>
				<line class="st13" x1="593.8" y1="427.1" x2="592.6" y2="409.3"/>
				<line class="st13" x1="593.8" y1="427.1" x2="610.8" y2="421.6"/>
			</g>
			<g>
				<path class="st25" d="M595.4,537c-12.3-15.4-19.6-34.9-19.6-56.2c0-21,7.1-40.3,19.1-55.6"/>
				<path class="st26" d="M595.9,537.5c-12.5-15.5-20-35.3-20-56.8c0-20.7,6.9-39.7,18.6-55"/>
			</g>
		</g>
		<g>
			
				<ellipse transform="matrix(0.1671 -0.9859 0.9859 0.1671 -147.6498 1089.5996)" class="st5" cx="571.1" cy="632.2" rx="11.5" ry="11.5"/>
			<line class="st15" x1="571.1" y1="632.2" x2="604.2" y2="665.3"/>
		</g>
		<g>
			<path class="st15" d="M603.8,562.7c-3.2-3.9-2.6-9.7,1.3-12.9c3.9-3.2,9.7-2.6,12.9,1.3"/>
		</g>
		<path class="st15" d="M611,557.1L595.4,537c-12.3-15.4-19.6-34.9-19.6-56.2c0-21,6.6-40.8,19.1-55.6c5.5-6.5,11.1-14.6,11.1-14.6"
			/>
		<path class="st14" d="M537.8,464.1c3.9-26.1,15.3-49.8,31.9-68.8"/>
		
			<rect x="561.2" y="388.9" transform="matrix(0.7071 -0.7071 0.7071 0.7071 -114.0209 518.959)" class="st0" width="16.4" height="16.4"/>
		<line class="st11" x1="335.1" y1="543.5" x2="369.7" y2="578.7"/>
		<g>
			<path class="st2" d="M303.9,512.7c-1.8,1.8-4.8,1.8-6.7,0c-1.8-1.8-1.8-4.8,0-6.7c1.8-1.8,4.8-1.8,6.7,0
				C305.7,507.8,305.7,510.8,303.9,512.7z"/>
		</g>
		<g>
			<path class="st2" d="M338.3,547.1c-1.8,1.8-4.8,1.8-6.7,0c-1.8-1.8-1.8-4.8,0-6.7c1.8-1.8,4.8-1.8,6.7,0S340.2,545.3,338.3,547.1
				z"/>
		</g>
		<g>
			
				<ellipse transform="matrix(0.7229 -0.6909 0.6909 0.7229 -297.1422 415.4692)" class="st2" cx="369.4" cy="578.2" rx="4.7" ry="4.7"/>
		</g>
	</g>
</g>
<g id="number-201">
	<g>
		<path class="st27" d="M828.5,93.3c-0.1-4.6,0.3-8.6,1.1-12.1c0.8-3.5,2-6.6,3.7-9.3c1.7-2.7,3.6-5,6-7.1c2.3-2,5-3.8,7.9-5.3
			c2.8-1.5,5.7-2.9,8.7-4.2c3-1.3,5.8-2.7,8.4-4.2c2.6-1.5,4.6-3.4,6.2-5.6c1.6-2.2,2.4-5,2.4-8.4c0-2.8-0.6-5.3-1.8-7.7
			c-1.2-2.3-3.1-4.2-5.6-5.6c-2.5-1.4-5.6-2.1-9.5-2.1c-3.7,0-7.1,0.6-10,1.9c-2.9,1.2-5.3,2.8-7.3,4.5c-1.9,1.8-3.5,3.4-4.7,4.8
			l-5-4.8c0.4-0.5,1.3-1.5,2.7-3c1.4-1.5,3.2-3,5.5-4.6c2.3-1.6,5.1-3,8.2-4.1c3.2-1.1,6.9-1.7,11.2-1.7c5.4,0,9.9,1,13.5,3.1
			c3.6,2.1,6.3,4.8,8.1,8.1c1.8,3.4,2.7,7,2.7,11c0,3.9-0.8,7.1-2.3,9.8c-1.5,2.7-3.4,4.9-5.8,6.7c-2.4,1.8-5,3.3-7.7,4.6
			c-2.8,1.3-5.3,2.6-7.8,3.7c-4.7,2.1-8.4,4.2-11.2,6.2c-2.8,2-4.9,4.1-6.2,6.1c-1.4,2-2.3,4.1-2.7,6.1c-0.4,2-0.7,4.1-0.8,6.2h44.6
			v6.8H828.5z"/>
		<path class="st27" d="M924.6,93.9c-5.3-0.1-9.9-1.4-14-3.8c-4-2.4-7.4-5.6-10.1-9.5c-2.7-3.9-4.8-8.1-6.2-12.7
			c-1.4-4.6-2.1-9-2.1-13.4c0-4.7,0.8-9.3,2.3-14c1.5-4.7,3.7-8.9,6.5-12.7c2.8-3.8,6.2-6.9,10.2-9.2c4-2.3,8.4-3.4,13.4-3.4
			c5.3,0,9.9,1.2,14,3.7c4,2.5,7.4,5.7,10.1,9.6c2.7,3.9,4.7,8.2,6.1,12.8c1.4,4.6,2,9,2,13.2c0,4.7-0.8,9.4-2.3,14
			c-1.5,4.6-3.6,8.8-6.4,12.6C945.4,85,942,88,938,90.3C934.1,92.6,929.6,93.8,924.6,93.9z M900.1,54.5c0.1,3.8,0.8,7.6,1.8,11.4
			c1.1,3.8,2.6,7.3,4.7,10.5c2.1,3.2,4.6,5.7,7.6,7.6c3,1.9,6.5,2.9,10.5,2.9c4.1,0,7.7-1,10.8-3.1c3.1-2,5.6-4.7,7.6-8
			c2-3.3,3.5-6.8,4.6-10.6c1-3.7,1.5-7.3,1.5-10.7c0-3.8-0.5-7.6-1.6-11.4s-2.7-7.3-4.8-10.5c-2.1-3.2-4.7-5.7-7.7-7.6
			c-3-1.9-6.5-2.9-10.3-2.9c-4.2,0-7.8,1-10.9,3.1c-3.1,2.1-5.6,4.7-7.6,8c-2,3.3-3.5,6.8-4.5,10.5
			C900.6,47.5,900.1,51.1,900.1,54.5z"/>
		<path class="st27" d="M1004.6,86.5v6.8h-36.4v-6.8H983V23c-0.6,0.9-1.5,1.9-2.9,2.9c-1.3,1.1-2.8,2.1-4.5,3.1
			c-1.7,1-3.4,1.8-5.2,2.5c-1.8,0.7-3.4,1-4.8,1v-7c2,0,4-0.5,6-1.6c2-1.1,3.9-2.3,5.6-3.6c1.7-1.4,3.1-2.6,4.1-3.7
			c1-1.1,1.6-1.7,1.7-1.8h7.6v71.8H1004.6z"/>
	</g>
</g>
<g id="number-8">
	<g>
		<path class="st27" d="M1066.4,71.8c0,4.6-1.3,8.5-3.8,11.9c-2.5,3.4-5.9,6-10,7.9c-4.1,1.9-8.7,2.8-13.6,2.8
			c-5.2,0-9.8-1-13.9-3.1c-4-2.1-7.2-4.9-9.5-8.3c-2.3-3.5-3.5-7.3-3.5-11.6c0-3.3,0.8-6.3,2.4-9c1.6-2.7,3.6-4.9,5.9-6.8
			c2.4-1.8,4.8-3.2,7.3-4c-2.3-1-4.4-2.2-6.4-3.8c-2-1.6-3.6-3.4-4.7-5.6c-1.2-2.1-1.8-4.5-1.8-7.1c0-3.2,0.7-6.1,2.1-8.5
			c1.4-2.5,3.3-4.6,5.7-6.3c2.3-1.7,5-3,7.9-3.9c2.9-0.8,5.8-1.3,8.7-1.3c2.9,0,5.7,0.4,8.6,1.3c2.9,0.8,5.5,2.1,7.9,3.8
			c2.4,1.7,4.3,3.8,5.7,6.2c1.4,2.5,2.1,5.3,2.1,8.6c0,2.6-0.6,4.9-1.8,7.1c-1.2,2.2-2.8,4-4.8,5.6c-2,1.6-4.1,2.9-6.5,3.8
			c2.9,1,5.5,2.4,7.9,4.4c2.4,1.9,4.3,4.2,5.7,6.9C1065.7,65.5,1066.4,68.5,1066.4,71.8z M1058.8,71.3c0-2.6-0.6-5-1.7-7
			c-1.1-2-2.7-3.7-4.6-5.1c-1.9-1.4-4.1-2.5-6.4-3.2c-2.3-0.7-4.6-1.1-7-1.1c-3.2,0-6.2,0.7-9.2,2c-3,1.4-5.4,3.3-7.3,5.7
			c-1.9,2.5-2.8,5.4-2.8,8.8c0,2.6,0.6,4.9,1.7,6.8c1.1,2,2.7,3.7,4.6,5.1c1.9,1.4,4,2.5,6.3,3.3c2.3,0.7,4.6,1.1,7,1.1
			c3.2,0,6.2-0.7,9.2-2c3-1.4,5.4-3.3,7.3-5.8C1057.9,77.4,1058.8,74.5,1058.8,71.3z M1022.4,35.5c0,2.8,0.9,5.2,2.6,7.2
			c1.7,2,3.9,3.6,6.5,4.6c2.6,1,5.2,1.5,7.7,1.5c2.6,0,5.3-0.5,7.9-1.6c2.6-1.1,4.8-2.6,6.5-4.6c1.7-2,2.6-4.5,2.6-7.3
			c0-2.8-0.8-5.2-2.4-7.2c-1.6-2-3.7-3.5-6.3-4.5c-2.6-1-5.4-1.5-8.3-1.5c-2.8,0-5.5,0.5-8.1,1.6c-2.6,1.1-4.7,2.6-6.3,4.6
			C1023.2,30.3,1022.4,32.7,1022.4,35.5z"/>
	</g>
</g>
<g id="number-6">
	<path class="st27" d="M1064.5,81c-2.5,4.1-5.8,7.3-10,9.7c-4.2,2.4-8.9,3.6-14.1,3.6c-5.4,0-10.2-1.3-14.5-3.9
		c-4.2-2.6-7.5-6.4-10-11.3c-2.4-4.9-3.6-10.7-3.6-17.5c0-10.6,1.2-19.4,3.6-26.3c2.4-6.9,5.8-12.1,10.1-15.6
		c4.3-3.4,9.3-5.2,15.1-5.2c5.2,0,9.9,1.3,14,3.9c4.1,2.6,7.2,6.1,9.3,10.6l-4.8,4.4c-1.5-3.7-4-6.7-7.3-9
		c-3.3-2.2-7.1-3.4-11.2-3.4c-4.3,0-8.1,1.4-11.3,4.1c-3.2,2.7-5.7,6.6-7.5,11.7c-1.8,5.1-2.7,11.2-2.7,18.4
		c1.1-2.9,2.7-5.4,4.8-7.5c2.1-2.1,4.6-3.8,7.5-5c2.9-1.2,6-1.8,9.3-1.8c5,0,9.5,1.2,13.6,3.5c4.1,2.3,7.3,5.5,9.7,9.5
		c2.4,4,3.6,8.5,3.6,13.4C1068.2,72.5,1066.9,77,1064.5,81z M1050.8,85.1c3.1-1.8,5.6-4.3,7.4-7.4c1.9-3.1,2.8-6.5,2.8-10.1
		c0-3.7-0.9-7-2.8-10.1c-1.9-3.1-4.3-5.5-7.4-7.4c-3.1-1.8-6.5-2.8-10.1-2.8c-3.7,0-7.2,0.9-10.3,2.8c-3.1,1.8-5.6,4.3-7.4,7.3
		c-1.8,3-2.8,6.4-2.8,10.2c0,3.6,0.9,6.9,2.8,10c1.9,3.1,4.3,5.6,7.4,7.4c3.1,1.9,6.5,2.8,10.1,2.8
		C1044.3,87.8,1047.7,86.9,1050.8,85.1z"/>
</g>
</svg>
