<?xml version="1.0" encoding="utf-8"?>
<!-- Generator: Adobe Illustrator 22.0.0, SVG Export Plug-In . SVG Version: 6.00 Build 0)  -->
<svg version="1.1" xmlns="http://www.w3.org/2000/svg" xmlns:xlink="http://www.w3.org/1999/xlink" x="0px" y="0px"
	 viewBox="0 0 362.5 352.2" style="enable-background:new 0 0 362.5 352.2;" xml:space="preserve">
<style type="text/css">
	.st0{display:none;}
	.st1{display:inline;}
	.st2{fill:#2E756F;}
	.st3{fill:#2D2211;}
	.st4{fill:none;stroke:#62B0AC;stroke-width:10;stroke-linecap:round;stroke-miterlimit:10;}
	.st5{fill:#62B0AC;}
	.st6{fill:#FFFFFF;}
</style>
<g id="titre" class="st0">
</g>
<g id="bubble_x5F_back">
	
		<ellipse transform="matrix(0.2289 -0.9735 0.9735 0.2289 65.8251 313.8678)" class="st2" cx="231" cy="115.4" rx="90.3" ry="90.3"/>
	<g>
		<path class="st2" d="M144.2,67.6l0.7-1.3l2.5,1.3l-2.8,5.2l-2.5-1.3l0.7-1.3l-9.1-4.9l-0.7,1.3l-1.9-1c0.6-1.1,0.3-2-0.5-2.4
			l1.2-2.2L144.2,67.6z"/>
		<path class="st2" d="M152.5,59.7l-7.5-5.5c-0.2-0.2-0.4-0.2-0.6,0c-0.2,0.2-0.1,0.4,0.1,0.6l7.5,5.5l-1.6,2.2l-9.7-7.1l1-1.3
			l0.6,0c-0.1-0.6,0.1-1.3,0.5-2c0.5-0.7,1-0.9,1.6-1c-0.1-0.6,0-1.2,0.5-1.9c1.1-1.5,2.2-1.5,3.8-0.3l7.5,5.5l-1.6,2.2l-7.5-5.5
			c-0.2-0.2-0.4-0.2-0.6,0c-0.1,0.2-0.1,0.4,0.2,0.6l7.5,5.5L152.5,59.7z"/>
		<path class="st2" d="M147.2,40.3l2.3,2l-1.8,2.1l-2.3-2L147.2,40.3z M150.4,43.1l9,7.9l-1.8,2.1l-9-7.9L150.4,43.1z"/>
		<path class="st2" d="M150.4,35.7l12.3,11.8l-1.9,2l-12.3-11.8L150.4,35.7z"/>
		<path class="st2" d="M154.5,31.8l11.7,12.4l-2,1.9l-11.7-12.4L154.5,31.8z"/>
		<path class="st2" d="M159.3,28.7l2,2.3l-2.1,1.8l-2-2.3L159.3,28.7z M162,31.9l7.8,9.1l-2.1,1.8l-7.8-9.1L162,31.9z"/>
		<path class="st2" d="M169.5,37.7l-3.9-5.2c-1.1-1.4-1.2-2.8,0.8-4.3c1.9-1.4,3.3-0.9,4.3,0.5l3.9,5.2c1.1,1.4,1.3,2.8-0.8,4.3
			C171.8,39.7,170.6,39.1,169.5,37.7z M172.4,35.6l-3.9-5.3c-0.2-0.3-0.4-0.3-0.6-0.2s-0.3,0.3,0,0.6l3.9,5.3
			c0.2,0.3,0.4,0.3,0.6,0.2C172.6,36.1,172.7,35.9,172.4,35.6z"/>
		<path class="st2" d="M180.8,33.2l-4.9-7.9c-0.1-0.2-0.3-0.4-0.6-0.2c-0.2,0.1-0.2,0.3-0.1,0.6l4.9,7.9l-2.4,1.5l-6.3-10.2l1.4-0.9
			l0.6,0.2c0.1-0.6,0.5-1.2,1.2-1.6c1.5-0.9,2.5-0.5,3.6,1.3l4.9,7.9L180.8,33.2z"/>
		<path class="st2" d="M184.6,20.4c-0.8-1.8-0.7-2.9,1-3.6c0.3-0.1,0.8-0.2,1.2-0.2l-2.1-4.7l2.5-1.1l7,15.5l-1.5,0.7l-0.6-0.3
			c-0.2,0.6-0.6,1.1-1.4,1.4c-1.6,0.7-2.6,0.2-3.5-1.7L184.6,20.4z M189.9,25.3c0.1,0.2,0.3,0.4,0.5,0.3c0.2-0.1,0.3-0.3,0.2-0.6
			l-2.7-6.1c-0.1-0.3-0.3-0.4-0.5-0.3c-0.2,0.1-0.3,0.3-0.1,0.6L189.9,25.3z"/>
		<path class="st2" d="M197.8,22.1c0.1,0.4,0.3,0.4,0.5,0.3c0.2-0.1,0.3-0.2,0.2-0.6l-0.6-1.7l2.6-0.9l0.5,1.5
			c0.6,1.7,0.4,3.1-1.9,3.9c-2.4,0.8-3.4-0.1-4-1.8l-2.1-6c-0.6-1.7-0.3-3.1,2-3.9c2.3-0.8,3.3,0.1,3.9,1.8l1.2,3.5l-3.3,1.2
			L197.8,22.1z M196.1,17.5l0.7-0.3l-0.6-1.7c-0.1-0.4-0.4-0.4-0.5-0.3c-0.2,0.1-0.3,0.2-0.2,0.6L196.1,17.5z"/>
		<path class="st2" d="M207.7,5.8l0.8,3.7l1.6-0.3l0.5,2.4l-1.6,0.3l1.5,6.7c0.1,0.4,0.3,0.5,0.6,0.4c0.2-0.1,0.6-0.2,1-0.5l0.5,2.3
			c-0.3,0.2-0.9,0.5-1.2,0.6c-2.4,0.5-3.3-0.4-3.7-2.2l-1.5-6.7l-1.2,0.3l-0.5-2.4l1.2-0.3l-0.7-3L207.7,5.8z"/>
		<path class="st2" d="M213.6,17.8l-0.9-6.4c-0.3-1.8,0.3-3.1,2.7-3.4c2.4-0.3,3.3,0.7,3.6,2.5l0.9,6.4c0.3,1.8-0.2,3.1-2.7,3.4
			C214.7,20.7,213.9,19.6,213.6,17.8z M217.1,17.4l-0.9-6.6c-0.1-0.4-0.3-0.4-0.4-0.4c-0.2,0-0.4,0.1-0.3,0.5l0.9,6.6
			c0.1,0.4,0.3,0.4,0.4,0.4C217,17.9,217.2,17.8,217.1,17.4z"/>
		<path class="st2" d="M225.7,19.2l-0.6-9.3c0-0.3-0.1-0.5-0.4-0.5c-0.3,0-0.4,0.2-0.4,0.5l0.6,9.3l-2.8,0.2l-0.7-12l1.6-0.1
			l0.4,0.5c0.4-0.5,1.1-0.8,1.9-0.9c1.8-0.1,2.4,0.8,2.5,2.8l0.5,9.3L225.7,19.2z"/>
		<path class="st2" d="M234,19.1l0.2-9.3c0-0.3-0.1-0.5-0.4-0.5c-0.3,0-0.4,0.2-0.4,0.5l-0.2,9.3l-2.8-0.1l0.3-12l1.6,0l0.4,0.5
			c0.5-0.4,1.1-0.7,1.9-0.7c1.8,0,2.4,1,2.3,3l-0.2,9.3L234,19.1z"/>
		<path class="st2" d="M241.7,17c0,0.4,0.1,0.5,0.3,0.5c0.2,0,0.4-0.1,0.4-0.4l0.2-1.7l2.7,0.3l-0.2,1.6c-0.2,1.8-0.9,3-3.4,2.7
			c-2.5-0.3-3-1.6-2.8-3.4l0.7-6.4c0.2-1.8,1.1-2.9,3.5-2.7c2.4,0.3,2.9,1.6,2.7,3.3l-0.4,3.7l-3.5-0.4L241.7,17z M242.2,12.1
			l0.8,0.1l0.2-1.7c0-0.4-0.2-0.5-0.3-0.5c-0.2,0-0.4,0.1-0.4,0.4L242.2,12.1z"/>
		<path class="st2" d="M249.6,18.2c-0.1,0.4,0,0.5,0.3,0.5c0.2,0,0.4,0,0.5-0.4l0.1-0.6c0.4-2.3-3.1-2.6-2.4-6.2l0.1-0.3
			c0.4-1.8,1.4-2.8,3.6-2.3c2.3,0.4,2.8,1.7,2.5,3.5l-0.2,0.9l-2.7-0.5l0.2-1c0.1-0.3,0-0.5-0.3-0.6c-0.2,0-0.4,0.1-0.5,0.4
			l-0.1,0.5c-0.4,2.2,3.1,2.4,2.4,5.9l-0.1,0.7c-0.4,1.8-1.3,2.7-3.6,2.3c-2.3-0.4-2.8-1.7-2.5-3.5l0.2-1.2l2.7,0.5L249.6,18.2z"/>
		<path class="st2" d="M261,14c0.6-1.9,1.4-2.6,3.2-2c0.3,0.1,0.7,0.4,1,0.7l1.6-4.9l2.6,0.9l-5.3,16.2l-1.5-0.5l-0.2-0.6
			c-0.5,0.3-1.2,0.4-2,0.1c-1.7-0.6-2.1-1.6-1.4-3.6L261,14z M261.5,21.2c-0.1,0.3-0.1,0.5,0.2,0.6c0.3,0.1,0.4,0,0.5-0.3l2.1-6.3
			c0.1-0.3,0-0.5-0.2-0.6c-0.3-0.1-0.4,0-0.5,0.4L261.5,21.2z"/>
		<path class="st2" d="M269.5,24.2c-0.2,0.4,0,0.5,0.2,0.6c0.2,0.1,0.4,0.1,0.5-0.3l0.7-1.6l2.5,1.1l-0.6,1.5
			c-0.7,1.6-1.8,2.6-4,1.6c-2.3-1-2.4-2.4-1.7-4l2.5-5.9c0.7-1.6,1.9-2.5,4.1-1.5c2.2,0.9,2.4,2.4,1.7,4l-1.5,3.4l-3.2-1.4
			L269.5,24.2z M271.5,19.7l0.7,0.3l0.7-1.6c0.2-0.4,0-0.5-0.2-0.6c-0.2-0.1-0.4-0.1-0.5,0.3L271.5,19.7z"/>
		<path class="st2" d="M283.9,31.7c-1,1.7-1.9,2.2-3.5,1.3c-0.3-0.2-0.6-0.6-0.8-0.9l-2,3.4l-2.4-1.4l8-13.7l1.4,0.8l0.1,0.6
			c0.6-0.2,1.2-0.1,2,0.3c1.6,0.9,1.7,2,0.6,3.8L283.9,31.7z M284.9,24.5c0.1-0.2,0.2-0.5-0.1-0.6c-0.2-0.1-0.4,0-0.6,0.2l-3.4,5.7
			c-0.1,0.2-0.1,0.5,0.1,0.6c0.2,0.1,0.4,0,0.6-0.2L284.9,24.5z"/>
		<path class="st2" d="M296.1,22.6l-9.6,14.1l-2.3-1.6l9.6-14.1L296.1,22.6z"/>
		<path class="st2" d="M296.4,32.4c0.2-0.2,0.2-0.4,0-0.6c-0.2-0.1-0.4-0.1-0.6,0.1l-0.7,0.8l-2.1-1.6l0.7-0.9
			c1.1-1.3,2.4-1.7,4.2-0.3c1.8,1.5,1.7,2.9,0.6,4.2l-5.7,7.3l-1.3-1l0-0.6c-0.6,0.1-1.1,0-1.8-0.5c-1.4-1.1-1.4-2.4-0.2-3.9
			l0.9-1.1c1.1-1.4,2.5-1.4,5-0.6L296.4,32.4z M291.7,37.1c-0.2,0.3-0.2,0.5,0,0.7c0.2,0.2,0.4,0.1,0.6-0.2l1.8-2.3
			c-0.6,0-1,0.1-1.4,0.6L291.7,37.1z"/>
		<path class="st2" d="M297.9,42.4c-0.3,0.3-0.2,0.5,0,0.6c0.2,0.2,0.3,0.2,0.6-0.1l0.4-0.5c1.6-1.7-1.2-3.8,1.3-6.5l0.2-0.2
			c1.3-1.4,2.6-1.6,4.3-0.1c1.7,1.6,1.5,3,0.3,4.3l-0.7,0.7l-2-1.9l0.7-0.7c0.2-0.2,0.3-0.5,0.1-0.6c-0.2-0.2-0.4-0.1-0.6,0.1
			l-0.3,0.4c-1.5,1.7,1.4,3.6-1.1,6.3l-0.5,0.5c-1.3,1.4-2.6,1.6-4.3,0c-1.7-1.6-1.5-2.9-0.3-4.3l0.8-0.9l2,1.9L297.9,42.4z"/>
		<path class="st2" d="M313.7,39.7l-2.8,2.6l1.1,1.2l-1.8,1.7l-1.1-1.2l-5,4.7c-0.3,0.3-0.2,0.5,0,0.7c0.2,0.2,0.5,0.4,0.9,0.7
			l-1.7,1.6c-0.3-0.1-0.9-0.5-1.1-0.7c-1.7-1.8-1.3-3,0.1-4.3l5-4.7l-0.8-0.9l1.8-1.7l0.8,0.9l2.2-2.1L313.7,39.7z"/>
		<path class="st2" d="M315.3,47.4L306,55l-1.8-2.1l9.2-7.7L315.3,47.4z M318.5,44.6l-2.4,2l-1.8-2.1l2.4-2L318.5,44.6z"/>
		<path class="st2" d="M314.8,51.1c1.7-1.2,2.8-1.2,3.8,0.3c0.5,0.7,0.6,1.4,0.5,1.9l0.6,0l1,1.3l-12.9,9.3l-1.6-2.3l3.2-2.3
			c-0.3-0.2-0.8-0.5-1-0.8c-1.1-1.5-0.7-2.4,1-3.6L314.8,51.1z M311.1,57.2c-0.3,0.2-0.3,0.4-0.2,0.6c0.1,0.2,0.4,0.2,0.6,0l5.4-3.9
			c0.3-0.2,0.3-0.4,0.2-0.6c-0.2-0.3-0.4-0.2-0.6,0L311.1,57.2z"/>
		<path class="st2" d="M323.9,59.6l-8,4.8c-0.2,0.1-0.4,0.3-0.2,0.6c0.1,0.2,0.3,0.2,0.6,0.1l8-4.8l1.4,2.4l-10.3,6.1l-0.8-1.4
			l0.2-0.5c-0.6-0.1-1.1-0.5-1.6-1.3c-0.9-1.5-0.5-2.6,1.3-3.6l8-4.8L323.9,59.6z"/>
		<path class="st2" d="M320,71.9c-0.3,0.2-0.3,0.4-0.3,0.6c0.1,0.2,0.3,0.3,0.6,0.1l1.6-0.8l1.2,2.4l-1.5,0.7
			c-1.6,0.8-3,0.8-4.1-1.5c-1.1-2.3-0.2-3.4,1.4-4.2l5.8-2.8c1.6-0.8,3-0.7,4.1,1.5c1,2.2,0.2,3.3-1.4,4.1l-3.4,1.6l-1.5-3.1
			L320,71.9z M324.3,69.8l0.3,0.7l1.6-0.8c0.3-0.2,0.3-0.4,0.3-0.6c-0.1-0.2-0.3-0.3-0.6-0.1L324.3,69.8z"/>
	</g>
</g>
<g id="bubble_x5F_line_x5F_1">
	<line class="st4" x1="231" y1="126" x2="75.1" y2="215.4"/>
</g>
<g id="bubble_x5F_1">
	<path class="st5" d="M146.4,215.4c0,39.4-31.9,71.3-71.3,71.3c-39.4,0-71.3-31.9-71.3-71.3c0-39.4,31.9-71.3,71.3-71.3
		C114.5,144.1,146.4,176,146.4,215.4z"/>
	<path class="st6" d="M110,214.7c-1-5.5-3-9.9-6.5-14.2c1,3.7,0.4,7.7-0.8,11.4c-1.2,3.7-3.2,7.1-4.9,10.5
		c-0.2-6.5-3.4-12.4-6.7-18.1c-3.4-5.7-7.1-11.2-8.9-17.6c-1.8-6.3-1.2-13.8,3.4-18.5c-9.1,3.4-17.7,8.3-24.1,15.8
		S52,201.6,54,211.1c-3.4-3.7-5.1-8.9-4.7-13.8c-4.5,5.7-7.7,12.4-9.1,19.5c-1.4,7.1-0.6,14.6,2.2,21.1c2.8,6.1,7.1,11.2,11.4,16.2
		c5,4.3,10.7,6.8,16.9,7.9c-0.6-0.2-1.3-0.4-1.9-0.6c-6.9-2.8-13-9.7-13-17.4c-0.2-4.9,1.8-9.9,4.9-13.6c0.2,3.7,2.4,7.3,5.3,9.5
		c-2.6-5.3-3.4-11.6-2-17.4c1.4-5.7,4.7-11,9.5-14.6c-1.2,5.1,0.8,10.3,3.4,14.8c2.6,4.3,5.9,8.5,8.3,13c2.4,4.7,3.7,10.3,1.8,15
		c3.7-3.4,5.7-9.3,4.9-17.4c0,0.2,0.2,0.2,0.2,0.4c7.5,12.5-2.7,28-15.8,28.8c3.6,0.1,7.3-0.2,11-0.8c6.9-2.4,13.2-6.7,17.2-12.8
		c3.4-5.1,4.9-11.4,5.7-17.6C110.8,225.9,111,220.2,110,214.7z"/>
</g>
<g id="bubble_x5F_leg_x5F_1">
	<g>
		<path class="st3" d="M62.1,309.8v-3.7c0-0.9,0.4-1.5,1-1.9c-0.7-0.4-1-1-1-1.9v-3.4c0-1.8,0.7-3.2,3.4-3.2s3.4,1.3,3.4,3.2v3.4
			c0,0.9-0.3,1.5-1,1.9c0.6,0.4,1,1.1,1,1.9v3.7c0,1.8-0.8,3.2-3.4,3.2S62.1,311.6,62.1,309.8z M65.1,302.5c0,0.3,0.2,0.5,0.5,0.5
			s0.5-0.2,0.5-0.5v-3.6c0-0.3-0.2-0.5-0.5-0.5s-0.5,0.2-0.5,0.5V302.5z M65.1,309.8c0,0.3,0.2,0.5,0.5,0.5s0.5-0.2,0.5-0.5v-3.9
			c0-0.3-0.2-0.5-0.5-0.5s-0.5,0.2-0.5,0.5V309.8z"/>
		<path class="st3" d="M70.9,309.7V299c0-1.8,0.8-3.3,3.4-3.3s3.4,1.4,3.4,3.3v10.8c0,1.8-0.8,3.2-3.4,3.2S70.9,311.6,70.9,309.7z
			 M74.8,309.7v-10.8c0-0.3-0.2-0.6-0.5-0.6s-0.5,0.2-0.5,0.6v10.8c0,0.4,0.2,0.6,0.5,0.6S74.8,310.1,74.8,309.7z"/>
		<path class="st3" d="M83.7,298.1v2c0,1.6-0.5,2.4-2.1,2.4s-2.1-0.9-2.1-2.4v-2c0-1.6,0.5-2.4,2.1-2.4S83.7,296.6,83.7,298.1z
			 M81.4,312.7h-1.7l6.6-16.8h1.7L81.4,312.7z M81.9,300.2v-2.1c0-0.5-0.1-0.7-0.4-0.7s-0.4,0.2-0.4,0.7v2.1c0,0.5,0.1,0.7,0.4,0.7
			S81.9,300.7,81.9,300.2z M84.1,310.5v-2c0-1.6,0.5-2.4,2.1-2.4s2.1,0.9,2.1,2.4v2c0,1.6-0.5,2.4-2.1,2.4S84.1,312.1,84.1,310.5z
			 M85.8,308.5v2.1c0,0.5,0.1,0.7,0.4,0.7s0.4-0.2,0.4-0.7v-2.1c0-0.5-0.1-0.7-0.4-0.7S85.8,308,85.8,308.5z"/>
		<path class="st3" d="M48.2,319.8v2.4h-2.1v-2.4H48.2z M48.2,323.7v12h-2.1v-12H48.2z"/>
		<path class="st3" d="M50.4,335.7v-12h1.2l0.4,0.6c0.4-0.6,1-0.9,1.8-0.9c1.7,0,2.3,0.9,2.3,2.8v9.5h-2.1v-9.5c0-0.6-0.2-1-0.8-1
			c-0.6,0-0.8,0.4-0.8,1v9.5H50.4z"/>
		<path class="st3" d="M63.9,331.5v1.7c0,1.7-0.6,2.8-2.8,2.8c-2.3,0-2.9-1.1-2.9-2.8v-6.9c0-1.7,0.7-2.8,2.9-2.8
			c2.2,0,2.8,1.1,2.8,2.8v1.4h-2.1v-1.5c0-0.7-0.3-1-0.8-1c-0.5,0-0.8,0.3-0.8,1v6.9c0,0.7,0.3,0.9,0.8,0.9c0.5,0,0.8-0.3,0.8-0.9
			v-1.7H63.9z"/>
		<path class="st3" d="M68.1,319.8v2.4H66v-2.4H68.1z M68.1,323.7v12H66v-12H68.1z"/>
		<path class="st3" d="M70.3,335.7v-12h1.2l0.4,0.6c0.4-0.6,1-0.9,1.8-0.9c1.7,0,2.3,0.9,2.3,2.8v9.5h-2.1v-9.5c0-0.6-0.2-1-0.8-1
			c-0.6,0-0.8,0.4-0.8,1v9.5H70.3z"/>
		<path class="st3" d="M83.8,331.6v1.5c0,1.7-0.6,2.8-2.8,2.8c-2.3,0-2.9-1.2-2.9-2.8v-6.8c0-1.7,0.7-2.8,2.9-2.8
			c2.2,0,2.8,1.2,2.8,2.8v3.7h-3.6v3.2c0,0.7,0.3,0.9,0.8,0.9c0.5,0,0.8-0.3,0.8-0.9v-1.6H83.8z M81.8,326.3c0-0.7-0.3-1-0.8-1
			c-0.5,0-0.8,0.3-0.8,1v2.1h1.6V326.3z M82.9,319.4l-1.3,3.2h-1.3l0.6-3.2H82.9z"/>
		<path class="st3" d="M89.7,325.6c-0.1,0-0.3,0-0.4,0c-1,0-1.3,0.6-1.3,1.6v8.6h-2.1v-12h1.3l0.4,0.6c0.5-0.6,1-1,2.1-1V325.6z"/>
		<path class="st3" d="M96.9,331.6v1.5c0,1.7-0.6,2.8-2.8,2.8c-2.3,0-2.9-1.2-2.9-2.8v-6.8c0-1.7,0.7-2.8,2.9-2.8
			c2.2,0,2.8,1.2,2.8,2.8v3.7h-3.6v3.2c0,0.7,0.3,0.9,0.8,0.9c0.5,0,0.8-0.3,0.8-0.9v-1.6H96.9z M94.8,326.3c0-0.7-0.3-1-0.8-1
			c-0.5,0-0.8,0.3-0.8,1v2.1h1.6V326.3z M95.9,319.4l-1.3,3.2h-1.3l0.6-3.2H95.9z"/>
		<path class="st3" d="M98.7,326.3c0-1.7,0.7-2.8,2.8-2.8c2.2,0,2.8,1.1,2.8,2.8v1.2h-2.1v-1.3c0-0.6-0.3-1-0.8-1
			c-0.5,0-0.7,0.3-0.7,0.9v0.5c0,2.6,3.6,1.9,3.6,5.5v1c0,1.7-0.7,2.8-2.8,2.8s-2.8-1.1-2.8-2.8v-1.5h2.1v1.5c0,0.7,0.3,0.9,0.7,0.9
			c0.5,0,0.8-0.2,0.8-0.9v-0.9c0-2.7-3.6-1.9-3.6-5.6V326.3z"/>
	</g>
</g>
<g id="bubble_x5F_line_x5F_2">
	<line class="st4" x1="231" y1="126" x2="185.1" y2="252.1"/>
</g>
<g id="bubble_x5F_2">
	<path class="st5" d="M210.3,251.8c0,13.9-11.3,25.2-25.2,25.2c-13.9,0-25.2-11.3-25.2-25.2s11.3-25.2,25.2-25.2
		C199,226.6,210.3,237.9,210.3,251.8z"/>
	<g>
		<path class="st6" d="M168.4,246.1l2.1,1.7l-2,3.8c-1,1.8,0.7,3.5,1.8,4.1c1.1,0.6,2.7,0.7,4.3,0.6l2.8-4.6l2.1,1.1l-3.7-6.8
			L168.4,246.1z M168.7,255.4l4.6,8.4c0.9,1.2,2.6,1.4,4.4,1.4h4.8v-8l-9.1-0.1C171.9,257.3,170.1,257,168.7,255.4z M197.3,239.9
			l-2.5,1.1l-2.4-3.6c-1.1-1.7-3.4-1.1-4.4-0.4c-1,0.7-1.9,2.1-2.6,3.5l2.7,4.7l-2,1.3l7.7,0.1L197.3,239.9z M189,235.7l-9.6-0.1
			c-1.5,0.2-2.5,1.6-3.4,3.2l-2.3,4.2l7,3.9l4.5-7.9C185.8,237.6,186.9,236.1,189,235.7z M189.4,268.1l0.3-2.7l4.3-0.3
			c2-0.1,2.6-2.5,2.5-3.7c-0.1-1.2-0.9-2.7-1.7-4l-5.4,0.1l-0.2-2.4l-3.8,6.7L189.4,268.1z M197.2,262.9l4.7-8.3
			c0.5-1.4-0.2-3-1.2-4.5l-2.5-4.1l-6.8,4.2l4.8,7.8C197,259.1,197.7,260.9,197.2,262.9z"/>
	</g>
</g>
<g id="bubble_x5F_leg_x5F_2">
	<g>
		<path class="st3" d="M177,300.4h1.5v2.8h-5.9v-2.8h1.5V290h-1.5v-2.1c1.3,0,1.9-0.7,1.9-1.6h2.5V300.4z"/>
		<path class="st3" d="M180.1,300.1v-10.8c0-1.8,0.8-3.3,3.4-3.3s3.4,1.4,3.4,3.3v10.8c0,1.8-0.8,3.2-3.4,3.2S180.1,302,180.1,300.1
			z M184,300.1v-10.8c0-0.3-0.2-0.6-0.5-0.6s-0.5,0.2-0.5,0.6v10.8c0,0.4,0.2,0.6,0.5,0.6S184,300.5,184,300.1z"/>
		<path class="st3" d="M192.8,288.6v2c0,1.6-0.5,2.4-2.1,2.4s-2.1-0.9-2.1-2.4v-2c0-1.6,0.5-2.4,2.1-2.4S192.8,287,192.8,288.6z
			 M190.6,303.1h-1.7l6.6-16.8h1.7L190.6,303.1z M191.1,290.6v-2.1c0-0.5-0.1-0.7-0.4-0.7s-0.4,0.2-0.4,0.7v2.1
			c0,0.5,0.1,0.7,0.4,0.7S191.1,291.1,191.1,290.6z M193.3,300.9v-2c0-1.6,0.5-2.4,2.1-2.4s2.1,0.9,2.1,2.4v2c0,1.6-0.5,2.4-2.1,2.4
			S193.3,302.5,193.3,300.9z M195,298.9v2.1c0,0.5,0.1,0.7,0.4,0.7s0.4-0.2,0.4-0.7v-2.1c0-0.5-0.1-0.7-0.4-0.7S195,298.4,195,298.9
			z"/>
		<path class="st3" d="M160.5,326.1h-2.4l-2-12h2.2l1,9.1l1.1-9.1h2.2L160.5,326.1z"/>
		<path class="st3" d="M163.7,321.8c0-1.8,1-2.6,3.7-3.5v-1.7c0-0.6-0.2-0.9-0.7-0.9c-0.5,0-0.7,0.3-0.7,1v0.6h-2.1v-0.7
			c0-1.6,0.7-2.7,2.8-2.7c2.2,0,2.9,1.2,2.9,2.8v9.5h-1.2l-0.4-0.6c-0.4,0.6-0.8,0.8-1.8,0.8c-1.7,0-2.4-0.9-2.4-2.8V321.8z
			 M167.3,319.9c-1.1,0.5-1.6,0.9-1.6,1.9v1.4c0,0.6,0,1.3,0.8,1.3c0.6,0,0.8-0.4,0.8-1V319.9z"/>
		<path class="st3" d="M173.6,309.1v17h-2.1v-17H173.6z"/>
		<path class="st3" d="M175.6,323.6v-6.9c0-1.7,0.7-2.8,2.9-2.8s2.9,1.1,2.9,2.8v6.9c0,1.7-0.6,2.8-2.9,2.8
			C176.3,326.4,175.6,325.3,175.6,323.6z M179.3,323.6v-6.9c0-0.7-0.3-1-0.8-1c-0.5,0-0.8,0.3-0.8,1v6.9c0,0.7,0.3,0.9,0.8,0.9
			C179,324.6,179.3,324.3,179.3,323.6z"/>
		<path class="st3" d="M187.3,316c-0.1,0-0.3,0-0.4,0c-1,0-1.3,0.6-1.3,1.6v8.6h-2.1v-12h1.3l0.4,0.6c0.5-0.6,1-1,2.1-1V316z"/>
		<path class="st3" d="M191,310.2v2.4h-2.1v-2.4H191z M191,314.1v12h-2.1v-12H191z"/>
		<path class="st3" d="M192.9,316.7c0-1.7,0.7-2.8,2.8-2.8c2.2,0,2.8,1.1,2.8,2.8v1.2h-2.1v-1.3c0-0.6-0.3-1-0.8-1
			c-0.5,0-0.7,0.3-0.7,0.9v0.5c0,2.6,3.6,1.9,3.6,5.5v1c0,1.7-0.7,2.8-2.8,2.8s-2.8-1.1-2.8-2.8v-1.5h2.1v1.5c0,0.7,0.3,0.9,0.7,0.9
			c0.5,0,0.8-0.2,0.8-0.9v-0.9c0-2.7-3.6-1.9-3.6-5.6V316.7z"/>
		<path class="st3" d="M206.1,322v1.5c0,1.7-0.6,2.8-2.8,2.8c-2.3,0-2.9-1.2-2.9-2.8v-6.8c0-1.7,0.7-2.8,2.9-2.8
			c2.2,0,2.8,1.2,2.8,2.8v3.7h-3.6v3.2c0,0.7,0.3,0.9,0.8,0.9c0.5,0,0.8-0.3,0.8-0.9V322H206.1z M204,316.7c0-0.7-0.3-1-0.8-1
			c-0.5,0-0.8,0.3-0.8,1v2.1h1.6V316.7z M205.1,309.8l-1.3,3.2h-1.3l0.6-3.2H205.1z"/>
		<path class="st3" d="M207.9,316.7c0-1.7,0.7-2.8,2.8-2.8c2.2,0,2.8,1.1,2.8,2.8v1.2h-2.1v-1.3c0-0.6-0.3-1-0.8-1
			c-0.5,0-0.7,0.3-0.7,0.9v0.5c0,2.6,3.6,1.9,3.6,5.5v1c0,1.7-0.7,2.8-2.8,2.8s-2.8-1.1-2.8-2.8v-1.5h2.1v1.5c0,0.7,0.3,0.9,0.7,0.9
			c0.5,0,0.8-0.2,0.8-0.9v-0.9c0-2.7-3.6-1.9-3.6-5.6V316.7z"/>
	</g>
</g>
<g id="bubble_x5F_line_x5F_3">
	<line class="st4" x1="231" y1="126" x2="275.2" y2="246.3"/>
</g>
<g id="bubble_x5F_3">
	<path class="st5" d="M295.1,246.1c0,10.8-8.8,19.6-19.6,19.6c-10.8,0-19.6-8.8-19.6-19.6c0-10.8,8.8-19.6,19.6-19.6
		C286.4,226.5,295.1,235.3,295.1,246.1z"/>
	<g>
		<g>
			<path class="st6" d="M268.9,248.7h-3.8v-5.3h3.8V248.7z M270.3,248.7h10.5v-5.3h-10.5V248.7L270.3,248.7z M274.9,236.8h-9.8v5.2
				h9.8V236.8z M265.1,255.4h9.8v-5.2h-9.8V255.4z M276.3,236.8v5.2h9.8v-5.2H276.3z M276.3,255.4h9.8v-5.2h-9.8V255.4z
				 M282.3,248.7h3.8v-5.3h-3.8V248.7z"/>
		</g>
	</g>
</g>
<g id="bubble_x5F_leg_x5F_3">
	<g>
		<path class="st3" d="M269.9,277.9v4.2c0.3-0.1,0.9-0.3,1.3-0.3c1.9,0,2.6,1.1,2.6,2.9v4.1c0,1.9-1,3.2-3.4,3.2
			c-2.5,0-3.4-1.3-3.4-3.2v-10.8c0-1.9,1-3.2,3.4-3.2c2.5,0,3.4,1.3,3.4,3.2v1.8h-2.9v-1.8c0-0.4-0.2-0.5-0.5-0.5
			C270.2,277.4,269.9,277.5,269.9,277.9z M269.9,288.8c0,0.3,0.2,0.5,0.5,0.5s0.5-0.2,0.5-0.5v-3.9c0-0.3-0.2-0.5-0.5-0.5
			s-0.5,0.2-0.5,0.5V288.8z"/>
		<path class="st3" d="M279.7,277.1v2c0,1.6-0.5,2.4-2.1,2.4s-2.1-0.9-2.1-2.4v-2c0-1.6,0.5-2.4,2.1-2.4S279.7,275.6,279.7,277.1z
			 M277.5,291.7h-1.7l6.6-16.8h1.7L277.5,291.7z M278,279.2v-2.1c0-0.5-0.1-0.7-0.4-0.7s-0.4,0.2-0.4,0.7v2.1c0,0.5,0.1,0.7,0.4,0.7
			S278,279.7,278,279.2z M280.2,289.5v-2c0-1.6,0.5-2.4,2.1-2.4s2.1,0.9,2.1,2.4v2c0,1.6-0.5,2.4-2.1,2.4S280.2,291.1,280.2,289.5z
			 M281.9,287.5v2.1c0,0.5,0.1,0.7,0.4,0.7s0.4-0.2,0.4-0.7v-2.1c0-0.5-0.1-0.7-0.4-0.7S281.9,287,281.9,287.5z"/>
		<path class="st3" d="M246,314.7l-0.4-0.6c-0.3,0.6-1,0.8-1.8,0.8c-1.7,0-2.3-0.9-2.3-2.8v-6.9c0-1.9,0.6-2.8,2.3-2.8
			c0.5,0,1.1,0.2,1.4,0.6v-5.4h2.1v17H246z M245.1,305.2c0-0.6-0.2-0.9-0.8-0.9c-0.6,0-0.8,0.4-0.8,1v6.9c0,0.6,0.2,0.9,0.8,0.9
			c0.6,0,0.8-0.4,0.8-0.9V305.2z"/>
		<path class="st3" d="M255,310.6v1.5c0,1.7-0.6,2.8-2.8,2.8c-2.3,0-2.9-1.2-2.9-2.8v-6.8c0-1.7,0.7-2.8,2.9-2.8
			c2.2,0,2.8,1.2,2.8,2.8v3.7h-3.6v3.2c0,0.7,0.3,0.9,0.8,0.9c0.5,0,0.8-0.3,0.8-0.9v-1.6H255z M253,305.3c0-0.7-0.3-1-0.8-1
			c-0.5,0-0.8,0.3-0.8,1v2.1h1.6V305.3z M254.1,298.4l-1.3,3.2h-1.3l0.6-3.2H254.1z"/>
		<path class="st3" d="M261.5,314.7l-0.4-0.6c-0.3,0.6-1,0.8-1.8,0.8c-1.7,0-2.3-0.9-2.3-2.8v-6.9c0-1.9,0.6-2.8,2.3-2.8
			c0.5,0,1.1,0.2,1.4,0.6v-5.4h2.1v17H261.5z M260.6,305.2c0-0.6-0.2-0.9-0.8-0.9c-0.6,0-0.8,0.4-0.8,1v6.9c0,0.6,0.2,0.9,0.8,0.9
			c0.6,0,0.8-0.4,0.8-0.9V305.2z"/>
		<path class="st3" d="M267,298.8v2.4h-2.1v-2.4H267z M267,302.7v12h-2.1v-12H267z"/>
		<path class="st3" d="M274.8,310.6v1.5c0,1.7-0.6,2.8-2.8,2.8c-2.3,0-2.9-1.2-2.9-2.8v-6.8c0-1.7,0.7-2.8,2.9-2.8
			c2.2,0,2.8,1.2,2.8,2.8v3.7h-3.6v3.2c0,0.7,0.3,0.9,0.8,0.9c0.5,0,0.8-0.3,0.8-0.9v-1.6H274.8z M272.7,305.3c0-0.7-0.3-1-0.8-1
			c-0.5,0-0.8,0.3-0.8,1v2.1h1.6V305.3z M273.8,298.4l-1.3,3.2h-1.3l0.6-3.2H273.8z"/>
		<path class="st3" d="M276.6,305.3c0-1.7,0.7-2.8,2.8-2.8c2.2,0,2.8,1.1,2.8,2.8v1.2h-2.1v-1.3c0-0.6-0.3-1-0.8-1
			c-0.5,0-0.7,0.3-0.7,0.9v0.5c0,2.6,3.6,1.9,3.6,5.5v1c0,1.7-0.7,2.8-2.8,2.8s-2.8-1.1-2.8-2.8v-1.5h2.1v1.5c0,0.7,0.3,0.9,0.7,0.9
			c0.5,0,0.8-0.2,0.8-0.9v-0.9c0-2.7-3.6-1.9-3.6-5.6V305.3z"/>
		<path class="st3" d="M288,310.4c0-1.8,1-2.6,3.7-3.5v-1.7c0-0.6-0.2-0.9-0.7-0.9c-0.5,0-0.7,0.3-0.7,1v0.6h-2.1v-0.7
			c0-1.6,0.7-2.7,2.8-2.7c2.2,0,2.9,1.2,2.9,2.8v9.5h-1.2l-0.4-0.6c-0.4,0.6-0.8,0.8-1.8,0.8c-1.7,0-2.4-0.9-2.4-2.8V310.4z
			 M291,298.4l0.6,3.2h-1.3l-1.3-3.2H291z M291.6,308.5c-1.1,0.5-1.6,0.9-1.6,1.9v1.4c0,0.6,0,1.3,0.8,1.3c0.6,0,0.8-0.4,0.8-1
			V308.5z"/>
		<path class="st3" d="M302,297.7v17h-2.1v-17H302z"/>
		<path class="st3" d="M303.9,310.4c0-1.8,1-2.6,3.7-3.5v-1.7c0-0.6-0.2-0.9-0.7-0.9c-0.5,0-0.7,0.3-0.7,1v0.6H304v-0.7
			c0-1.6,0.7-2.7,2.8-2.7c2.2,0,2.9,1.2,2.9,2.8v9.5h-1.2l-0.4-0.6c-0.4,0.6-0.8,0.8-1.8,0.8c-1.7,0-2.4-0.9-2.4-2.8V310.4z
			 M307.6,308.5c-1.1,0.5-1.6,0.9-1.6,1.9v1.4c0,0.6,0,1.3,0.8,1.3c0.6,0,0.8-0.4,0.8-1V308.5z"/>
		<path class="st3" d="M247.2,331.5v1.7c0,1.7-0.6,2.8-2.8,2.8c-2.3,0-2.9-1.1-2.9-2.8v-6.9c0-1.7,0.7-2.8,2.9-2.8
			c2.2,0,2.8,1.1,2.8,2.8v1.4h-2.1v-1.5c0-0.7-0.3-1-0.8-1c-0.5,0-0.8,0.3-0.8,1v6.9c0,0.7,0.3,0.9,0.8,0.9c0.5,0,0.8-0.3,0.8-0.9
			v-1.7H247.2z"/>
		<path class="st3" d="M251.4,319.8v2.4h-2.1v-2.4H251.4z M251.4,323.7v12h-2.1v-12H251.4z"/>
		<path class="st3" d="M257.2,326.2c0-0.5-0.1-0.9-0.7-0.9c-0.6,0-0.8,0.4-0.8,0.9v9.5h-2.1v-12h1.2l0.4,0.6
			c0.4-0.6,1.1-0.9,1.9-0.9c0.9,0,1.4,0.3,1.8,0.8c0.4-0.5,1-0.8,1.8-0.8c1.7,0,2.3,0.9,2.3,2.7v9.5h-2.1v-9.5
			c0-0.5-0.1-0.9-0.7-0.9c-0.6,0-0.8,0.4-0.8,0.9v9.5h-2.1V326.2z"/>
		<path class="st3" d="M270.7,331.6v1.5c0,1.7-0.6,2.8-2.8,2.8c-2.3,0-2.9-1.2-2.9-2.8v-6.8c0-1.7,0.7-2.8,2.9-2.8
			c2.2,0,2.8,1.2,2.8,2.8v3.7h-3.6v3.2c0,0.7,0.3,0.9,0.8,0.9c0.5,0,0.8-0.3,0.8-0.9v-1.6H270.7z M268.7,326.3c0-0.7-0.3-1-0.8-1
			c-0.5,0-0.8,0.3-0.8,1v2.1h1.6V326.3z"/>
		<path class="st3" d="M272.8,335.7v-12h1.2l0.4,0.6c0.4-0.6,1-0.9,1.8-0.9c1.7,0,2.3,0.9,2.3,2.8v9.5h-2.1v-9.5c0-0.6-0.2-1-0.8-1
			c-0.6,0-0.8,0.4-0.8,1v9.5H272.8z"/>
		<path class="st3" d="M280,323.7h1.2v-3.1l2.1-0.6v3.6h1.7v1.9h-1.7v7.6c0,0.7,0.2,1,0.8,1c0.3,0,0.6,0,0.9-0.2v1.8
			c-0.2,0.1-0.8,0.2-1.1,0.2c-2.2,0-2.8-1-2.8-2.8v-7.6H280V323.7z"/>
		<path class="st3" d="M292.3,331.6v1.5c0,1.7-0.6,2.8-2.8,2.8c-2.3,0-2.9-1.2-2.9-2.8v-6.8c0-1.7,0.7-2.8,2.9-2.8
			c2.2,0,2.8,1.2,2.8,2.8v3.7h-3.6v3.2c0,0.7,0.3,0.9,0.8,0.9c0.5,0,0.8-0.3,0.8-0.9v-1.6H292.3z M290.3,326.3c0-0.7-0.3-1-0.8-1
			c-0.5,0-0.8,0.3-0.8,1v2.1h1.6V326.3z"/>
		<path class="st3" d="M298.2,325.6c-0.1,0-0.3,0-0.4,0c-1,0-1.3,0.6-1.3,1.6v8.6h-2.1v-12h1.3l0.4,0.6c0.5-0.6,1-1,2.1-1V325.6z"/>
		<path class="st3" d="M301.9,319.8v2.4h-2.1v-2.4H301.9z M301.9,323.7v12h-2.1v-12H301.9z"/>
		<path class="st3" d="M309.7,331.6v1.5c0,1.7-0.6,2.8-2.8,2.8c-2.3,0-2.9-1.2-2.9-2.8v-6.8c0-1.7,0.7-2.8,2.9-2.8
			c2.2,0,2.8,1.2,2.8,2.8v3.7H306v3.2c0,0.7,0.3,0.9,0.8,0.9c0.5,0,0.8-0.3,0.8-0.9v-1.6H309.7z M307.6,326.3c0-0.7-0.3-1-0.8-1
			c-0.5,0-0.8,0.3-0.8,1v2.1h1.6V326.3z"/>
	</g>
</g>
<g id="bubble_x5F_line_x5F_4">
	<line class="st4" x1="231" y1="126" x2="339.3" y2="187.9"/>
</g>
<g id="bubble_x5F_4">
	<path class="st5" d="M355.2,187.9c0,8.8-7.1,15.9-15.9,15.9s-15.9-7.1-15.9-15.9c0-8.8,7.1-15.9,15.9-15.9S355.2,179.1,355.2,187.9
		z"/>
	<g>
		<g>
			<path class="st6" d="M332,185.9c-0.6,0-1,0.2-1.4,0.6c-0.4,0.4-0.6,0.9-0.6,1.4c0,0.6,0.2,1,0.6,1.4c0.4,0.4,0.9,0.6,1.4,0.6
				c0.6,0,1-0.2,1.4-0.6c0.4-0.4,0.6-0.9,0.6-1.4c0-0.6-0.2-1-0.6-1.4C333,186.1,332.5,185.9,332,185.9z"/>
			<path class="st6" d="M332,180.5c-0.6,0-1,0.2-1.4,0.6c-0.4,0.4-0.6,0.9-0.6,1.4c0,0.6,0.2,1,0.6,1.4c0.4,0.4,0.9,0.6,1.4,0.6
				c0.6,0,1-0.2,1.4-0.6c0.4-0.4,0.6-0.9,0.6-1.4c0-0.6-0.2-1-0.6-1.4C333,180.7,332.5,180.5,332,180.5z"/>
			<path class="st6" d="M332,191.2c-0.6,0-1,0.2-1.4,0.6c-0.4,0.4-0.6,0.9-0.6,1.4c0,0.6,0.2,1,0.6,1.4c0.4,0.4,0.9,0.6,1.4,0.6
				c0.6,0,1-0.2,1.4-0.6c0.4-0.4,0.6-0.9,0.6-1.4c0-0.6-0.2-1-0.6-1.4C333,191.4,332.5,191.2,332,191.2z"/>
			<path class="st6" d="M348.6,181.3c-0.1-0.1-0.1-0.1-0.2-0.1h-12.7c-0.1,0-0.2,0-0.2,0.1c-0.1,0.1-0.1,0.1-0.1,0.2v2
				c0,0.1,0,0.2,0.1,0.2c0.1,0.1,0.1,0.1,0.2,0.1h12.7c0.1,0,0.2,0,0.2-0.1c0.1-0.1,0.1-0.1,0.1-0.2v-2
				C348.7,181.5,348.6,181.4,348.6,181.3z"/>
			<path class="st6" d="M348.3,186.6h-12.7c-0.1,0-0.2,0-0.2,0.1c-0.1,0.1-0.1,0.1-0.1,0.2v2c0,0.1,0,0.2,0.1,0.2
				c0.1,0.1,0.1,0.1,0.2,0.1h12.7c0.1,0,0.2,0,0.2-0.1c0.1-0.1,0.1-0.1,0.1-0.2v-2c0-0.1,0-0.2-0.1-0.2
				C348.5,186.6,348.4,186.6,348.3,186.6z"/>
			<path class="st6" d="M348.3,191.9h-12.7c-0.1,0-0.2,0-0.2,0.1c-0.1,0.1-0.1,0.1-0.1,0.2v2c0,0.1,0,0.2,0.1,0.2
				c0.1,0.1,0.1,0.1,0.2,0.1h12.7c0.1,0,0.2,0,0.2-0.1s0.1-0.1,0.1-0.2v-2c0-0.1,0-0.2-0.1-0.2C348.5,191.9,348.4,191.9,348.3,191.9
				z"/>
		</g>
	</g>
</g>
<g id="bubble_x5F_leg_x5F_4">
	<g>
		<path class="st3" d="M334,226.6h-3.6v-2.7l2.5-10.8h4v11h1v2.6h-1v3.2H334V226.6z M334,224v-2.7c0-1.7,0.1-2.8,0.1-4.9l-1.3,7.6
			H334z"/>
		<path class="st3" d="M343.2,215.2v2c0,1.6-0.5,2.4-2.1,2.4s-2.1-0.9-2.1-2.4v-2c0-1.6,0.5-2.4,2.1-2.4S343.2,213.7,343.2,215.2z
			 M340.9,229.8h-1.7l6.6-16.8h1.7L340.9,229.8z M341.5,217.3v-2.1c0-0.5-0.1-0.7-0.4-0.7s-0.4,0.2-0.4,0.7v2.1
			c0,0.5,0.1,0.7,0.4,0.7S341.5,217.8,341.5,217.3z M343.6,227.6v-2c0-1.6,0.5-2.4,2.1-2.4s2.1,0.9,2.1,2.4v2c0,1.6-0.5,2.4-2.1,2.4
			S343.6,229.2,343.6,227.6z M345.3,225.6v2.1c0,0.5,0.1,0.7,0.4,0.7s0.4-0.2,0.4-0.7v-2.1c0-0.5-0.1-0.7-0.4-0.7
			S345.3,225.1,345.3,225.6z"/>
		<path class="st3" d="M319.2,248.5c0-1.8,1-2.6,3.7-3.5v-1.7c0-0.6-0.2-0.9-0.7-0.9c-0.5,0-0.7,0.3-0.7,1v0.6h-2.1v-0.7
			c0-1.6,0.7-2.7,2.8-2.7c2.2,0,2.9,1.2,2.9,2.8v9.5h-1.2l-0.4-0.6c-0.4,0.6-0.8,0.8-1.8,0.8c-1.7,0-2.4-0.9-2.4-2.8V248.5z
			 M322.9,246.6c-1.1,0.5-1.6,0.9-1.6,1.9v1.4c0,0.6,0,1.3,0.8,1.3c0.6,0,0.8-0.4,0.8-1V246.6z"/>
		<path class="st3" d="M332.8,240.8v12h-1.2l-0.4-0.6c-0.3,0.6-1,0.8-1.8,0.8c-1.7,0-2.3-0.9-2.3-2.8v-9.5h2.1v9.5
			c0,0.6,0.2,0.9,0.8,0.9c0.6,0,0.8-0.4,0.8-0.9v-9.5H332.8z"/>
		<path class="st3" d="M334.2,240.8h1.2v-3.1l2.1-0.6v3.6h1.7v1.9h-1.7v7.6c0,0.7,0.2,1,0.8,1c0.3,0,0.6,0,0.9-0.2v1.8
			c-0.2,0.1-0.8,0.2-1.1,0.2c-2.2,0-2.8-1-2.8-2.8v-7.6h-1.2V240.8z"/>
		<path class="st3" d="M344.8,242.7c-0.1,0-0.3,0-0.4,0c-1,0-1.3,0.6-1.3,1.6v8.6H341v-12h1.3l0.4,0.6c0.5-0.6,1-1,2.1-1V242.7z"/>
		<path class="st3" d="M352,248.7v1.5c0,1.7-0.6,2.8-2.8,2.8c-2.3,0-2.9-1.2-2.9-2.8v-6.8c0-1.7,0.7-2.8,2.9-2.8
			c2.2,0,2.8,1.2,2.8,2.8v3.7h-3.6v3.2c0,0.7,0.3,0.9,0.8,0.9c0.5,0,0.8-0.3,0.8-0.9v-1.6H352z M349.9,243.4c0-0.7-0.3-1-0.8-1
			c-0.5,0-0.8,0.3-0.8,1v2.1h1.6V243.4z"/>
		<path class="st3" d="M353.8,243.4c0-1.7,0.7-2.8,2.8-2.8c2.2,0,2.8,1.1,2.8,2.8v1.2h-2.1v-1.3c0-0.6-0.3-1-0.8-1
			c-0.5,0-0.7,0.3-0.7,0.9v0.5c0,2.6,3.6,1.9,3.6,5.5v1c0,1.7-0.7,2.8-2.8,2.8s-2.8-1.1-2.8-2.8v-1.5h2.1v1.5c0,0.7,0.3,0.9,0.7,0.9
			c0.5,0,0.8-0.2,0.8-0.9v-0.9c0-2.7-3.6-1.9-3.6-5.6V243.4z"/>
	</g>
</g>
<g id="bubble_x5F_front">
	<path class="st5" d="M310.7,126c0,44-35.7,79.7-79.7,79.7c-44,0-79.7-35.7-79.7-79.7c0-44,35.7-79.7,79.7-79.7
		C275,46.4,310.7,82,310.7,126z"/>
	<g>
		<path class="st6" d="M203.3,90.6c0-5.1,0.7-9.5,2.2-14h-3.6v-2.8h6.3v2.4c-1.4,5.3-1.7,7.2-1.7,14.4H203.3z"/>
		<path class="st6" d="M209.5,87.7V84c0-0.9,0.4-1.5,1-1.9c-0.7-0.4-1-1-1-1.9v-3.4c0-1.8,0.7-3.2,3.4-3.2s3.4,1.3,3.4,3.2v3.4
			c0,0.9-0.3,1.5-1,1.9c0.6,0.4,1,1.1,1,1.9v3.7c0,1.8-0.8,3.2-3.4,3.2S209.5,89.5,209.5,87.7z M212.4,80.4c0,0.3,0.2,0.5,0.5,0.5
			s0.5-0.2,0.5-0.5v-3.6c0-0.3-0.2-0.5-0.5-0.5s-0.5,0.2-0.5,0.5V80.4z M212.4,87.7c0,0.3,0.2,0.5,0.5,0.5s0.5-0.2,0.5-0.5v-3.9
			c0-0.3-0.2-0.5-0.5-0.5s-0.5,0.2-0.5,0.5V87.7z"/>
		<path class="st6" d="M218.3,87.6V76.8c0-1.8,0.8-3.3,3.4-3.3s3.4,1.4,3.4,3.3v10.8c0,1.8-0.8,3.2-3.4,3.2S218.3,89.5,218.3,87.6z
			 M222.2,87.6V76.8c0-0.3-0.2-0.6-0.5-0.6s-0.5,0.2-0.5,0.6v10.8c0,0.4,0.2,0.6,0.5,0.6S222.2,88,222.2,87.6z"/>
		<path class="st6" d="M231.1,87.6V76.8c0-1.8,0.8-3.3,3.4-3.3s3.4,1.4,3.4,3.3v10.8c0,1.8-0.8,3.2-3.4,3.2S231.1,89.5,231.1,87.6z
			 M235,87.6V76.8c0-0.3-0.2-0.6-0.5-0.6s-0.5,0.2-0.5,0.6v10.8c0,0.4,0.2,0.6,0.5,0.6S235,88,235,87.6z"/>
		<path class="st6" d="M239.9,87.6V76.8c0-1.8,0.8-3.3,3.4-3.3s3.4,1.4,3.4,3.3v10.8c0,1.8-0.8,3.2-3.4,3.2S239.9,89.5,239.9,87.6z
			 M243.8,87.6V76.8c0-0.3-0.2-0.6-0.5-0.6s-0.5,0.2-0.5,0.6v10.8c0,0.4,0.2,0.6,0.5,0.6S243.8,88,243.8,87.6z"/>
		<path class="st6" d="M248.7,87.6V76.8c0-1.8,0.8-3.3,3.4-3.3s3.4,1.4,3.4,3.3v10.8c0,1.8-0.8,3.2-3.4,3.2S248.7,89.5,248.7,87.6z
			 M252.6,87.6V76.8c0-0.3-0.2-0.6-0.5-0.6s-0.5,0.2-0.5,0.6v10.8c0,0.4,0.2,0.6,0.5,0.6S252.6,88,252.6,87.6z"/>
		<path class="st6" d="M196.9,106.3c0-2,0.5-2.9,2.4-2.9c0.3,0,0.8,0.2,1.2,0.3v-5.1h2.8v17h-1.6l-0.4-0.5c-0.4,0.5-1,0.7-1.8,0.7
			c-1.8,0-2.5-0.9-2.5-3V106.3z M199.7,112.9c0,0.3,0.1,0.5,0.4,0.5c0.3,0,0.4-0.2,0.4-0.5v-6.6c0-0.3-0.1-0.5-0.4-0.5
			c-0.3,0-0.4,0.2-0.4,0.5V112.9z"/>
		<path class="st6" d="M207.8,112.9c0,0.4,0.2,0.5,0.4,0.5c0.2,0,0.4-0.1,0.4-0.5v-1.8h2.7v1.6c0,1.8-0.6,3-3.1,3
			c-2.5,0-3.2-1.3-3.2-3v-6.4c0-1.8,0.7-3,3.2-3c2.4,0,3.1,1.2,3.1,3v3.7h-3.5V112.9z M207.8,108.1h0.8v-1.8c0-0.4-0.2-0.5-0.4-0.5
			c-0.2,0-0.4,0.1-0.4,0.5V108.1z"/>
		<path class="st6" d="M220.5,99.8v3.8h1.6v2.4h-1.6v6.8c0,0.4,0.2,0.5,0.5,0.5c0.2,0,0.6,0,1.1-0.2v2.4c-0.3,0.2-1,0.3-1.3,0.3
			c-2.5,0-3.1-1.1-3.1-3v-6.8h-1.2v-2.4h1.2v-3L220.5,99.8z"/>
		<path class="st6" d="M223.3,112.9v-6.5c0-1.8,0.7-3,3.2-3c2.4,0,3.2,1.2,3.2,3v6.5c0,1.8-0.6,3-3.2,3
			C223.9,115.9,223.3,114.6,223.3,112.9z M226.8,112.9v-6.6c0-0.4-0.2-0.5-0.4-0.5c-0.2,0-0.4,0.1-0.4,0.5v6.6
			c0,0.4,0.2,0.5,0.4,0.5C226.7,113.4,226.8,113.3,226.8,112.9z"/>
		<path class="st6" d="M234.9,115.6v-9.3c0-0.3-0.1-0.5-0.4-0.5c-0.3,0-0.4,0.2-0.4,0.5v9.3h-2.8v-12h1.6l0.4,0.5
			c0.5-0.5,1.1-0.7,1.9-0.7c1.8,0,2.4,0.9,2.4,3v9.3H234.9z"/>
		<path class="st6" d="M243,115.6v-9.3c0-0.3-0.1-0.5-0.4-0.5c-0.3,0-0.4,0.2-0.4,0.5v9.3h-2.8v-12h1.6l0.4,0.5
			c0.5-0.5,1.1-0.7,1.9-0.7c1.8,0,2.4,0.9,2.4,3v9.3H243z"/>
		<path class="st6" d="M250.2,112.9c0,0.4,0.2,0.5,0.4,0.5c0.2,0,0.4-0.1,0.4-0.5v-1.8h2.7v1.6c0,1.8-0.6,3-3.1,3
			c-2.5,0-3.2-1.3-3.2-3v-6.4c0-1.8,0.7-3,3.2-3c2.4,0,3.1,1.2,3.1,3v3.7h-3.5V112.9z M250.2,108.1h0.8v-1.8c0-0.4-0.2-0.5-0.4-0.5
			c-0.2,0-0.4,0.1-0.4,0.5V108.1z"/>
		<path class="st6" d="M257.9,112.9c0,0.4,0.1,0.5,0.4,0.5c0.2,0,0.4-0.1,0.4-0.5v-0.6c0-2.3-3.5-2-3.5-5.6v-0.3c0-1.8,0.8-3,3.1-3
			c2.4,0,3.1,1.2,3.1,3v1h-2.7v-1c0-0.3-0.1-0.5-0.4-0.5c-0.2,0-0.4,0.2-0.4,0.5v0.5c0,2.3,3.5,1.7,3.5,5.4v0.7c0,1.8-0.8,3-3.1,3
			s-3.1-1.1-3.1-3v-1.2h2.7V112.9z"/>
		<path class="st6" d="M213.6,141.6c0,2-0.7,3.1-3.2,3.1c-0.4,0-0.9-0.1-1.3-0.2v-2.5c0.4,0.2,0.8,0.3,1.2,0.3s0.6-0.2,0.6-0.6
			v-12.9h2.8V141.6z M213.6,124.4v3.1h-2.8v-3.1H213.6z"/>
		<path class="st6" d="M218.2,137.9c0,0.4,0.2,0.5,0.4,0.5c0.2,0,0.4-0.1,0.4-0.5v-1.8h2.7v1.6c0,1.8-0.6,3-3.1,3
			c-2.5,0-3.2-1.3-3.2-3v-6.4c0-1.8,0.7-3,3.2-3c2.4,0,3.1,1.2,3.1,3v3.7h-3.5V137.9z M218.2,133.1h0.8v-1.8c0-0.4-0.2-0.5-0.4-0.5
			c-0.2,0-0.4,0.1-0.4,0.5V133.1z"/>
		<path class="st6" d="M226.8,124.8v3.8h1.6v2.4h-1.6v6.8c0,0.4,0.2,0.5,0.5,0.5c0.2,0,0.6,0,1.1-0.2v2.4c-0.3,0.2-1,0.3-1.3,0.3
			c-2.5,0-3.1-1.1-3.1-3v-6.8h-1.2v-2.4h1.2v-3L226.8,124.8z"/>
		<path class="st6" d="M232.6,137.9c0,0.4,0.2,0.5,0.4,0.5c0.2,0,0.4-0.1,0.4-0.5v-1.8h2.7v1.6c0,1.8-0.6,3-3.1,3
			c-2.5,0-3.2-1.3-3.2-3v-6.4c0-1.8,0.7-3,3.2-3c2.4,0,3.1,1.2,3.1,3v3.7h-3.5V137.9z M233.6,127.4H232l0.5-3.2h2.6L233.6,127.4z
			 M232.6,133.1h0.8v-1.8c0-0.4-0.2-0.5-0.4-0.5c-0.2,0-0.4,0.1-0.4,0.5V133.1z"/>
		<path class="st6" d="M240.5,137.9c0,0.4,0.2,0.5,0.4,0.5c0.2,0,0.4-0.1,0.4-0.5v-1.8h2.7v1.6c0,1.8-0.6,3-3.1,3
			c-2.5,0-3.2-1.3-3.2-3v-6.4c0-1.8,0.7-3,3.2-3c2.4,0,3.1,1.2,3.1,3v3.7h-3.5V137.9z M240.5,133.1h0.8v-1.8c0-0.4-0.2-0.5-0.4-0.5
			c-0.2,0-0.4,0.1-0.4,0.5V133.1z"/>
		<path class="st6" d="M248.2,137.9c0,0.4,0.1,0.5,0.4,0.5c0.2,0,0.4-0.1,0.4-0.5v-0.6c0-2.3-3.5-2-3.5-5.6v-0.3c0-1.8,0.8-3,3.1-3
			c2.4,0,3.1,1.2,3.1,3v1h-2.7v-1c0-0.3-0.1-0.5-0.4-0.5c-0.2,0-0.4,0.2-0.4,0.5v0.5c0,2.3,3.5,1.7,3.5,5.4v0.7c0,1.8-0.8,3-3.1,3
			s-3.1-1.1-3.1-3v-1.2h2.7V137.9z"/>
	</g>
	<g>
		<path class="st6" d="M240.4,155.6H236v-2c0-1.5-0.5-2-2-2h-6c-1.4,0-2,0.7-2,2v2h-4.4c-0.9,0-1.6,0.7-1.6,1.5
			c0,0.8,0.7,1.5,1.6,1.5h18.9c0.9,0,1.6-0.7,1.6-1.5C242.1,156.2,241.3,155.6,240.4,155.6z M234,155.6h-6l0-2h6V155.6z"/>
		<path class="st6" d="M223.1,179.6c0,0,0.4,2,2.8,2h10.4c2.3,0,2.8-2,2.8-2l2.1-20H221L223.1,179.6z M235,162.6c0-0.6,0.4-1,1-1
			c0.6,0,1,0.4,1,1l-1,15c0,0.6-0.4,1-1,1c-0.6,0-1-0.5-1-1L235,162.6z M230,162.6c0-0.6,0.4-1,1-1c0.6,0,1,0.4,1,1v15
			c0,0.6-0.4,1-1,1c-0.6,0-1-0.5-1-1V162.6z M226,161.6c0.6,0,1,0.4,1,1l1,15c0,0.6-0.4,1-1,1s-1-0.5-1-1l-1-15
			C225,162,225.5,161.6,226,161.6z"/>
	</g>
</g>
</svg>
